# Backhoe
# Generated by tools/generate_models.py

v 1.45000 0.00000 -1.90000
v 1.45000 0.75000 -1.90000
v 1.45000 0.75000 1.90000
v 1.45000 0.00000 1.90000
v 0.75000 0.00000 1.90000
v 0.75000 0.75000 1.90000
v 0.75000 0.75000 -1.90000
v 0.75000 0.00000 -1.90000
v 0.75000 0.75000 -1.90000
v 0.75000 0.75000 1.90000
v 1.45000 0.75000 1.90000
v 1.45000 0.75000 -1.90000
v 0.75000 0.00000 1.90000
v 0.75000 0.00000 -1.90000
v 1.45000 0.00000 -1.90000
v 1.45000 0.00000 1.90000
v 0.75000 0.00000 1.90000
v 1.45000 0.00000 1.90000
v 1.45000 0.75000 1.90000
v 0.75000 0.75000 1.90000
v 1.45000 0.00000 -1.90000
v 0.75000 0.00000 -1.90000
v 0.75000 0.75000 -1.90000
v 1.45000 0.75000 -1.90000
v 1.40000 0.20000 -2.05000
v 1.40000 0.55000 -2.05000
v 1.40000 0.55000 -1.90000
v 1.40000 0.20000 -1.90000
v 0.80000 0.20000 -1.90000
v 0.80000 0.55000 -1.90000
v 0.80000 0.55000 -2.05000
v 0.80000 0.20000 -2.05000
v 0.80000 0.55000 -2.05000
v 0.80000 0.55000 -1.90000
v 1.40000 0.55000 -1.90000
v 1.40000 0.55000 -2.05000
v 0.80000 0.20000 -1.90000
v 0.80000 0.20000 -2.05000
v 1.40000 0.20000 -2.05000
v 1.40000 0.20000 -1.90000
v 0.80000 0.20000 -1.90000
v 1.40000 0.20000 -1.90000
v 1.40000 0.55000 -1.90000
v 0.80000 0.55000 -1.90000
v 1.40000 0.20000 -2.05000
v 0.80000 0.20000 -2.05000
v 0.80000 0.55000 -2.05000
v 1.40000 0.55000 -2.05000
v 1.40000 0.20000 1.90000
v 1.40000 0.55000 1.90000
v 1.40000 0.55000 2.05000
v 1.40000 0.20000 2.05000
v 0.80000 0.20000 2.05000
v 0.80000 0.55000 2.05000
v 0.80000 0.55000 1.90000
v 0.80000 0.20000 1.90000
v 0.80000 0.55000 1.90000
v 0.80000 0.55000 2.05000
v 1.40000 0.55000 2.05000
v 1.40000 0.55000 1.90000
v 0.80000 0.20000 2.05000
v 0.80000 0.20000 1.90000
v 1.40000 0.20000 1.90000
v 1.40000 0.20000 2.05000
v 0.80000 0.20000 2.05000
v 1.40000 0.20000 2.05000
v 1.40000 0.55000 2.05000
v 0.80000 0.55000 2.05000
v 1.40000 0.20000 1.90000
v 0.80000 0.20000 1.90000
v 0.80000 0.55000 1.90000
v 1.40000 0.55000 1.90000
v -0.75000 0.00000 -1.90000
v -0.75000 0.75000 -1.90000
v -0.75000 0.75000 1.90000
v -0.75000 0.00000 1.90000
v -1.45000 0.00000 1.90000
v -1.45000 0.75000 1.90000
v -1.45000 0.75000 -1.90000
v -1.45000 0.00000 -1.90000
v -1.45000 0.75000 -1.90000
v -1.45000 0.75000 1.90000
v -0.75000 0.75000 1.90000
v -0.75000 0.75000 -1.90000
v -1.45000 0.00000 1.90000
v -1.45000 0.00000 -1.90000
v -0.75000 0.00000 -1.90000
v -0.75000 0.00000 1.90000
v -1.45000 0.00000 1.90000
v -0.75000 0.00000 1.90000
v -0.75000 0.75000 1.90000
v -1.45000 0.75000 1.90000
v -0.75000 0.00000 -1.90000
v -1.45000 0.00000 -1.90000
v -1.45000 0.75000 -1.90000
v -0.75000 0.75000 -1.90000
v -0.80000 0.20000 -2.05000
v -0.80000 0.55000 -2.05000
v -0.80000 0.55000 -1.90000
v -0.80000 0.20000 -1.90000
v -1.40000 0.20000 -1.90000
v -1.40000 0.55000 -1.90000
v -1.40000 0.55000 -2.05000
v -1.40000 0.20000 -2.05000
v -1.40000 0.55000 -2.05000
v -1.40000 0.55000 -1.90000
v -0.80000 0.55000 -1.90000
v -0.80000 0.55000 -2.05000
v -1.40000 0.20000 -1.90000
v -1.40000 0.20000 -2.05000
v -0.80000 0.20000 -2.05000
v -0.80000 0.20000 -1.90000
v -1.40000 0.20000 -1.90000
v -0.80000 0.20000 -1.90000
v -0.80000 0.55000 -1.90000
v -1.40000 0.55000 -1.90000
v -0.80000 0.20000 -2.05000
v -1.40000 0.20000 -2.05000
v -1.40000 0.55000 -2.05000
v -0.80000 0.55000 -2.05000
v -0.80000 0.20000 1.90000
v -0.80000 0.55000 1.90000
v -0.80000 0.55000 2.05000
v -0.80000 0.20000 2.05000
v -1.40000 0.20000 2.05000
v -1.40000 0.55000 2.05000
v -1.40000 0.55000 1.90000
v -1.40000 0.20000 1.90000
v -1.40000 0.55000 1.90000
v -1.40000 0.55000 2.05000
v -0.80000 0.55000 2.05000
v -0.80000 0.55000 1.90000
v -1.40000 0.20000 2.05000
v -1.40000 0.20000 1.90000
v -0.80000 0.20000 1.90000
v -0.80000 0.20000 2.05000
v -1.40000 0.20000 2.05000
v -0.80000 0.20000 2.05000
v -0.80000 0.55000 2.05000
v -1.40000 0.55000 2.05000
v -0.80000 0.20000 1.90000
v -1.40000 0.20000 1.90000
v -1.40000 0.55000 1.90000
v -0.80000 0.55000 1.90000
v 0.75000 0.25000 -1.20000
v 0.75000 0.70000 -1.20000
v 0.75000 0.70000 1.20000
v 0.75000 0.25000 1.20000
v -0.75000 0.25000 1.20000
v -0.75000 0.70000 1.20000
v -0.75000 0.70000 -1.20000
v -0.75000 0.25000 -1.20000
v -0.75000 0.70000 -1.20000
v -0.75000 0.70000 1.20000
v 0.75000 0.70000 1.20000
v 0.75000 0.70000 -1.20000
v -0.75000 0.25000 1.20000
v -0.75000 0.25000 -1.20000
v 0.75000 0.25000 -1.20000
v 0.75000 0.25000 1.20000
v -0.75000 0.25000 1.20000
v 0.75000 0.25000 1.20000
v 0.75000 0.70000 1.20000
v -0.75000 0.70000 1.20000
v 0.75000 0.25000 -1.20000
v -0.75000 0.25000 -1.20000
v -0.75000 0.70000 -1.20000
v 0.75000 0.70000 -1.20000
v 1.30000 0.80000 -1.90000
v 1.30000 1.00000 -1.90000
v 1.30000 1.00000 1.40000
v 1.30000 0.80000 1.40000
v -1.30000 0.80000 1.40000
v -1.30000 1.00000 1.40000
v -1.30000 1.00000 -1.90000
v -1.30000 0.80000 -1.90000
v -1.30000 1.00000 -1.90000
v -1.30000 1.00000 1.40000
v 1.30000 1.00000 1.40000
v 1.30000 1.00000 -1.90000
v -1.30000 0.80000 1.40000
v -1.30000 0.80000 -1.90000
v 1.30000 0.80000 -1.90000
v 1.30000 0.80000 1.40000
v -1.30000 0.80000 1.40000
v 1.30000 0.80000 1.40000
v 1.30000 1.00000 1.40000
v -1.30000 1.00000 1.40000
v 1.30000 0.80000 -1.90000
v -1.30000 0.80000 -1.90000
v -1.30000 1.00000 -1.90000
v 1.30000 1.00000 -1.90000
v 0.20000 1.00000 -1.90000
v 0.20000 1.90000 -1.90000
v 0.20000 1.90000 0.30000
v 0.20000 1.00000 0.30000
v -1.30000 1.00000 0.30000
v -1.30000 1.90000 0.30000
v -1.30000 1.90000 -1.90000
v -1.30000 1.00000 -1.90000
v -1.30000 1.90000 -1.90000
v -1.30000 1.90000 0.30000
v 0.20000 1.90000 0.30000
v 0.20000 1.90000 -1.90000
v -1.30000 1.00000 0.30000
v -1.30000 1.00000 -1.90000
v 0.20000 1.00000 -1.90000
v 0.20000 1.00000 0.30000
v -1.30000 1.00000 0.30000
v 0.20000 1.00000 0.30000
v 0.20000 1.90000 0.30000
v -1.30000 1.90000 0.30000
v 0.20000 1.00000 -1.90000
v -1.30000 1.00000 -1.90000
v -1.30000 1.90000 -1.90000
v 0.20000 1.90000 -1.90000
v 1.30000 0.90000 -2.25000
v 1.30000 1.70000 -2.25000
v 1.30000 1.70000 -1.90000
v 1.30000 0.90000 -1.90000
v -1.30000 0.90000 -1.90000
v -1.30000 1.70000 -1.90000
v -1.30000 1.70000 -2.25000
v -1.30000 0.90000 -2.25000
v -1.30000 1.70000 -2.25000
v -1.30000 1.70000 -1.90000
v 1.30000 1.70000 -1.90000
v 1.30000 1.70000 -2.25000
v -1.30000 0.90000 -1.90000
v -1.30000 0.90000 -2.25000
v 1.30000 0.90000 -2.25000
v 1.30000 0.90000 -1.90000
v -1.30000 0.90000 -1.90000
v 1.30000 0.90000 -1.90000
v 1.30000 1.70000 -1.90000
v -1.30000 1.70000 -1.90000
v 1.30000 0.90000 -2.25000
v -1.30000 0.90000 -2.25000
v -1.30000 1.70000 -2.25000
v 1.30000 1.70000 -2.25000
v 1.25000 1.00000 0.10000
v 1.25000 2.50000 0.10000
v 1.25000 2.50000 1.35000
v 1.25000 1.00000 1.35000
v 0.30000 1.00000 1.35000
v 0.30000 2.50000 1.35000
v 0.30000 2.50000 0.10000
v 0.30000 1.00000 0.10000
v 0.30000 2.50000 0.10000
v 0.30000 2.50000 1.35000
v 1.25000 2.50000 1.35000
v 1.25000 2.50000 0.10000
v 0.30000 1.00000 1.35000
v 0.30000 1.00000 0.10000
v 1.25000 1.00000 0.10000
v 1.25000 1.00000 1.35000
v 0.30000 1.00000 1.35000
v 1.25000 1.00000 1.35000
v 1.25000 2.50000 1.35000
v 0.30000 2.50000 1.35000
v 1.25000 1.00000 0.10000
v 0.30000 1.00000 0.10000
v 0.30000 2.50000 0.10000
v 1.25000 2.50000 0.10000
v 1.20000 1.67500 1.35000
v 1.20000 2.40000 1.35000
v 1.20000 2.40000 1.38000
v 1.20000 1.67500 1.38000
v 0.35000 1.67500 1.38000
v 0.35000 2.40000 1.38000
v 0.35000 2.40000 1.35000
v 0.35000 1.67500 1.35000
v 0.35000 2.40000 1.35000
v 0.35000 2.40000 1.38000
v 1.20000 2.40000 1.38000
v 1.20000 2.40000 1.35000
v 0.35000 1.67500 1.38000
v 0.35000 1.67500 1.35000
v 1.20000 1.67500 1.35000
v 1.20000 1.67500 1.38000
v 0.35000 1.67500 1.38000
v 1.20000 1.67500 1.38000
v 1.20000 2.40000 1.38000
v 0.35000 2.40000 1.38000
v 1.20000 1.67500 1.35000
v 0.35000 1.67500 1.35000
v 0.35000 2.40000 1.35000
v 1.20000 2.40000 1.35000
v 1.28000 1.67500 0.20000
v 1.28000 2.40000 0.20000
v 1.28000 2.40000 1.25000
v 1.28000 1.67500 1.25000
v 1.25000 1.67500 1.25000
v 1.25000 2.40000 1.25000
v 1.25000 2.40000 0.20000
v 1.25000 1.67500 0.20000
v 1.25000 2.40000 0.20000
v 1.25000 2.40000 1.25000
v 1.28000 2.40000 1.25000
v 1.28000 2.40000 0.20000
v 1.25000 1.67500 1.25000
v 1.25000 1.67500 0.20000
v 1.28000 1.67500 0.20000
v 1.28000 1.67500 1.25000
v 1.25000 1.67500 1.25000
v 1.28000 1.67500 1.25000
v 1.28000 2.40000 1.25000
v 1.25000 2.40000 1.25000
v 1.28000 1.67500 0.20000
v 1.25000 1.67500 0.20000
v 1.25000 2.40000 0.20000
v 1.28000 2.40000 0.20000
v 0.15000 1.00000 0.80000
v 0.15000 1.60000 0.80000
v 0.15000 1.60000 1.40000
v 0.15000 1.00000 1.40000
v -0.55000 1.00000 1.40000
v -0.55000 1.60000 1.40000
v -0.55000 1.60000 0.80000
v -0.55000 1.00000 0.80000
v -0.55000 1.60000 0.80000
v -0.55000 1.60000 1.40000
v 0.15000 1.60000 1.40000
v 0.15000 1.60000 0.80000
v -0.55000 1.00000 1.40000
v -0.55000 1.00000 0.80000
v 0.15000 1.00000 0.80000
v 0.15000 1.00000 1.40000
v -0.55000 1.00000 1.40000
v 0.15000 1.00000 1.40000
v 0.15000 1.60000 1.40000
v -0.55000 1.60000 1.40000
v 0.15000 1.00000 0.80000
v -0.55000 1.00000 0.80000
v -0.55000 1.60000 0.80000
v 0.15000 1.60000 0.80000
v 0.02500 1.10127 1.29009
v 0.02500 1.49873 0.90991
v 0.02500 3.69873 3.20991
v 0.02500 3.30127 3.59009
v -0.42500 3.30127 3.59009
v -0.42500 3.69873 3.20991
v -0.42500 1.49873 0.90991
v -0.42500 1.10127 1.29009
v -0.42500 1.49873 0.90991
v -0.42500 3.69873 3.20991
v 0.02500 3.69873 3.20991
v 0.02500 1.49873 0.90991
v -0.42500 3.30127 3.59009
v -0.42500 1.10127 1.29009
v 0.02500 1.10127 1.29009
v 0.02500 3.30127 3.59009
v -0.42500 3.30127 3.59009
v 0.02500 3.30127 3.59009
v 0.02500 3.69873 3.20991
v -0.42500 3.69873 3.20991
v 0.02500 1.10127 1.29009
v -0.42500 1.10127 1.29009
v -0.42500 1.49873 0.90991
v 0.02500 1.49873 0.90991
v -0.11000 1.45370 1.57717
v -0.11000 1.54630 1.42283
v -0.11000 2.79630 2.17283
v -0.11000 2.70370 2.32717
v -0.29000 2.70370 2.32717
v -0.29000 2.79630 2.17283
v -0.29000 1.54630 1.42283
v -0.29000 1.45370 1.57717
v -0.29000 1.54630 1.42283
v -0.29000 2.79630 2.17283
v -0.11000 2.79630 2.17283
v -0.11000 1.54630 1.42283
v -0.29000 2.70370 2.32717
v -0.29000 1.45370 1.57717
v -0.11000 1.45370 1.57717
v -0.11000 2.70370 2.32717
v -0.29000 2.70370 2.32717
v -0.11000 2.70370 2.32717
v -0.11000 2.79630 2.17283
v -0.29000 2.79630 2.17283
v -0.11000 1.45370 1.57717
v -0.29000 1.45370 1.57717
v -0.29000 1.54630 1.42283
v -0.11000 1.54630 1.42283
v -0.02500 3.40971 3.21040
v -0.02500 3.59029 3.58960
v -0.02500 1.49029 4.58960
v -0.02500 1.30971 4.21040
v -0.37500 1.30971 4.21040
v -0.37500 1.49029 4.58960
v -0.37500 3.59029 3.58960
v -0.37500 3.40971 3.21040
v -0.37500 3.59029 3.58960
v -0.37500 1.49029 4.58960
v -0.02500 1.49029 4.58960
v -0.02500 3.59029 3.58960
v -0.37500 1.30971 4.21040
v -0.37500 3.40971 3.21040
v -0.02500 3.40971 3.21040
v -0.02500 1.30971 4.21040
v -0.37500 1.30971 4.21040
v -0.02500 1.30971 4.21040
v -0.02500 1.49029 4.58960
v -0.37500 1.49029 4.58960
v -0.02500 3.40971 3.21040
v -0.37500 3.40971 3.21040
v -0.37500 3.59029 3.58960
v -0.02500 3.59029 3.58960
v -0.35000 3.39393 3.29393
v -0.35000 3.60607 3.50607
v -0.35000 4.05607 3.05607
v -0.35000 3.84393 2.84393
v -0.05000 3.84393 2.84393
v -0.05000 4.05607 3.05607
v -0.05000 3.60607 3.50607
v -0.05000 3.39393 3.29393
v -0.05000 3.60607 3.50607
v -0.05000 4.05607 3.05607
v -0.35000 4.05607 3.05607
v -0.35000 3.60607 3.50607
v -0.05000 3.84393 2.84393
v -0.05000 3.39393 3.29393
v -0.35000 3.39393 3.29393
v -0.35000 3.84393 2.84393
v -0.05000 3.84393 2.84393
v -0.35000 3.84393 2.84393
v -0.35000 4.05607 3.05607
v -0.05000 4.05607 3.05607
v -0.35000 3.39393 3.29393
v -0.05000 3.39393 3.29393
v -0.05000 3.60607 3.50607
v -0.35000 3.60607 3.50607
v -0.24000 1.14506 4.02918
v -0.16000 1.14506 4.02918
v -0.16000 0.34506 4.57918
v -0.24000 0.34506 4.57918
v -0.24000 0.85494 5.32082
v -0.16000 0.85494 5.32082
v -0.16000 1.65494 4.77082
v -0.24000 1.65494 4.77082
v -0.16000 1.65494 4.77082
v -0.16000 0.85494 5.32082
v -0.16000 0.34506 4.57918
v -0.16000 1.14506 4.02918
v -0.24000 0.85494 5.32082
v -0.24000 1.65494 4.77082
v -0.24000 1.14506 4.02918
v -0.24000 0.34506 4.57918
v -0.24000 0.85494 5.32082
v -0.24000 0.34506 4.57918
v -0.16000 0.34506 4.57918
v -0.16000 0.85494 5.32082
v -0.24000 1.14506 4.02918
v -0.24000 1.65494 4.77082
v -0.16000 1.65494 4.77082
v -0.16000 1.14506 4.02918
v -0.24000 1.03102 5.07931
v -0.16000 1.03102 5.07931
v -0.16000 1.18102 4.57931
v -0.24000 1.18102 4.57931
v -0.24000 0.31898 4.32069
v -0.16000 0.31898 4.32069
v -0.16000 0.16898 4.82069
v -0.24000 0.16898 4.82069
v -0.16000 0.16898 4.82069
v -0.16000 0.31898 4.32069
v -0.16000 1.18102 4.57931
v -0.16000 1.03102 5.07931
v -0.24000 0.31898 4.32069
v -0.24000 0.16898 4.82069
v -0.24000 1.03102 5.07931
v -0.24000 1.18102 4.57931
v -0.24000 0.31898 4.32069
v -0.24000 1.18102 4.57931
v -0.16000 1.18102 4.57931
v -0.16000 0.31898 4.32069
v -0.24000 1.03102 5.07931
v -0.24000 0.16898 4.82069
v -0.16000 0.16898 4.82069
v -0.16000 1.03102 5.07931
v 0.28000 0.60000 4.45000
v 0.28000 1.35000 4.45000
v 0.28000 1.35000 4.95000
v 0.28000 0.60000 4.95000
v 0.22000 0.60000 4.95000
v 0.22000 1.35000 4.95000
v 0.22000 1.35000 4.45000
v 0.22000 0.60000 4.45000
v 0.22000 1.35000 4.45000
v 0.22000 1.35000 4.95000
v 0.28000 1.35000 4.95000
v 0.28000 1.35000 4.45000
v 0.22000 0.60000 4.95000
v 0.22000 0.60000 4.45000
v 0.28000 0.60000 4.45000
v 0.28000 0.60000 4.95000
v 0.22000 0.60000 4.95000
v 0.28000 0.60000 4.95000
v 0.28000 1.35000 4.95000
v 0.22000 1.35000 4.95000
v 0.28000 0.60000 4.45000
v 0.22000 0.60000 4.45000
v 0.22000 1.35000 4.45000
v 0.28000 1.35000 4.45000
v -0.62000 0.60000 4.45000
v -0.62000 1.35000 4.45000
v -0.62000 1.35000 4.95000
v -0.62000 0.60000 4.95000
v -0.68000 0.60000 4.95000
v -0.68000 1.35000 4.95000
v -0.68000 1.35000 4.45000
v -0.68000 0.60000 4.45000
v -0.68000 1.35000 4.45000
v -0.68000 1.35000 4.95000
v -0.62000 1.35000 4.95000
v -0.62000 1.35000 4.45000
v -0.68000 0.60000 4.95000
v -0.68000 0.60000 4.45000
v -0.62000 0.60000 4.45000
v -0.62000 0.60000 4.95000
v -0.68000 0.60000 4.95000
v -0.62000 0.60000 4.95000
v -0.62000 1.35000 4.95000
v -0.68000 1.35000 4.95000
v -0.62000 0.60000 4.45000
v -0.68000 0.60000 4.45000
v -0.68000 1.35000 4.45000
v -0.62000 1.35000 4.45000
v 0.20000 0.52000 4.90000
v 0.20000 0.62000 4.90000
v 0.20000 0.62000 5.05000
v 0.20000 0.52000 5.05000
v -0.60000 0.52000 5.05000
v -0.60000 0.62000 5.05000
v -0.60000 0.62000 4.90000
v -0.60000 0.52000 4.90000
v -0.60000 0.62000 4.90000
v -0.60000 0.62000 5.05000
v 0.20000 0.62000 5.05000
v 0.20000 0.62000 4.90000
v -0.60000 0.52000 5.05000
v -0.60000 0.52000 4.90000
v 0.20000 0.52000 4.90000
v 0.20000 0.52000 5.05000
v -0.60000 0.52000 5.05000
v 0.20000 0.52000 5.05000
v 0.20000 0.62000 5.05000
v -0.60000 0.62000 5.05000
v 0.20000 0.52000 4.90000
v -0.60000 0.52000 4.90000
v -0.60000 0.62000 4.90000
v 0.20000 0.62000 4.90000
v 0.15000 0.70000 4.50000
v 0.15000 1.10000 4.50000
v 0.15000 1.10000 4.90000
v 0.15000 0.70000 4.90000
v -0.55000 0.70000 4.90000
v -0.55000 1.10000 4.90000
v -0.55000 1.10000 4.50000
v -0.55000 0.70000 4.50000
v -0.55000 1.10000 4.50000
v -0.55000 1.10000 4.90000
v 0.15000 1.10000 4.90000
v 0.15000 1.10000 4.50000
v -0.55000 0.70000 4.90000
v -0.55000 0.70000 4.50000
v 0.15000 0.70000 4.50000
v 0.15000 0.70000 4.90000
v -0.55000 0.70000 4.90000
v 0.15000 0.70000 4.90000
v 0.15000 1.10000 4.90000
v -0.55000 1.10000 4.90000
v 0.15000 0.70000 4.50000
v -0.55000 0.70000 4.50000
v -0.55000 1.10000 4.50000
v 0.15000 1.10000 4.50000
vt 0.18750 0.93750
vt 0.43750 0.93750
vt 0.06250 0.93750
vt 0.56250 0.93750
vt 0.31250 0.81250
vt 0.93750 0.93750
vn 1.00000 0.00000 0.00000
vn -1.00000 0.00000 0.00000
vn 0.00000 1.00000 0.00000
vn 0.00000 -1.00000 0.00000
vn 0.00000 0.00000 1.00000
vn 0.00000 0.00000 -1.00000
vn 1.00000 0.00000 0.00000
vn -1.00000 0.00000 0.00000
vn 0.00000 1.00000 0.00000
vn 0.00000 -1.00000 0.00000
vn 0.00000 0.00000 1.00000
vn 0.00000 0.00000 -1.00000
vn 1.00000 0.00000 0.00000
vn -1.00000 0.00000 0.00000
vn 0.00000 1.00000 0.00000
vn 0.00000 -1.00000 0.00000
vn 0.00000 0.00000 1.00000
vn 0.00000 0.00000 -1.00000
vn 1.00000 0.00000 0.00000
vn -1.00000 0.00000 0.00000
vn 0.00000 1.00000 0.00000
vn 0.00000 -1.00000 0.00000
vn 0.00000 0.00000 1.00000
vn 0.00000 0.00000 -1.00000
vn 1.00000 0.00000 0.00000
vn -1.00000 0.00000 0.00000
vn 0.00000 1.00000 0.00000
vn 0.00000 -1.00000 0.00000
vn 0.00000 0.00000 1.00000
vn 0.00000 0.00000 -1.00000
vn 1.00000 0.00000 0.00000
vn -1.00000 0.00000 0.00000
vn 0.00000 1.00000 0.00000
vn 0.00000 -1.00000 0.00000
vn 0.00000 0.00000 1.00000
vn 0.00000 0.00000 -1.00000
vn 1.00000 0.00000 0.00000
vn -1.00000 0.00000 0.00000
vn 0.00000 1.00000 0.00000
vn 0.00000 -1.00000 0.00000
vn 0.00000 0.00000 1.00000
vn 0.00000 0.00000 -1.00000
vn 1.00000 0.00000 0.00000
vn -1.00000 0.00000 0.00000
vn 0.00000 1.00000 0.00000
vn 0.00000 -1.00000 0.00000
vn 0.00000 0.00000 1.00000
vn 0.00000 0.00000 -1.00000
vn 1.00000 0.00000 0.00000
vn -1.00000 0.00000 0.00000
vn 0.00000 1.00000 0.00000
vn 0.00000 -1.00000 0.00000
vn 0.00000 0.00000 1.00000
vn 0.00000 0.00000 -1.00000
vn 1.00000 0.00000 0.00000
vn -1.00000 0.00000 0.00000
vn 0.00000 1.00000 0.00000
vn 0.00000 -1.00000 0.00000
vn 0.00000 0.00000 1.00000
vn 0.00000 0.00000 -1.00000
vn 1.00000 0.00000 0.00000
vn -1.00000 0.00000 0.00000
vn 0.00000 1.00000 0.00000
vn 0.00000 -1.00000 0.00000
vn 0.00000 0.00000 1.00000
vn 0.00000 0.00000 -1.00000
vn 1.00000 0.00000 0.00000
vn -1.00000 0.00000 0.00000
vn 0.00000 1.00000 0.00000
vn 0.00000 -1.00000 0.00000
vn 0.00000 0.00000 1.00000
vn 0.00000 0.00000 -1.00000
vn 1.00000 0.00000 0.00000
vn -1.00000 0.00000 0.00000
vn 0.00000 1.00000 0.00000
vn 0.00000 -1.00000 0.00000
vn 0.00000 0.00000 1.00000
vn 0.00000 0.00000 -1.00000
vn 1.00000 0.00000 0.00000
vn -1.00000 0.00000 0.00000
vn 0.00000 1.00000 0.00000
vn 0.00000 -1.00000 0.00000
vn 0.00000 0.00000 1.00000
vn 0.00000 0.00000 -1.00000
vn 1.00000 -0.00000 0.00000
vn -1.00000 0.00000 -0.00000
vn 0.00000 0.72264 -0.69122
vn 0.00000 -0.72264 0.69122
vn -0.00000 0.69122 0.72264
vn -0.00000 -0.69122 -0.72264
vn 1.00000 -0.00000 0.00000
vn -1.00000 0.00000 -0.00000
vn 0.00000 0.51450 -0.85749
vn 0.00000 -0.51450 0.85749
vn -0.00000 0.85749 0.51450
vn -0.00000 -0.85749 -0.51450
vn 1.00000 0.00000 -0.00000
vn -1.00000 0.00000 0.00000
vn 0.00000 0.42993 0.90286
vn 0.00000 -0.42993 -0.90286
vn 0.00000 -0.90286 0.42993
vn 0.00000 0.90286 -0.42993
vn -1.00000 0.00000 0.00000
vn 1.00000 0.00000 -0.00000
vn 0.00000 0.70711 0.70711
vn 0.00000 -0.70711 -0.70711
vn 0.00000 0.70711 -0.70711
vn 0.00000 -0.70711 0.70711
vn 0.00000 -0.56653 -0.82404
vn -0.00000 0.56653 0.82404
vn 1.00000 0.00000 0.00000
vn -1.00000 0.00000 0.00000
vn 0.00000 -0.82404 0.56653
vn 0.00000 0.82404 -0.56653
vn -0.00000 0.95783 0.28735
vn 0.00000 -0.95783 -0.28735
vn 1.00000 0.00000 0.00000
vn -1.00000 0.00000 0.00000
vn 0.00000 0.28735 -0.95783
vn 0.00000 -0.28735 0.95783
vn 1.00000 0.00000 0.00000
vn -1.00000 0.00000 0.00000
vn 0.00000 1.00000 0.00000
vn 0.00000 -1.00000 0.00000
vn 0.00000 0.00000 1.00000
vn 0.00000 0.00000 -1.00000
vn 1.00000 0.00000 0.00000
vn -1.00000 0.00000 0.00000
vn 0.00000 1.00000 0.00000
vn 0.00000 -1.00000 0.00000
vn 0.00000 0.00000 1.00000
vn 0.00000 0.00000 -1.00000
vn 1.00000 0.00000 0.00000
vn -1.00000 0.00000 0.00000
vn 0.00000 1.00000 0.00000
vn 0.00000 -1.00000 0.00000
vn 0.00000 0.00000 1.00000
vn 0.00000 0.00000 -1.00000
vn 1.00000 0.00000 0.00000
vn -1.00000 0.00000 0.00000
vn 0.00000 1.00000 0.00000
vn 0.00000 -1.00000 0.00000
vn 0.00000 0.00000 1.00000
vn 0.00000 0.00000 -1.00000
g body
f 1/1/1 2/1/1 3/1/1 4/1/1
f 5/1/2 6/1/2 7/1/2 8/1/2
f 9/1/3 10/1/3 11/1/3 12/1/3
f 13/1/4 14/1/4 15/1/4 16/1/4
f 17/1/5 18/1/5 19/1/5 20/1/5
f 21/1/6 22/1/6 23/1/6 24/1/6
f 25/2/7 26/2/7 27/2/7 28/2/7
f 29/2/8 30/2/8 31/2/8 32/2/8
f 33/2/9 34/2/9 35/2/9 36/2/9
f 37/2/10 38/2/10 39/2/10 40/2/10
f 41/2/11 42/2/11 43/2/11 44/2/11
f 45/2/12 46/2/12 47/2/12 48/2/12
f 49/2/13 50/2/13 51/2/13 52/2/13
f 53/2/14 54/2/14 55/2/14 56/2/14
f 57/2/15 58/2/15 59/2/15 60/2/15
f 61/2/16 62/2/16 63/2/16 64/2/16
f 65/2/17 66/2/17 67/2/17 68/2/17
f 69/2/18 70/2/18 71/2/18 72/2/18
f 73/1/19 74/1/19 75/1/19 76/1/19
f 77/1/20 78/1/20 79/1/20 80/1/20
f 81/1/21 82/1/21 83/1/21 84/1/21
f 85/1/22 86/1/22 87/1/22 88/1/22
f 89/1/23 90/1/23 91/1/23 92/1/23
f 93/1/24 94/1/24 95/1/24 96/1/24
f 97/2/25 98/2/25 99/2/25 100/2/25
f 101/2/26 102/2/26 103/2/26 104/2/26
f 105/2/27 106/2/27 107/2/27 108/2/27
f 109/2/28 110/2/28 111/2/28 112/2/28
f 113/2/29 114/2/29 115/2/29 116/2/29
f 117/2/30 118/2/30 119/2/30 120/2/30
f 121/2/31 122/2/31 123/2/31 124/2/31
f 125/2/32 126/2/32 127/2/32 128/2/32
f 129/2/33 130/2/33 131/2/33 132/2/33
f 133/2/34 134/2/34 135/2/34 136/2/34
f 137/2/35 138/2/35 139/2/35 140/2/35
f 141/2/36 142/2/36 143/2/36 144/2/36
f 145/2/37 146/2/37 147/2/37 148/2/37
f 149/2/38 150/2/38 151/2/38 152/2/38
f 153/2/39 154/2/39 155/2/39 156/2/39
f 157/2/40 158/2/40 159/2/40 160/2/40
f 161/2/41 162/2/41 163/2/41 164/2/41
f 165/2/42 166/2/42 167/2/42 168/2/42
g $upper
f 169/3/43 170/3/43 171/3/43 172/3/43
f 173/3/44 174/3/44 175/3/44 176/3/44
f 177/3/45 178/3/45 179/3/45 180/3/45
f 181/3/46 182/3/46 183/3/46 184/3/46
f 185/3/47 186/3/47 187/3/47 188/3/47
f 189/3/48 190/3/48 191/3/48 192/3/48
f 193/3/49 194/3/49 195/3/49 196/3/49
f 197/3/50 198/3/50 199/3/50 200/3/50
f 201/3/51 202/3/51 203/3/51 204/3/51
f 205/3/52 206/3/52 207/3/52 208/3/52
f 209/3/53 210/3/53 211/3/53 212/3/53
f 213/3/54 214/3/54 215/3/54 216/3/54
f 217/1/55 218/1/55 219/1/55 220/1/55
f 221/1/56 222/1/56 223/1/56 224/1/56
f 225/1/57 226/1/57 227/1/57 228/1/57
f 229/1/58 230/1/58 231/1/58 232/1/58
f 233/1/59 234/1/59 235/1/59 236/1/59
f 237/1/60 238/1/60 239/1/60 240/1/60
f 241/3/61 242/3/61 243/3/61 244/3/61
f 245/3/62 246/3/62 247/3/62 248/3/62
f 249/3/63 250/3/63 251/3/63 252/3/63
f 253/3/64 254/3/64 255/3/64 256/3/64
f 257/3/65 258/3/65 259/3/65 260/3/65
f 261/3/66 262/3/66 263/3/66 264/3/66
f 265/4/67 266/4/67 267/4/67 268/4/67
f 269/4/68 270/4/68 271/4/68 272/4/68
f 273/4/69 274/4/69 275/4/69 276/4/69
f 277/4/70 278/4/70 279/4/70 280/4/70
f 281/4/71 282/4/71 283/4/71 284/4/71
f 285/4/72 286/4/72 287/4/72 288/4/72
f 289/4/73 290/4/73 291/4/73 292/4/73
f 293/4/74 294/4/74 295/4/74 296/4/74
f 297/4/75 298/4/75 299/4/75 300/4/75
f 301/4/76 302/4/76 303/4/76 304/4/76
f 305/4/77 306/4/77 307/4/77 308/4/77
f 309/4/78 310/4/78 311/4/78 312/4/78
f 313/1/79 314/1/79 315/1/79 316/1/79
f 317/1/80 318/1/80 319/1/80 320/1/80
f 321/1/81 322/1/81 323/1/81 324/1/81
f 325/1/82 326/1/82 327/1/82 328/1/82
f 329/1/83 330/1/83 331/1/83 332/1/83
f 333/1/84 334/1/84 335/1/84 336/1/84
g $boom
f 337/3/85 338/3/85 339/3/85 340/3/85
f 341/3/86 342/3/86 343/3/86 344/3/86
f 345/3/87 346/3/87 347/3/87 348/3/87
f 349/3/88 350/3/88 351/3/88 352/3/88
f 353/3/89 354/3/89 355/3/89 356/3/89
f 357/3/90 358/3/90 359/3/90 360/3/90
f 361/5/91 362/5/91 363/5/91 364/5/91
f 365/5/92 366/5/92 367/5/92 368/5/92
f 369/5/93 370/5/93 371/5/93 372/5/93
f 373/5/94 374/5/94 375/5/94 376/5/94
f 377/5/95 378/5/95 379/5/95 380/5/95
f 381/5/96 382/5/96 383/5/96 384/5/96
g $arm
f 385/3/97 386/3/97 387/3/97 388/3/97
f 389/3/98 390/3/98 391/3/98 392/3/98
f 393/3/99 394/3/99 395/3/99 396/3/99
f 397/3/100 398/3/100 399/3/100 400/3/100
f 401/3/101 402/3/101 403/3/101 404/3/101
f 405/3/102 406/3/102 407/3/102 408/3/102
f 409/3/103 410/3/103 411/3/103 412/3/103
f 413/3/104 414/3/104 415/3/104 416/3/104
f 417/3/105 418/3/105 419/3/105 420/3/105
f 421/3/106 422/3/106 423/3/106 424/3/106
f 425/3/107 426/3/107 427/3/107 428/3/107
f 429/3/108 430/3/108 431/3/108 432/3/108
g $bucket
f 433/2/109 434/2/109 435/2/109 436/2/109
f 437/2/110 438/2/110 439/2/110 440/2/110
f 441/2/111 442/2/111 443/2/111 444/2/111
f 445/2/112 446/2/112 447/2/112 448/2/112
f 449/2/113 450/2/113 451/2/113 452/2/113
f 453/2/114 454/2/114 455/2/114 456/2/114
f 457/2/115 458/2/115 459/2/115 460/2/115
f 461/2/116 462/2/116 463/2/116 464/2/116
f 465/2/117 466/2/117 467/2/117 468/2/117
f 469/2/118 470/2/118 471/2/118 472/2/118
f 473/2/119 474/2/119 475/2/119 476/2/119
f 477/2/120 478/2/120 479/2/120 480/2/120
f 481/2/121 482/2/121 483/2/121 484/2/121
f 485/2/122 486/2/122 487/2/122 488/2/122
f 489/2/123 490/2/123 491/2/123 492/2/123
f 493/2/124 494/2/124 495/2/124 496/2/124
f 497/2/125 498/2/125 499/2/125 500/2/125
f 501/2/126 502/2/126 503/2/126 504/2/126
f 505/2/127 506/2/127 507/2/127 508/2/127
f 509/2/128 510/2/128 511/2/128 512/2/128
f 513/2/129 514/2/129 515/2/129 516/2/129
f 517/2/130 518/2/130 519/2/130 520/2/130
f 521/2/131 522/2/131 523/2/131 524/2/131
f 525/2/132 526/2/132 527/2/132 528/2/132
f 529/1/133 530/1/133 531/1/133 532/1/133
f 533/1/134 534/1/134 535/1/134 536/1/134
f 537/1/135 538/1/135 539/1/135 540/1/135
f 541/1/136 542/1/136 543/1/136 544/1/136
f 545/1/137 546/1/137 547/1/137 548/1/137
f 549/1/138 550/1/138 551/1/138 552/1/138
g $bucket_load
f 553/6/139 554/6/139 555/6/139 556/6/139
f 557/6/140 558/6/140 559/6/140 560/6/140
f 561/6/141 562/6/141 563/6/141 564/6/141
f 565/6/142 566/6/142 567/6/142 568/6/142
f 569/6/143 570/6/143 571/6/143 572/6/143
f 573/6/144 574/6/144 575/6/144 576/6/144
