# Dump truck
# Generated by tools/generate_models.py

v 0.60000 0.50000 -3.00000
v 0.60000 1.10000 -3.00000
v 0.60000 1.10000 3.40000
v 0.60000 0.50000 3.40000
v -0.60000 0.50000 3.40000
v -0.60000 1.10000 3.40000
v -0.60000 1.10000 -3.00000
v -0.60000 0.50000 -3.00000
v -0.60000 1.10000 -3.00000
v -0.60000 1.10000 3.40000
v 0.60000 1.10000 3.40000
v 0.60000 1.10000 -3.00000
v -0.60000 0.50000 3.40000
v -0.60000 0.50000 -3.00000
v 0.60000 0.50000 -3.00000
v 0.60000 0.50000 3.40000
v -0.60000 0.50000 3.40000
v 0.60000 0.50000 3.40000
v 0.60000 1.10000 3.40000
v -0.60000 1.10000 3.40000
v 0.60000 0.50000 -3.00000
v -0.60000 0.50000 -3.00000
v -0.60000 1.10000 -3.00000
v 0.60000 1.10000 -3.00000
v 1.20000 1.00000 1.60000
v 1.20000 3.00000 1.60000
v 1.20000 3.00000 3.40000
v 1.20000 1.00000 3.40000
v -1.20000 1.00000 3.40000
v -1.20000 3.00000 3.40000
v -1.20000 3.00000 1.60000
v -1.20000 1.00000 1.60000
v -1.20000 3.00000 1.60000
v -1.20000 3.00000 3.40000
v 1.20000 3.00000 3.40000
v 1.20000 3.00000 1.60000
v -1.20000 1.00000 3.40000
v -1.20000 1.00000 1.60000
v 1.20000 1.00000 1.60000
v 1.20000 1.00000 3.40000
v -1.20000 1.00000 3.40000
v 1.20000 1.00000 3.40000
v 1.20000 3.00000 3.40000
v -1.20000 3.00000 3.40000
v 1.20000 1.00000 1.60000
v -1.20000 1.00000 1.60000
v -1.20000 3.00000 1.60000
v 1.20000 3.00000 1.60000
v 1.15000 1.90000 3.40000
v 1.15000 2.90000 3.40000
v 1.15000 2.90000 3.43000
v 1.15000 1.90000 3.43000
v -1.15000 1.90000 3.43000
v -1.15000 2.90000 3.43000
v -1.15000 2.90000 3.40000
v -1.15000 1.90000 3.40000
v -1.15000 2.90000 3.40000
v -1.15000 2.90000 3.43000
v 1.15000 2.90000 3.43000
v 1.15000 2.90000 3.40000
v -1.15000 1.90000 3.43000
v -1.15000 1.90000 3.40000
v 1.15000 1.90000 3.40000
v 1.15000 1.90000 3.43000
v -1.15000 1.90000 3.43000
v 1.15000 1.90000 3.43000
v 1.15000 2.90000 3.43000
v -1.15000 2.90000 3.43000
v 1.15000 1.90000 3.40000
v -1.15000 1.90000 3.40000
v -1.15000 2.90000 3.40000
v 1.15000 2.90000 3.40000
v 1.23000 1.90000 1.70000
v 1.23000 2.90000 1.70000
v 1.23000 2.90000 3.30000
v 1.23000 1.90000 3.30000
v 1.20000 1.90000 3.30000
v 1.20000 2.90000 3.30000
v 1.20000 2.90000 1.70000
v 1.20000 1.90000 1.70000
v 1.20000 2.90000 1.70000
v 1.20000 2.90000 3.30000
v 1.23000 2.90000 3.30000
v 1.23000 2.90000 1.70000
v 1.20000 1.90000 3.30000
v 1.20000 1.90000 1.70000
v 1.23000 1.90000 1.70000
v 1.23000 1.90000 3.30000
v 1.20000 1.90000 3.30000
v 1.23000 1.90000 3.30000
v 1.23000 2.90000 3.30000
v 1.20000 2.90000 3.30000
v 1.23000 1.90000 1.70000
v 1.20000 1.90000 1.70000
v 1.20000 2.90000 1.70000
v 1.23000 2.90000 1.70000
v 0.87500 0.55000 1.85000
v 0.87500 0.87328 1.95504
v 1.32500 0.87328 1.95504
v 1.32500 0.55000 1.85000
v 0.87500 0.87328 1.95504
v 0.87500 1.07308 2.23004
v 1.32500 1.07308 2.23004
v 1.32500 0.87328 1.95504
v 0.87500 1.07308 2.23004
v 0.87500 1.07308 2.56996
v 1.32500 1.07308 2.56996
v 1.32500 1.07308 2.23004
v 0.87500 1.07308 2.56996
v 0.87500 0.87328 2.84496
v 1.32500 0.87328 2.84496
v 1.32500 1.07308 2.56996
v 0.87500 0.87328 2.84496
v 0.87500 0.55000 2.95000
v 1.32500 0.55000 2.95000
v 1.32500 0.87328 2.84496
v 0.87500 0.55000 2.95000
v 0.87500 0.22672 2.84496
v 1.32500 0.22672 2.84496
v 1.32500 0.55000 2.95000
v 0.87500 0.22672 2.84496
v 0.87500 0.02692 2.56996
v 1.32500 0.02692 2.56996
v 1.32500 0.22672 2.84496
v 0.87500 0.02692 2.56996
v 0.87500 0.02692 2.23004
v 1.32500 0.02692 2.23004
v 1.32500 0.02692 2.56996
v 0.87500 0.02692 2.23004
v 0.87500 0.22672 1.95504
v 1.32500 0.22672 1.95504
v 1.32500 0.02692 2.23004
v 0.87500 0.22672 1.95504
v 0.87500 0.55000 1.85000
v 1.32500 0.55000 1.85000
v 1.32500 0.22672 1.95504
v 0.87500 0.22672 1.95504
v 0.87500 0.02692 2.23004
v 0.87500 0.02692 2.56996
v 0.87500 0.22672 2.84496
v 0.87500 0.55000 2.95000
v 0.87500 0.87328 2.84496
v 0.87500 1.07308 2.56996
v 0.87500 1.07308 2.23004
v 0.87500 0.87328 1.95504
v 0.87500 0.55000 1.85000
v 1.32500 0.55000 1.85000
v 1.32500 0.87328 1.95504
v 1.32500 1.07308 2.23004
v 1.32500 1.07308 2.56996
v 1.32500 0.87328 2.84496
v 1.32500 0.55000 2.95000
v 1.32500 0.22672 2.84496
v 1.32500 0.02692 2.56996
v 1.32500 0.02692 2.23004
v 1.32500 0.22672 1.95504
v -1.32500 0.55000 1.85000
v -1.32500 0.87328 1.95504
v -0.87500 0.87328 1.95504
v -0.87500 0.55000 1.85000
v -1.32500 0.87328 1.95504
v -1.32500 1.07308 2.23004
v -0.87500 1.07308 2.23004
v -0.87500 0.87328 1.95504
v -1.32500 1.07308 2.23004
v -1.32500 1.07308 2.56996
v -0.87500 1.07308 2.56996
v -0.87500 1.07308 2.23004
v -1.32500 1.07308 2.56996
v -1.32500 0.87328 2.84496
v -0.87500 0.87328 2.84496
v -0.87500 1.07308 2.56996
v -1.32500 0.87328 2.84496
v -1.32500 0.55000 2.95000
v -0.87500 0.55000 2.95000
v -0.87500 0.87328 2.84496
v -1.32500 0.55000 2.95000
v -1.32500 0.22672 2.84496
v -0.87500 0.22672 2.84496
v -0.87500 0.55000 2.95000
v -1.32500 0.22672 2.84496
v -1.32500 0.02692 2.56996
v -0.87500 0.02692 2.56996
v -0.87500 0.22672 2.84496
v -1.32500 0.02692 2.56996
v -1.32500 0.02692 2.23004
v -0.87500 0.02692 2.23004
v -0.87500 0.02692 2.56996
v -1.32500 0.02692 2.23004
v -1.32500 0.22672 1.95504
v -0.87500 0.22672 1.95504
v -0.87500 0.02692 2.23004
v -1.32500 0.22672 1.95504
v -1.32500 0.55000 1.85000
v -0.87500 0.55000 1.85000
v -0.87500 0.22672 1.95504
v -1.32500 0.22672 1.95504
v -1.32500 0.02692 2.23004
v -1.32500 0.02692 2.56996
v -1.32500 0.22672 2.84496
v -1.32500 0.55000 2.95000
v -1.32500 0.87328 2.84496
v -1.32500 1.07308 2.56996
v -1.32500 1.07308 2.23004
v -1.32500 0.87328 1.95504
v -1.32500 0.55000 1.85000
v -0.87500 0.55000 1.85000
v -0.87500 0.87328 1.95504
v -0.87500 1.07308 2.23004
v -0.87500 1.07308 2.56996
v -0.87500 0.87328 2.84496
v -0.87500 0.55000 2.95000
v -0.87500 0.22672 2.84496
v -0.87500 0.02692 2.56996
v -0.87500 0.02692 2.23004
v -0.87500 0.22672 1.95504
v 0.87500 0.55000 -1.55000
v 0.87500 0.87328 -1.44496
v 1.32500 0.87328 -1.44496
v 1.32500 0.55000 -1.55000
v 0.87500 0.87328 -1.44496
v 0.87500 1.07308 -1.16996
v 1.32500 1.07308 -1.16996
v 1.32500 0.87328 -1.44496
v 0.87500 1.07308 -1.16996
v 0.87500 1.07308 -0.83004
v 1.32500 1.07308 -0.83004
v 1.32500 1.07308 -1.16996
v 0.87500 1.07308 -0.83004
v 0.87500 0.87328 -0.55504
v 1.32500 0.87328 -0.55504
v 1.32500 1.07308 -0.83004
v 0.87500 0.87328 -0.55504
v 0.87500 0.55000 -0.45000
v 1.32500 0.55000 -0.45000
v 1.32500 0.87328 -0.55504
v 0.87500 0.55000 -0.45000
v 0.87500 0.22672 -0.55504
v 1.32500 0.22672 -0.55504
v 1.32500 0.55000 -0.45000
v 0.87500 0.22672 -0.55504
v 0.87500 0.02692 -0.83004
v 1.32500 0.02692 -0.83004
v 1.32500 0.22672 -0.55504
v 0.87500 0.02692 -0.83004
v 0.87500 0.02692 -1.16996
v 1.32500 0.02692 -1.16996
v 1.32500 0.02692 -0.83004
v 0.87500 0.02692 -1.16996
v 0.87500 0.22672 -1.44496
v 1.32500 0.22672 -1.44496
v 1.32500 0.02692 -1.16996
v 0.87500 0.22672 -1.44496
v 0.87500 0.55000 -1.55000
v 1.32500 0.55000 -1.55000
v 1.32500 0.22672 -1.44496
v 0.87500 0.22672 -1.44496
v 0.87500 0.02692 -1.16996
v 0.87500 0.02692 -0.83004
v 0.87500 0.22672 -0.55504
v 0.87500 0.55000 -0.45000
v 0.87500 0.87328 -0.55504
v 0.87500 1.07308 -0.83004
v 0.87500 1.07308 -1.16996
v 0.87500 0.87328 -1.44496
v 0.87500 0.55000 -1.55000
v 1.32500 0.55000 -1.55000
v 1.32500 0.87328 -1.44496
v 1.32500 1.07308 -1.16996
v 1.32500 1.07308 -0.83004
v 1.32500 0.87328 -0.55504
v 1.32500 0.55000 -0.45000
v 1.32500 0.22672 -0.55504
v 1.32500 0.02692 -0.83004
v 1.32500 0.02692 -1.16996
v 1.32500 0.22672 -1.44496
v -1.32500 0.55000 -1.55000
v -1.32500 0.87328 -1.44496
v -0.87500 0.87328 -1.44496
v -0.87500 0.55000 -1.55000
v -1.32500 0.87328 -1.44496
v -1.32500 1.07308 -1.16996
v -0.87500 1.07308 -1.16996
v -0.87500 0.87328 -1.44496
v -1.32500 1.07308 -1.16996
v -1.32500 1.07308 -0.83004
v -0.87500 1.07308 -0.83004
v -0.87500 1.07308 -1.16996
v -1.32500 1.07308 -0.83004
v -1.32500 0.87328 -0.55504
v -0.87500 0.87328 -0.55504
v -0.87500 1.07308 -0.83004
v -1.32500 0.87328 -0.55504
v -1.32500 0.55000 -0.45000
v -0.87500 0.55000 -0.45000
v -0.87500 0.87328 -0.55504
v -1.32500 0.55000 -0.45000
v -1.32500 0.22672 -0.55504
v -0.87500 0.22672 -0.55504
v -0.87500 0.55000 -0.45000
v -1.32500 0.22672 -0.55504
v -1.32500 0.02692 -0.83004
v -0.87500 0.02692 -0.83004
v -0.87500 0.22672 -0.55504
v -1.32500 0.02692 -0.83004
v -1.32500 0.02692 -1.16996
v -0.87500 0.02692 -1.16996
v -0.87500 0.02692 -0.83004
v -1.32500 0.02692 -1.16996
v -1.32500 0.22672 -1.44496
v -0.87500 0.22672 -1.44496
v -0.87500 0.02692 -1.16996
v -1.32500 0.22672 -1.44496
v -1.32500 0.55000 -1.55000
v -0.87500 0.55000 -1.55000
v -0.87500 0.22672 -1.44496
v -1.32500 0.22672 -1.44496
v -1.32500 0.02692 -1.16996
v -1.32500 0.02692 -0.83004
v -1.32500 0.22672 -0.55504
v -1.32500 0.55000 -0.45000
v -1.32500 0.87328 -0.55504
v -1.32500 1.07308 -0.83004
v -1.32500 1.07308 -1.16996
v -1.32500 0.87328 -1.44496
v -1.32500 0.55000 -1.55000
v -0.87500 0.55000 -1.55000
v -0.87500 0.87328 -1.44496
v -0.87500 1.07308 -1.16996
v -0.87500 1.07308 -0.83004
v -0.87500 0.87328 -0.55504
v -0.87500 0.55000 -0.45000
v -0.87500 0.22672 -0.55504
v -0.87500 0.02692 -0.83004
v -0.87500 0.02692 -1.16996
v -0.87500 0.22672 -1.44496
v 0.87500 0.55000 -2.75000
v 0.87500 0.87328 -2.64496
v 1.32500 0.87328 -2.64496
v 1.32500 0.55000 -2.75000
v 0.87500 0.87328 -2.64496
v 0.87500 1.07308 -2.36996
v 1.32500 1.07308 -2.36996
v 1.32500 0.87328 -2.64496
v 0.87500 1.07308 -2.36996
v 0.87500 1.07308 -2.03004
v 1.32500 1.07308 -2.03004
v 1.32500 1.07308 -2.36996
v 0.87500 1.07308 -2.03004
v 0.87500 0.87328 -1.75504
v 1.32500 0.87328 -1.75504
v 1.32500 1.07308 -2.03004
v 0.87500 0.87328 -1.75504
v 0.87500 0.55000 -1.65000
v 1.32500 0.55000 -1.65000
v 1.32500 0.87328 -1.75504
v 0.87500 0.55000 -1.65000
v 0.87500 0.22672 -1.75504
v 1.32500 0.22672 -1.75504
v 1.32500 0.55000 -1.65000
v 0.87500 0.22672 -1.75504
v 0.87500 0.02692 -2.03004
v 1.32500 0.02692 -2.03004
v 1.32500 0.22672 -1.75504
v 0.87500 0.02692 -2.03004
v 0.87500 0.02692 -2.36996
v 1.32500 0.02692 -2.36996
v 1.32500 0.02692 -2.03004
v 0.87500 0.02692 -2.36996
v 0.87500 0.22672 -2.64496
v 1.32500 0.22672 -2.64496
v 1.32500 0.02692 -2.36996
v 0.87500 0.22672 -2.64496
v 0.87500 0.55000 -2.75000
v 1.32500 0.55000 -2.75000
v 1.32500 0.22672 -2.64496
v 0.87500 0.22672 -2.64496
v 0.87500 0.02692 -2.36996
v 0.87500 0.02692 -2.03004
v 0.87500 0.22672 -1.75504
v 0.87500 0.55000 -1.65000
v 0.87500 0.87328 -1.75504
v 0.87500 1.07308 -2.03004
v 0.87500 1.07308 -2.36996
v 0.87500 0.87328 -2.64496
v 0.87500 0.55000 -2.75000
v 1.32500 0.55000 -2.75000
v 1.32500 0.87328 -2.64496
v 1.32500 1.07308 -2.36996
v 1.32500 1.07308 -2.03004
v 1.32500 0.87328 -1.75504
v 1.32500 0.55000 -1.65000
v 1.32500 0.22672 -1.75504
v 1.32500 0.02692 -2.03004
v 1.32500 0.02692 -2.36996
v 1.32500 0.22672 -2.64496
v -1.32500 0.55000 -2.75000
v -1.32500 0.87328 -2.64496
v -0.87500 0.87328 -2.64496
v -0.87500 0.55000 -2.75000
v -1.32500 0.87328 -2.64496
v -1.32500 1.07308 -2.36996
v -0.87500 1.07308 -2.36996
v -0.87500 0.87328 -2.64496
v -1.32500 1.07308 -2.36996
v -1.32500 1.07308 -2.03004
v -0.87500 1.07308 -2.03004
v -0.87500 1.07308 -2.36996
v -1.32500 1.07308 -2.03004
v -1.32500 0.87328 -1.75504
v -0.87500 0.87328 -1.75504
v -0.87500 1.07308 -2.03004
v -1.32500 0.87328 -1.75504
v -1.32500 0.55000 -1.65000
v -0.87500 0.55000 -1.65000
v -0.87500 0.87328 -1.75504
v -1.32500 0.55000 -1.65000
v -1.32500 0.22672 -1.75504
v -0.87500 0.22672 -1.75504
v -0.87500 0.55000 -1.65000
v -1.32500 0.22672 -1.75504
v -1.32500 0.02692 -2.03004
v -0.87500 0.02692 -2.03004
v -0.87500 0.22672 -1.75504
v -1.32500 0.02692 -2.03004
v -1.32500 0.02692 -2.36996
v -0.87500 0.02692 -2.36996
v -0.87500 0.02692 -2.03004
v -1.32500 0.02692 -2.36996
v -1.32500 0.22672 -2.64496
v -0.87500 0.22672 -2.64496
v -0.87500 0.02692 -2.36996
v -1.32500 0.22672 -2.64496
v -1.32500 0.55000 -2.75000
v -0.87500 0.55000 -2.75000
v -0.87500 0.22672 -2.64496
v -1.32500 0.22672 -2.64496
v -1.32500 0.02692 -2.36996
v -1.32500 0.02692 -2.03004
v -1.32500 0.22672 -1.75504
v -1.32500 0.55000 -1.65000
v -1.32500 0.87328 -1.75504
v -1.32500 1.07308 -2.03004
v -1.32500 1.07308 -2.36996
v -1.32500 0.87328 -2.64496
v -1.32500 0.55000 -2.75000
v -0.87500 0.55000 -2.75000
v -0.87500 0.87328 -2.64496
v -0.87500 1.07308 -2.36996
v -0.87500 1.07308 -2.03004
v -0.87500 0.87328 -1.75504
v -0.87500 0.55000 -1.65000
v -0.87500 0.22672 -1.75504
v -0.87500 0.02692 -2.03004
v -0.87500 0.02692 -2.36996
v -0.87500 0.22672 -2.64496
v 1.20000 1.30000 -2.90000
v 1.20000 1.45000 -2.90000
v 1.20000 1.45000 1.30000
v 1.20000 1.30000 1.30000
v -1.20000 1.30000 1.30000
v -1.20000 1.45000 1.30000
v -1.20000 1.45000 -2.90000
v -1.20000 1.30000 -2.90000
v -1.20000 1.45000 -2.90000
v -1.20000 1.45000 1.30000
v 1.20000 1.45000 1.30000
v 1.20000 1.45000 -2.90000
v -1.20000 1.30000 1.30000
v -1.20000 1.30000 -2.90000
v 1.20000 1.30000 -2.90000
v 1.20000 1.30000 1.30000
v -1.20000 1.30000 1.30000
v 1.20000 1.30000 1.30000
v 1.20000 1.45000 1.30000
v -1.20000 1.45000 1.30000
v 1.20000 1.30000 -2.90000
v -1.20000 1.30000 -2.90000
v -1.20000 1.45000 -2.90000
v 1.20000 1.45000 -2.90000
v 1.20000 1.45000 -2.90000
v 1.20000 2.40000 -2.90000
v 1.20000 2.40000 1.30000
v 1.20000 1.45000 1.30000
v 1.10000 1.45000 1.30000
v 1.10000 2.40000 1.30000
v 1.10000 2.40000 -2.90000
v 1.10000 1.45000 -2.90000
v 1.10000 2.40000 -2.90000
v 1.10000 2.40000 1.30000
v 1.20000 2.40000 1.30000
v 1.20000 2.40000 -2.90000
v 1.10000 1.45000 1.30000
v 1.10000 1.45000 -2.90000
v 1.20000 1.45000 -2.90000
v 1.20000 1.45000 1.30000
v 1.10000 1.45000 1.30000
v 1.20000 1.45000 1.30000
v 1.20000 2.40000 1.30000
v 1.10000 2.40000 1.30000
v 1.20000 1.45000 -2.90000
v 1.10000 1.45000 -2.90000
v 1.10000 2.40000 -2.90000
v 1.20000 2.40000 -2.90000
v -1.10000 1.45000 -2.90000
v -1.10000 2.40000 -2.90000
v -1.10000 2.40000 1.30000
v -1.10000 1.45000 1.30000
v -1.20000 1.45000 1.30000
v -1.20000 2.40000 1.30000
v -1.20000 2.40000 -2.90000
v -1.20000 1.45000 -2.90000
v -1.20000 2.40000 -2.90000
v -1.20000 2.40000 1.30000
v -1.10000 2.40000 1.30000
v -1.10000 2.40000 -2.90000
v -1.20000 1.45000 1.30000
v -1.20000 1.45000 -2.90000
v -1.10000 1.45000 -2.90000
v -1.10000 1.45000 1.30000
v -1.20000 1.45000 1.30000
v -1.10000 1.45000 1.30000
v -1.10000 2.40000 1.30000
v -1.20000 2.40000 1.30000
v -1.10000 1.45000 -2.90000
v -1.20000 1.45000 -2.90000
v -1.20000 2.40000 -2.90000
v -1.10000 2.40000 -2.90000
v 1.20000 1.45000 1.20000
v 1.20000 2.60000 1.20000
v 1.20000 2.60000 1.30000
v 1.20000 1.45000 1.30000
v -1.20000 1.45000 1.30000
v -1.20000 2.60000 1.30000
v -1.20000 2.60000 1.20000
v -1.20000 1.45000 1.20000
v -1.20000 2.60000 1.20000
v -1.20000 2.60000 1.30000
v 1.20000 2.60000 1.30000
v 1.20000 2.60000 1.20000
v -1.20000 1.45000 1.30000
v -1.20000 1.45000 1.20000
v 1.20000 1.45000 1.20000
v 1.20000 1.45000 1.30000
v -1.20000 1.45000 1.30000
v 1.20000 1.45000 1.30000
v 1.20000 2.60000 1.30000
v -1.20000 2.60000 1.30000
v 1.20000 1.45000 1.20000
v -1.20000 1.45000 1.20000
v -1.20000 2.60000 1.20000
v 1.20000 2.60000 1.20000
v 1.20000 1.45000 -2.95000
v 1.20000 2.30000 -2.95000
v 1.20000 2.30000 -2.85000
v 1.20000 1.45000 -2.85000
v -1.20000 1.45000 -2.85000
v -1.20000 2.30000 -2.85000
v -1.20000 2.30000 -2.95000
v -1.20000 1.45000 -2.95000
v -1.20000 2.30000 -2.95000
v -1.20000 2.30000 -2.85000
v 1.20000 2.30000 -2.85000
v 1.20000 2.30000 -2.95000
v -1.20000 1.45000 -2.85000
v -1.20000 1.45000 -2.95000
v 1.20000 1.45000 -2.95000
v 1.20000 1.45000 -2.85000
v -1.20000 1.45000 -2.85000
v 1.20000 1.45000 -2.85000
v 1.20000 2.30000 -2.85000
v -1.20000 2.30000 -2.85000
v 1.20000 1.45000 -2.95000
v -1.20000 1.45000 -2.95000
v -1.20000 2.30000 -2.95000
v 1.20000 2.30000 -2.95000
v 1.10000 1.45000 -2.80000
v 1.10000 2.35000 -2.80000
v 1.10000 2.35000 1.20000
v 1.10000 1.45000 1.20000
v -1.10000 1.45000 1.20000
v -1.10000 2.35000 1.20000
v -1.10000 2.35000 -2.80000
v -1.10000 1.45000 -2.80000
v -1.10000 2.35000 -2.80000
v -1.10000 2.35000 1.20000
v 1.10000 2.35000 1.20000
v 1.10000 2.35000 -2.80000
v -1.10000 1.45000 1.20000
v -1.10000 1.45000 -2.80000
v 1.10000 1.45000 -2.80000
v 1.10000 1.45000 1.20000
v -1.10000 1.45000 1.20000
v 1.10000 1.45000 1.20000
v 1.10000 2.35000 1.20000
v -1.10000 2.35000 1.20000
v 1.10000 1.45000 -2.80000
v -1.10000 1.45000 -2.80000
v -1.10000 2.35000 -2.80000
v 1.10000 2.35000 -2.80000
vt 0.18750 0.93750
vt 0.68750 0.93750
vt 0.56250 0.93750
vt 0.31250 0.93750
vt 0.06250 0.93750
vt 0.43750 0.93750
vt 0.93750 0.93750
vn 1.00000 0.00000 0.00000
vn -1.00000 0.00000 0.00000
vn 0.00000 1.00000 0.00000
vn 0.00000 -1.00000 0.00000
vn 0.00000 0.00000 1.00000
vn 0.00000 0.00000 -1.00000
vn 1.00000 0.00000 0.00000
vn -1.00000 0.00000 0.00000
vn 0.00000 1.00000 0.00000
vn 0.00000 -1.00000 0.00000
vn 0.00000 0.00000 1.00000
vn 0.00000 0.00000 -1.00000
vn 1.00000 0.00000 0.00000
vn -1.00000 0.00000 0.00000
vn 0.00000 1.00000 0.00000
vn 0.00000 -1.00000 0.00000
vn 0.00000 0.00000 1.00000
vn 0.00000 0.00000 -1.00000
vn 1.00000 0.00000 0.00000
vn -1.00000 0.00000 0.00000
vn 0.00000 1.00000 0.00000
vn 0.00000 -1.00000 0.00000
vn 0.00000 0.00000 1.00000
vn 0.00000 0.00000 -1.00000
vn 0.00000 0.30902 -0.95106
vn 0.00000 0.80902 -0.58779
vn 0.00000 1.00000 0.00000
vn 0.00000 0.80902 0.58779
vn 0.00000 0.30902 0.95106
vn 0.00000 -0.30902 0.95106
vn 0.00000 -0.80902 0.58779
vn 0.00000 -1.00000 0.00000
vn 0.00000 -0.80902 -0.58779
vn 0.00000 -0.30902 -0.95106
vn -1.00000 0.00000 0.00000
vn 1.00000 0.00000 0.00000
vn 0.00000 0.30902 -0.95106
vn 0.00000 0.80902 -0.58779
vn 0.00000 1.00000 0.00000
vn 0.00000 0.80902 0.58779
vn 0.00000 0.30902 0.95106
vn 0.00000 -0.30902 0.95106
vn 0.00000 -0.80902 0.58779
vn 0.00000 -1.00000 0.00000
vn 0.00000 -0.80902 -0.58779
vn 0.00000 -0.30902 -0.95106
vn -1.00000 0.00000 0.00000
vn 1.00000 0.00000 0.00000
vn 0.00000 0.30902 -0.95106
vn 0.00000 0.80902 -0.58779
vn 0.00000 1.00000 0.00000
vn 0.00000 0.80902 0.58779
vn 0.00000 0.30902 0.95106
vn 0.00000 -0.30902 0.95106
vn 0.00000 -0.80902 0.58779
vn 0.00000 -1.00000 0.00000
vn 0.00000 -0.80902 -0.58779
vn 0.00000 -0.30902 -0.95106
vn -1.00000 0.00000 0.00000
vn 1.00000 0.00000 0.00000
vn 0.00000 0.30902 -0.95106
vn 0.00000 0.80902 -0.58779
vn 0.00000 1.00000 0.00000
vn 0.00000 0.80902 0.58779
vn 0.00000 0.30902 0.95106
vn 0.00000 -0.30902 0.95106
vn 0.00000 -0.80902 0.58779
vn 0.00000 -1.00000 0.00000
vn 0.00000 -0.80902 -0.58779
vn 0.00000 -0.30902 -0.95106
vn -1.00000 0.00000 0.00000
vn 1.00000 0.00000 0.00000
vn 0.00000 0.30902 -0.95106
vn 0.00000 0.80902 -0.58779
vn 0.00000 1.00000 0.00000
vn 0.00000 0.80902 0.58779
vn 0.00000 0.30902 0.95106
vn 0.00000 -0.30902 0.95106
vn 0.00000 -0.80902 0.58779
vn 0.00000 -1.00000 0.00000
vn 0.00000 -0.80902 -0.58779
vn 0.00000 -0.30902 -0.95106
vn -1.00000 0.00000 0.00000
vn 1.00000 0.00000 0.00000
vn 0.00000 0.30902 -0.95106
vn 0.00000 0.80902 -0.58779
vn 0.00000 1.00000 0.00000
vn 0.00000 0.80902 0.58779
vn 0.00000 0.30902 0.95106
vn 0.00000 -0.30902 0.95106
vn 0.00000 -0.80902 0.58779
vn 0.00000 -1.00000 0.00000
vn 0.00000 -0.80902 -0.58779
vn 0.00000 -0.30902 -0.95106
vn -1.00000 0.00000 0.00000
vn 1.00000 0.00000 0.00000
vn 1.00000 0.00000 0.00000
vn -1.00000 0.00000 0.00000
vn 0.00000 1.00000 0.00000
vn 0.00000 -1.00000 0.00000
vn 0.00000 0.00000 1.00000
vn 0.00000 0.00000 -1.00000
vn 1.00000 0.00000 0.00000
vn -1.00000 0.00000 0.00000
vn 0.00000 1.00000 0.00000
vn 0.00000 -1.00000 0.00000
vn 0.00000 0.00000 1.00000
vn 0.00000 0.00000 -1.00000
vn 1.00000 0.00000 0.00000
vn -1.00000 0.00000 0.00000
vn 0.00000 1.00000 0.00000
vn 0.00000 -1.00000 0.00000
vn 0.00000 0.00000 1.00000
vn 0.00000 0.00000 -1.00000
vn 1.00000 0.00000 0.00000
vn -1.00000 0.00000 0.00000
vn 0.00000 1.00000 0.00000
vn 0.00000 -1.00000 0.00000
vn 0.00000 0.00000 1.00000
vn 0.00000 0.00000 -1.00000
vn 1.00000 0.00000 0.00000
vn -1.00000 0.00000 0.00000
vn 0.00000 1.00000 0.00000
vn 0.00000 -1.00000 0.00000
vn 0.00000 0.00000 1.00000
vn 0.00000 0.00000 -1.00000
vn 1.00000 0.00000 0.00000
vn -1.00000 0.00000 0.00000
vn 0.00000 1.00000 0.00000
vn 0.00000 -1.00000 0.00000
vn 0.00000 0.00000 1.00000
vn 0.00000 0.00000 -1.00000
g body
f 1/1/1 2/1/1 3/1/1 4/1/1
f 5/1/2 6/1/2 7/1/2 8/1/2
f 9/1/3 10/1/3 11/1/3 12/1/3
f 13/1/4 14/1/4 15/1/4 16/1/4
f 17/1/5 18/1/5 19/1/5 20/1/5
f 21/1/6 22/1/6 23/1/6 24/1/6
f 25/2/7 26/2/7 27/2/7 28/2/7
f 29/2/8 30/2/8 31/2/8 32/2/8
f 33/2/9 34/2/9 35/2/9 36/2/9
f 37/2/10 38/2/10 39/2/10 40/2/10
f 41/2/11 42/2/11 43/2/11 44/2/11
f 45/2/12 46/2/12 47/2/12 48/2/12
f 49/3/13 50/3/13 51/3/13 52/3/13
f 53/3/14 54/3/14 55/3/14 56/3/14
f 57/3/15 58/3/15 59/3/15 60/3/15
f 61/3/16 62/3/16 63/3/16 64/3/16
f 65/3/17 66/3/17 67/3/17 68/3/17
f 69/3/18 70/3/18 71/3/18 72/3/18
f 73/3/19 74/3/19 75/3/19 76/3/19
f 77/3/20 78/3/20 79/3/20 80/3/20
f 81/3/21 82/3/21 83/3/21 84/3/21
f 85/3/22 86/3/22 87/3/22 88/3/22
f 89/3/23 90/3/23 91/3/23 92/3/23
f 93/3/24 94/3/24 95/3/24 96/3/24
g $wheel0
f 97/4/25 98/4/25 99/4/25 100/4/25
f 101/1/26 102/1/26 103/1/26 104/1/26
f 105/4/27 106/4/27 107/4/27 108/4/27
f 109/1/28 110/1/28 111/1/28 112/1/28
f 113/4/29 114/4/29 115/4/29 116/4/29
f 117/1/30 118/1/30 119/1/30 120/1/30
f 121/4/31 122/4/31 123/4/31 124/4/31
f 125/1/32 126/1/32 127/1/32 128/1/32
f 129/4/33 130/4/33 131/4/33 132/4/33
f 133/1/34 134/1/34 135/1/34 136/1/34
f 137/4/35 138/4/35 139/4/35 140/4/35 141/4/35 142/4/35 143/4/35 144/4/35 145/4/35 146/4/35
f 147/4/36 148/4/36 149/4/36 150/4/36 151/4/36 152/4/36 153/4/36 154/4/36 155/4/36 156/4/36
g $wheel1
f 157/4/37 158/4/37 159/4/37 160/4/37
f 161/1/38 162/1/38 163/1/38 164/1/38
f 165/4/39 166/4/39 167/4/39 168/4/39
f 169/1/40 170/1/40 171/1/40 172/1/40
f 173/4/41 174/4/41 175/4/41 176/4/41
f 177/1/42 178/1/42 179/1/42 180/1/42
f 181/4/43 182/4/43 183/4/43 184/4/43
f 185/1/44 186/1/44 187/1/44 188/1/44
f 189/4/45 190/4/45 191/4/45 192/4/45
f 193/1/46 194/1/46 195/1/46 196/1/46
f 197/4/47 198/4/47 199/4/47 200/4/47 201/4/47 202/4/47 203/4/47 204/4/47 205/4/47 206/4/47
f 207/4/48 208/4/48 209/4/48 210/4/48 211/4/48 212/4/48 213/4/48 214/4/48 215/4/48 216/4/48
g $wheel2
f 217/4/49 218/4/49 219/4/49 220/4/49
f 221/1/50 222/1/50 223/1/50 224/1/50
f 225/4/51 226/4/51 227/4/51 228/4/51
f 229/1/52 230/1/52 231/1/52 232/1/52
f 233/4/53 234/4/53 235/4/53 236/4/53
f 237/1/54 238/1/54 239/1/54 240/1/54
f 241/4/55 242/4/55 243/4/55 244/4/55
f 245/1/56 246/1/56 247/1/56 248/1/56
f 249/4/57 250/4/57 251/4/57 252/4/57
f 253/1/58 254/1/58 255/1/58 256/1/58
f 257/4/59 258/4/59 259/4/59 260/4/59 261/4/59 262/4/59 263/4/59 264/4/59 265/4/59 266/4/59
f 267/4/60 268/4/60 269/4/60 270/4/60 271/4/60 272/4/60 273/4/60 274/4/60 275/4/60 276/4/60
g $wheel3
f 277/4/61 278/4/61 279/4/61 280/4/61
f 281/1/62 282/1/62 283/1/62 284/1/62
f 285/4/63 286/4/63 287/4/63 288/4/63
f 289/1/64 290/1/64 291/1/64 292/1/64
f 293/4/65 294/4/65 295/4/65 296/4/65
f 297/1/66 298/1/66 299/1/66 300/1/66
f 301/4/67 302/4/67 303/4/67 304/4/67
f 305/1/68 306/1/68 307/1/68 308/1/68
f 309/4/69 310/4/69 311/4/69 312/4/69
f 313/1/70 314/1/70 315/1/70 316/1/70
f 317/4/71 318/4/71 319/4/71 320/4/71 321/4/71 322/4/71 323/4/71 324/4/71 325/4/71 326/4/71
f 327/4/72 328/4/72 329/4/72 330/4/72 331/4/72 332/4/72 333/4/72 334/4/72 335/4/72 336/4/72
g $wheel4
f 337/4/73 338/4/73 339/4/73 340/4/73
f 341/1/74 342/1/74 343/1/74 344/1/74
f 345/4/75 346/4/75 347/4/75 348/4/75
f 349/1/76 350/1/76 351/1/76 352/1/76
f 353/4/77 354/4/77 355/4/77 356/4/77
f 357/1/78 358/1/78 359/1/78 360/1/78
f 361/4/79 362/4/79 363/4/79 364/4/79
f 365/1/80 366/1/80 367/1/80 368/1/80
f 369/4/81 370/4/81 371/4/81 372/4/81
f 373/1/82 374/1/82 375/1/82 376/1/82
f 377/4/83 378/4/83 379/4/83 380/4/83 381/4/83 382/4/83 383/4/83 384/4/83 385/4/83 386/4/83
f 387/4/84 388/4/84 389/4/84 390/4/84 391/4/84 392/4/84 393/4/84 394/4/84 395/4/84 396/4/84
g $wheel5
f 397/4/85 398/4/85 399/4/85 400/4/85
f 401/1/86 402/1/86 403/1/86 404/1/86
f 405/4/87 406/4/87 407/4/87 408/4/87
f 409/1/88 410/1/88 411/1/88 412/1/88
f 413/4/89 414/4/89 415/4/89 416/4/89
f 417/1/90 418/1/90 419/1/90 420/1/90
f 421/4/91 422/4/91 423/4/91 424/4/91
f 425/1/92 426/1/92 427/1/92 428/1/92
f 429/4/93 430/4/93 431/4/93 432/4/93
f 433/1/94 434/1/94 435/1/94 436/1/94
f 437/4/95 438/4/95 439/4/95 440/4/95 441/4/95 442/4/95 443/4/95 444/4/95 445/4/95 446/4/95
f 447/4/96 448/4/96 449/4/96 450/4/96 451/4/96 452/4/96 453/4/96 454/4/96 455/4/96 456/4/96
g $bed
f 457/5/97 458/5/97 459/5/97 460/5/97
f 461/5/98 462/5/98 463/5/98 464/5/98
f 465/5/99 466/5/99 467/5/99 468/5/99
f 469/5/100 470/5/100 471/5/100 472/5/100
f 473/5/101 474/5/101 475/5/101 476/5/101
f 477/5/102 478/5/102 479/5/102 480/5/102
f 481/5/103 482/5/103 483/5/103 484/5/103
f 485/5/104 486/5/104 487/5/104 488/5/104
f 489/5/105 490/5/105 491/5/105 492/5/105
f 493/5/106 494/5/106 495/5/106 496/5/106
f 497/5/107 498/5/107 499/5/107 500/5/107
f 501/5/108 502/5/108 503/5/108 504/5/108
f 505/5/109 506/5/109 507/5/109 508/5/109
f 509/5/110 510/5/110 511/5/110 512/5/110
f 513/5/111 514/5/111 515/5/111 516/5/111
f 517/5/112 518/5/112 519/5/112 520/5/112
f 521/5/113 522/5/113 523/5/113 524/5/113
f 525/5/114 526/5/114 527/5/114 528/5/114
f 529/5/115 530/5/115 531/5/115 532/5/115
f 533/5/116 534/5/116 535/5/116 536/5/116
f 537/5/117 538/5/117 539/5/117 540/5/117
f 541/5/118 542/5/118 543/5/118 544/5/118
f 545/5/119 546/5/119 547/5/119 548/5/119
f 549/5/120 550/5/120 551/5/120 552/5/120
f 553/6/121 554/6/121 555/6/121 556/6/121
f 557/6/122 558/6/122 559/6/122 560/6/122
f 561/6/123 562/6/123 563/6/123 564/6/123
f 565/6/124 566/6/124 567/6/124 568/6/124
f 569/6/125 570/6/125 571/6/125 572/6/125
f 573/6/126 574/6/126 575/6/126 576/6/126
g $bed_load
f 577/7/127 578/7/127 579/7/127 580/7/127
f 581/7/128 582/7/128 583/7/128 584/7/128
f 585/7/129 586/7/129 587/7/129 588/7/129
f 589/7/130 590/7/130 591/7/130 592/7/130
f 593/7/131 594/7/131 595/7/131 596/7/131
f 597/7/132 598/7/132 599/7/132 600/7/132
