# Low-loader trailer
# Generated by tools/generate_models.py

v 1.30000 1.10000 3.20000
v 1.30000 1.40000 3.20000
v 1.30000 1.40000 5.40000
v 1.30000 1.10000 5.40000
v -1.30000 1.10000 5.40000
v -1.30000 1.40000 5.40000
v -1.30000 1.40000 3.20000
v -1.30000 1.10000 3.20000
v -1.30000 1.40000 3.20000
v -1.30000 1.40000 5.40000
v 1.30000 1.40000 5.40000
v 1.30000 1.40000 3.20000
v -1.30000 1.10000 5.40000
v -1.30000 1.10000 3.20000
v 1.30000 1.10000 3.20000
v 1.30000 1.10000 5.40000
v -1.30000 1.10000 5.40000
v 1.30000 1.10000 5.40000
v 1.30000 1.40000 5.40000
v -1.30000 1.40000 5.40000
v 1.30000 1.10000 3.20000
v -1.30000 1.10000 3.20000
v -1.30000 1.40000 3.20000
v 1.30000 1.40000 3.20000
v 0.30000 0.90000 4.40000
v 0.30000 1.10000 4.40000
v 0.30000 1.10000 4.80000
v 0.30000 0.90000 4.80000
v -0.30000 0.90000 4.80000
v -0.30000 1.10000 4.80000
v -0.30000 1.10000 4.40000
v -0.30000 0.90000 4.40000
v -0.30000 1.10000 4.40000
v -0.30000 1.10000 4.80000
v 0.30000 1.10000 4.80000
v 0.30000 1.10000 4.40000
v -0.30000 0.90000 4.80000
v -0.30000 0.90000 4.40000
v 0.30000 0.90000 4.40000
v 0.30000 0.90000 4.80000
v -0.30000 0.90000 4.80000
v 0.30000 0.90000 4.80000
v 0.30000 1.10000 4.80000
v -0.30000 1.10000 4.80000
v 0.30000 0.90000 4.40000
v -0.30000 0.90000 4.40000
v -0.30000 1.10000 4.40000
v 0.30000 1.10000 4.40000
v -1.30000 1.15397 3.38002
v -1.30000 1.34603 3.21998
v -1.30000 0.59603 2.31998
v -1.30000 0.40397 2.48002
v 1.30000 0.40397 2.48002
v 1.30000 0.59603 2.31998
v 1.30000 1.34603 3.21998
v 1.30000 1.15397 3.38002
v 1.30000 1.34603 3.21998
v 1.30000 0.59603 2.31998
v -1.30000 0.59603 2.31998
v -1.30000 1.34603 3.21998
v 1.30000 0.40397 2.48002
v 1.30000 1.15397 3.38002
v -1.30000 1.15397 3.38002
v -1.30000 0.40397 2.48002
v 1.30000 0.40397 2.48002
v -1.30000 0.40397 2.48002
v -1.30000 0.59603 2.31998
v 1.30000 0.59603 2.31998
v -1.30000 1.15397 3.38002
v 1.30000 1.15397 3.38002
v 1.30000 1.34603 3.21998
v -1.30000 1.34603 3.21998
v 1.50000 0.35000 -4.20000
v 1.50000 0.60000 -4.20000
v 1.50000 0.60000 2.60000
v 1.50000 0.35000 2.60000
v -1.50000 0.35000 2.60000
v -1.50000 0.60000 2.60000
v -1.50000 0.60000 -4.20000
v -1.50000 0.35000 -4.20000
v -1.50000 0.60000 -4.20000
v -1.50000 0.60000 2.60000
v 1.50000 0.60000 2.60000
v 1.50000 0.60000 -4.20000
v -1.50000 0.35000 2.60000
v -1.50000 0.35000 -4.20000
v 1.50000 0.35000 -4.20000
v 1.50000 0.35000 2.60000
v -1.50000 0.35000 2.60000
v 1.50000 0.35000 2.60000
v 1.50000 0.60000 2.60000
v -1.50000 0.60000 2.60000
v 1.50000 0.35000 -4.20000
v -1.50000 0.35000 -4.20000
v -1.50000 0.60000 -4.20000
v 1.50000 0.60000 -4.20000
v 1.50000 0.30000 -4.30000
v 1.50000 0.60000 -4.30000
v 1.50000 0.60000 -4.20000
v 1.50000 0.30000 -4.20000
v -1.50000 0.30000 -4.20000
v -1.50000 0.60000 -4.20000
v -1.50000 0.60000 -4.30000
v -1.50000 0.30000 -4.30000
v -1.50000 0.60000 -4.30000
v -1.50000 0.60000 -4.20000
v 1.50000 0.60000 -4.20000
v 1.50000 0.60000 -4.30000
v -1.50000 0.30000 -4.20000
v -1.50000 0.30000 -4.30000
v 1.50000 0.30000 -4.30000
v 1.50000 0.30000 -4.20000
v -1.50000 0.30000 -4.20000
v 1.50000 0.30000 -4.20000
v 1.50000 0.60000 -4.20000
v -1.50000 0.60000 -4.20000
v 1.50000 0.30000 -4.30000
v -1.50000 0.30000 -4.30000
v -1.50000 0.60000 -4.30000
v 1.50000 0.60000 -4.30000
v 0.97500 0.45000 -3.45000
v 0.97500 0.71450 -3.36406
v 1.42500 0.71450 -3.36406
v 1.42500 0.45000 -3.45000
v 0.97500 0.71450 -3.36406
v 0.97500 0.87798 -3.13906
v 1.42500 0.87798 -3.13906
v 1.42500 0.71450 -3.36406
v 0.97500 0.87798 -3.13906
v 0.97500 0.87798 -2.86094
v 1.42500 0.87798 -2.86094
v 1.42500 0.87798 -3.13906
v 0.97500 0.87798 -2.86094
v 0.97500 0.71450 -2.63594
v 1.42500 0.71450 -2.63594
v 1.42500 0.87798 -2.86094
v 0.97500 0.71450 -2.63594
v 0.97500 0.45000 -2.55000
v 1.42500 0.45000 -2.55000
v 1.42500 0.71450 -2.63594
v 0.97500 0.45000 -2.55000
v 0.97500 0.18550 -2.63594
v 1.42500 0.18550 -2.63594
v 1.42500 0.45000 -2.55000
v 0.97500 0.18550 -2.63594
v 0.97500 0.02202 -2.86094
v 1.42500 0.02202 -2.86094
v 1.42500 0.18550 -2.63594
v 0.97500 0.02202 -2.86094
v 0.97500 0.02202 -3.13906
v 1.42500 0.02202 -3.13906
v 1.42500 0.02202 -2.86094
v 0.97500 0.02202 -3.13906
v 0.97500 0.18550 -3.36406
v 1.42500 0.18550 -3.36406
v 1.42500 0.02202 -3.13906
v 0.97500 0.18550 -3.36406
v 0.97500 0.45000 -3.45000
v 1.42500 0.45000 -3.45000
v 1.42500 0.18550 -3.36406
v 0.97500 0.18550 -3.36406
v 0.97500 0.02202 -3.13906
v 0.97500 0.02202 -2.86094
v 0.97500 0.18550 -2.63594
v 0.97500 0.45000 -2.55000
v 0.97500 0.71450 -2.63594
v 0.97500 0.87798 -2.86094
v 0.97500 0.87798 -3.13906
v 0.97500 0.71450 -3.36406
v 0.97500 0.45000 -3.45000
v 1.42500 0.45000 -3.45000
v 1.42500 0.71450 -3.36406
v 1.42500 0.87798 -3.13906
v 1.42500 0.87798 -2.86094
v 1.42500 0.71450 -2.63594
v 1.42500 0.45000 -2.55000
v 1.42500 0.18550 -2.63594
v 1.42500 0.02202 -2.86094
v 1.42500 0.02202 -3.13906
v 1.42500 0.18550 -3.36406
v -1.42500 0.45000 -3.45000
v -1.42500 0.71450 -3.36406
v -0.97500 0.71450 -3.36406
v -0.97500 0.45000 -3.45000
v -1.42500 0.71450 -3.36406
v -1.42500 0.87798 -3.13906
v -0.97500 0.87798 -3.13906
v -0.97500 0.71450 -3.36406
v -1.42500 0.87798 -3.13906
v -1.42500 0.87798 -2.86094
v -0.97500 0.87798 -2.86094
v -0.97500 0.87798 -3.13906
v -1.42500 0.87798 -2.86094
v -1.42500 0.71450 -2.63594
v -0.97500 0.71450 -2.63594
v -0.97500 0.87798 -2.86094
v -1.42500 0.71450 -2.63594
v -1.42500 0.45000 -2.55000
v -0.97500 0.45000 -2.55000
v -0.97500 0.71450 -2.63594
v -1.42500 0.45000 -2.55000
v -1.42500 0.18550 -2.63594
v -0.97500 0.18550 -2.63594
v -0.97500 0.45000 -2.55000
v -1.42500 0.18550 -2.63594
v -1.42500 0.02202 -2.86094
v -0.97500 0.02202 -2.86094
v -0.97500 0.18550 -2.63594
v -1.42500 0.02202 -2.86094
v -1.42500 0.02202 -3.13906
v -0.97500 0.02202 -3.13906
v -0.97500 0.02202 -2.86094
v -1.42500 0.02202 -3.13906
v -1.42500 0.18550 -3.36406
v -0.97500 0.18550 -3.36406
v -0.97500 0.02202 -3.13906
v -1.42500 0.18550 -3.36406
v -1.42500 0.45000 -3.45000
v -0.97500 0.45000 -3.45000
v -0.97500 0.18550 -3.36406
v -1.42500 0.18550 -3.36406
v -1.42500 0.02202 -3.13906
v -1.42500 0.02202 -2.86094
v -1.42500 0.18550 -2.63594
v -1.42500 0.45000 -2.55000
v -1.42500 0.71450 -2.63594
v -1.42500 0.87798 -2.86094
v -1.42500 0.87798 -3.13906
v -1.42500 0.71450 -3.36406
v -1.42500 0.45000 -3.45000
v -0.97500 0.45000 -3.45000
v -0.97500 0.71450 -3.36406
v -0.97500 0.87798 -3.13906
v -0.97500 0.87798 -2.86094
v -0.97500 0.71450 -2.63594
v -0.97500 0.45000 -2.55000
v -0.97500 0.18550 -2.63594
v -0.97500 0.02202 -2.86094
v -0.97500 0.02202 -3.13906
v -0.97500 0.18550 -3.36406
v 0.97500 0.45000 -4.35000
v 0.97500 0.71450 -4.26406
v 1.42500 0.71450 -4.26406
v 1.42500 0.45000 -4.35000
v 0.97500 0.71450 -4.26406
v 0.97500 0.87798 -4.03906
v 1.42500 0.87798 -4.03906
v 1.42500 0.71450 -4.26406
v 0.97500 0.87798 -4.03906
v 0.97500 0.87798 -3.76094
v 1.42500 0.87798 -3.76094
v 1.42500 0.87798 -4.03906
v 0.97500 0.87798 -3.76094
v 0.97500 0.71450 -3.53594
v 1.42500 0.71450 -3.53594
v 1.42500 0.87798 -3.76094
v 0.97500 0.71450 -3.53594
v 0.97500 0.45000 -3.45000
v 1.42500 0.45000 -3.45000
v 1.42500 0.71450 -3.53594
v 0.97500 0.45000 -3.45000
v 0.97500 0.18550 -3.53594
v 1.42500 0.18550 -3.53594
v 1.42500 0.45000 -3.45000
v 0.97500 0.18550 -3.53594
v 0.97500 0.02202 -3.76094
v 1.42500 0.02202 -3.76094
v 1.42500 0.18550 -3.53594
v 0.97500 0.02202 -3.76094
v 0.97500 0.02202 -4.03906
v 1.42500 0.02202 -4.03906
v 1.42500 0.02202 -3.76094
v 0.97500 0.02202 -4.03906
v 0.97500 0.18550 -4.26406
v 1.42500 0.18550 -4.26406
v 1.42500 0.02202 -4.03906
v 0.97500 0.18550 -4.26406
v 0.97500 0.45000 -4.35000
v 1.42500 0.45000 -4.35000
v 1.42500 0.18550 -4.26406
v 0.97500 0.18550 -4.26406
v 0.97500 0.02202 -4.03906
v 0.97500 0.02202 -3.76094
v 0.97500 0.18550 -3.53594
v 0.97500 0.45000 -3.45000
v 0.97500 0.71450 -3.53594
v 0.97500 0.87798 -3.76094
v 0.97500 0.87798 -4.03906
v 0.97500 0.71450 -4.26406
v 0.97500 0.45000 -4.35000
v 1.42500 0.45000 -4.35000
v 1.42500 0.71450 -4.26406
v 1.42500 0.87798 -4.03906
v 1.42500 0.87798 -3.76094
v 1.42500 0.71450 -3.53594
v 1.42500 0.45000 -3.45000
v 1.42500 0.18550 -3.53594
v 1.42500 0.02202 -3.76094
v 1.42500 0.02202 -4.03906
v 1.42500 0.18550 -4.26406
v -1.42500 0.45000 -4.35000
v -1.42500 0.71450 -4.26406
v -0.97500 0.71450 -4.26406
v -0.97500 0.45000 -4.35000
v -1.42500 0.71450 -4.26406
v -1.42500 0.87798 -4.03906
v -0.97500 0.87798 -4.03906
v -0.97500 0.71450 -4.26406
v -1.42500 0.87798 -4.03906
v -1.42500 0.87798 -3.76094
v -0.97500 0.87798 -3.76094
v -0.97500 0.87798 -4.03906
v -1.42500 0.87798 -3.76094
v -1.42500 0.71450 -3.53594
v -0.97500 0.71450 -3.53594
v -0.97500 0.87798 -3.76094
v -1.42500 0.71450 -3.53594
v -1.42500 0.45000 -3.45000
v -0.97500 0.45000 -3.45000
v -0.97500 0.71450 -3.53594
v -1.42500 0.45000 -3.45000
v -1.42500 0.18550 -3.53594
v -0.97500 0.18550 -3.53594
v -0.97500 0.45000 -3.45000
v -1.42500 0.18550 -3.53594
v -1.42500 0.02202 -3.76094
v -0.97500 0.02202 -3.76094
v -0.97500 0.18550 -3.53594
v -1.42500 0.02202 -3.76094
v -1.42500 0.02202 -4.03906
v -0.97500 0.02202 -4.03906
v -0.97500 0.02202 -3.76094
v -1.42500 0.02202 -4.03906
v -1.42500 0.18550 -4.26406
v -0.97500 0.18550 -4.26406
v -0.97500 0.02202 -4.03906
v -1.42500 0.18550 -4.26406
v -1.42500 0.45000 -4.35000
v -0.97500 0.45000 -4.35000
v -0.97500 0.18550 -4.26406
v -1.42500 0.18550 -4.26406
v -1.42500 0.02202 -4.03906
v -1.42500 0.02202 -3.76094
v -1.42500 0.18550 -3.53594
v -1.42500 0.45000 -3.45000
v -1.42500 0.71450 -3.53594
v -1.42500 0.87798 -3.76094
v -1.42500 0.87798 -4.03906
v -1.42500 0.71450 -4.26406
v -1.42500 0.45000 -4.35000
v -0.97500 0.45000 -4.35000
v -0.97500 0.71450 -4.26406
v -0.97500 0.87798 -4.03906
v -0.97500 0.87798 -3.76094
v -0.97500 0.71450 -3.53594
v -0.97500 0.45000 -3.45000
v -0.97500 0.18550 -3.53594
v -0.97500 0.02202 -3.76094
v -0.97500 0.02202 -4.03906
v -0.97500 0.18550 -4.26406
v 1.40000 0.60000 -4.33000
v 1.40000 2.20000 -4.33000
v 1.40000 2.20000 -4.23000
v 1.40000 0.60000 -4.23000
v 0.40000 0.60000 -4.23000
v 0.40000 2.20000 -4.23000
v 0.40000 2.20000 -4.33000
v 0.40000 0.60000 -4.33000
v 0.40000 2.20000 -4.33000
v 0.40000 2.20000 -4.23000
v 1.40000 2.20000 -4.23000
v 1.40000 2.20000 -4.33000
v 0.40000 0.60000 -4.23000
v 0.40000 0.60000 -4.33000
v 1.40000 0.60000 -4.33000
v 1.40000 0.60000 -4.23000
v 0.40000 0.60000 -4.23000
v 1.40000 0.60000 -4.23000
v 1.40000 2.20000 -4.23000
v 0.40000 2.20000 -4.23000
v 1.40000 0.60000 -4.33000
v 0.40000 0.60000 -4.33000
v 0.40000 2.20000 -4.33000
v 1.40000 2.20000 -4.33000
v -0.40000 0.60000 -4.33000
v -0.40000 2.20000 -4.33000
v -0.40000 2.20000 -4.23000
v -0.40000 0.60000 -4.23000
v -1.40000 0.60000 -4.23000
v -1.40000 2.20000 -4.23000
v -1.40000 2.20000 -4.33000
v -1.40000 0.60000 -4.33000
v -1.40000 2.20000 -4.33000
v -1.40000 2.20000 -4.23000
v -0.40000 2.20000 -4.23000
v -0.40000 2.20000 -4.33000
v -1.40000 0.60000 -4.23000
v -1.40000 0.60000 -4.33000
v -0.40000 0.60000 -4.33000
v -0.40000 0.60000 -4.23000
v -1.40000 0.60000 -4.23000
v -0.40000 0.60000 -4.23000
v -0.40000 2.20000 -4.23000
v -1.40000 2.20000 -4.23000
v -0.40000 0.60000 -4.33000
v -1.40000 0.60000 -4.33000
v -1.40000 2.20000 -4.33000
v -0.40000 2.20000 -4.33000
vt 0.18750 0.93750
vt 0.43750 0.93750
vt 0.18750 0.81250
vt 0.31250 0.93750
vn 1.00000 0.00000 0.00000
vn -1.00000 0.00000 0.00000
vn 0.00000 1.00000 0.00000
vn 0.00000 -1.00000 0.00000
vn 0.00000 0.00000 1.00000
vn 0.00000 0.00000 -1.00000
vn 1.00000 0.00000 0.00000
vn -1.00000 0.00000 0.00000
vn 0.00000 1.00000 0.00000
vn 0.00000 -1.00000 0.00000
vn 0.00000 0.00000 1.00000
vn 0.00000 0.00000 -1.00000
vn -1.00000 0.00000 -0.00000
vn 1.00000 -0.00000 0.00000
vn 0.00000 0.76822 -0.64018
vn 0.00000 -0.76822 0.64018
vn -0.00000 -0.64018 -0.76822
vn -0.00000 0.64018 0.76822
vn 1.00000 0.00000 0.00000
vn -1.00000 0.00000 0.00000
vn 0.00000 1.00000 0.00000
vn 0.00000 -1.00000 0.00000
vn 0.00000 0.00000 1.00000
vn 0.00000 0.00000 -1.00000
vn 1.00000 0.00000 0.00000
vn -1.00000 0.00000 0.00000
vn 0.00000 1.00000 0.00000
vn 0.00000 -1.00000 0.00000
vn 0.00000 0.00000 1.00000
vn 0.00000 0.00000 -1.00000
vn 0.00000 0.30902 -0.95106
vn 0.00000 0.80902 -0.58779
vn 0.00000 1.00000 -0.00000
vn 0.00000 0.80902 0.58779
vn 0.00000 0.30902 0.95106
vn 0.00000 -0.30902 0.95106
vn 0.00000 -0.80902 0.58779
vn 0.00000 -1.00000 0.00000
vn 0.00000 -0.80902 -0.58779
vn 0.00000 -0.30902 -0.95106
vn -1.00000 0.00000 0.00000
vn 1.00000 0.00000 0.00000
vn 0.00000 0.30902 -0.95106
vn 0.00000 0.80902 -0.58779
vn 0.00000 1.00000 -0.00000
vn 0.00000 0.80902 0.58779
vn 0.00000 0.30902 0.95106
vn 0.00000 -0.30902 0.95106
vn 0.00000 -0.80902 0.58779
vn 0.00000 -1.00000 0.00000
vn 0.00000 -0.80902 -0.58779
vn 0.00000 -0.30902 -0.95106
vn -1.00000 0.00000 0.00000
vn 1.00000 0.00000 0.00000
vn 0.00000 0.30902 -0.95106
vn 0.00000 0.80902 -0.58779
vn 0.00000 1.00000 -0.00000
vn 0.00000 0.80902 0.58779
vn 0.00000 0.30902 0.95106
vn 0.00000 -0.30902 0.95106
vn 0.00000 -0.80902 0.58779
vn 0.00000 -1.00000 0.00000
vn 0.00000 -0.80902 -0.58779
vn 0.00000 -0.30902 -0.95106
vn -1.00000 0.00000 0.00000
vn 1.00000 0.00000 0.00000
vn 0.00000 0.30902 -0.95106
vn 0.00000 0.80902 -0.58779
vn 0.00000 1.00000 -0.00000
vn 0.00000 0.80902 0.58779
vn 0.00000 0.30902 0.95106
vn 0.00000 -0.30902 0.95106
vn 0.00000 -0.80902 0.58779
vn 0.00000 -1.00000 0.00000
vn 0.00000 -0.80902 -0.58779
vn 0.00000 -0.30902 -0.95106
vn -1.00000 0.00000 0.00000
vn 1.00000 0.00000 0.00000
vn 1.00000 0.00000 0.00000
vn -1.00000 0.00000 0.00000
vn 0.00000 1.00000 0.00000
vn 0.00000 -1.00000 0.00000
vn 0.00000 0.00000 1.00000
vn 0.00000 0.00000 -1.00000
vn 1.00000 0.00000 0.00000
vn -1.00000 0.00000 0.00000
vn 0.00000 1.00000 0.00000
vn 0.00000 -1.00000 0.00000
vn 0.00000 0.00000 1.00000
vn 0.00000 0.00000 -1.00000
g body
f 1/1/1 2/1/1 3/1/1 4/1/1
f 5/1/2 6/1/2 7/1/2 8/1/2
f 9/1/3 10/1/3 11/1/3 12/1/3
f 13/1/4 14/1/4 15/1/4 16/1/4
f 17/1/5 18/1/5 19/1/5 20/1/5
f 21/1/6 22/1/6 23/1/6 24/1/6
f 25/2/7 26/2/7 27/2/7 28/2/7
f 29/2/8 30/2/8 31/2/8 32/2/8
f 33/2/9 34/2/9 35/2/9 36/2/9
f 37/2/10 38/2/10 39/2/10 40/2/10
f 41/2/11 42/2/11 43/2/11 44/2/11
f 45/2/12 46/2/12 47/2/12 48/2/12
f 49/1/13 50/1/13 51/1/13 52/1/13
f 53/1/14 54/1/14 55/1/14 56/1/14
f 57/1/15 58/1/15 59/1/15 60/1/15
f 61/1/16 62/1/16 63/1/16 64/1/16
f 65/1/17 66/1/17 67/1/17 68/1/17
f 69/1/18 70/1/18 71/1/18 72/1/18
f 73/2/19 74/2/19 75/2/19 76/2/19
f 77/2/20 78/2/20 79/2/20 80/2/20
f 81/2/21 82/2/21 83/2/21 84/2/21
f 85/2/22 86/2/22 87/2/22 88/2/22
f 89/2/23 90/2/23 91/2/23 92/2/23
f 93/2/24 94/2/24 95/2/24 96/2/24
f 97/3/25 98/3/25 99/3/25 100/3/25
f 101/3/26 102/3/26 103/3/26 104/3/26
f 105/3/27 106/3/27 107/3/27 108/3/27
f 109/3/28 110/3/28 111/3/28 112/3/28
f 113/3/29 114/3/29 115/3/29 116/3/29
f 117/3/30 118/3/30 119/3/30 120/3/30
g $wheel0
f 121/4/31 122/4/31 123/4/31 124/4/31
f 125/1/32 126/1/32 127/1/32 128/1/32
f 129/4/33 130/4/33 131/4/33 132/4/33
f 133/1/34 134/1/34 135/1/34 136/1/34
f 137/4/35 138/4/35 139/4/35 140/4/35
f 141/1/36 142/1/36 143/1/36 144/1/36
f 145/4/37 146/4/37 147/4/37 148/4/37
f 149/1/38 150/1/38 151/1/38 152/1/38
f 153/4/39 154/4/39 155/4/39 156/4/39
f 157/1/40 158/1/40 159/1/40 160/1/40
f 161/4/41 162/4/41 163/4/41 164/4/41 165/4/41 166/4/41 167/4/41 168/4/41 169/4/41 170/4/41
f 171/4/42 172/4/42 173/4/42 174/4/42 175/4/42 176/4/42 177/4/42 178/4/42 179/4/42 180/4/42
g $wheel1
f 181/4/43 182/4/43 183/4/43 184/4/43
f 185/1/44 186/1/44 187/1/44 188/1/44
f 189/4/45 190/4/45 191/4/45 192/4/45
f 193/1/46 194/1/46 195/1/46 196/1/46
f 197/4/47 198/4/47 199/4/47 200/4/47
f 201/1/48 202/1/48 203/1/48 204/1/48
f 205/4/49 206/4/49 207/4/49 208/4/49
f 209/1/50 210/1/50 211/1/50 212/1/50
f 213/4/51 214/4/51 215/4/51 216/4/51
f 217/1/52 218/1/52 219/1/52 220/1/52
f 221/4/53 222/4/53 223/4/53 224/4/53 225/4/53 226/4/53 227/4/53 228/4/53 229/4/53 230/4/53
f 231/4/54 232/4/54 233/4/54 234/4/54 235/4/54 236/4/54 237/4/54 238/4/54 239/4/54 240/4/54
g $wheel2
f 241/4/55 242/4/55 243/4/55 244/4/55
f 245/1/56 246/1/56 247/1/56 248/1/56
f 249/4/57 250/4/57 251/4/57 252/4/57
f 253/1/58 254/1/58 255/1/58 256/1/58
f 257/4/59 258/4/59 259/4/59 260/4/59
f 261/1/60 262/1/60 263/1/60 264/1/60
f 265/4/61 266/4/61 267/4/61 268/4/61
f 269/1/62 270/1/62 271/1/62 272/1/62
f 273/4/63 274/4/63 275/4/63 276/4/63
f 277/1/64 278/1/64 279/1/64 280/1/64
f 281/4/65 282/4/65 283/4/65 284/4/65 285/4/65 286/4/65 287/4/65 288/4/65 289/4/65 290/4/65
f 291/4/66 292/4/66 293/4/66 294/4/66 295/4/66 296/4/66 297/4/66 298/4/66 299/4/66 300/4/66
g $wheel3
f 301/4/67 302/4/67 303/4/67 304/4/67
f 305/1/68 306/1/68 307/1/68 308/1/68
f 309/4/69 310/4/69 311/4/69 312/4/69
f 313/1/70 314/1/70 315/1/70 316/1/70
f 317/4/71 318/4/71 319/4/71 320/4/71
f 321/1/72 322/1/72 323/1/72 324/1/72
f 325/4/73 326/4/73 327/4/73 328/4/73
f 329/1/74 330/1/74 331/1/74 332/1/74
f 333/4/75 334/4/75 335/4/75 336/4/75
f 337/1/76 338/1/76 339/1/76 340/1/76
f 341/4/77 342/4/77 343/4/77 344/4/77 345/4/77 346/4/77 347/4/77 348/4/77 349/4/77 350/4/77
f 351/4/78 352/4/78 353/4/78 354/4/78 355/4/78 356/4/78 357/4/78 358/4/78 359/4/78 360/4/78
g $hatch_ramp_l
f 361/2/79 362/2/79 363/2/79 364/2/79
f 365/2/80 366/2/80 367/2/80 368/2/80
f 369/2/81 370/2/81 371/2/81 372/2/81
f 373/2/82 374/2/82 375/2/82 376/2/82
f 377/2/83 378/2/83 379/2/83 380/2/83
f 381/2/84 382/2/84 383/2/84 384/2/84
g $hatch_ramp_r
f 385/2/85 386/2/85 387/2/85 388/2/85
f 389/2/86 390/2/86 391/2/86 392/2/86
f 393/2/87 394/2/87 395/2/87 396/2/87
f 397/2/88 398/2/88 399/2/88 400/2/88
f 401/2/89 402/2/89 403/2/89 404/2/89
f 405/2/90 406/2/90 407/2/90 408/2/90
