# Concrete mixer truck
# Generated by tools/generate_models.py

v 0.60000 0.50000 -3.00000
v 0.60000 1.10000 -3.00000
v 0.60000 1.10000 3.40000
v 0.60000 0.50000 3.40000
v -0.60000 0.50000 3.40000
v -0.60000 1.10000 3.40000
v -0.60000 1.10000 -3.00000
v -0.60000 0.50000 -3.00000
v -0.60000 1.10000 -3.00000
v -0.60000 1.10000 3.40000
v 0.60000 1.10000 3.40000
v 0.60000 1.10000 -3.00000
v -0.60000 0.50000 3.40000
v -0.60000 0.50000 -3.00000
v 0.60000 0.50000 -3.00000
v 0.60000 0.50000 3.40000
v -0.60000 0.50000 3.40000
v 0.60000 0.50000 3.40000
v 0.60000 1.10000 3.40000
v -0.60000 1.10000 3.40000
v 0.60000 0.50000 -3.00000
v -0.60000 0.50000 -3.00000
v -0.60000 1.10000 -3.00000
v 0.60000 1.10000 -3.00000
v 1.20000 1.00000 1.60000
v 1.20000 3.00000 1.60000
v 1.20000 3.00000 3.40000
v 1.20000 1.00000 3.40000
v -1.20000 1.00000 3.40000
v -1.20000 3.00000 3.40000
v -1.20000 3.00000 1.60000
v -1.20000 1.00000 1.60000
v -1.20000 3.00000 1.60000
v -1.20000 3.00000 3.40000
v 1.20000 3.00000 3.40000
v 1.20000 3.00000 1.60000
v -1.20000 1.00000 3.40000
v -1.20000 1.00000 1.60000
v 1.20000 1.00000 1.60000
v 1.20000 1.00000 3.40000
v -1.20000 1.00000 3.40000
v 1.20000 1.00000 3.40000
v 1.20000 3.00000 3.40000
v -1.20000 3.00000 3.40000
v 1.20000 1.00000 1.60000
v -1.20000 1.00000 1.60000
v -1.20000 3.00000 1.60000
v 1.20000 3.00000 1.60000
v 1.15000 1.90000 3.40000
v 1.15000 2.90000 3.40000
v 1.15000 2.90000 3.43000
v 1.15000 1.90000 3.43000
v -1.15000 1.90000 3.43000
v -1.15000 2.90000 3.43000
v -1.15000 2.90000 3.40000
v -1.15000 1.90000 3.40000
v -1.15000 2.90000 3.40000
v -1.15000 2.90000 3.43000
v 1.15000 2.90000 3.43000
v 1.15000 2.90000 3.40000
v -1.15000 1.90000 3.43000
v -1.15000 1.90000 3.40000
v 1.15000 1.90000 3.40000
v 1.15000 1.90000 3.43000
v -1.15000 1.90000 3.43000
v 1.15000 1.90000 3.43000
v 1.15000 2.90000 3.43000
v -1.15000 2.90000 3.43000
v 1.15000 1.90000 3.40000
v -1.15000 1.90000 3.40000
v -1.15000 2.90000 3.40000
v 1.15000 2.90000 3.40000
v 1.23000 1.90000 1.70000
v 1.23000 2.90000 1.70000
v 1.23000 2.90000 3.30000
v 1.23000 1.90000 3.30000
v 1.20000 1.90000 3.30000
v 1.20000 2.90000 3.30000
v 1.20000 2.90000 1.70000
v 1.20000 1.90000 1.70000
v 1.20000 2.90000 1.70000
v 1.20000 2.90000 3.30000
v 1.23000 2.90000 3.30000
v 1.23000 2.90000 1.70000
v 1.20000 1.90000 3.30000
v 1.20000 1.90000 1.70000
v 1.23000 1.90000 1.70000
v 1.23000 1.90000 3.30000
v 1.20000 1.90000 3.30000
v 1.23000 1.90000 3.30000
v 1.23000 2.90000 3.30000
v 1.20000 2.90000 3.30000
v 1.23000 1.90000 1.70000
v 1.20000 1.90000 1.70000
v 1.20000 2.90000 1.70000
v 1.23000 2.90000 1.70000
v 0.90000 1.10000 -2.40000
v 0.90000 1.90000 -2.40000
v 0.90000 1.90000 -2.10000
v 0.90000 1.10000 -2.10000
v -0.90000 1.10000 -2.10000
v -0.90000 1.90000 -2.10000
v -0.90000 1.90000 -2.40000
v -0.90000 1.10000 -2.40000
v -0.90000 1.90000 -2.40000
v -0.90000 1.90000 -2.10000
v 0.90000 1.90000 -2.10000
v 0.90000 1.90000 -2.40000
v -0.90000 1.10000 -2.10000
v -0.90000 1.10000 -2.40000
v 0.90000 1.10000 -2.40000
v 0.90000 1.10000 -2.10000
v -0.90000 1.10000 -2.10000
v 0.90000 1.10000 -2.10000
v 0.90000 1.90000 -2.10000
v -0.90000 1.90000 -2.10000
v 0.90000 1.10000 -2.40000
v -0.90000 1.10000 -2.40000
v -0.90000 1.90000 -2.40000
v 0.90000 1.90000 -2.40000
v 0.90000 1.10000 0.90000
v 0.90000 1.70000 0.90000
v 0.90000 1.70000 1.20000
v 0.90000 1.10000 1.20000
v -0.90000 1.10000 1.20000
v -0.90000 1.70000 1.20000
v -0.90000 1.70000 0.90000
v -0.90000 1.10000 0.90000
v -0.90000 1.70000 0.90000
v -0.90000 1.70000 1.20000
v 0.90000 1.70000 1.20000
v 0.90000 1.70000 0.90000
v -0.90000 1.10000 1.20000
v -0.90000 1.10000 0.90000
v 0.90000 1.10000 0.90000
v 0.90000 1.10000 1.20000
v -0.90000 1.10000 1.20000
v 0.90000 1.10000 1.20000
v 0.90000 1.70000 1.20000
v -0.90000 1.70000 1.20000
v 0.90000 1.10000 0.90000
v -0.90000 1.10000 0.90000
v -0.90000 1.70000 0.90000
v 0.90000 1.70000 0.90000
v 0.87500 0.55000 1.85000
v 0.87500 0.87328 1.95504
v 1.32500 0.87328 1.95504
v 1.32500 0.55000 1.85000
v 0.87500 0.87328 1.95504
v 0.87500 1.07308 2.23004
v 1.32500 1.07308 2.23004
v 1.32500 0.87328 1.95504
v 0.87500 1.07308 2.23004
v 0.87500 1.07308 2.56996
v 1.32500 1.07308 2.56996
v 1.32500 1.07308 2.23004
v 0.87500 1.07308 2.56996
v 0.87500 0.87328 2.84496
v 1.32500 0.87328 2.84496
v 1.32500 1.07308 2.56996
v 0.87500 0.87328 2.84496
v 0.87500 0.55000 2.95000
v 1.32500 0.55000 2.95000
v 1.32500 0.87328 2.84496
v 0.87500 0.55000 2.95000
v 0.87500 0.22672 2.84496
v 1.32500 0.22672 2.84496
v 1.32500 0.55000 2.95000
v 0.87500 0.22672 2.84496
v 0.87500 0.02692 2.56996
v 1.32500 0.02692 2.56996
v 1.32500 0.22672 2.84496
v 0.87500 0.02692 2.56996
v 0.87500 0.02692 2.23004
v 1.32500 0.02692 2.23004
v 1.32500 0.02692 2.56996
v 0.87500 0.02692 2.23004
v 0.87500 0.22672 1.95504
v 1.32500 0.22672 1.95504
v 1.32500 0.02692 2.23004
v 0.87500 0.22672 1.95504
v 0.87500 0.55000 1.85000
v 1.32500 0.55000 1.85000
v 1.32500 0.22672 1.95504
v 0.87500 0.22672 1.95504
v 0.87500 0.02692 2.23004
v 0.87500 0.02692 2.56996
v 0.87500 0.22672 2.84496
v 0.87500 0.55000 2.95000
v 0.87500 0.87328 2.84496
v 0.87500 1.07308 2.56996
v 0.87500 1.07308 2.23004
v 0.87500 0.87328 1.95504
v 0.87500 0.55000 1.85000
v 1.32500 0.55000 1.85000
v 1.32500 0.87328 1.95504
v 1.32500 1.07308 2.23004
v 1.32500 1.07308 2.56996
v 1.32500 0.87328 2.84496
v 1.32500 0.55000 2.95000
v 1.32500 0.22672 2.84496
v 1.32500 0.02692 2.56996
v 1.32500 0.02692 2.23004
v 1.32500 0.22672 1.95504
v -1.32500 0.55000 1.85000
v -1.32500 0.87328 1.95504
v -0.87500 0.87328 1.95504
v -0.87500 0.55000 1.85000
v -1.32500 0.87328 1.95504
v -1.32500 1.07308 2.23004
v -0.87500 1.07308 2.23004
v -0.87500 0.87328 1.95504
v -1.32500 1.07308 2.23004
v -1.32500 1.07308 2.56996
v -0.87500 1.07308 2.56996
v -0.87500 1.07308 2.23004
v -1.32500 1.07308 2.56996
v -1.32500 0.87328 2.84496
v -0.87500 0.87328 2.84496
v -0.87500 1.07308 2.56996
v -1.32500 0.87328 2.84496
v -1.32500 0.55000 2.95000
v -0.87500 0.55000 2.95000
v -0.87500 0.87328 2.84496
v -1.32500 0.55000 2.95000
v -1.32500 0.22672 2.84496
v -0.87500 0.22672 2.84496
v -0.87500 0.55000 2.95000
v -1.32500 0.22672 2.84496
v -1.32500 0.02692 2.56996
v -0.87500 0.02692 2.56996
v -0.87500 0.22672 2.84496
v -1.32500 0.02692 2.56996
v -1.32500 0.02692 2.23004
v -0.87500 0.02692 2.23004
v -0.87500 0.02692 2.56996
v -1.32500 0.02692 2.23004
v -1.32500 0.22672 1.95504
v -0.87500 0.22672 1.95504
v -0.87500 0.02692 2.23004
v -1.32500 0.22672 1.95504
v -1.32500 0.55000 1.85000
v -0.87500 0.55000 1.85000
v -0.87500 0.22672 1.95504
v -1.32500 0.22672 1.95504
v -1.32500 0.02692 2.23004
v -1.32500 0.02692 2.56996
v -1.32500 0.22672 2.84496
v -1.32500 0.55000 2.95000
v -1.32500 0.87328 2.84496
v -1.32500 1.07308 2.56996
v -1.32500 1.07308 2.23004
v -1.32500 0.87328 1.95504
v -1.32500 0.55000 1.85000
v -0.87500 0.55000 1.85000
v -0.87500 0.87328 1.95504
v -0.87500 1.07308 2.23004
v -0.87500 1.07308 2.56996
v -0.87500 0.87328 2.84496
v -0.87500 0.55000 2.95000
v -0.87500 0.22672 2.84496
v -0.87500 0.02692 2.56996
v -0.87500 0.02692 2.23004
v -0.87500 0.22672 1.95504
v 0.87500 0.55000 -1.55000
v 0.87500 0.87328 -1.44496
v 1.32500 0.87328 -1.44496
v 1.32500 0.55000 -1.55000
v 0.87500 0.87328 -1.44496
v 0.87500 1.07308 -1.16996
v 1.32500 1.07308 -1.16996
v 1.32500 0.87328 -1.44496
v 0.87500 1.07308 -1.16996
v 0.87500 1.07308 -0.83004
v 1.32500 1.07308 -0.83004
v 1.32500 1.07308 -1.16996
v 0.87500 1.07308 -0.83004
v 0.87500 0.87328 -0.55504
v 1.32500 0.87328 -0.55504
v 1.32500 1.07308 -0.83004
v 0.87500 0.87328 -0.55504
v 0.87500 0.55000 -0.45000
v 1.32500 0.55000 -0.45000
v 1.32500 0.87328 -0.55504
v 0.87500 0.55000 -0.45000
v 0.87500 0.22672 -0.55504
v 1.32500 0.22672 -0.55504
v 1.32500 0.55000 -0.45000
v 0.87500 0.22672 -0.55504
v 0.87500 0.02692 -0.83004
v 1.32500 0.02692 -0.83004
v 1.32500 0.22672 -0.55504
v 0.87500 0.02692 -0.83004
v 0.87500 0.02692 -1.16996
v 1.32500 0.02692 -1.16996
v 1.32500 0.02692 -0.83004
v 0.87500 0.02692 -1.16996
v 0.87500 0.22672 -1.44496
v 1.32500 0.22672 -1.44496
v 1.32500 0.02692 -1.16996
v 0.87500 0.22672 -1.44496
v 0.87500 0.55000 -1.55000
v 1.32500 0.55000 -1.55000
v 1.32500 0.22672 -1.44496
v 0.87500 0.22672 -1.44496
v 0.87500 0.02692 -1.16996
v 0.87500 0.02692 -0.83004
v 0.87500 0.22672 -0.55504
v 0.87500 0.55000 -0.45000
v 0.87500 0.87328 -0.55504
v 0.87500 1.07308 -0.83004
v 0.87500 1.07308 -1.16996
v 0.87500 0.87328 -1.44496
v 0.87500 0.55000 -1.55000
v 1.32500 0.55000 -1.55000
v 1.32500 0.87328 -1.44496
v 1.32500 1.07308 -1.16996
v 1.32500 1.07308 -0.83004
v 1.32500 0.87328 -0.55504
v 1.32500 0.55000 -0.45000
v 1.32500 0.22672 -0.55504
v 1.32500 0.02692 -0.83004
v 1.32500 0.02692 -1.16996
v 1.32500 0.22672 -1.44496
v -1.32500 0.55000 -1.55000
v -1.32500 0.87328 -1.44496
v -0.87500 0.87328 -1.44496
v -0.87500 0.55000 -1.55000
v -1.32500 0.87328 -1.44496
v -1.32500 1.07308 -1.16996
v -0.87500 1.07308 -1.16996
v -0.87500 0.87328 -1.44496
v -1.32500 1.07308 -1.16996
v -1.32500 1.07308 -0.83004
v -0.87500 1.07308 -0.83004
v -0.87500 1.07308 -1.16996
v -1.32500 1.07308 -0.83004
v -1.32500 0.87328 -0.55504
v -0.87500 0.87328 -0.55504
v -0.87500 1.07308 -0.83004
v -1.32500 0.87328 -0.55504
v -1.32500 0.55000 -0.45000
v -0.87500 0.55000 -0.45000
v -0.87500 0.87328 -0.55504
v -1.32500 0.55000 -0.45000
v -1.32500 0.22672 -0.55504
v -0.87500 0.22672 -0.55504
v -0.87500 0.55000 -0.45000
v -1.32500 0.22672 -0.55504
v -1.32500 0.02692 -0.83004
v -0.87500 0.02692 -0.83004
v -0.87500 0.22672 -0.55504
v -1.32500 0.02692 -0.83004
v -1.32500 0.02692 -1.16996
v -0.87500 0.02692 -1.16996
v -0.87500 0.02692 -0.83004
v -1.32500 0.02692 -1.16996
v -1.32500 0.22672 -1.44496
v -0.87500 0.22672 -1.44496
v -0.87500 0.02692 -1.16996
v -1.32500 0.22672 -1.44496
v -1.32500 0.55000 -1.55000
v -0.87500 0.55000 -1.55000
v -0.87500 0.22672 -1.44496
v -1.32500 0.22672 -1.44496
v -1.32500 0.02692 -1.16996
v -1.32500 0.02692 -0.83004
v -1.32500 0.22672 -0.55504
v -1.32500 0.55000 -0.45000
v -1.32500 0.87328 -0.55504
v -1.32500 1.07308 -0.83004
v -1.32500 1.07308 -1.16996
v -1.32500 0.87328 -1.44496
v -1.32500 0.55000 -1.55000
v -0.87500 0.55000 -1.55000
v -0.87500 0.87328 -1.44496
v -0.87500 1.07308 -1.16996
v -0.87500 1.07308 -0.83004
v -0.87500 0.87328 -0.55504
v -0.87500 0.55000 -0.45000
v -0.87500 0.22672 -0.55504
v -0.87500 0.02692 -0.83004
v -0.87500 0.02692 -1.16996
v -0.87500 0.22672 -1.44496
v 0.87500 0.55000 -2.75000
v 0.87500 0.87328 -2.64496
v 1.32500 0.87328 -2.64496
v 1.32500 0.55000 -2.75000
v 0.87500 0.87328 -2.64496
v 0.87500 1.07308 -2.36996
v 1.32500 1.07308 -2.36996
v 1.32500 0.87328 -2.64496
v 0.87500 1.07308 -2.36996
v 0.87500 1.07308 -2.03004
v 1.32500 1.07308 -2.03004
v 1.32500 1.07308 -2.36996
v 0.87500 1.07308 -2.03004
v 0.87500 0.87328 -1.75504
v 1.32500 0.87328 -1.75504
v 1.32500 1.07308 -2.03004
v 0.87500 0.87328 -1.75504
v 0.87500 0.55000 -1.65000
v 1.32500 0.55000 -1.65000
v 1.32500 0.87328 -1.75504
v 0.87500 0.55000 -1.65000
v 0.87500 0.22672 -1.75504
v 1.32500 0.22672 -1.75504
v 1.32500 0.55000 -1.65000
v 0.87500 0.22672 -1.75504
v 0.87500 0.02692 -2.03004
v 1.32500 0.02692 -2.03004
v 1.32500 0.22672 -1.75504
v 0.87500 0.02692 -2.03004
v 0.87500 0.02692 -2.36996
v 1.32500 0.02692 -2.36996
v 1.32500 0.02692 -2.03004
v 0.87500 0.02692 -2.36996
v 0.87500 0.22672 -2.64496
v 1.32500 0.22672 -2.64496
v 1.32500 0.02692 -2.36996
v 0.87500 0.22672 -2.64496
v 0.87500 0.55000 -2.75000
v 1.32500 0.55000 -2.75000
v 1.32500 0.22672 -2.64496
v 0.87500 0.22672 -2.64496
v 0.87500 0.02692 -2.36996
v 0.87500 0.02692 -2.03004
v 0.87500 0.22672 -1.75504
v 0.87500 0.55000 -1.65000
v 0.87500 0.87328 -1.75504
v 0.87500 1.07308 -2.03004
v 0.87500 1.07308 -2.36996
v 0.87500 0.87328 -2.64496
v 0.87500 0.55000 -2.75000
v 1.32500 0.55000 -2.75000
v 1.32500 0.87328 -2.64496
v 1.32500 1.07308 -2.36996
v 1.32500 1.07308 -2.03004
v 1.32500 0.87328 -1.75504
v 1.32500 0.55000 -1.65000
v 1.32500 0.22672 -1.75504
v 1.32500 0.02692 -2.03004
v 1.32500 0.02692 -2.36996
v 1.32500 0.22672 -2.64496
v -1.32500 0.55000 -2.75000
v -1.32500 0.87328 -2.64496
v -0.87500 0.87328 -2.64496
v -0.87500 0.55000 -2.75000
v -1.32500 0.87328 -2.64496
v -1.32500 1.07308 -2.36996
v -0.87500 1.07308 -2.36996
v -0.87500 0.87328 -2.64496
v -1.32500 1.07308 -2.36996
v -1.32500 1.07308 -2.03004
v -0.87500 1.07308 -2.03004
v -0.87500 1.07308 -2.36996
v -1.32500 1.07308 -2.03004
v -1.32500 0.87328 -1.75504
v -0.87500 0.87328 -1.75504
v -0.87500 1.07308 -2.03004
v -1.32500 0.87328 -1.75504
v -1.32500 0.55000 -1.65000
v -0.87500 0.55000 -1.65000
v -0.87500 0.87328 -1.75504
v -1.32500 0.55000 -1.65000
v -1.32500 0.22672 -1.75504
v -0.87500 0.22672 -1.75504
v -0.87500 0.55000 -1.65000
v -1.32500 0.22672 -1.75504
v -1.32500 0.02692 -2.03004
v -0.87500 0.02692 -2.03004
v -0.87500 0.22672 -1.75504
v -1.32500 0.02692 -2.03004
v -1.32500 0.02692 -2.36996
v -0.87500 0.02692 -2.36996
v -0.87500 0.02692 -2.03004
v -1.32500 0.02692 -2.36996
v -1.32500 0.22672 -2.64496
v -0.87500 0.22672 -2.64496
v -0.87500 0.02692 -2.36996
v -1.32500 0.22672 -2.64496
v -1.32500 0.55000 -2.75000
v -0.87500 0.55000 -2.75000
v -0.87500 0.22672 -2.64496
v -1.32500 0.22672 -2.64496
v -1.32500 0.02692 -2.36996
v -1.32500 0.02692 -2.03004
v -1.32500 0.22672 -1.75504
v -1.32500 0.55000 -1.65000
v -1.32500 0.87328 -1.75504
v -1.32500 1.07308 -2.03004
v -1.32500 1.07308 -2.36996
v -1.32500 0.87328 -2.64496
v -1.32500 0.55000 -2.75000
v -0.87500 0.55000 -2.75000
v -0.87500 0.87328 -2.64496
v -0.87500 1.07308 -2.36996
v -0.87500 1.07308 -2.03004
v -0.87500 0.87328 -1.75504
v -0.87500 0.55000 -1.65000
v -0.87500 0.22672 -1.75504
v -0.87500 0.02692 -2.03004
v -0.87500 0.02692 -2.36996
v -0.87500 0.22672 -2.64496
v 0.95000 2.75000 -2.60000
v 0.67175 3.40836 -2.46655
v 0.67175 2.65836 1.23345
v 0.95000 2.00000 1.10000
v 0.67175 3.40836 -2.46655
v 0.00000 3.68106 -2.41127
v 0.00000 2.93106 1.28873
v 0.67175 2.65836 1.23345
v 0.00000 3.68106 -2.41127
v -0.67175 3.40836 -2.46655
v -0.67175 2.65836 1.23345
v 0.00000 2.93106 1.28873
v -0.67175 3.40836 -2.46655
v -0.95000 2.75000 -2.60000
v -0.95000 2.00000 1.10000
v -0.67175 2.65836 1.23345
v -0.95000 2.75000 -2.60000
v -0.67175 2.09164 -2.73345
v -0.67175 1.34164 0.96655
v -0.95000 2.00000 1.10000
v -0.67175 2.09164 -2.73345
v -0.00000 1.81894 -2.78873
v -0.00000 1.06894 0.91127
v -0.67175 1.34164 0.96655
v -0.00000 1.81894 -2.78873
v 0.67175 2.09164 -2.73345
v 0.67175 1.34164 0.96655
v -0.00000 1.06894 0.91127
v 0.67175 2.09164 -2.73345
v 0.95000 2.75000 -2.60000
v 0.95000 2.00000 1.10000
v 0.67175 1.34164 0.96655
v 0.67175 2.09164 -2.73345
v -0.00000 1.81894 -2.78873
v -0.67175 2.09164 -2.73345
v -0.95000 2.75000 -2.60000
v -0.67175 3.40836 -2.46655
v 0.00000 3.68106 -2.41127
v 0.67175 3.40836 -2.46655
v 0.95000 2.75000 -2.60000
v 0.95000 2.00000 1.10000
v 0.67175 2.65836 1.23345
v 0.00000 2.93106 1.28873
v -0.67175 2.65836 1.23345
v -0.95000 2.00000 1.10000
v -0.67175 1.34164 0.96655
v -0.00000 1.06894 0.91127
v 0.67175 1.34164 0.96655
v 0.50000 2.80000 -3.00000
v 0.35355 3.15082 -2.95615
v 0.35355 3.10082 -2.55615
v 0.50000 2.75000 -2.60000
v 0.35355 3.15082 -2.95615
v 0.00000 3.29614 -2.93798
v 0.00000 3.24614 -2.53798
v 0.35355 3.10082 -2.55615
v 0.00000 3.29614 -2.93798
v -0.35355 3.15082 -2.95615
v -0.35355 3.10082 -2.55615
v 0.00000 3.24614 -2.53798
v -0.35355 3.15082 -2.95615
v -0.50000 2.80000 -3.00000
v -0.50000 2.75000 -2.60000
v -0.35355 3.10082 -2.55615
v -0.50000 2.80000 -3.00000
v -0.35355 2.44918 -3.04385
v -0.35355 2.39918 -2.64385
v -0.50000 2.75000 -2.60000
v -0.35355 2.44918 -3.04385
v -0.00000 2.30386 -3.06202
v -0.00000 2.25386 -2.66202
v -0.35355 2.39918 -2.64385
v -0.00000 2.30386 -3.06202
v 0.35355 2.44918 -3.04385
v 0.35355 2.39918 -2.64385
v -0.00000 2.25386 -2.66202
v 0.35355 2.44918 -3.04385
v 0.50000 2.80000 -3.00000
v 0.50000 2.75000 -2.60000
v 0.35355 2.39918 -2.64385
v 0.35355 2.44918 -3.04385
v -0.00000 2.30386 -3.06202
v -0.35355 2.44918 -3.04385
v -0.50000 2.80000 -3.00000
v -0.35355 3.15082 -2.95615
v 0.00000 3.29614 -2.93798
v 0.35355 3.15082 -2.95615
v 0.50000 2.80000 -3.00000
v 0.50000 2.75000 -2.60000
v 0.35355 3.10082 -2.55615
v 0.00000 3.24614 -2.53798
v -0.35355 3.10082 -2.55615
v -0.50000 2.75000 -2.60000
v -0.35355 2.39918 -2.64385
v -0.00000 2.25386 -2.66202
v 0.35355 2.39918 -2.64385
v 0.20000 1.50000 -3.20000
v 0.20000 1.70000 -3.20000
v 0.20000 1.70000 -2.80000
v 0.20000 1.50000 -2.80000
v -0.20000 1.50000 -2.80000
v -0.20000 1.70000 -2.80000
v -0.20000 1.70000 -3.20000
v -0.20000 1.50000 -3.20000
v -0.20000 1.70000 -3.20000
v -0.20000 1.70000 -2.80000
v 0.20000 1.70000 -2.80000
v 0.20000 1.70000 -3.20000
v -0.20000 1.50000 -2.80000
v -0.20000 1.50000 -3.20000
v 0.20000 1.50000 -3.20000
v 0.20000 1.50000 -2.80000
v -0.20000 1.50000 -2.80000
v 0.20000 1.50000 -2.80000
v 0.20000 1.70000 -2.80000
v -0.20000 1.70000 -2.80000
v 0.20000 1.50000 -3.20000
v -0.20000 1.50000 -3.20000
v -0.20000 1.70000 -3.20000
v 0.20000 1.70000 -3.20000
v -0.20000 1.52978 -2.97367
v -0.20000 1.67022 -3.02633
v -0.20000 1.07022 -4.62633
v -0.20000 0.92978 -4.57367
v 0.20000 0.92978 -4.57367
v 0.20000 1.07022 -4.62633
v 0.20000 1.67022 -3.02633
v 0.20000 1.52978 -2.97367
v 0.20000 1.67022 -3.02633
v 0.20000 1.07022 -4.62633
v -0.20000 1.07022 -4.62633
v -0.20000 1.67022 -3.02633
v 0.20000 0.92978 -4.57367
v 0.20000 1.52978 -2.97367
v -0.20000 1.52978 -2.97367
v -0.20000 0.92978 -4.57367
v 0.20000 0.92978 -4.57367
v -0.20000 0.92978 -4.57367
v -0.20000 1.07022 -4.62633
v 0.20000 1.07022 -4.62633
v -0.20000 1.52978 -2.97367
v 0.20000 1.52978 -2.97367
v 0.20000 1.67022 -3.02633
v -0.20000 1.67022 -3.02633
vt 0.18750 0.93750
vt 0.81250 0.93750
vt 0.56250 0.93750
vt 0.43750 0.93750
vt 0.31250 0.93750
vt 0.68750 0.93750
vn 1.00000 0.00000 0.00000
vn -1.00000 0.00000 0.00000
vn 0.00000 1.00000 0.00000
vn 0.00000 -1.00000 0.00000
vn 0.00000 0.00000 1.00000
vn 0.00000 0.00000 -1.00000
vn 1.00000 0.00000 0.00000
vn -1.00000 0.00000 0.00000
vn 0.00000 1.00000 0.00000
vn 0.00000 -1.00000 0.00000
vn 0.00000 0.00000 1.00000
vn 0.00000 0.00000 -1.00000
vn 1.00000 0.00000 0.00000
vn -1.00000 0.00000 0.00000
vn 0.00000 1.00000 0.00000
vn 0.00000 -1.00000 0.00000
vn 0.00000 0.00000 1.00000
vn 0.00000 0.00000 -1.00000
vn 1.00000 0.00000 0.00000
vn -1.00000 0.00000 0.00000
vn 0.00000 1.00000 0.00000
vn 0.00000 -1.00000 0.00000
vn 0.00000 0.00000 1.00000
vn 0.00000 0.00000 -1.00000
vn 1.00000 0.00000 0.00000
vn -1.00000 0.00000 0.00000
vn 0.00000 1.00000 0.00000
vn 0.00000 -1.00000 0.00000
vn 0.00000 0.00000 1.00000
vn 0.00000 0.00000 -1.00000
vn 1.00000 0.00000 0.00000
vn -1.00000 0.00000 0.00000
vn 0.00000 1.00000 0.00000
vn 0.00000 -1.00000 0.00000
vn 0.00000 0.00000 1.00000
vn 0.00000 0.00000 -1.00000
vn 0.00000 0.30902 -0.95106
vn 0.00000 0.80902 -0.58779
vn 0.00000 1.00000 0.00000
vn 0.00000 0.80902 0.58779
vn 0.00000 0.30902 0.95106
vn 0.00000 -0.30902 0.95106
vn 0.00000 -0.80902 0.58779
vn 0.00000 -1.00000 0.00000
vn 0.00000 -0.80902 -0.58779
vn 0.00000 -0.30902 -0.95106
vn -1.00000 0.00000 0.00000
vn 1.00000 0.00000 0.00000
vn 0.00000 0.30902 -0.95106
vn 0.00000 0.80902 -0.58779
vn 0.00000 1.00000 0.00000
vn 0.00000 0.80902 0.58779
vn 0.00000 0.30902 0.95106
vn 0.00000 -0.30902 0.95106
vn 0.00000 -0.80902 0.58779
vn 0.00000 -1.00000 0.00000
vn 0.00000 -0.80902 -0.58779
vn 0.00000 -0.30902 -0.95106
vn -1.00000 0.00000 0.00000
vn 1.00000 0.00000 0.00000
vn 0.00000 0.30902 -0.95106
vn 0.00000 0.80902 -0.58779
vn 0.00000 1.00000 0.00000
vn 0.00000 0.80902 0.58779
vn 0.00000 0.30902 0.95106
vn 0.00000 -0.30902 0.95106
vn 0.00000 -0.80902 0.58779
vn 0.00000 -1.00000 0.00000
vn 0.00000 -0.80902 -0.58779
vn 0.00000 -0.30902 -0.95106
vn -1.00000 0.00000 0.00000
vn 1.00000 0.00000 0.00000
vn 0.00000 0.30902 -0.95106
vn 0.00000 0.80902 -0.58779
vn 0.00000 1.00000 0.00000
vn 0.00000 0.80902 0.58779
vn 0.00000 0.30902 0.95106
vn 0.00000 -0.30902 0.95106
vn 0.00000 -0.80902 0.58779
vn 0.00000 -1.00000 0.00000
vn 0.00000 -0.80902 -0.58779
vn 0.00000 -0.30902 -0.95106
vn -1.00000 0.00000 0.00000
vn 1.00000 0.00000 0.00000
vn 0.00000 0.30902 -0.95106
vn 0.00000 0.80902 -0.58779
vn 0.00000 1.00000 0.00000
vn 0.00000 0.80902 0.58779
vn 0.00000 0.30902 0.95106
vn 0.00000 -0.30902 0.95106
vn 0.00000 -0.80902 0.58779
vn 0.00000 -1.00000 0.00000
vn 0.00000 -0.80902 -0.58779
vn 0.00000 -0.30902 -0.95106
vn -1.00000 0.00000 0.00000
vn 1.00000 0.00000 0.00000
vn 0.00000 0.30902 -0.95106
vn 0.00000 0.80902 -0.58779
vn 0.00000 1.00000 0.00000
vn 0.00000 0.80902 0.58779
vn 0.00000 0.30902 0.95106
vn 0.00000 -0.30902 0.95106
vn 0.00000 -0.80902 0.58779
vn 0.00000 -1.00000 0.00000
vn 0.00000 -0.80902 -0.58779
vn 0.00000 -0.30902 -0.95106
vn -1.00000 0.00000 0.00000
vn 1.00000 0.00000 0.00000
vn 0.92388 0.37506 0.07602
vn 0.38268 0.90546 0.18354
vn -0.38268 0.90546 0.18354
vn -0.92388 0.37506 0.07602
vn -0.92388 -0.37506 -0.07602
vn -0.38268 -0.90546 -0.18354
vn 0.38268 -0.90546 -0.18354
vn 0.92388 -0.37506 -0.07602
vn 0.00000 0.19866 -0.98007
vn -0.00000 -0.19866 0.98007
vn 0.92388 0.37973 0.04747
vn 0.38268 0.91675 0.11459
vn -0.38268 0.91675 0.11459
vn -0.92388 0.37973 0.04747
vn -0.92388 -0.37973 -0.04747
vn -0.38268 -0.91675 -0.11459
vn 0.38268 -0.91675 -0.11459
vn 0.92388 -0.37973 -0.04747
vn 0.00000 0.12403 -0.99228
vn -0.00000 -0.12403 0.99228
vn 1.00000 0.00000 0.00000
vn -1.00000 0.00000 0.00000
vn 0.00000 1.00000 0.00000
vn 0.00000 -1.00000 0.00000
vn 0.00000 0.00000 1.00000
vn 0.00000 0.00000 -1.00000
vn -1.00000 0.00000 -0.00000
vn 1.00000 -0.00000 0.00000
vn 0.00000 0.93633 -0.35112
vn 0.00000 -0.93633 0.35112
vn -0.00000 -0.35112 -0.93633
vn -0.00000 0.35112 0.93633
g body
f 1/1/1 2/1/1 3/1/1 4/1/1
f 5/1/2 6/1/2 7/1/2 8/1/2
f 9/1/3 10/1/3 11/1/3 12/1/3
f 13/1/4 14/1/4 15/1/4 16/1/4
f 17/1/5 18/1/5 19/1/5 20/1/5
f 21/1/6 22/1/6 23/1/6 24/1/6
f 25/2/7 26/2/7 27/2/7 28/2/7
f 29/2/8 30/2/8 31/2/8 32/2/8
f 33/2/9 34/2/9 35/2/9 36/2/9
f 37/2/10 38/2/10 39/2/10 40/2/10
f 41/2/11 42/2/11 43/2/11 44/2/11
f 45/2/12 46/2/12 47/2/12 48/2/12
f 49/3/13 50/3/13 51/3/13 52/3/13
f 53/3/14 54/3/14 55/3/14 56/3/14
f 57/3/15 58/3/15 59/3/15 60/3/15
f 61/3/16 62/3/16 63/3/16 64/3/16
f 65/3/17 66/3/17 67/3/17 68/3/17
f 69/3/18 70/3/18 71/3/18 72/3/18
f 73/3/19 74/3/19 75/3/19 76/3/19
f 77/3/20 78/3/20 79/3/20 80/3/20
f 81/3/21 82/3/21 83/3/21 84/3/21
f 85/3/22 86/3/22 87/3/22 88/3/22
f 89/3/23 90/3/23 91/3/23 92/3/23
f 93/3/24 94/3/24 95/3/24 96/3/24
f 97/4/25 98/4/25 99/4/25 100/4/25
f 101/4/26 102/4/26 103/4/26 104/4/26
f 105/4/27 106/4/27 107/4/27 108/4/27
f 109/4/28 110/4/28 111/4/28 112/4/28
f 113/4/29 114/4/29 115/4/29 116/4/29
f 117/4/30 118/4/30 119/4/30 120/4/30
f 121/4/31 122/4/31 123/4/31 124/4/31
f 125/4/32 126/4/32 127/4/32 128/4/32
f 129/4/33 130/4/33 131/4/33 132/4/33
f 133/4/34 134/4/34 135/4/34 136/4/34
f 137/4/35 138/4/35 139/4/35 140/4/35
f 141/4/36 142/4/36 143/4/36 144/4/36
g $wheel0
f 145/5/37 146/5/37 147/5/37 148/5/37
f 149/1/38 150/1/38 151/1/38 152/1/38
f 153/5/39 154/5/39 155/5/39 156/5/39
f 157/1/40 158/1/40 159/1/40 160/1/40
f 161/5/41 162/5/41 163/5/41 164/5/41
f 165/1/42 166/1/42 167/1/42 168/1/42
f 169/5/43 170/5/43 171/5/43 172/5/43
f 173/1/44 174/1/44 175/1/44 176/1/44
f 177/5/45 178/5/45 179/5/45 180/5/45
f 181/1/46 182/1/46 183/1/46 184/1/46
f 185/5/47 186/5/47 187/5/47 188/5/47 189/5/47 190/5/47 191/5/47 192/5/47 193/5/47 194/5/47
f 195/5/48 196/5/48 197/5/48 198/5/48 199/5/48 200/5/48 201/5/48 202/5/48 203/5/48 204/5/48
g $wheel1
f 205/5/49 206/5/49 207/5/49 208/5/49
f 209/1/50 210/1/50 211/1/50 212/1/50
f 213/5/51 214/5/51 215/5/51 216/5/51
f 217/1/52 218/1/52 219/1/52 220/1/52
f 221/5/53 222/5/53 223/5/53 224/5/53
f 225/1/54 226/1/54 227/1/54 228/1/54
f 229/5/55 230/5/55 231/5/55 232/5/55
f 233/1/56 234/1/56 235/1/56 236/1/56
f 237/5/57 238/5/57 239/5/57 240/5/57
f 241/1/58 242/1/58 243/1/58 244/1/58
f 245/5/59 246/5/59 247/5/59 248/5/59 249/5/59 250/5/59 251/5/59 252/5/59 253/5/59 254/5/59
f 255/5/60 256/5/60 257/5/60 258/5/60 259/5/60 260/5/60 261/5/60 262/5/60 263/5/60 264/5/60
g $wheel2
f 265/5/61 266/5/61 267/5/61 268/5/61
f 269/1/62 270/1/62 271/1/62 272/1/62
f 273/5/63 274/5/63 275/5/63 276/5/63
f 277/1/64 278/1/64 279/1/64 280/1/64
f 281/5/65 282/5/65 283/5/65 284/5/65
f 285/1/66 286/1/66 287/1/66 288/1/66
f 289/5/67 290/5/67 291/5/67 292/5/67
f 293/1/68 294/1/68 295/1/68 296/1/68
f 297/5/69 298/5/69 299/5/69 300/5/69
f 301/1/70 302/1/70 303/1/70 304/1/70
f 305/5/71 306/5/71 307/5/71 308/5/71 309/5/71 310/5/71 311/5/71 312/5/71 313/5/71 314/5/71
f 315/5/72 316/5/72 317/5/72 318/5/72 319/5/72 320/5/72 321/5/72 322/5/72 323/5/72 324/5/72
g $wheel3
f 325/5/73 326/5/73 327/5/73 328/5/73
f 329/1/74 330/1/74 331/1/74 332/1/74
f 333/5/75 334/5/75 335/5/75 336/5/75
f 337/1/76 338/1/76 339/1/76 340/1/76
f 341/5/77 342/5/77 343/5/77 344/5/77
f 345/1/78 346/1/78 347/1/78 348/1/78
f 349/5/79 350/5/79 351/5/79 352/5/79
f 353/1/80 354/1/80 355/1/80 356/1/80
f 357/5/81 358/5/81 359/5/81 360/5/81
f 361/1/82 362/1/82 363/1/82 364/1/82
f 365/5/83 366/5/83 367/5/83 368/5/83 369/5/83 370/5/83 371/5/83 372/5/83 373/5/83 374/5/83
f 375/5/84 376/5/84 377/5/84 378/5/84 379/5/84 380/5/84 381/5/84 382/5/84 383/5/84 384/5/84
g $wheel4
f 385/5/85 386/5/85 387/5/85 388/5/85
f 389/1/86 390/1/86 391/1/86 392/1/86
f 393/5/87 394/5/87 395/5/87 396/5/87
f 397/1/88 398/1/88 399/1/88 400/1/88
f 401/5/89 402/5/89 403/5/89 404/5/89
f 405/1/90 406/1/90 407/1/90 408/1/90
f 409/5/91 410/5/91 411/5/91 412/5/91
f 413/1/92 414/1/92 415/1/92 416/1/92
f 417/5/93 418/5/93 419/5/93 420/5/93
f 421/1/94 422/1/94 423/1/94 424/1/94
f 425/5/95 426/5/95 427/5/95 428/5/95 429/5/95 430/5/95 431/5/95 432/5/95 433/5/95 434/5/95
f 435/5/96 436/5/96 437/5/96 438/5/96 439/5/96 440/5/96 441/5/96 442/5/96 443/5/96 444/5/96
g $wheel5
f 445/5/97 446/5/97 447/5/97 448/5/97
f 449/1/98 450/1/98 451/1/98 452/1/98
f 453/5/99 454/5/99 455/5/99 456/5/99
f 457/1/100 458/1/100 459/1/100 460/1/100
f 461/5/101 462/5/101 463/5/101 464/5/101
f 465/1/102 466/1/102 467/1/102 468/1/102
f 469/5/103 470/5/103 471/5/103 472/5/103
f 473/1/104 474/1/104 475/1/104 476/1/104
f 477/5/105 478/5/105 479/5/105 480/5/105
f 481/1/106 482/1/106 483/1/106 484/1/106
f 485/5/107 486/5/107 487/5/107 488/5/107 489/5/107 490/5/107 491/5/107 492/5/107 493/5/107 494/5/107
f 495/5/108 496/5/108 497/5/108 498/5/108 499/5/108 500/5/108 501/5/108 502/5/108 503/5/108 504/5/108
g $drum
f 505/6/109 506/6/109 507/6/109 508/6/109
f 509/2/110 510/2/110 511/2/110 512/2/110
f 513/6/111 514/6/111 515/6/111 516/6/111
f 517/2/112 518/2/112 519/2/112 520/2/112
f 521/6/113 522/6/113 523/6/113 524/6/113
f 525/2/114 526/2/114 527/2/114 528/2/114
f 529/6/115 530/6/115 531/6/115 532/6/115
f 533/2/116 534/2/116 535/2/116 536/2/116
f 537/6/117 538/6/117 539/6/117 540/6/117 541/6/117 542/6/117 543/6/117 544/6/117
f 545/6/118 546/6/118 547/6/118 548/6/118 549/6/118 550/6/118 551/6/118 552/6/118
f 553/6/119 554/6/119 555/6/119 556/6/119
f 557/2/120 558/2/120 559/2/120 560/2/120
f 561/6/121 562/6/121 563/6/121 564/6/121
f 565/2/122 566/2/122 567/2/122 568/2/122
f 569/6/123 570/6/123 571/6/123 572/6/123
f 573/2/124 574/2/124 575/2/124 576/2/124
f 577/6/125 578/6/125 579/6/125 580/6/125
f 581/2/126 582/2/126 583/2/126 584/2/126
f 585/6/127 586/6/127 587/6/127 588/6/127 589/6/127 590/6/127 591/6/127 592/6/127
f 593/6/128 594/6/128 595/6/128 596/6/128 597/6/128 598/6/128 599/6/128 600/6/128
g $chute
f 601/4/129 602/4/129 603/4/129 604/4/129
f 605/4/130 606/4/130 607/4/130 608/4/130
f 609/4/131 610/4/131 611/4/131 612/4/131
f 613/4/132 614/4/132 615/4/132 616/4/132
f 617/4/133 618/4/133 619/4/133 620/4/133
f 621/4/134 622/4/134 623/4/134 624/4/134
g $chute_arm
f 625/4/135 626/4/135 627/4/135 628/4/135
f 629/4/136 630/4/136 631/4/136 632/4/136
f 633/4/137 634/4/137 635/4/137 636/4/137
f 637/4/138 638/4/138 639/4/138 640/4/138
f 641/4/139 642/4/139 643/4/139 644/4/139
f 645/4/140 646/4/140 647/4/140 648/4/140
