# Large rotary pile driver
# Generated by tools/generate_models.py

v 1.00000 0.45000 -2.40000
v 1.00000 1.05000 -2.40000
v 1.00000 1.05000 2.40000
v 1.00000 0.45000 2.40000
v -1.00000 0.45000 2.40000
v -1.00000 1.05000 2.40000
v -1.00000 1.05000 -2.40000
v -1.00000 0.45000 -2.40000
v -1.00000 1.05000 -2.40000
v -1.00000 1.05000 2.40000
v 1.00000 1.05000 2.40000
v 1.00000 1.05000 -2.40000
v -1.00000 0.45000 2.40000
v -1.00000 0.45000 -2.40000
v 1.00000 0.45000 -2.40000
v 1.00000 0.45000 2.40000
v -1.00000 0.45000 2.40000
v 1.00000 0.45000 2.40000
v 1.00000 1.05000 2.40000
v -1.00000 1.05000 2.40000
v 1.00000 0.45000 -2.40000
v -1.00000 0.45000 -2.40000
v -1.00000 1.05000 -2.40000
v 1.00000 1.05000 -2.40000
v 1.62000 0.50000 2.20000
v 1.62000 0.75000 2.20000
v 1.62000 0.75000 3.10000
v 1.62000 0.50000 3.10000
v 1.38000 0.50000 3.10000
v 1.38000 0.75000 3.10000
v 1.38000 0.75000 2.20000
v 1.38000 0.50000 2.20000
v 1.38000 0.75000 2.20000
v 1.38000 0.75000 3.10000
v 1.62000 0.75000 3.10000
v 1.62000 0.75000 2.20000
v 1.38000 0.50000 3.10000
v 1.38000 0.50000 2.20000
v 1.62000 0.50000 2.20000
v 1.62000 0.50000 3.10000
v 1.38000 0.50000 3.10000
v 1.62000 0.50000 3.10000
v 1.62000 0.75000 3.10000
v 1.38000 0.75000 3.10000
v 1.62000 0.50000 2.20000
v 1.38000 0.50000 2.20000
v 1.38000 0.75000 2.20000
v 1.62000 0.75000 2.20000
v 1.80000 0.00000 3.00000
v 1.80000 0.75000 3.00000
v 1.80000 0.75000 3.40000
v 1.80000 0.00000 3.40000
v 1.20000 0.00000 3.40000
v 1.20000 0.75000 3.40000
v 1.20000 0.75000 3.00000
v 1.20000 0.00000 3.00000
v 1.20000 0.75000 3.00000
v 1.20000 0.75000 3.40000
v 1.80000 0.75000 3.40000
v 1.80000 0.75000 3.00000
v 1.20000 0.00000 3.40000
v 1.20000 0.00000 3.00000
v 1.80000 0.00000 3.00000
v 1.80000 0.00000 3.40000
v 1.20000 0.00000 3.40000
v 1.80000 0.00000 3.40000
v 1.80000 0.75000 3.40000
v 1.20000 0.75000 3.40000
v 1.80000 0.00000 3.00000
v 1.20000 0.00000 3.00000
v 1.20000 0.75000 3.00000
v 1.80000 0.75000 3.00000
v -1.38000 0.50000 2.20000
v -1.38000 0.75000 2.20000
v -1.38000 0.75000 3.10000
v -1.38000 0.50000 3.10000
v -1.62000 0.50000 3.10000
v -1.62000 0.75000 3.10000
v -1.62000 0.75000 2.20000
v -1.62000 0.50000 2.20000
v -1.62000 0.75000 2.20000
v -1.62000 0.75000 3.10000
v -1.38000 0.75000 3.10000
v -1.38000 0.75000 2.20000
v -1.62000 0.50000 3.10000
v -1.62000 0.50000 2.20000
v -1.38000 0.50000 2.20000
v -1.38000 0.50000 3.10000
v -1.62000 0.50000 3.10000
v -1.38000 0.50000 3.10000
v -1.38000 0.75000 3.10000
v -1.62000 0.75000 3.10000
v -1.38000 0.50000 2.20000
v -1.62000 0.50000 2.20000
v -1.62000 0.75000 2.20000
v -1.38000 0.75000 2.20000
v -1.20000 0.00000 3.00000
v -1.20000 0.75000 3.00000
v -1.20000 0.75000 3.40000
v -1.20000 0.00000 3.40000
v -1.80000 0.00000 3.40000
v -1.80000 0.75000 3.40000
v -1.80000 0.75000 3.00000
v -1.80000 0.00000 3.00000
v -1.80000 0.75000 3.00000
v -1.80000 0.75000 3.40000
v -1.20000 0.75000 3.40000
v -1.20000 0.75000 3.00000
v -1.80000 0.00000 3.40000
v -1.80000 0.00000 3.00000
v -1.20000 0.00000 3.00000
v -1.20000 0.00000 3.40000
v -1.80000 0.00000 3.40000
v -1.20000 0.00000 3.40000
v -1.20000 0.75000 3.40000
v -1.80000 0.75000 3.40000
v -1.20000 0.00000 3.00000
v -1.80000 0.00000 3.00000
v -1.80000 0.75000 3.00000
v -1.20000 0.75000 3.00000
v 1.62000 0.50000 -3.10000
v 1.62000 0.75000 -3.10000
v 1.62000 0.75000 -2.20000
v 1.62000 0.50000 -2.20000
v 1.38000 0.50000 -2.20000
v 1.38000 0.75000 -2.20000
v 1.38000 0.75000 -3.10000
v 1.38000 0.50000 -3.10000
v 1.38000 0.75000 -3.10000
v 1.38000 0.75000 -2.20000
v 1.62000 0.75000 -2.20000
v 1.62000 0.75000 -3.10000
v 1.38000 0.50000 -2.20000
v 1.38000 0.50000 -3.10000
v 1.62000 0.50000 -3.10000
v 1.62000 0.50000 -2.20000
v 1.38000 0.50000 -2.20000
v 1.62000 0.50000 -2.20000
v 1.62000 0.75000 -2.20000
v 1.38000 0.75000 -2.20000
v 1.62000 0.50000 -3.10000
v 1.38000 0.50000 -3.10000
v 1.38000 0.75000 -3.10000
v 1.62000 0.75000 -3.10000
v 1.80000 0.00000 -3.40000
v 1.80000 0.75000 -3.40000
v 1.80000 0.75000 -3.00000
v 1.80000 0.00000 -3.00000
v 1.20000 0.00000 -3.00000
v 1.20000 0.75000 -3.00000
v 1.20000 0.75000 -3.40000
v 1.20000 0.00000 -3.40000
v 1.20000 0.75000 -3.40000
v 1.20000 0.75000 -3.00000
v 1.80000 0.75000 -3.00000
v 1.80000 0.75000 -3.40000
v 1.20000 0.00000 -3.00000
v 1.20000 0.00000 -3.40000
v 1.80000 0.00000 -3.40000
v 1.80000 0.00000 -3.00000
v 1.20000 0.00000 -3.00000
v 1.80000 0.00000 -3.00000
v 1.80000 0.75000 -3.00000
v 1.20000 0.75000 -3.00000
v 1.80000 0.00000 -3.40000
v 1.20000 0.00000 -3.40000
v 1.20000 0.75000 -3.40000
v 1.80000 0.75000 -3.40000
v -1.38000 0.50000 -3.10000
v -1.38000 0.75000 -3.10000
v -1.38000 0.75000 -2.20000
v -1.38000 0.50000 -2.20000
v -1.62000 0.50000 -2.20000
v -1.62000 0.75000 -2.20000
v -1.62000 0.75000 -3.10000
v -1.62000 0.50000 -3.10000
v -1.62000 0.75000 -3.10000
v -1.62000 0.75000 -2.20000
v -1.38000 0.75000 -2.20000
v -1.38000 0.75000 -3.10000
v -1.62000 0.50000 -2.20000
v -1.62000 0.50000 -3.10000
v -1.38000 0.50000 -3.10000
v -1.38000 0.50000 -2.20000
v -1.62000 0.50000 -2.20000
v -1.38000 0.50000 -2.20000
v -1.38000 0.75000 -2.20000
v -1.62000 0.75000 -2.20000
v -1.38000 0.50000 -3.10000
v -1.62000 0.50000 -3.10000
v -1.62000 0.75000 -3.10000
v -1.38000 0.75000 -3.10000
v -1.20000 0.00000 -3.40000
v -1.20000 0.75000 -3.40000
v -1.20000 0.75000 -3.00000
v -1.20000 0.00000 -3.00000
v -1.80000 0.00000 -3.00000
v -1.80000 0.75000 -3.00000
v -1.80000 0.75000 -3.40000
v -1.80000 0.00000 -3.40000
v -1.80000 0.75000 -3.40000
v -1.80000 0.75000 -3.00000
v -1.20000 0.75000 -3.00000
v -1.20000 0.75000 -3.40000
v -1.80000 0.00000 -3.00000
v -1.80000 0.00000 -3.40000
v -1.20000 0.00000 -3.40000
v -1.20000 0.00000 -3.00000
v -1.80000 0.00000 -3.00000
v -1.20000 0.00000 -3.00000
v -1.20000 0.75000 -3.00000
v -1.80000 0.75000 -3.00000
v -1.20000 0.00000 -3.40000
v -1.80000 0.00000 -3.40000
v -1.80000 0.75000 -3.40000
v -1.20000 0.75000 -3.40000
v 1.90000 0.25000 -2.60000
v 1.90000 0.80000 -2.60000
v 1.90000 0.80000 2.60000
v 1.90000 0.25000 2.60000
v 1.10000 0.25000 2.60000
v 1.10000 0.80000 2.60000
v 1.10000 0.80000 -2.60000
v 1.10000 0.25000 -2.60000
v 1.10000 0.80000 -2.60000
v 1.10000 0.80000 2.60000
v 1.90000 0.80000 2.60000
v 1.90000 0.80000 -2.60000
v 1.10000 0.25000 2.60000
v 1.10000 0.25000 -2.60000
v 1.90000 0.25000 -2.60000
v 1.90000 0.25000 2.60000
v 1.10000 0.25000 2.60000
v 1.90000 0.25000 2.60000
v 1.90000 0.80000 2.60000
v 1.10000 0.80000 2.60000
v 1.90000 0.25000 -2.60000
v 1.10000 0.25000 -2.60000
v 1.10000 0.80000 -2.60000
v 1.90000 0.80000 -2.60000
v 1.95000 0.80000 -2.80000
v 1.95000 0.95000 -2.80000
v 1.95000 0.95000 2.80000
v 1.95000 0.80000 2.80000
v 1.05000 0.80000 2.80000
v 1.05000 0.95000 2.80000
v 1.05000 0.95000 -2.80000
v 1.05000 0.80000 -2.80000
v 1.05000 0.95000 -2.80000
v 1.05000 0.95000 2.80000
v 1.95000 0.95000 2.80000
v 1.95000 0.95000 -2.80000
v 1.05000 0.80000 2.80000
v 1.05000 0.80000 -2.80000
v 1.95000 0.80000 -2.80000
v 1.95000 0.80000 2.80000
v 1.05000 0.80000 2.80000
v 1.95000 0.80000 2.80000
v 1.95000 0.95000 2.80000
v 1.05000 0.95000 2.80000
v 1.95000 0.80000 -2.80000
v 1.05000 0.80000 -2.80000
v 1.05000 0.95000 -2.80000
v 1.95000 0.95000 -2.80000
v 1.95000 0.00000 -2.80000
v 1.95000 0.15000 -2.80000
v 1.95000 0.15000 2.80000
v 1.95000 0.00000 2.80000
v 1.05000 0.00000 2.80000
v 1.05000 0.15000 2.80000
v 1.05000 0.15000 -2.80000
v 1.05000 0.00000 -2.80000
v 1.05000 0.15000 -2.80000
v 1.05000 0.15000 2.80000
v 1.95000 0.15000 2.80000
v 1.95000 0.15000 -2.80000
v 1.05000 0.00000 2.80000
v 1.05000 0.00000 -2.80000
v 1.95000 0.00000 -2.80000
v 1.95000 0.00000 2.80000
v 1.05000 0.00000 2.80000
v 1.95000 0.00000 2.80000
v 1.95000 0.15000 2.80000
v 1.05000 0.15000 2.80000
v 1.95000 0.00000 -2.80000
v 1.05000 0.00000 -2.80000
v 1.05000 0.15000 -2.80000
v 1.95000 0.15000 -2.80000
v 1.95000 0.15000 2.80000
v 1.95000 0.80000 2.80000
v 1.95000 0.80000 3.00000
v 1.95000 0.15000 3.00000
v 1.05000 0.15000 3.00000
v 1.05000 0.80000 3.00000
v 1.05000 0.80000 2.80000
v 1.05000 0.15000 2.80000
v 1.05000 0.80000 2.80000
v 1.05000 0.80000 3.00000
v 1.95000 0.80000 3.00000
v 1.95000 0.80000 2.80000
v 1.05000 0.15000 3.00000
v 1.05000 0.15000 2.80000
v 1.95000 0.15000 2.80000
v 1.95000 0.15000 3.00000
v 1.05000 0.15000 3.00000
v 1.95000 0.15000 3.00000
v 1.95000 0.80000 3.00000
v 1.05000 0.80000 3.00000
v 1.95000 0.15000 2.80000
v 1.05000 0.15000 2.80000
v 1.05000 0.80000 2.80000
v 1.95000 0.80000 2.80000
v 1.95000 0.15000 -3.00000
v 1.95000 0.80000 -3.00000
v 1.95000 0.80000 -2.80000
v 1.95000 0.15000 -2.80000
v 1.05000 0.15000 -2.80000
v 1.05000 0.80000 -2.80000
v 1.05000 0.80000 -3.00000
v 1.05000 0.15000 -3.00000
v 1.05000 0.80000 -3.00000
v 1.05000 0.80000 -2.80000
v 1.95000 0.80000 -2.80000
v 1.95000 0.80000 -3.00000
v 1.05000 0.15000 -2.80000
v 1.05000 0.15000 -3.00000
v 1.95000 0.15000 -3.00000
v 1.95000 0.15000 -2.80000
v 1.05000 0.15000 -2.80000
v 1.95000 0.15000 -2.80000
v 1.95000 0.80000 -2.80000
v 1.05000 0.80000 -2.80000
v 1.95000 0.15000 -3.00000
v 1.05000 0.15000 -3.00000
v 1.05000 0.80000 -3.00000
v 1.95000 0.80000 -3.00000
v 1.90000 0.30000 -2.48000
v 1.90000 0.49799 -2.39799
v 2.00000 0.49799 -2.39799
v 2.00000 0.30000 -2.48000
v 1.90000 0.49799 -2.39799
v 1.90000 0.58000 -2.20000
v 2.00000 0.58000 -2.20000
v 2.00000 0.49799 -2.39799
v 1.90000 0.58000 -2.20000
v 1.90000 0.49799 -2.00201
v 2.00000 0.49799 -2.00201
v 2.00000 0.58000 -2.20000
v 1.90000 0.49799 -2.00201
v 1.90000 0.30000 -1.92000
v 2.00000 0.30000 -1.92000
v 2.00000 0.49799 -2.00201
v 1.90000 0.30000 -1.92000
v 1.90000 0.10201 -2.00201
v 2.00000 0.10201 -2.00201
v 2.00000 0.30000 -1.92000
v 1.90000 0.10201 -2.00201
v 1.90000 0.02000 -2.20000
v 2.00000 0.02000 -2.20000
v 2.00000 0.10201 -2.00201
v 1.90000 0.02000 -2.20000
v 1.90000 0.10201 -2.39799
v 2.00000 0.10201 -2.39799
v 2.00000 0.02000 -2.20000
v 1.90000 0.10201 -2.39799
v 1.90000 0.30000 -2.48000
v 2.00000 0.30000 -2.48000
v 2.00000 0.10201 -2.39799
v 1.90000 0.10201 -2.39799
v 1.90000 0.02000 -2.20000
v 1.90000 0.10201 -2.00201
v 1.90000 0.30000 -1.92000
v 1.90000 0.49799 -2.00201
v 1.90000 0.58000 -2.20000
v 1.90000 0.49799 -2.39799
v 1.90000 0.30000 -2.48000
v 2.00000 0.30000 -2.48000
v 2.00000 0.49799 -2.39799
v 2.00000 0.58000 -2.20000
v 2.00000 0.49799 -2.00201
v 2.00000 0.30000 -1.92000
v 2.00000 0.10201 -2.00201
v 2.00000 0.02000 -2.20000
v 2.00000 0.10201 -2.39799
v 1.90000 0.30000 -1.38000
v 1.90000 0.49799 -1.29799
v 2.00000 0.49799 -1.29799
v 2.00000 0.30000 -1.38000
v 1.90000 0.49799 -1.29799
v 1.90000 0.58000 -1.10000
v 2.00000 0.58000 -1.10000
v 2.00000 0.49799 -1.29799
v 1.90000 0.58000 -1.10000
v 1.90000 0.49799 -0.90201
v 2.00000 0.49799 -0.90201
v 2.00000 0.58000 -1.10000
v 1.90000 0.49799 -0.90201
v 1.90000 0.30000 -0.82000
v 2.00000 0.30000 -0.82000
v 2.00000 0.49799 -0.90201
v 1.90000 0.30000 -0.82000
v 1.90000 0.10201 -0.90201
v 2.00000 0.10201 -0.90201
v 2.00000 0.30000 -0.82000
v 1.90000 0.10201 -0.90201
v 1.90000 0.02000 -1.10000
v 2.00000 0.02000 -1.10000
v 2.00000 0.10201 -0.90201
v 1.90000 0.02000 -1.10000
v 1.90000 0.10201 -1.29799
v 2.00000 0.10201 -1.29799
v 2.00000 0.02000 -1.10000
v 1.90000 0.10201 -1.29799
v 1.90000 0.30000 -1.38000
v 2.00000 0.30000 -1.38000
v 2.00000 0.10201 -1.29799
v 1.90000 0.10201 -1.29799
v 1.90000 0.02000 -1.10000
v 1.90000 0.10201 -0.90201
v 1.90000 0.30000 -0.82000
v 1.90000 0.49799 -0.90201
v 1.90000 0.58000 -1.10000
v 1.90000 0.49799 -1.29799
v 1.90000 0.30000 -1.38000
v 2.00000 0.30000 -1.38000
v 2.00000 0.49799 -1.29799
v 2.00000 0.58000 -1.10000
v 2.00000 0.49799 -0.90201
v 2.00000 0.30000 -0.82000
v 2.00000 0.10201 -0.90201
v 2.00000 0.02000 -1.10000
v 2.00000 0.10201 -1.29799
v 1.90000 0.30000 -0.28000
v 1.90000 0.49799 -0.19799
v 2.00000 0.49799 -0.19799
v 2.00000 0.30000 -0.28000
v 1.90000 0.49799 -0.19799
v 1.90000 0.58000 -0.00000
v 2.00000 0.58000 -0.00000
v 2.00000 0.49799 -0.19799
v 1.90000 0.58000 -0.00000
v 1.90000 0.49799 0.19799
v 2.00000 0.49799 0.19799
v 2.00000 0.58000 -0.00000
v 1.90000 0.49799 0.19799
v 1.90000 0.30000 0.28000
v 2.00000 0.30000 0.28000
v 2.00000 0.49799 0.19799
v 1.90000 0.30000 0.28000
v 1.90000 0.10201 0.19799
v 2.00000 0.10201 0.19799
v 2.00000 0.30000 0.28000
v 1.90000 0.10201 0.19799
v 1.90000 0.02000 0.00000
v 2.00000 0.02000 0.00000
v 2.00000 0.10201 0.19799
v 1.90000 0.02000 0.00000
v 1.90000 0.10201 -0.19799
v 2.00000 0.10201 -0.19799
v 2.00000 0.02000 0.00000
v 1.90000 0.10201 -0.19799
v 1.90000 0.30000 -0.28000
v 2.00000 0.30000 -0.28000
v 2.00000 0.10201 -0.19799
v 1.90000 0.10201 -0.19799
v 1.90000 0.02000 0.00000
v 1.90000 0.10201 0.19799
v 1.90000 0.30000 0.28000
v 1.90000 0.49799 0.19799
v 1.90000 0.58000 -0.00000
v 1.90000 0.49799 -0.19799
v 1.90000 0.30000 -0.28000
v 2.00000 0.30000 -0.28000
v 2.00000 0.49799 -0.19799
v 2.00000 0.58000 -0.00000
v 2.00000 0.49799 0.19799
v 2.00000 0.30000 0.28000
v 2.00000 0.10201 0.19799
v 2.00000 0.02000 0.00000
v 2.00000 0.10201 -0.19799
v 1.90000 0.30000 0.82000
v 1.90000 0.49799 0.90201
v 2.00000 0.49799 0.90201
v 2.00000 0.30000 0.82000
v 1.90000 0.49799 0.90201
v 1.90000 0.58000 1.10000
v 2.00000 0.58000 1.10000
v 2.00000 0.49799 0.90201
v 1.90000 0.58000 1.10000
v 1.90000 0.49799 1.29799
v 2.00000 0.49799 1.29799
v 2.00000 0.58000 1.10000
v 1.90000 0.49799 1.29799
v 1.90000 0.30000 1.38000
v 2.00000 0.30000 1.38000
v 2.00000 0.49799 1.29799
v 1.90000 0.30000 1.38000
v 1.90000 0.10201 1.29799
v 2.00000 0.10201 1.29799
v 2.00000 0.30000 1.38000
v 1.90000 0.10201 1.29799
v 1.90000 0.02000 1.10000
v 2.00000 0.02000 1.10000
v 2.00000 0.10201 1.29799
v 1.90000 0.02000 1.10000
v 1.90000 0.10201 0.90201
v 2.00000 0.10201 0.90201
v 2.00000 0.02000 1.10000
v 1.90000 0.10201 0.90201
v 1.90000 0.30000 0.82000
v 2.00000 0.30000 0.82000
v 2.00000 0.10201 0.90201
v 1.90000 0.10201 0.90201
v 1.90000 0.02000 1.10000
v 1.90000 0.10201 1.29799
v 1.90000 0.30000 1.38000
v 1.90000 0.49799 1.29799
v 1.90000 0.58000 1.10000
v 1.90000 0.49799 0.90201
v 1.90000 0.30000 0.82000
v 2.00000 0.30000 0.82000
v 2.00000 0.49799 0.90201
v 2.00000 0.58000 1.10000
v 2.00000 0.49799 1.29799
v 2.00000 0.30000 1.38000
v 2.00000 0.10201 1.29799
v 2.00000 0.02000 1.10000
v 2.00000 0.10201 0.90201
v 1.90000 0.30000 1.92000
v 1.90000 0.49799 2.00201
v 2.00000 0.49799 2.00201
v 2.00000 0.30000 1.92000
v 1.90000 0.49799 2.00201
v 1.90000 0.58000 2.20000
v 2.00000 0.58000 2.20000
v 2.00000 0.49799 2.00201
v 1.90000 0.58000 2.20000
v 1.90000 0.49799 2.39799
v 2.00000 0.49799 2.39799
v 2.00000 0.58000 2.20000
v 1.90000 0.49799 2.39799
v 1.90000 0.30000 2.48000
v 2.00000 0.30000 2.48000
v 2.00000 0.49799 2.39799
v 1.90000 0.30000 2.48000
v 1.90000 0.10201 2.39799
v 2.00000 0.10201 2.39799
v 2.00000 0.30000 2.48000
v 1.90000 0.10201 2.39799
v 1.90000 0.02000 2.20000
v 2.00000 0.02000 2.20000
v 2.00000 0.10201 2.39799
v 1.90000 0.02000 2.20000
v 1.90000 0.10201 2.00201
v 2.00000 0.10201 2.00201
v 2.00000 0.02000 2.20000
v 1.90000 0.10201 2.00201
v 1.90000 0.30000 1.92000
v 2.00000 0.30000 1.92000
v 2.00000 0.10201 2.00201
v 1.90000 0.10201 2.00201
v 1.90000 0.02000 2.20000
v 1.90000 0.10201 2.39799
v 1.90000 0.30000 2.48000
v 1.90000 0.49799 2.39799
v 1.90000 0.58000 2.20000
v 1.90000 0.49799 2.00201
v 1.90000 0.30000 1.92000
v 2.00000 0.30000 1.92000
v 2.00000 0.49799 2.00201
v 2.00000 0.58000 2.20000
v 2.00000 0.49799 2.39799
v 2.00000 0.30000 2.48000
v 2.00000 0.10201 2.39799
v 2.00000 0.02000 2.20000
v 2.00000 0.10201 2.00201
v 1.90000 0.47000 2.15000
v 1.90000 0.70511 2.22639
v 2.00000 0.70511 2.22639
v 2.00000 0.47000 2.15000
v 1.90000 0.70511 2.22639
v 1.90000 0.85042 2.42639
v 2.00000 0.85042 2.42639
v 2.00000 0.70511 2.22639
v 1.90000 0.85042 2.42639
v 1.90000 0.85042 2.67361
v 2.00000 0.85042 2.67361
v 2.00000 0.85042 2.42639
v 1.90000 0.85042 2.67361
v 1.90000 0.70511 2.87361
v 2.00000 0.70511 2.87361
v 2.00000 0.85042 2.67361
v 1.90000 0.70511 2.87361
v 1.90000 0.47000 2.95000
v 2.00000 0.47000 2.95000
v 2.00000 0.70511 2.87361
v 1.90000 0.47000 2.95000
v 1.90000 0.23489 2.87361
v 2.00000 0.23489 2.87361
v 2.00000 0.47000 2.95000
v 1.90000 0.23489 2.87361
v 1.90000 0.08958 2.67361
v 2.00000 0.08958 2.67361
v 2.00000 0.23489 2.87361
v 1.90000 0.08958 2.67361
v 1.90000 0.08958 2.42639
v 2.00000 0.08958 2.42639
v 2.00000 0.08958 2.67361
v 1.90000 0.08958 2.42639
v 1.90000 0.23489 2.22639
v 2.00000 0.23489 2.22639
v 2.00000 0.08958 2.42639
v 1.90000 0.23489 2.22639
v 1.90000 0.47000 2.15000
v 2.00000 0.47000 2.15000
v 2.00000 0.23489 2.22639
v 1.90000 0.23489 2.22639
v 1.90000 0.08958 2.42639
v 1.90000 0.08958 2.67361
v 1.90000 0.23489 2.87361
v 1.90000 0.47000 2.95000
v 1.90000 0.70511 2.87361
v 1.90000 0.85042 2.67361
v 1.90000 0.85042 2.42639
v 1.90000 0.70511 2.22639
v 1.90000 0.47000 2.15000
v 2.00000 0.47000 2.15000
v 2.00000 0.70511 2.22639
v 2.00000 0.85042 2.42639
v 2.00000 0.85042 2.67361
v 2.00000 0.70511 2.87361
v 2.00000 0.47000 2.95000
v 2.00000 0.23489 2.87361
v 2.00000 0.08958 2.67361
v 2.00000 0.08958 2.42639
v 2.00000 0.23489 2.22639
v 1.90000 0.47000 -2.95000
v 1.90000 0.70511 -2.87361
v 2.00000 0.70511 -2.87361
v 2.00000 0.47000 -2.95000
v 1.90000 0.70511 -2.87361
v 1.90000 0.85042 -2.67361
v 2.00000 0.85042 -2.67361
v 2.00000 0.70511 -2.87361
v 1.90000 0.85042 -2.67361
v 1.90000 0.85042 -2.42639
v 2.00000 0.85042 -2.42639
v 2.00000 0.85042 -2.67361
v 1.90000 0.85042 -2.42639
v 1.90000 0.70511 -2.22639
v 2.00000 0.70511 -2.22639
v 2.00000 0.85042 -2.42639
v 1.90000 0.70511 -2.22639
v 1.90000 0.47000 -2.15000
v 2.00000 0.47000 -2.15000
v 2.00000 0.70511 -2.22639
v 1.90000 0.47000 -2.15000
v 1.90000 0.23489 -2.22639
v 2.00000 0.23489 -2.22639
v 2.00000 0.47000 -2.15000
v 1.90000 0.23489 -2.22639
v 1.90000 0.08958 -2.42639
v 2.00000 0.08958 -2.42639
v 2.00000 0.23489 -2.22639
v 1.90000 0.08958 -2.42639
v 1.90000 0.08958 -2.67361
v 2.00000 0.08958 -2.67361
v 2.00000 0.08958 -2.42639
v 1.90000 0.08958 -2.67361
v 1.90000 0.23489 -2.87361
v 2.00000 0.23489 -2.87361
v 2.00000 0.08958 -2.67361
v 1.90000 0.23489 -2.87361
v 1.90000 0.47000 -2.95000
v 2.00000 0.47000 -2.95000
v 2.00000 0.23489 -2.87361
v 1.90000 0.23489 -2.87361
v 1.90000 0.08958 -2.67361
v 1.90000 0.08958 -2.42639
v 1.90000 0.23489 -2.22639
v 1.90000 0.47000 -2.15000
v 1.90000 0.70511 -2.22639
v 1.90000 0.85042 -2.42639
v 1.90000 0.85042 -2.67361
v 1.90000 0.70511 -2.87361
v 1.90000 0.47000 -2.95000
v 2.00000 0.47000 -2.95000
v 2.00000 0.70511 -2.87361
v 2.00000 0.85042 -2.67361
v 2.00000 0.85042 -2.42639
v 2.00000 0.70511 -2.22639
v 2.00000 0.47000 -2.15000
v 2.00000 0.23489 -2.22639
v 2.00000 0.08958 -2.42639
v 2.00000 0.08958 -2.67361
v 2.00000 0.23489 -2.87361
v -1.10000 0.25000 -2.60000
v -1.10000 0.80000 -2.60000
v -1.10000 0.80000 2.60000
v -1.10000 0.25000 2.60000
v -1.90000 0.25000 2.60000
v -1.90000 0.80000 2.60000
v -1.90000 0.80000 -2.60000
v -1.90000 0.25000 -2.60000
v -1.90000 0.80000 -2.60000
v -1.90000 0.80000 2.60000
v -1.10000 0.80000 2.60000
v -1.10000 0.80000 -2.60000
v -1.90000 0.25000 2.60000
v -1.90000 0.25000 -2.60000
v -1.10000 0.25000 -2.60000
v -1.10000 0.25000 2.60000
v -1.90000 0.25000 2.60000
v -1.10000 0.25000 2.60000
v -1.10000 0.80000 2.60000
v -1.90000 0.80000 2.60000
v -1.10000 0.25000 -2.60000
v -1.90000 0.25000 -2.60000
v -1.90000 0.80000 -2.60000
v -1.10000 0.80000 -2.60000
v -1.05000 0.80000 -2.80000
v -1.05000 0.95000 -2.80000
v -1.05000 0.95000 2.80000
v -1.05000 0.80000 2.80000
v -1.95000 0.80000 2.80000
v -1.95000 0.95000 2.80000
v -1.95000 0.95000 -2.80000
v -1.95000 0.80000 -2.80000
v -1.95000 0.95000 -2.80000
v -1.95000 0.95000 2.80000
v -1.05000 0.95000 2.80000
v -1.05000 0.95000 -2.80000
v -1.95000 0.80000 2.80000
v -1.95000 0.80000 -2.80000
v -1.05000 0.80000 -2.80000
v -1.05000 0.80000 2.80000
v -1.95000 0.80000 2.80000
v -1.05000 0.80000 2.80000
v -1.05000 0.95000 2.80000
v -1.95000 0.95000 2.80000
v -1.05000 0.80000 -2.80000
v -1.95000 0.80000 -2.80000
v -1.95000 0.95000 -2.80000
v -1.05000 0.95000 -2.80000
v -1.05000 0.00000 -2.80000
v -1.05000 0.15000 -2.80000
v -1.05000 0.15000 2.80000
v -1.05000 0.00000 2.80000
v -1.95000 0.00000 2.80000
v -1.95000 0.15000 2.80000
v -1.95000 0.15000 -2.80000
v -1.95000 0.00000 -2.80000
v -1.95000 0.15000 -2.80000
v -1.95000 0.15000 2.80000
v -1.05000 0.15000 2.80000
v -1.05000 0.15000 -2.80000
v -1.95000 0.00000 2.80000
v -1.95000 0.00000 -2.80000
v -1.05000 0.00000 -2.80000
v -1.05000 0.00000 2.80000
v -1.95000 0.00000 2.80000
v -1.05000 0.00000 2.80000
v -1.05000 0.15000 2.80000
v -1.95000 0.15000 2.80000
v -1.05000 0.00000 -2.80000
v -1.95000 0.00000 -2.80000
v -1.95000 0.15000 -2.80000
v -1.05000 0.15000 -2.80000
v -1.05000 0.15000 2.80000
v -1.05000 0.80000 2.80000
v -1.05000 0.80000 3.00000
v -1.05000 0.15000 3.00000
v -1.95000 0.15000 3.00000
v -1.95000 0.80000 3.00000
v -1.95000 0.80000 2.80000
v -1.95000 0.15000 2.80000
v -1.95000 0.80000 2.80000
v -1.95000 0.80000 3.00000
v -1.05000 0.80000 3.00000
v -1.05000 0.80000 2.80000
v -1.95000 0.15000 3.00000
v -1.95000 0.15000 2.80000
v -1.05000 0.15000 2.80000
v -1.05000 0.15000 3.00000
v -1.95000 0.15000 3.00000
v -1.05000 0.15000 3.00000
v -1.05000 0.80000 3.00000
v -1.95000 0.80000 3.00000
v -1.05000 0.15000 2.80000
v -1.95000 0.15000 2.80000
v -1.95000 0.80000 2.80000
v -1.05000 0.80000 2.80000
v -1.05000 0.15000 -3.00000
v -1.05000 0.80000 -3.00000
v -1.05000 0.80000 -2.80000
v -1.05000 0.15000 -2.80000
v -1.95000 0.15000 -2.80000
v -1.95000 0.80000 -2.80000
v -1.95000 0.80000 -3.00000
v -1.95000 0.15000 -3.00000
v -1.95000 0.80000 -3.00000
v -1.95000 0.80000 -2.80000
v -1.05000 0.80000 -2.80000
v -1.05000 0.80000 -3.00000
v -1.95000 0.15000 -2.80000
v -1.95000 0.15000 -3.00000
v -1.05000 0.15000 -3.00000
v -1.05000 0.15000 -2.80000
v -1.95000 0.15000 -2.80000
v -1.05000 0.15000 -2.80000
v -1.05000 0.80000 -2.80000
v -1.95000 0.80000 -2.80000
v -1.05000 0.15000 -3.00000
v -1.95000 0.15000 -3.00000
v -1.95000 0.80000 -3.00000
v -1.05000 0.80000 -3.00000
v -2.00000 0.30000 -2.48000
v -2.00000 0.49799 -2.39799
v -1.90000 0.49799 -2.39799
v -1.90000 0.30000 -2.48000
v -2.00000 0.49799 -2.39799
v -2.00000 0.58000 -2.20000
v -1.90000 0.58000 -2.20000
v -1.90000 0.49799 -2.39799
v -2.00000 0.58000 -2.20000
v -2.00000 0.49799 -2.00201
v -1.90000 0.49799 -2.00201
v -1.90000 0.58000 -2.20000
v -2.00000 0.49799 -2.00201
v -2.00000 0.30000 -1.92000
v -1.90000 0.30000 -1.92000
v -1.90000 0.49799 -2.00201
v -2.00000 0.30000 -1.92000
v -2.00000 0.10201 -2.00201
v -1.90000 0.10201 -2.00201
v -1.90000 0.30000 -1.92000
v -2.00000 0.10201 -2.00201
v -2.00000 0.02000 -2.20000
v -1.90000 0.02000 -2.20000
v -1.90000 0.10201 -2.00201
v -2.00000 0.02000 -2.20000
v -2.00000 0.10201 -2.39799
v -1.90000 0.10201 -2.39799
v -1.90000 0.02000 -2.20000
v -2.00000 0.10201 -2.39799
v -2.00000 0.30000 -2.48000
v -1.90000 0.30000 -2.48000
v -1.90000 0.10201 -2.39799
v -2.00000 0.10201 -2.39799
v -2.00000 0.02000 -2.20000
v -2.00000 0.10201 -2.00201
v -2.00000 0.30000 -1.92000
v -2.00000 0.49799 -2.00201
v -2.00000 0.58000 -2.20000
v -2.00000 0.49799 -2.39799
v -2.00000 0.30000 -2.48000
v -1.90000 0.30000 -2.48000
v -1.90000 0.49799 -2.39799
v -1.90000 0.58000 -2.20000
v -1.90000 0.49799 -2.00201
v -1.90000 0.30000 -1.92000
v -1.90000 0.10201 -2.00201
v -1.90000 0.02000 -2.20000
v -1.90000 0.10201 -2.39799
v -2.00000 0.30000 -1.38000
v -2.00000 0.49799 -1.29799
v -1.90000 0.49799 -1.29799
v -1.90000 0.30000 -1.38000
v -2.00000 0.49799 -1.29799
v -2.00000 0.58000 -1.10000
v -1.90000 0.58000 -1.10000
v -1.90000 0.49799 -1.29799
v -2.00000 0.58000 -1.10000
v -2.00000 0.49799 -0.90201
v -1.90000 0.49799 -0.90201
v -1.90000 0.58000 -1.10000
v -2.00000 0.49799 -0.90201
v -2.00000 0.30000 -0.82000
v -1.90000 0.30000 -0.82000
v -1.90000 0.49799 -0.90201
v -2.00000 0.30000 -0.82000
v -2.00000 0.10201 -0.90201
v -1.90000 0.10201 -0.90201
v -1.90000 0.30000 -0.82000
v -2.00000 0.10201 -0.90201
v -2.00000 0.02000 -1.10000
v -1.90000 0.02000 -1.10000
v -1.90000 0.10201 -0.90201
v -2.00000 0.02000 -1.10000
v -2.00000 0.10201 -1.29799
v -1.90000 0.10201 -1.29799
v -1.90000 0.02000 -1.10000
v -2.00000 0.10201 -1.29799
v -2.00000 0.30000 -1.38000
v -1.90000 0.30000 -1.38000
v -1.90000 0.10201 -1.29799
v -2.00000 0.10201 -1.29799
v -2.00000 0.02000 -1.10000
v -2.00000 0.10201 -0.90201
v -2.00000 0.30000 -0.82000
v -2.00000 0.49799 -0.90201
v -2.00000 0.58000 -1.10000
v -2.00000 0.49799 -1.29799
v -2.00000 0.30000 -1.38000
v -1.90000 0.30000 -1.38000
v -1.90000 0.49799 -1.29799
v -1.90000 0.58000 -1.10000
v -1.90000 0.49799 -0.90201
v -1.90000 0.30000 -0.82000
v -1.90000 0.10201 -0.90201
v -1.90000 0.02000 -1.10000
v -1.90000 0.10201 -1.29799
v -2.00000 0.30000 -0.28000
v -2.00000 0.49799 -0.19799
v -1.90000 0.49799 -0.19799
v -1.90000 0.30000 -0.28000
v -2.00000 0.49799 -0.19799
v -2.00000 0.58000 -0.00000
v -1.90000 0.58000 -0.00000
v -1.90000 0.49799 -0.19799
v -2.00000 0.58000 -0.00000
v -2.00000 0.49799 0.19799
v -1.90000 0.49799 0.19799
v -1.90000 0.58000 -0.00000
v -2.00000 0.49799 0.19799
v -2.00000 0.30000 0.28000
v -1.90000 0.30000 0.28000
v -1.90000 0.49799 0.19799
v -2.00000 0.30000 0.28000
v -2.00000 0.10201 0.19799
v -1.90000 0.10201 0.19799
v -1.90000 0.30000 0.28000
v -2.00000 0.10201 0.19799
v -2.00000 0.02000 0.00000
v -1.90000 0.02000 0.00000
v -1.90000 0.10201 0.19799
v -2.00000 0.02000 0.00000
v -2.00000 0.10201 -0.19799
v -1.90000 0.10201 -0.19799
v -1.90000 0.02000 0.00000
v -2.00000 0.10201 -0.19799
v -2.00000 0.30000 -0.28000
v -1.90000 0.30000 -0.28000
v -1.90000 0.10201 -0.19799
v -2.00000 0.10201 -0.19799
v -2.00000 0.02000 0.00000
v -2.00000 0.10201 0.19799
v -2.00000 0.30000 0.28000
v -2.00000 0.49799 0.19799
v -2.00000 0.58000 -0.00000
v -2.00000 0.49799 -0.19799
v -2.00000 0.30000 -0.28000
v -1.90000 0.30000 -0.28000
v -1.90000 0.49799 -0.19799
v -1.90000 0.58000 -0.00000
v -1.90000 0.49799 0.19799
v -1.90000 0.30000 0.28000
v -1.90000 0.10201 0.19799
v -1.90000 0.02000 0.00000
v -1.90000 0.10201 -0.19799
v -2.00000 0.30000 0.82000
v -2.00000 0.49799 0.90201
v -1.90000 0.49799 0.90201
v -1.90000 0.30000 0.82000
v -2.00000 0.49799 0.90201
v -2.00000 0.58000 1.10000
v -1.90000 0.58000 1.10000
v -1.90000 0.49799 0.90201
v -2.00000 0.58000 1.10000
v -2.00000 0.49799 1.29799
v -1.90000 0.49799 1.29799
v -1.90000 0.58000 1.10000
v -2.00000 0.49799 1.29799
v -2.00000 0.30000 1.38000
v -1.90000 0.30000 1.38000
v -1.90000 0.49799 1.29799
v -2.00000 0.30000 1.38000
v -2.00000 0.10201 1.29799
v -1.90000 0.10201 1.29799
v -1.90000 0.30000 1.38000
v -2.00000 0.10201 1.29799
v -2.00000 0.02000 1.10000
v -1.90000 0.02000 1.10000
v -1.90000 0.10201 1.29799
v -2.00000 0.02000 1.10000
v -2.00000 0.10201 0.90201
v -1.90000 0.10201 0.90201
v -1.90000 0.02000 1.10000
v -2.00000 0.10201 0.90201
v -2.00000 0.30000 0.82000
v -1.90000 0.30000 0.82000
v -1.90000 0.10201 0.90201
v -2.00000 0.10201 0.90201
v -2.00000 0.02000 1.10000
v -2.00000 0.10201 1.29799
v -2.00000 0.30000 1.38000
v -2.00000 0.49799 1.29799
v -2.00000 0.58000 1.10000
v -2.00000 0.49799 0.90201
v -2.00000 0.30000 0.82000
v -1.90000 0.30000 0.82000
v -1.90000 0.49799 0.90201
v -1.90000 0.58000 1.10000
v -1.90000 0.49799 1.29799
v -1.90000 0.30000 1.38000
v -1.90000 0.10201 1.29799
v -1.90000 0.02000 1.10000
v -1.90000 0.10201 0.90201
v -2.00000 0.30000 1.92000
v -2.00000 0.49799 2.00201
v -1.90000 0.49799 2.00201
v -1.90000 0.30000 1.92000
v -2.00000 0.49799 2.00201
v -2.00000 0.58000 2.20000
v -1.90000 0.58000 2.20000
v -1.90000 0.49799 2.00201
v -2.00000 0.58000 2.20000
v -2.00000 0.49799 2.39799
v -1.90000 0.49799 2.39799
v -1.90000 0.58000 2.20000
v -2.00000 0.49799 2.39799
v -2.00000 0.30000 2.48000
v -1.90000 0.30000 2.48000
v -1.90000 0.49799 2.39799
v -2.00000 0.30000 2.48000
v -2.00000 0.10201 2.39799
v -1.90000 0.10201 2.39799
v -1.90000 0.30000 2.48000
v -2.00000 0.10201 2.39799
v -2.00000 0.02000 2.20000
v -1.90000 0.02000 2.20000
v -1.90000 0.10201 2.39799
v -2.00000 0.02000 2.20000
v -2.00000 0.10201 2.00201
v -1.90000 0.10201 2.00201
v -1.90000 0.02000 2.20000
v -2.00000 0.10201 2.00201
v -2.00000 0.30000 1.92000
v -1.90000 0.30000 1.92000
v -1.90000 0.10201 2.00201
v -2.00000 0.10201 2.00201
v -2.00000 0.02000 2.20000
v -2.00000 0.10201 2.39799
v -2.00000 0.30000 2.48000
v -2.00000 0.49799 2.39799
v -2.00000 0.58000 2.20000
v -2.00000 0.49799 2.00201
v -2.00000 0.30000 1.92000
v -1.90000 0.30000 1.92000
v -1.90000 0.49799 2.00201
v -1.90000 0.58000 2.20000
v -1.90000 0.49799 2.39799
v -1.90000 0.30000 2.48000
v -1.90000 0.10201 2.39799
v -1.90000 0.02000 2.20000
v -1.90000 0.10201 2.00201
v -2.00000 0.47000 2.15000
v -2.00000 0.70511 2.22639
v -1.90000 0.70511 2.22639
v -1.90000 0.47000 2.15000
v -2.00000 0.70511 2.22639
v -2.00000 0.85042 2.42639
v -1.90000 0.85042 2.42639
v -1.90000 0.70511 2.22639
v -2.00000 0.85042 2.42639
v -2.00000 0.85042 2.67361
v -1.90000 0.85042 2.67361
v -1.90000 0.85042 2.42639
v -2.00000 0.85042 2.67361
v -2.00000 0.70511 2.87361
v -1.90000 0.70511 2.87361
v -1.90000 0.85042 2.67361
v -2.00000 0.70511 2.87361
v -2.00000 0.47000 2.95000
v -1.90000 0.47000 2.95000
v -1.90000 0.70511 2.87361
v -2.00000 0.47000 2.95000
v -2.00000 0.23489 2.87361
v -1.90000 0.23489 2.87361
v -1.90000 0.47000 2.95000
v -2.00000 0.23489 2.87361
v -2.00000 0.08958 2.67361
v -1.90000 0.08958 2.67361
v -1.90000 0.23489 2.87361
v -2.00000 0.08958 2.67361
v -2.00000 0.08958 2.42639
v -1.90000 0.08958 2.42639
v -1.90000 0.08958 2.67361
v -2.00000 0.08958 2.42639
v -2.00000 0.23489 2.22639
v -1.90000 0.23489 2.22639
v -1.90000 0.08958 2.42639
v -2.00000 0.23489 2.22639
v -2.00000 0.47000 2.15000
v -1.90000 0.47000 2.15000
v -1.90000 0.23489 2.22639
v -2.00000 0.23489 2.22639
v -2.00000 0.08958 2.42639
v -2.00000 0.08958 2.67361
v -2.00000 0.23489 2.87361
v -2.00000 0.47000 2.95000
v -2.00000 0.70511 2.87361
v -2.00000 0.85042 2.67361
v -2.00000 0.85042 2.42639
v -2.00000 0.70511 2.22639
v -2.00000 0.47000 2.15000
v -1.90000 0.47000 2.15000
v -1.90000 0.70511 2.22639
v -1.90000 0.85042 2.42639
v -1.90000 0.85042 2.67361
v -1.90000 0.70511 2.87361
v -1.90000 0.47000 2.95000
v -1.90000 0.23489 2.87361
v -1.90000 0.08958 2.67361
v -1.90000 0.08958 2.42639
v -1.90000 0.23489 2.22639
v -2.00000 0.47000 -2.95000
v -2.00000 0.70511 -2.87361
v -1.90000 0.70511 -2.87361
v -1.90000 0.47000 -2.95000
v -2.00000 0.70511 -2.87361
v -2.00000 0.85042 -2.67361
v -1.90000 0.85042 -2.67361
v -1.90000 0.70511 -2.87361
v -2.00000 0.85042 -2.67361
v -2.00000 0.85042 -2.42639
v -1.90000 0.85042 -2.42639
v -1.90000 0.85042 -2.67361
v -2.00000 0.85042 -2.42639
v -2.00000 0.70511 -2.22639
v -1.90000 0.70511 -2.22639
v -1.90000 0.85042 -2.42639
v -2.00000 0.70511 -2.22639
v -2.00000 0.47000 -2.15000
v -1.90000 0.47000 -2.15000
v -1.90000 0.70511 -2.22639
v -2.00000 0.47000 -2.15000
v -2.00000 0.23489 -2.22639
v -1.90000 0.23489 -2.22639
v -1.90000 0.47000 -2.15000
v -2.00000 0.23489 -2.22639
v -2.00000 0.08958 -2.42639
v -1.90000 0.08958 -2.42639
v -1.90000 0.23489 -2.22639
v -2.00000 0.08958 -2.42639
v -2.00000 0.08958 -2.67361
v -1.90000 0.08958 -2.67361
v -1.90000 0.08958 -2.42639
v -2.00000 0.08958 -2.67361
v -2.00000 0.23489 -2.87361
v -1.90000 0.23489 -2.87361
v -1.90000 0.08958 -2.67361
v -2.00000 0.23489 -2.87361
v -2.00000 0.47000 -2.95000
v -1.90000 0.47000 -2.95000
v -1.90000 0.23489 -2.87361
v -2.00000 0.23489 -2.87361
v -2.00000 0.08958 -2.67361
v -2.00000 0.08958 -2.42639
v -2.00000 0.23489 -2.22639
v -2.00000 0.47000 -2.15000
v -2.00000 0.70511 -2.22639
v -2.00000 0.85042 -2.42639
v -2.00000 0.85042 -2.67361
v -2.00000 0.70511 -2.87361
v -2.00000 0.47000 -2.95000
v -1.90000 0.47000 -2.95000
v -1.90000 0.70511 -2.87361
v -1.90000 0.85042 -2.67361
v -1.90000 0.85042 -2.42639
v -1.90000 0.70511 -2.22639
v -1.90000 0.47000 -2.15000
v -1.90000 0.23489 -2.22639
v -1.90000 0.08958 -2.42639
v -1.90000 0.08958 -2.67361
v -1.90000 0.23489 -2.87361
v 1.60000 1.05000 -3.20000
v 1.60000 1.40000 -3.20000
v 1.60000 1.40000 1.80000
v 1.60000 1.05000 1.80000
v -1.60000 1.05000 1.80000
v -1.60000 1.40000 1.80000
v -1.60000 1.40000 -3.20000
v -1.60000 1.05000 -3.20000
v -1.60000 1.40000 -3.20000
v -1.60000 1.40000 1.80000
v 1.60000 1.40000 1.80000
v 1.60000 1.40000 -3.20000
v -1.60000 1.05000 1.80000
v -1.60000 1.05000 -3.20000
v 1.60000 1.05000 -3.20000
v 1.60000 1.05000 1.80000
v -1.60000 1.05000 1.80000
v 1.60000 1.05000 1.80000
v 1.60000 1.40000 1.80000
v -1.60000 1.40000 1.80000
v 1.60000 1.05000 -3.20000
v -1.60000 1.05000 -3.20000
v -1.60000 1.40000 -3.20000
v 1.60000 1.40000 -3.20000
v 0.30000 1.40000 -3.00000
v 0.30000 2.50000 -3.00000
v 0.30000 2.50000 0.20000
v 0.30000 1.40000 0.20000
v -1.50000 1.40000 0.20000
v -1.50000 2.50000 0.20000
v -1.50000 2.50000 -3.00000
v -1.50000 1.40000 -3.00000
v -1.50000 2.50000 -3.00000
v -1.50000 2.50000 0.20000
v 0.30000 2.50000 0.20000
v 0.30000 2.50000 -3.00000
v -1.50000 1.40000 0.20000
v -1.50000 1.40000 -3.00000
v 0.30000 1.40000 -3.00000
v 0.30000 1.40000 0.20000
v -1.50000 1.40000 0.20000
v 0.30000 1.40000 0.20000
v 0.30000 2.50000 0.20000
v -1.50000 2.50000 0.20000
v 0.30000 1.40000 -3.00000
v -1.50000 1.40000 -3.00000
v -1.50000 2.50000 -3.00000
v 0.30000 2.50000 -3.00000
v 1.60000 1.20000 -3.60000
v 1.60000 2.30000 -3.60000
v 1.60000 2.30000 -3.20000
v 1.60000 1.20000 -3.20000
v -1.60000 1.20000 -3.20000
v -1.60000 2.30000 -3.20000
v -1.60000 2.30000 -3.60000
v -1.60000 1.20000 -3.60000
v -1.60000 2.30000 -3.60000
v -1.60000 2.30000 -3.20000
v 1.60000 2.30000 -3.20000
v 1.60000 2.30000 -3.60000
v -1.60000 1.20000 -3.20000
v -1.60000 1.20000 -3.60000
v 1.60000 1.20000 -3.60000
v 1.60000 1.20000 -3.20000
v -1.60000 1.20000 -3.20000
v 1.60000 1.20000 -3.20000
v 1.60000 2.30000 -3.20000
v -1.60000 2.30000 -3.20000
v 1.60000 1.20000 -3.60000
v -1.60000 1.20000 -3.60000
v -1.60000 2.30000 -3.60000
v 1.60000 2.30000 -3.60000
v 1.45000 1.40000 0.30000
v 1.45000 3.00000 0.30000
v 1.45000 3.00000 1.70000
v 1.45000 1.40000 1.70000
v 0.45000 1.40000 1.70000
v 0.45000 3.00000 1.70000
v 0.45000 3.00000 0.30000
v 0.45000 1.40000 0.30000
v 0.45000 3.00000 0.30000
v 0.45000 3.00000 1.70000
v 1.45000 3.00000 1.70000
v 1.45000 3.00000 0.30000
v 0.45000 1.40000 1.70000
v 0.45000 1.40000 0.30000
v 1.45000 1.40000 0.30000
v 1.45000 1.40000 1.70000
v 0.45000 1.40000 1.70000
v 1.45000 1.40000 1.70000
v 1.45000 3.00000 1.70000
v 0.45000 3.00000 1.70000
v 1.45000 1.40000 0.30000
v 0.45000 1.40000 0.30000
v 0.45000 3.00000 0.30000
v 1.45000 3.00000 0.30000
v 1.40000 2.12000 1.70000
v 1.40000 2.90000 1.70000
v 1.40000 2.90000 1.73000
v 1.40000 2.12000 1.73000
v 0.50000 2.12000 1.73000
v 0.50000 2.90000 1.73000
v 0.50000 2.90000 1.70000
v 0.50000 2.12000 1.70000
v 0.50000 2.90000 1.70000
v 0.50000 2.90000 1.73000
v 1.40000 2.90000 1.73000
v 1.40000 2.90000 1.70000
v 0.50000 2.12000 1.73000
v 0.50000 2.12000 1.70000
v 1.40000 2.12000 1.70000
v 1.40000 2.12000 1.73000
v 0.50000 2.12000 1.73000
v 1.40000 2.12000 1.73000
v 1.40000 2.90000 1.73000
v 0.50000 2.90000 1.73000
v 1.40000 2.12000 1.70000
v 0.50000 2.12000 1.70000
v 0.50000 2.90000 1.70000
v 1.40000 2.90000 1.70000
v 1.48000 2.12000 0.40000
v 1.48000 2.90000 0.40000
v 1.48000 2.90000 1.60000
v 1.48000 2.12000 1.60000
v 1.45000 2.12000 1.60000
v 1.45000 2.90000 1.60000
v 1.45000 2.90000 0.40000
v 1.45000 2.12000 0.40000
v 1.45000 2.90000 0.40000
v 1.45000 2.90000 1.60000
v 1.48000 2.90000 1.60000
v 1.48000 2.90000 0.40000
v 1.45000 2.12000 1.60000
v 1.45000 2.12000 0.40000
v 1.48000 2.12000 0.40000
v 1.48000 2.12000 1.60000
v 1.45000 2.12000 1.60000
v 1.48000 2.12000 1.60000
v 1.48000 2.90000 1.60000
v 1.45000 2.90000 1.60000
v 1.48000 2.12000 0.40000
v 1.45000 2.12000 0.40000
v 1.45000 2.90000 0.40000
v 1.48000 2.90000 0.40000
v 0.50000 1.05000 1.80000
v 0.50000 1.80000 1.80000
v 0.50000 1.80000 2.60000
v 0.50000 1.05000 2.60000
v -0.50000 1.05000 2.60000
v -0.50000 1.80000 2.60000
v -0.50000 1.80000 1.80000
v -0.50000 1.05000 1.80000
v -0.50000 1.80000 1.80000
v -0.50000 1.80000 2.60000
v 0.50000 1.80000 2.60000
v 0.50000 1.80000 1.80000
v -0.50000 1.05000 2.60000
v -0.50000 1.05000 1.80000
v 0.50000 1.05000 1.80000
v 0.50000 1.05000 2.60000
v -0.50000 1.05000 2.60000
v 0.50000 1.05000 2.60000
v 0.50000 1.80000 2.60000
v -0.50000 1.80000 2.60000
v 0.50000 1.05000 1.80000
v -0.50000 1.05000 1.80000
v -0.50000 1.80000 1.80000
v 0.50000 1.80000 1.80000
v 0.30000 2.30000 -3.10000
v 0.30000 4.20000 -3.10000
v 0.30000 4.20000 -2.80000
v 0.30000 2.30000 -2.80000
v -0.30000 2.30000 -2.80000
v -0.30000 4.20000 -2.80000
v -0.30000 4.20000 -3.10000
v -0.30000 2.30000 -3.10000
v -0.30000 4.20000 -3.10000
v -0.30000 4.20000 -2.80000
v 0.30000 4.20000 -2.80000
v 0.30000 4.20000 -3.10000
v -0.30000 2.30000 -2.80000
v -0.30000 2.30000 -3.10000
v 0.30000 2.30000 -3.10000
v 0.30000 2.30000 -2.80000
v -0.30000 2.30000 -2.80000
v 0.30000 2.30000 -2.80000
v 0.30000 4.20000 -2.80000
v -0.30000 4.20000 -2.80000
v 0.30000 2.30000 -3.10000
v -0.30000 2.30000 -3.10000
v -0.30000 4.20000 -3.10000
v 0.30000 4.20000 -3.10000
v 0.35000 1.20000 2.40000
v 0.35000 5.60000 2.40000
v 0.35000 5.60000 3.00000
v 0.35000 1.20000 3.00000
v -0.35000 1.20000 3.00000
v -0.35000 5.60000 3.00000
v -0.35000 5.60000 2.40000
v -0.35000 1.20000 2.40000
v -0.35000 5.60000 2.40000
v -0.35000 5.60000 3.00000
v 0.35000 5.60000 3.00000
v 0.35000 5.60000 2.40000
v -0.35000 1.20000 3.00000
v -0.35000 1.20000 2.40000
v 0.35000 1.20000 2.40000
v 0.35000 1.20000 3.00000
v -0.35000 1.20000 3.00000
v 0.35000 1.20000 3.00000
v 0.35000 5.60000 3.00000
v -0.35000 5.60000 3.00000
v 0.35000 1.20000 2.40000
v -0.35000 1.20000 2.40000
v -0.35000 5.60000 2.40000
v 0.35000 5.60000 2.40000
v 0.56630 2.44690 -0.74915
v 0.57329 2.55310 -0.84011
v 0.32329 5.35310 2.40989
v 0.31630 5.24690 2.50085
v 0.17671 5.24690 2.49011
v 0.18370 5.35310 2.39915
v 0.43370 2.55310 -0.85085
v 0.42671 2.44690 -0.75989
v 0.43370 2.55310 -0.85085
v 0.18370 5.35310 2.39915
v 0.32329 5.35310 2.40989
v 0.57329 2.55310 -0.84011
v 0.17671 5.24690 2.49011
v 0.42671 2.44690 -0.75989
v 0.56630 2.44690 -0.74915
v 0.31630 5.24690 2.50085
v 0.17671 5.24690 2.49011
v 0.31630 5.24690 2.50085
v 0.32329 5.35310 2.40989
v 0.18370 5.35310 2.39915
v 0.56630 2.44690 -0.74915
v 0.42671 2.44690 -0.75989
v 0.43370 2.55310 -0.85085
v 0.57329 2.55310 -0.84011
v -0.42671 2.44690 -0.75989
v -0.43370 2.55310 -0.85085
v -0.18370 5.35310 2.39915
v -0.17671 5.24690 2.49011
v -0.31630 5.24690 2.50085
v -0.32329 5.35310 2.40989
v -0.57329 2.55310 -0.84011
v -0.56630 2.44690 -0.74915
v -0.57329 2.55310 -0.84011
v -0.32329 5.35310 2.40989
v -0.18370 5.35310 2.39915
v -0.43370 2.55310 -0.85085
v -0.31630 5.24690 2.50085
v -0.56630 2.44690 -0.74915
v -0.42671 2.44690 -0.75989
v -0.17671 5.24690 2.49011
v -0.31630 5.24690 2.50085
v -0.17671 5.24690 2.49011
v -0.18370 5.35310 2.39915
v -0.32329 5.35310 2.40989
v -0.42671 2.44690 -0.75989
v -0.56630 2.44690 -0.74915
v -0.57329 2.55310 -0.84011
v -0.43370 2.55310 -0.85085
v 0.45000 5.35000 2.30000
v 0.45000 5.60000 2.30000
v 0.45000 5.60000 3.10000
v 0.45000 5.35000 3.10000
v -0.45000 5.35000 3.10000
v -0.45000 5.60000 3.10000
v -0.45000 5.60000 2.30000
v -0.45000 5.35000 2.30000
v -0.45000 5.60000 2.30000
v -0.45000 5.60000 3.10000
v 0.45000 5.60000 3.10000
v 0.45000 5.60000 2.30000
v -0.45000 5.35000 3.10000
v -0.45000 5.35000 2.30000
v 0.45000 5.35000 2.30000
v 0.45000 5.35000 3.10000
v -0.45000 5.35000 3.10000
v 0.45000 5.35000 3.10000
v 0.45000 5.60000 3.10000
v -0.45000 5.60000 3.10000
v 0.45000 5.35000 2.30000
v -0.45000 5.35000 2.30000
v -0.45000 5.60000 2.30000
v 0.45000 5.60000 2.30000
v 0.35000 5.60000 2.40000
v 0.35000 14.50000 2.40000
v 0.35000 14.50000 3.00000
v 0.35000 5.60000 3.00000
v -0.35000 5.60000 3.00000
v -0.35000 14.50000 3.00000
v -0.35000 14.50000 2.40000
v -0.35000 5.60000 2.40000
v -0.35000 14.50000 2.40000
v -0.35000 14.50000 3.00000
v 0.35000 14.50000 3.00000
v 0.35000 14.50000 2.40000
v -0.35000 5.60000 3.00000
v -0.35000 5.60000 2.40000
v 0.35000 5.60000 2.40000
v 0.35000 5.60000 3.00000
v -0.35000 5.60000 3.00000
v 0.35000 5.60000 3.00000
v 0.35000 14.50000 3.00000
v -0.35000 14.50000 3.00000
v 0.35000 5.60000 2.40000
v -0.35000 5.60000 2.40000
v -0.35000 14.50000 2.40000
v 0.35000 14.50000 2.40000
v 0.50000 14.30000 2.20000
v 0.50000 14.80000 2.20000
v 0.50000 14.80000 3.60000
v 0.50000 14.30000 3.60000
v -0.50000 14.30000 3.60000
v -0.50000 14.80000 3.60000
v -0.50000 14.80000 2.20000
v -0.50000 14.30000 2.20000
v -0.50000 14.80000 2.20000
v -0.50000 14.80000 3.60000
v 0.50000 14.80000 3.60000
v 0.50000 14.80000 2.20000
v -0.50000 14.30000 3.60000
v -0.50000 14.30000 2.20000
v 0.50000 14.30000 2.20000
v 0.50000 14.30000 3.60000
v -0.50000 14.30000 3.60000
v 0.50000 14.30000 3.60000
v 0.50000 14.80000 3.60000
v -0.50000 14.80000 3.60000
v 0.50000 14.30000 2.20000
v -0.50000 14.30000 2.20000
v -0.50000 14.80000 2.20000
v 0.50000 14.80000 2.20000
v 0.60000 1.30000 3.00000
v 0.60000 2.50000 3.00000
v 0.60000 2.50000 4.00000
v 0.60000 1.30000 4.00000
v -0.60000 1.30000 4.00000
v -0.60000 2.50000 4.00000
v -0.60000 2.50000 3.00000
v -0.60000 1.30000 3.00000
v -0.60000 2.50000 3.00000
v -0.60000 2.50000 4.00000
v 0.60000 2.50000 4.00000
v 0.60000 2.50000 3.00000
v -0.60000 1.30000 4.00000
v -0.60000 1.30000 3.00000
v 0.60000 1.30000 3.00000
v 0.60000 1.30000 4.00000
v -0.60000 1.30000 4.00000
v 0.60000 1.30000 4.00000
v 0.60000 2.50000 4.00000
v -0.60000 2.50000 4.00000
v 0.60000 1.30000 3.00000
v -0.60000 1.30000 3.00000
v -0.60000 2.50000 3.00000
v 0.60000 2.50000 3.00000
v 0.45000 2.50000 3.10000
v 0.45000 3.10000 3.10000
v 0.45000 3.10000 3.90000
v 0.45000 2.50000 3.90000
v -0.45000 2.50000 3.90000
v -0.45000 3.10000 3.90000
v -0.45000 3.10000 3.10000
v -0.45000 2.50000 3.10000
v -0.45000 3.10000 3.10000
v -0.45000 3.10000 3.90000
v 0.45000 3.10000 3.90000
v 0.45000 3.10000 3.10000
v -0.45000 2.50000 3.90000
v -0.45000 2.50000 3.10000
v 0.45000 2.50000 3.10000
v 0.45000 2.50000 3.90000
v -0.45000 2.50000 3.90000
v 0.45000 2.50000 3.90000
v 0.45000 3.10000 3.90000
v -0.45000 3.10000 3.90000
v 0.45000 2.50000 3.10000
v -0.45000 2.50000 3.10000
v -0.45000 3.10000 3.10000
v 0.45000 3.10000 3.10000
v 0.20000 1.60000 2.90000
v 0.20000 2.20000 2.90000
v 0.20000 2.20000 3.10000
v 0.20000 1.60000 3.10000
v -0.20000 1.60000 3.10000
v -0.20000 2.20000 3.10000
v -0.20000 2.20000 2.90000
v -0.20000 1.60000 2.90000
v -0.20000 2.20000 2.90000
v -0.20000 2.20000 3.10000
v 0.20000 2.20000 3.10000
v 0.20000 2.20000 2.90000
v -0.20000 1.60000 3.10000
v -0.20000 1.60000 2.90000
v 0.20000 1.60000 2.90000
v 0.20000 1.60000 3.10000
v -0.20000 1.60000 3.10000
v 0.20000 1.60000 3.10000
v 0.20000 2.20000 3.10000
v -0.20000 2.20000 3.10000
v 0.20000 1.60000 2.90000
v -0.20000 1.60000 2.90000
v -0.20000 2.20000 2.90000
v 0.20000 2.20000 2.90000
v 0.10000 -0.30000 3.40000
v 0.10000 1.30000 3.40000
v 0.10000 1.30000 3.60000
v 0.10000 -0.30000 3.60000
v -0.10000 -0.30000 3.60000
v -0.10000 1.30000 3.60000
v -0.10000 1.30000 3.40000
v -0.10000 -0.30000 3.40000
v -0.10000 1.30000 3.40000
v -0.10000 1.30000 3.60000
v 0.10000 1.30000 3.60000
v 0.10000 1.30000 3.40000
v -0.10000 -0.30000 3.60000
v -0.10000 -0.30000 3.40000
v 0.10000 -0.30000 3.40000
v 0.10000 -0.30000 3.60000
v -0.10000 -0.30000 3.60000
v 0.10000 -0.30000 3.60000
v 0.10000 1.30000 3.60000
v -0.10000 1.30000 3.60000
v 0.10000 -0.30000 3.40000
v -0.10000 -0.30000 3.40000
v -0.10000 1.30000 3.40000
v 0.10000 1.30000 3.40000
v 0.40000 -0.25000 3.40000
v 0.40000 -0.19000 3.40000
v 0.40000 -0.19000 3.60000
v 0.40000 -0.25000 3.60000
v 0.20000 -0.25000 3.60000
v 0.20000 -0.19000 3.60000
v 0.20000 -0.19000 3.40000
v 0.20000 -0.25000 3.40000
v 0.20000 -0.19000 3.40000
v 0.20000 -0.19000 3.60000
v 0.40000 -0.19000 3.60000
v 0.40000 -0.19000 3.40000
v 0.20000 -0.25000 3.60000
v 0.20000 -0.25000 3.40000
v 0.40000 -0.25000 3.40000
v 0.40000 -0.25000 3.60000
v 0.20000 -0.25000 3.60000
v 0.40000 -0.25000 3.60000
v 0.40000 -0.19000 3.60000
v 0.20000 -0.19000 3.60000
v 0.40000 -0.25000 3.40000
v 0.20000 -0.25000 3.40000
v 0.20000 -0.19000 3.40000
v 0.40000 -0.19000 3.40000
v 0.28648 -0.10000 3.63500
v 0.28648 -0.04000 3.63500
v 0.28648 -0.04000 3.83500
v 0.28648 -0.10000 3.83500
v 0.08648 -0.10000 3.83500
v 0.08648 -0.04000 3.83500
v 0.08648 -0.04000 3.63500
v 0.08648 -0.10000 3.63500
v 0.08648 -0.04000 3.63500
v 0.08648 -0.04000 3.83500
v 0.28648 -0.04000 3.83500
v 0.28648 -0.04000 3.63500
v 0.08648 -0.10000 3.83500
v 0.08648 -0.10000 3.63500
v 0.28648 -0.10000 3.63500
v 0.28648 -0.10000 3.83500
v 0.08648 -0.10000 3.83500
v 0.28648 -0.10000 3.83500
v 0.28648 -0.04000 3.83500
v 0.08648 -0.04000 3.83500
v 0.28648 -0.10000 3.63500
v 0.08648 -0.10000 3.63500
v 0.08648 -0.04000 3.63500
v 0.28648 -0.04000 3.63500
v 0.03184 0.05000 3.69215
v 0.03184 0.11000 3.69215
v 0.03184 0.11000 3.89215
v 0.03184 0.05000 3.89215
v -0.16816 0.05000 3.89215
v -0.16816 0.11000 3.89215
v -0.16816 0.11000 3.69215
v -0.16816 0.05000 3.69215
v -0.16816 0.11000 3.69215
v -0.16816 0.11000 3.89215
v 0.03184 0.11000 3.89215
v 0.03184 0.11000 3.69215
v -0.16816 0.05000 3.89215
v -0.16816 0.05000 3.69215
v 0.03184 0.05000 3.69215
v 0.03184 0.05000 3.89215
v -0.16816 0.05000 3.89215
v 0.03184 0.05000 3.89215
v 0.03184 0.11000 3.89215
v -0.16816 0.11000 3.89215
v 0.03184 0.05000 3.69215
v -0.16816 0.05000 3.69215
v -0.16816 0.11000 3.69215
v 0.03184 0.11000 3.69215
v -0.17122 0.20000 3.52821
v -0.17122 0.26000 3.52821
v -0.17122 0.26000 3.72821
v -0.17122 0.20000 3.72821
v -0.37122 0.20000 3.72821
v -0.37122 0.26000 3.72821
v -0.37122 0.26000 3.52821
v -0.37122 0.20000 3.52821
v -0.37122 0.26000 3.52821
v -0.37122 0.26000 3.72821
v -0.17122 0.26000 3.72821
v -0.17122 0.26000 3.52821
v -0.37122 0.20000 3.72821
v -0.37122 0.20000 3.52821
v -0.17122 0.20000 3.52821
v -0.17122 0.20000 3.72821
v -0.37122 0.20000 3.72821
v -0.17122 0.20000 3.72821
v -0.17122 0.26000 3.72821
v -0.37122 0.26000 3.72821
v -0.17122 0.20000 3.52821
v -0.37122 0.20000 3.52821
v -0.37122 0.26000 3.52821
v -0.17122 0.26000 3.52821
v -0.16903 0.35000 3.26724
v -0.16903 0.41000 3.26724
v -0.16903 0.41000 3.46724
v -0.16903 0.35000 3.46724
v -0.36903 0.35000 3.46724
v -0.36903 0.41000 3.46724
v -0.36903 0.41000 3.26724
v -0.36903 0.35000 3.26724
v -0.36903 0.41000 3.26724
v -0.36903 0.41000 3.46724
v -0.16903 0.41000 3.46724
v -0.16903 0.41000 3.26724
v -0.36903 0.35000 3.46724
v -0.36903 0.35000 3.26724
v -0.16903 0.35000 3.26724
v -0.16903 0.35000 3.46724
v -0.36903 0.35000 3.46724
v -0.16903 0.35000 3.46724
v -0.16903 0.41000 3.46724
v -0.36903 0.41000 3.46724
v -0.16903 0.35000 3.26724
v -0.36903 0.35000 3.26724
v -0.36903 0.41000 3.26724
v -0.16903 0.41000 3.26724
v 0.03676 0.50000 3.10674
v 0.03676 0.56000 3.10674
v 0.03676 0.56000 3.30674
v 0.03676 0.50000 3.30674
v -0.16324 0.50000 3.30674
v -0.16324 0.56000 3.30674
v -0.16324 0.56000 3.10674
v -0.16324 0.50000 3.10674
v -0.16324 0.56000 3.10674
v -0.16324 0.56000 3.30674
v 0.03676 0.56000 3.30674
v 0.03676 0.56000 3.10674
v -0.16324 0.50000 3.30674
v -0.16324 0.50000 3.10674
v 0.03676 0.50000 3.10674
v 0.03676 0.50000 3.30674
v -0.16324 0.50000 3.30674
v 0.03676 0.50000 3.30674
v 0.03676 0.56000 3.30674
v -0.16324 0.56000 3.30674
v 0.03676 0.50000 3.10674
v -0.16324 0.50000 3.10674
v -0.16324 0.56000 3.10674
v 0.03676 0.56000 3.10674
v 0.29041 0.65000 3.16817
v 0.29041 0.71000 3.16817
v 0.29041 0.71000 3.36817
v 0.29041 0.65000 3.36817
v 0.09041 0.65000 3.36817
v 0.09041 0.71000 3.36817
v 0.09041 0.71000 3.16817
v 0.09041 0.65000 3.16817
v 0.09041 0.71000 3.16817
v 0.09041 0.71000 3.36817
v 0.29041 0.71000 3.36817
v 0.29041 0.71000 3.16817
v 0.09041 0.65000 3.36817
v 0.09041 0.65000 3.16817
v 0.29041 0.65000 3.16817
v 0.29041 0.65000 3.36817
v 0.09041 0.65000 3.36817
v 0.29041 0.65000 3.36817
v 0.29041 0.71000 3.36817
v 0.09041 0.71000 3.36817
v 0.29041 0.65000 3.16817
v 0.09041 0.65000 3.16817
v 0.09041 0.71000 3.16817
v 0.29041 0.71000 3.16817
v 0.39996 0.80000 3.40504
v 0.39996 0.86000 3.40504
v 0.39996 0.86000 3.60504
v 0.39996 0.80000 3.60504
v 0.19996 0.80000 3.60504
v 0.19996 0.86000 3.60504
v 0.19996 0.86000 3.40504
v 0.19996 0.80000 3.40504
v 0.19996 0.86000 3.40504
v 0.19996 0.86000 3.60504
v 0.39996 0.86000 3.60504
v 0.39996 0.86000 3.40504
v 0.19996 0.80000 3.60504
v 0.19996 0.80000 3.40504
v 0.39996 0.80000 3.40504
v 0.39996 0.80000 3.60504
v 0.19996 0.80000 3.60504
v 0.39996 0.80000 3.60504
v 0.39996 0.86000 3.60504
v 0.19996 0.86000 3.60504
v 0.39996 0.80000 3.40504
v 0.19996 0.80000 3.40504
v 0.19996 0.86000 3.40504
v 0.39996 0.86000 3.40504
v 0.28251 0.95000 3.63810
v 0.28251 1.01000 3.63810
v 0.28251 1.01000 3.83810
v 0.28251 0.95000 3.83810
v 0.08251 0.95000 3.83810
v 0.08251 1.01000 3.83810
v 0.08251 1.01000 3.63810
v 0.08251 0.95000 3.63810
v 0.08251 1.01000 3.63810
v 0.08251 1.01000 3.83810
v 0.28251 1.01000 3.83810
v 0.28251 1.01000 3.63810
v 0.08251 0.95000 3.83810
v 0.08251 0.95000 3.63810
v 0.28251 0.95000 3.63810
v 0.28251 0.95000 3.83810
v 0.08251 0.95000 3.83810
v 0.28251 0.95000 3.83810
v 0.28251 1.01000 3.83810
v 0.08251 1.01000 3.83810
v 0.28251 0.95000 3.63810
v 0.08251 0.95000 3.63810
v 0.08251 1.01000 3.63810
v 0.28251 1.01000 3.63810
v 0.02694 1.10000 3.69097
v 0.02694 1.16000 3.69097
v 0.02694 1.16000 3.89097
v 0.02694 1.10000 3.89097
v -0.17306 1.10000 3.89097
v -0.17306 1.16000 3.89097
v -0.17306 1.16000 3.69097
v -0.17306 1.10000 3.69097
v -0.17306 1.16000 3.69097
v -0.17306 1.16000 3.89097
v 0.02694 1.16000 3.89097
v 0.02694 1.16000 3.69097
v -0.17306 1.10000 3.89097
v -0.17306 1.10000 3.69097
v 0.02694 1.10000 3.69097
v 0.02694 1.10000 3.89097
v -0.17306 1.10000 3.89097
v 0.02694 1.10000 3.89097
v 0.02694 1.16000 3.89097
v -0.17306 1.16000 3.89097
v 0.02694 1.10000 3.69097
v -0.17306 1.10000 3.69097
v -0.17306 1.16000 3.69097
v 0.02694 1.16000 3.69097
vt 0.43750 0.93750
vt 0.18750 0.93750
vt 0.06250 0.93750
vt 0.56250 0.93750
vt 0.68750 0.93750
vt 0.31250 0.81250
vn 1.00000 0.00000 0.00000
vn -1.00000 0.00000 0.00000
vn 0.00000 1.00000 0.00000
vn 0.00000 -1.00000 0.00000
vn 0.00000 0.00000 1.00000
vn 0.00000 0.00000 -1.00000
vn 1.00000 0.00000 0.00000
vn -1.00000 0.00000 0.00000
vn 0.00000 1.00000 0.00000
vn 0.00000 -1.00000 0.00000
vn 0.00000 0.00000 1.00000
vn 0.00000 0.00000 -1.00000
vn 1.00000 0.00000 0.00000
vn -1.00000 0.00000 0.00000
vn 0.00000 1.00000 0.00000
vn 0.00000 -1.00000 0.00000
vn 0.00000 0.00000 1.00000
vn 0.00000 0.00000 -1.00000
vn 1.00000 0.00000 0.00000
vn -1.00000 0.00000 0.00000
vn 0.00000 1.00000 0.00000
vn 0.00000 -1.00000 0.00000
vn 0.00000 0.00000 1.00000
vn 0.00000 0.00000 -1.00000
vn 1.00000 0.00000 0.00000
vn -1.00000 0.00000 0.00000
vn 0.00000 1.00000 0.00000
vn 0.00000 -1.00000 0.00000
vn 0.00000 0.00000 1.00000
vn 0.00000 0.00000 -1.00000
vn 1.00000 0.00000 0.00000
vn -1.00000 0.00000 0.00000
vn 0.00000 1.00000 0.00000
vn 0.00000 -1.00000 0.00000
vn 0.00000 0.00000 1.00000
vn 0.00000 0.00000 -1.00000
vn 1.00000 0.00000 0.00000
vn -1.00000 0.00000 0.00000
vn 0.00000 1.00000 0.00000
vn 0.00000 -1.00000 0.00000
vn 0.00000 0.00000 1.00000
vn 0.00000 0.00000 -1.00000
vn 1.00000 0.00000 0.00000
vn -1.00000 0.00000 0.00000
vn 0.00000 1.00000 0.00000
vn 0.00000 -1.00000 0.00000
vn 0.00000 0.00000 1.00000
vn 0.00000 0.00000 -1.00000
vn 1.00000 0.00000 0.00000
vn -1.00000 0.00000 0.00000
vn 0.00000 1.00000 0.00000
vn 0.00000 -1.00000 0.00000
vn 0.00000 0.00000 1.00000
vn 0.00000 0.00000 -1.00000
vn 1.00000 0.00000 0.00000
vn -1.00000 0.00000 0.00000
vn 0.00000 1.00000 0.00000
vn 0.00000 -1.00000 0.00000
vn 0.00000 0.00000 1.00000
vn 0.00000 0.00000 -1.00000
vn 1.00000 0.00000 0.00000
vn -1.00000 0.00000 0.00000
vn 0.00000 1.00000 0.00000
vn 0.00000 -1.00000 0.00000
vn 0.00000 0.00000 1.00000
vn 0.00000 0.00000 -1.00000
vn 1.00000 0.00000 0.00000
vn -1.00000 0.00000 0.00000
vn 0.00000 1.00000 0.00000
vn 0.00000 -1.00000 0.00000
vn 0.00000 0.00000 1.00000
vn 0.00000 0.00000 -1.00000
vn 1.00000 0.00000 0.00000
vn -1.00000 0.00000 0.00000
vn 0.00000 1.00000 0.00000
vn 0.00000 -1.00000 0.00000
vn 0.00000 0.00000 1.00000
vn 0.00000 0.00000 -1.00000
vn 1.00000 0.00000 0.00000
vn -1.00000 0.00000 0.00000
vn 0.00000 1.00000 0.00000
vn 0.00000 -1.00000 0.00000
vn 0.00000 0.00000 1.00000
vn 0.00000 0.00000 -1.00000
vn 0.00000 0.38268 -0.92388
vn 0.00000 0.92388 -0.38268
vn 0.00000 0.92388 0.38268
vn 0.00000 0.38268 0.92388
vn 0.00000 -0.38268 0.92388
vn 0.00000 -0.92388 0.38268
vn 0.00000 -0.92388 -0.38268
vn 0.00000 -0.38268 -0.92388
vn -1.00000 0.00000 0.00000
vn 1.00000 0.00000 0.00000
vn 0.00000 0.38268 -0.92388
vn 0.00000 0.92388 -0.38268
vn 0.00000 0.92388 0.38268
vn 0.00000 0.38268 0.92388
vn 0.00000 -0.38268 0.92388
vn 0.00000 -0.92388 0.38268
vn 0.00000 -0.92388 -0.38268
vn 0.00000 -0.38268 -0.92388
vn -1.00000 0.00000 0.00000
vn 1.00000 0.00000 0.00000
vn 0.00000 0.38268 -0.92388
vn 0.00000 0.92388 -0.38268
vn 0.00000 0.92388 0.38268
vn 0.00000 0.38268 0.92388
vn 0.00000 -0.38268 0.92388
vn 0.00000 -0.92388 0.38268
vn 0.00000 -0.92388 -0.38268
vn 0.00000 -0.38268 -0.92388
vn -1.00000 0.00000 0.00000
vn 1.00000 0.00000 0.00000
vn 0.00000 0.38268 -0.92388
vn 0.00000 0.92388 -0.38268
vn 0.00000 0.92388 0.38268
vn 0.00000 0.38268 0.92388
vn 0.00000 -0.38268 0.92388
vn 0.00000 -0.92388 0.38268
vn 0.00000 -0.92388 -0.38268
vn 0.00000 -0.38268 -0.92388
vn -1.00000 0.00000 0.00000
vn 1.00000 0.00000 0.00000
vn 0.00000 0.38268 -0.92388
vn 0.00000 0.92388 -0.38268
vn 0.00000 0.92388 0.38268
vn 0.00000 0.38268 0.92388
vn 0.00000 -0.38268 0.92388
vn 0.00000 -0.92388 0.38268
vn 0.00000 -0.92388 -0.38268
vn 0.00000 -0.38268 -0.92388
vn -1.00000 0.00000 0.00000
vn 1.00000 0.00000 0.00000
vn 0.00000 0.30902 -0.95106
vn 0.00000 0.80902 -0.58779
vn 0.00000 1.00000 -0.00000
vn 0.00000 0.80902 0.58779
vn 0.00000 0.30902 0.95106
vn 0.00000 -0.30902 0.95106
vn 0.00000 -0.80902 0.58779
vn 0.00000 -1.00000 0.00000
vn 0.00000 -0.80902 -0.58779
vn 0.00000 -0.30902 -0.95106
vn -1.00000 0.00000 0.00000
vn 1.00000 0.00000 0.00000
vn 0.00000 0.30902 -0.95106
vn 0.00000 0.80902 -0.58779
vn 0.00000 1.00000 -0.00000
vn 0.00000 0.80902 0.58779
vn 0.00000 0.30902 0.95106
vn 0.00000 -0.30902 0.95106
vn 0.00000 -0.80902 0.58779
vn 0.00000 -1.00000 0.00000
vn 0.00000 -0.80902 -0.58779
vn 0.00000 -0.30902 -0.95106
vn -1.00000 0.00000 0.00000
vn 1.00000 0.00000 0.00000
vn 1.00000 0.00000 0.00000
vn -1.00000 0.00000 0.00000
vn 0.00000 1.00000 0.00000
vn 0.00000 -1.00000 0.00000
vn 0.00000 0.00000 1.00000
vn 0.00000 0.00000 -1.00000
vn 1.00000 0.00000 0.00000
vn -1.00000 0.00000 0.00000
vn 0.00000 1.00000 0.00000
vn 0.00000 -1.00000 0.00000
vn 0.00000 0.00000 1.00000
vn 0.00000 0.00000 -1.00000
vn 1.00000 0.00000 0.00000
vn -1.00000 0.00000 0.00000
vn 0.00000 1.00000 0.00000
vn 0.00000 -1.00000 0.00000
vn 0.00000 0.00000 1.00000
vn 0.00000 0.00000 -1.00000
vn 1.00000 0.00000 0.00000
vn -1.00000 0.00000 0.00000
vn 0.00000 1.00000 0.00000
vn 0.00000 -1.00000 0.00000
vn 0.00000 0.00000 1.00000
vn 0.00000 0.00000 -1.00000
vn 1.00000 0.00000 0.00000
vn -1.00000 0.00000 0.00000
vn 0.00000 1.00000 0.00000
vn 0.00000 -1.00000 0.00000
vn 0.00000 0.00000 1.00000
vn 0.00000 0.00000 -1.00000
vn 0.00000 0.38268 -0.92388
vn 0.00000 0.92388 -0.38268
vn 0.00000 0.92388 0.38268
vn 0.00000 0.38268 0.92388
vn 0.00000 -0.38268 0.92388
vn 0.00000 -0.92388 0.38268
vn 0.00000 -0.92388 -0.38268
vn 0.00000 -0.38268 -0.92388
vn -1.00000 0.00000 0.00000
vn 1.00000 0.00000 0.00000
vn 0.00000 0.38268 -0.92388
vn 0.00000 0.92388 -0.38268
vn 0.00000 0.92388 0.38268
vn 0.00000 0.38268 0.92388
vn 0.00000 -0.38268 0.92388
vn 0.00000 -0.92388 0.38268
vn 0.00000 -0.92388 -0.38268
vn 0.00000 -0.38268 -0.92388
vn -1.00000 0.00000 0.00000
vn 1.00000 0.00000 0.00000
vn 0.00000 0.38268 -0.92388
vn 0.00000 0.92388 -0.38268
vn 0.00000 0.92388 0.38268
vn 0.00000 0.38268 0.92388
vn 0.00000 -0.38268 0.92388
vn 0.00000 -0.92388 0.38268
vn 0.00000 -0.92388 -0.38268
vn 0.00000 -0.38268 -0.92388
vn -1.00000 0.00000 0.00000
vn 1.00000 0.00000 0.00000
vn 0.00000 0.38268 -0.92388
vn 0.00000 0.92388 -0.38268
vn 0.00000 0.92388 0.38268
vn 0.00000 0.38268 0.92388
vn 0.00000 -0.38268 0.92388
vn 0.00000 -0.92388 0.38268
vn 0.00000 -0.92388 -0.38268
vn 0.00000 -0.38268 -0.92388
vn -1.00000 0.00000 0.00000
vn 1.00000 0.00000 0.00000
vn 0.00000 0.38268 -0.92388
vn 0.00000 0.92388 -0.38268
vn 0.00000 0.92388 0.38268
vn 0.00000 0.38268 0.92388
vn 0.00000 -0.38268 0.92388
vn 0.00000 -0.92388 0.38268
vn 0.00000 -0.92388 -0.38268
vn 0.00000 -0.38268 -0.92388
vn -1.00000 0.00000 0.00000
vn 1.00000 0.00000 0.00000
vn 0.00000 0.30902 -0.95106
vn 0.00000 0.80902 -0.58779
vn 0.00000 1.00000 -0.00000
vn 0.00000 0.80902 0.58779
vn 0.00000 0.30902 0.95106
vn 0.00000 -0.30902 0.95106
vn 0.00000 -0.80902 0.58779
vn 0.00000 -1.00000 0.00000
vn 0.00000 -0.80902 -0.58779
vn 0.00000 -0.30902 -0.95106
vn -1.00000 0.00000 0.00000
vn 1.00000 0.00000 0.00000
vn 0.00000 0.30902 -0.95106
vn 0.00000 0.80902 -0.58779
vn 0.00000 1.00000 -0.00000
vn 0.00000 0.80902 0.58779
vn 0.00000 0.30902 0.95106
vn 0.00000 -0.30902 0.95106
vn 0.00000 -0.80902 0.58779
vn 0.00000 -1.00000 0.00000
vn 0.00000 -0.80902 -0.58779
vn 0.00000 -0.30902 -0.95106
vn -1.00000 0.00000 0.00000
vn 1.00000 0.00000 0.00000
vn 1.00000 0.00000 0.00000
vn -1.00000 0.00000 0.00000
vn 0.00000 1.00000 0.00000
vn 0.00000 -1.00000 0.00000
vn 0.00000 0.00000 1.00000
vn 0.00000 0.00000 -1.00000
vn 1.00000 0.00000 0.00000
vn -1.00000 0.00000 0.00000
vn 0.00000 1.00000 0.00000
vn 0.00000 -1.00000 0.00000
vn 0.00000 0.00000 1.00000
vn 0.00000 0.00000 -1.00000
vn 1.00000 0.00000 0.00000
vn -1.00000 0.00000 0.00000
vn 0.00000 1.00000 0.00000
vn 0.00000 -1.00000 0.00000
vn 0.00000 0.00000 1.00000
vn 0.00000 0.00000 -1.00000
vn 1.00000 0.00000 0.00000
vn -1.00000 0.00000 0.00000
vn 0.00000 1.00000 0.00000
vn 0.00000 -1.00000 0.00000
vn 0.00000 0.00000 1.00000
vn 0.00000 0.00000 -1.00000
vn 1.00000 0.00000 0.00000
vn -1.00000 0.00000 0.00000
vn 0.00000 1.00000 0.00000
vn 0.00000 -1.00000 0.00000
vn 0.00000 0.00000 1.00000
vn 0.00000 0.00000 -1.00000
vn 1.00000 0.00000 0.00000
vn -1.00000 0.00000 0.00000
vn 0.00000 1.00000 0.00000
vn 0.00000 -1.00000 0.00000
vn 0.00000 0.00000 1.00000
vn 0.00000 0.00000 -1.00000
vn 1.00000 0.00000 0.00000
vn -1.00000 0.00000 0.00000
vn 0.00000 1.00000 0.00000
vn 0.00000 -1.00000 0.00000
vn 0.00000 0.00000 1.00000
vn 0.00000 0.00000 -1.00000
vn 1.00000 0.00000 0.00000
vn -1.00000 0.00000 0.00000
vn 0.00000 1.00000 0.00000
vn 0.00000 -1.00000 0.00000
vn 0.00000 0.00000 1.00000
vn 0.00000 0.00000 -1.00000
vn 1.00000 0.00000 0.00000
vn -1.00000 0.00000 0.00000
vn 0.00000 1.00000 0.00000
vn 0.00000 -1.00000 0.00000
vn 0.00000 0.00000 1.00000
vn 0.00000 0.00000 -1.00000
vn 0.99705 -0.00000 0.07670
vn -0.99705 0.00000 -0.07670
vn 0.04998 0.75856 -0.64968
vn -0.04998 -0.75856 0.64968
vn -0.05818 0.65160 0.75633
vn 0.05818 -0.65160 -0.75633
vn 0.99705 0.00000 -0.07670
vn -0.99705 0.00000 0.07670
vn -0.04998 0.75856 -0.64968
vn 0.04998 -0.75856 0.64968
vn 0.05818 0.65160 0.75633
vn -0.05818 -0.65160 -0.75633
vn 1.00000 0.00000 0.00000
vn -1.00000 0.00000 0.00000
vn 0.00000 1.00000 0.00000
vn 0.00000 -1.00000 0.00000
vn 0.00000 0.00000 1.00000
vn 0.00000 0.00000 -1.00000
vn 1.00000 0.00000 0.00000
vn -1.00000 0.00000 0.00000
vn 0.00000 1.00000 0.00000
vn 0.00000 -1.00000 0.00000
vn 0.00000 0.00000 1.00000
vn 0.00000 0.00000 -1.00000
vn 1.00000 0.00000 0.00000
vn -1.00000 0.00000 0.00000
vn 0.00000 1.00000 0.00000
vn 0.00000 -1.00000 0.00000
vn 0.00000 0.00000 1.00000
vn 0.00000 0.00000 -1.00000
vn 1.00000 0.00000 0.00000
vn -1.00000 0.00000 0.00000
vn 0.00000 1.00000 0.00000
vn 0.00000 -1.00000 0.00000
vn 0.00000 0.00000 1.00000
vn 0.00000 0.00000 -1.00000
vn 1.00000 0.00000 0.00000
vn -1.00000 0.00000 0.00000
vn 0.00000 1.00000 0.00000
vn 0.00000 -1.00000 0.00000
vn 0.00000 0.00000 1.00000
vn 0.00000 0.00000 -1.00000
vn 1.00000 0.00000 0.00000
vn -1.00000 0.00000 0.00000
vn 0.00000 1.00000 0.00000
vn 0.00000 -1.00000 0.00000
vn 0.00000 0.00000 1.00000
vn 0.00000 0.00000 -1.00000
vn 1.00000 0.00000 0.00000
vn -1.00000 0.00000 0.00000
vn 0.00000 1.00000 0.00000
vn 0.00000 -1.00000 0.00000
vn 0.00000 0.00000 1.00000
vn 0.00000 0.00000 -1.00000
vn 1.00000 0.00000 0.00000
vn -1.00000 0.00000 0.00000
vn 0.00000 1.00000 0.00000
vn 0.00000 -1.00000 0.00000
vn 0.00000 0.00000 1.00000
vn 0.00000 0.00000 -1.00000
vn 1.00000 0.00000 0.00000
vn -1.00000 0.00000 0.00000
vn 0.00000 1.00000 0.00000
vn 0.00000 -1.00000 0.00000
vn 0.00000 0.00000 1.00000
vn 0.00000 0.00000 -1.00000
vn 1.00000 0.00000 0.00000
vn -1.00000 0.00000 0.00000
vn 0.00000 1.00000 0.00000
vn 0.00000 -1.00000 0.00000
vn 0.00000 0.00000 1.00000
vn 0.00000 0.00000 -1.00000
vn 1.00000 0.00000 0.00000
vn -1.00000 0.00000 0.00000
vn 0.00000 1.00000 0.00000
vn 0.00000 -1.00000 0.00000
vn 0.00000 0.00000 1.00000
vn 0.00000 0.00000 -1.00000
vn 1.00000 0.00000 0.00000
vn -1.00000 0.00000 0.00000
vn 0.00000 1.00000 0.00000
vn 0.00000 -1.00000 0.00000
vn 0.00000 0.00000 1.00000
vn 0.00000 0.00000 -1.00000
vn 1.00000 0.00000 0.00000
vn -1.00000 0.00000 0.00000
vn 0.00000 1.00000 0.00000
vn 0.00000 -1.00000 0.00000
vn 0.00000 0.00000 1.00000
vn 0.00000 0.00000 -1.00000
vn 1.00000 0.00000 0.00000
vn -1.00000 0.00000 0.00000
vn 0.00000 1.00000 0.00000
vn 0.00000 -1.00000 0.00000
vn 0.00000 0.00000 1.00000
vn 0.00000 0.00000 -1.00000
vn 1.00000 0.00000 0.00000
vn -1.00000 0.00000 0.00000
vn 0.00000 1.00000 0.00000
vn 0.00000 -1.00000 0.00000
vn 0.00000 0.00000 1.00000
vn 0.00000 0.00000 -1.00000
vn 1.00000 0.00000 0.00000
vn -1.00000 0.00000 0.00000
vn 0.00000 1.00000 0.00000
vn 0.00000 -1.00000 0.00000
vn 0.00000 0.00000 1.00000
vn 0.00000 0.00000 -1.00000
vn 1.00000 0.00000 0.00000
vn -1.00000 0.00000 0.00000
vn 0.00000 1.00000 0.00000
vn 0.00000 -1.00000 0.00000
vn 0.00000 0.00000 1.00000
vn 0.00000 0.00000 -1.00000
g body
f 1/1/1 2/1/1 3/1/1 4/1/1
f 5/1/2 6/1/2 7/1/2 8/1/2
f 9/1/3 10/1/3 11/1/3 12/1/3
f 13/1/4 14/1/4 15/1/4 16/1/4
f 17/1/5 18/1/5 19/1/5 20/1/5
f 21/1/6 22/1/6 23/1/6 24/1/6
g $jack_f
f 25/1/7 26/1/7 27/1/7 28/1/7
f 29/1/8 30/1/8 31/1/8 32/1/8
f 33/1/9 34/1/9 35/1/9 36/1/9
f 37/1/10 38/1/10 39/1/10 40/1/10
f 41/1/11 42/1/11 43/1/11 44/1/11
f 45/1/12 46/1/12 47/1/12 48/1/12
f 49/2/13 50/2/13 51/2/13 52/2/13
f 53/2/14 54/2/14 55/2/14 56/2/14
f 57/2/15 58/2/15 59/2/15 60/2/15
f 61/2/16 62/2/16 63/2/16 64/2/16
f 65/2/17 66/2/17 67/2/17 68/2/17
f 69/2/18 70/2/18 71/2/18 72/2/18
f 73/1/19 74/1/19 75/1/19 76/1/19
f 77/1/20 78/1/20 79/1/20 80/1/20
f 81/1/21 82/1/21 83/1/21 84/1/21
f 85/1/22 86/1/22 87/1/22 88/1/22
f 89/1/23 90/1/23 91/1/23 92/1/23
f 93/1/24 94/1/24 95/1/24 96/1/24
f 97/2/25 98/2/25 99/2/25 100/2/25
f 101/2/26 102/2/26 103/2/26 104/2/26
f 105/2/27 106/2/27 107/2/27 108/2/27
f 109/2/28 110/2/28 111/2/28 112/2/28
f 113/2/29 114/2/29 115/2/29 116/2/29
f 117/2/30 118/2/30 119/2/30 120/2/30
g $jack_b
f 121/1/31 122/1/31 123/1/31 124/1/31
f 125/1/32 126/1/32 127/1/32 128/1/32
f 129/1/33 130/1/33 131/1/33 132/1/33
f 133/1/34 134/1/34 135/1/34 136/1/34
f 137/1/35 138/1/35 139/1/35 140/1/35
f 141/1/36 142/1/36 143/1/36 144/1/36
f 145/2/37 146/2/37 147/2/37 148/2/37
f 149/2/38 150/2/38 151/2/38 152/2/38
f 153/2/39 154/2/39 155/2/39 156/2/39
f 157/2/40 158/2/40 159/2/40 160/2/40
f 161/2/41 162/2/41 163/2/41 164/2/41
f 165/2/42 166/2/42 167/2/42 168/2/42
f 169/1/43 170/1/43 171/1/43 172/1/43
f 173/1/44 174/1/44 175/1/44 176/1/44
f 177/1/45 178/1/45 179/1/45 180/1/45
f 181/1/46 182/1/46 183/1/46 184/1/46
f 185/1/47 186/1/47 187/1/47 188/1/47
f 189/1/48 190/1/48 191/1/48 192/1/48
f 193/2/49 194/2/49 195/2/49 196/2/49
f 197/2/50 198/2/50 199/2/50 200/2/50
f 201/2/51 202/2/51 203/2/51 204/2/51
f 205/2/52 206/2/52 207/2/52 208/2/52
f 209/2/53 210/2/53 211/2/53 212/2/53
f 213/2/54 214/2/54 215/2/54 216/2/54
g $track_l
f 217/1/55 218/1/55 219/1/55 220/1/55
f 221/1/56 222/1/56 223/1/56 224/1/56
f 225/1/57 226/1/57 227/1/57 228/1/57
f 229/1/58 230/1/58 231/1/58 232/1/58
f 233/1/59 234/1/59 235/1/59 236/1/59
f 237/1/60 238/1/60 239/1/60 240/1/60
f 241/2/61 242/2/61 243/2/61 244/2/61
f 245/2/62 246/2/62 247/2/62 248/2/62
f 249/2/63 250/2/63 251/2/63 252/2/63
f 253/2/64 254/2/64 255/2/64 256/2/64
f 257/2/65 258/2/65 259/2/65 260/2/65
f 261/2/66 262/2/66 263/2/66 264/2/66
f 265/2/67 266/2/67 267/2/67 268/2/67
f 269/2/68 270/2/68 271/2/68 272/2/68
f 273/2/69 274/2/69 275/2/69 276/2/69
f 277/2/70 278/2/70 279/2/70 280/2/70
f 281/2/71 282/2/71 283/2/71 284/2/71
f 285/2/72 286/2/72 287/2/72 288/2/72
f 289/2/73 290/2/73 291/2/73 292/2/73
f 293/2/74 294/2/74 295/2/74 296/2/74
f 297/2/75 298/2/75 299/2/75 300/2/75
f 301/2/76 302/2/76 303/2/76 304/2/76
f 305/2/77 306/2/77 307/2/77 308/2/77
f 309/2/78 310/2/78 311/2/78 312/2/78
f 313/2/79 314/2/79 315/2/79 316/2/79
f 317/2/80 318/2/80 319/2/80 320/2/80
f 321/2/81 322/2/81 323/2/81 324/2/81
f 325/2/82 326/2/82 327/2/82 328/2/82
f 329/2/83 330/2/83 331/2/83 332/2/83
f 333/2/84 334/2/84 335/2/84 336/2/84
g $roller_l0
f 337/1/85 338/1/85 339/1/85 340/1/85
f 341/2/86 342/2/86 343/2/86 344/2/86
f 345/1/87 346/1/87 347/1/87 348/1/87
f 349/2/88 350/2/88 351/2/88 352/2/88
f 353/1/89 354/1/89 355/1/89 356/1/89
f 357/2/90 358/2/90 359/2/90 360/2/90
f 361/1/91 362/1/91 363/1/91 364/1/91
f 365/2/92 366/2/92 367/2/92 368/2/92
f 369/1/93 370/1/93 371/1/93 372/1/93 373/1/93 374/1/93 375/1/93 376/1/93
f 377/1/94 378/1/94 379/1/94 380/1/94 381/1/94 382/1/94 383/1/94 384/1/94
g $roller_l1
f 385/1/95 386/1/95 387/1/95 388/1/95
f 389/2/96 390/2/96 391/2/96 392/2/96
f 393/1/97 394/1/97 395/1/97 396/1/97
f 397/2/98 398/2/98 399/2/98 400/2/98
f 401/1/99 402/1/99 403/1/99 404/1/99
f 405/2/100 406/2/100 407/2/100 408/2/100
f 409/1/101 410/1/101 411/1/101 412/1/101
f 413/2/102 414/2/102 415/2/102 416/2/102
f 417/1/103 418/1/103 419/1/103 420/1/103 421/1/103 422/1/103 423/1/103 424/1/103
f 425/1/104 426/1/104 427/1/104 428/1/104 429/1/104 430/1/104 431/1/104 432/1/104
g $roller_l2
f 433/1/105 434/1/105 435/1/105 436/1/105
f 437/2/106 438/2/106 439/2/106 440/2/106
f 441/1/107 442/1/107 443/1/107 444/1/107
f 445/2/108 446/2/108 447/2/108 448/2/108
f 449/1/109 450/1/109 451/1/109 452/1/109
f 453/2/110 454/2/110 455/2/110 456/2/110
f 457/1/111 458/1/111 459/1/111 460/1/111
f 461/2/112 462/2/112 463/2/112 464/2/112
f 465/1/113 466/1/113 467/1/113 468/1/113 469/1/113 470/1/113 471/1/113 472/1/113
f 473/1/114 474/1/114 475/1/114 476/1/114 477/1/114 478/1/114 479/1/114 480/1/114
g $roller_l3
f 481/1/115 482/1/115 483/1/115 484/1/115
f 485/2/116 486/2/116 487/2/116 488/2/116
f 489/1/117 490/1/117 491/1/117 492/1/117
f 493/2/118 494/2/118 495/2/118 496/2/118
f 497/1/119 498/1/119 499/1/119 500/1/119
f 501/2/120 502/2/120 503/2/120 504/2/120
f 505/1/121 506/1/121 507/1/121 508/1/121
f 509/2/122 510/2/122 511/2/122 512/2/122
f 513/1/123 514/1/123 515/1/123 516/1/123 517/1/123 518/1/123 519/1/123 520/1/123
f 521/1/124 522/1/124 523/1/124 524/1/124 525/1/124 526/1/124 527/1/124 528/1/124
g $roller_l4
f 529/1/125 530/1/125 531/1/125 532/1/125
f 533/2/126 534/2/126 535/2/126 536/2/126
f 537/1/127 538/1/127 539/1/127 540/1/127
f 541/2/128 542/2/128 543/2/128 544/2/128
f 545/1/129 546/1/129 547/1/129 548/1/129
f 549/2/130 550/2/130 551/2/130 552/2/130
f 553/1/131 554/1/131 555/1/131 556/1/131
f 557/2/132 558/2/132 559/2/132 560/2/132
f 561/1/133 562/1/133 563/1/133 564/1/133 565/1/133 566/1/133 567/1/133 568/1/133
f 569/1/134 570/1/134 571/1/134 572/1/134 573/1/134 574/1/134 575/1/134 576/1/134
g $idler_l0
f 577/1/135 578/1/135 579/1/135 580/1/135
f 581/2/136 582/2/136 583/2/136 584/2/136
f 585/1/137 586/1/137 587/1/137 588/1/137
f 589/2/138 590/2/138 591/2/138 592/2/138
f 593/1/139 594/1/139 595/1/139 596/1/139
f 597/2/140 598/2/140 599/2/140 600/2/140
f 601/1/141 602/1/141 603/1/141 604/1/141
f 605/2/142 606/2/142 607/2/142 608/2/142
f 609/1/143 610/1/143 611/1/143 612/1/143
f 613/2/144 614/2/144 615/2/144 616/2/144
f 617/1/145 618/1/145 619/1/145 620/1/145 621/1/145 622/1/145 623/1/145 624/1/145 625/1/145 626/1/145
f 627/1/146 628/1/146 629/1/146 630/1/146 631/1/146 632/1/146 633/1/146 634/1/146 635/1/146 636/1/146
g $idler_l1
f 637/1/147 638/1/147 639/1/147 640/1/147
f 641/2/148 642/2/148 643/2/148 644/2/148
f 645/1/149 646/1/149 647/1/149 648/1/149
f 649/2/150 650/2/150 651/2/150 652/2/150
f 653/1/151 654/1/151 655/1/151 656/1/151
f 657/2/152 658/2/152 659/2/152 660/2/152
f 661/1/153 662/1/153 663/1/153 664/1/153
f 665/2/154 666/2/154 667/2/154 668/2/154
f 669/1/155 670/1/155 671/1/155 672/1/155
f 673/2/156 674/2/156 675/2/156 676/2/156
f 677/1/157 678/1/157 679/1/157 680/1/157 681/1/157 682/1/157 683/1/157 684/1/157 685/1/157 686/1/157
f 687/1/158 688/1/158 689/1/158 690/1/158 691/1/158 692/1/158 693/1/158 694/1/158 695/1/158 696/1/158
g $track_r
f 697/1/159 698/1/159 699/1/159 700/1/159
f 701/1/160 702/1/160 703/1/160 704/1/160
f 705/1/161 706/1/161 707/1/161 708/1/161
f 709/1/162 710/1/162 711/1/162 712/1/162
f 713/1/163 714/1/163 715/1/163 716/1/163
f 717/1/164 718/1/164 719/1/164 720/1/164
f 721/2/165 722/2/165 723/2/165 724/2/165
f 725/2/166 726/2/166 727/2/166 728/2/166
f 729/2/167 730/2/167 731/2/167 732/2/167
f 733/2/168 734/2/168 735/2/168 736/2/168
f 737/2/169 738/2/169 739/2/169 740/2/169
f 741/2/170 742/2/170 743/2/170 744/2/170
f 745/2/171 746/2/171 747/2/171 748/2/171
f 749/2/172 750/2/172 751/2/172 752/2/172
f 753/2/173 754/2/173 755/2/173 756/2/173
f 757/2/174 758/2/174 759/2/174 760/2/174
f 761/2/175 762/2/175 763/2/175 764/2/175
f 765/2/176 766/2/176 767/2/176 768/2/176
f 769/2/177 770/2/177 771/2/177 772/2/177
f 773/2/178 774/2/178 775/2/178 776/2/178
f 777/2/179 778/2/179 779/2/179 780/2/179
f 781/2/180 782/2/180 783/2/180 784/2/180
f 785/2/181 786/2/181 787/2/181 788/2/181
f 789/2/182 790/2/182 791/2/182 792/2/182
f 793/2/183 794/2/183 795/2/183 796/2/183
f 797/2/184 798/2/184 799/2/184 800/2/184
f 801/2/185 802/2/185 803/2/185 804/2/185
f 805/2/186 806/2/186 807/2/186 808/2/186
f 809/2/187 810/2/187 811/2/187 812/2/187
f 813/2/188 814/2/188 815/2/188 816/2/188
g $roller_r0
f 817/1/189 818/1/189 819/1/189 820/1/189
f 821/2/190 822/2/190 823/2/190 824/2/190
f 825/1/191 826/1/191 827/1/191 828/1/191
f 829/2/192 830/2/192 831/2/192 832/2/192
f 833/1/193 834/1/193 835/1/193 836/1/193
f 837/2/194 838/2/194 839/2/194 840/2/194
f 841/1/195 842/1/195 843/1/195 844/1/195
f 845/2/196 846/2/196 847/2/196 848/2/196
f 849/1/197 850/1/197 851/1/197 852/1/197 853/1/197 854/1/197 855/1/197 856/1/197
f 857/1/198 858/1/198 859/1/198 860/1/198 861/1/198 862/1/198 863/1/198 864/1/198
g $roller_r1
f 865/1/199 866/1/199 867/1/199 868/1/199
f 869/2/200 870/2/200 871/2/200 872/2/200
f 873/1/201 874/1/201 875/1/201 876/1/201
f 877/2/202 878/2/202 879/2/202 880/2/202
f 881/1/203 882/1/203 883/1/203 884/1/203
f 885/2/204 886/2/204 887/2/204 888/2/204
f 889/1/205 890/1/205 891/1/205 892/1/205
f 893/2/206 894/2/206 895/2/206 896/2/206
f 897/1/207 898/1/207 899/1/207 900/1/207 901/1/207 902/1/207 903/1/207 904/1/207
f 905/1/208 906/1/208 907/1/208 908/1/208 909/1/208 910/1/208 911/1/208 912/1/208
g $roller_r2
f 913/1/209 914/1/209 915/1/209 916/1/209
f 917/2/210 918/2/210 919/2/210 920/2/210
f 921/1/211 922/1/211 923/1/211 924/1/211
f 925/2/212 926/2/212 927/2/212 928/2/212
f 929/1/213 930/1/213 931/1/213 932/1/213
f 933/2/214 934/2/214 935/2/214 936/2/214
f 937/1/215 938/1/215 939/1/215 940/1/215
f 941/2/216 942/2/216 943/2/216 944/2/216
f 945/1/217 946/1/217 947/1/217 948/1/217 949/1/217 950/1/217 951/1/217 952/1/217
f 953/1/218 954/1/218 955/1/218 956/1/218 957/1/218 958/1/218 959/1/218 960/1/218
g $roller_r3
f 961/1/219 962/1/219 963/1/219 964/1/219
f 965/2/220 966/2/220 967/2/220 968/2/220
f 969/1/221 970/1/221 971/1/221 972/1/221
f 973/2/222 974/2/222 975/2/222 976/2/222
f 977/1/223 978/1/223 979/1/223 980/1/223
f 981/2/224 982/2/224 983/2/224 984/2/224
f 985/1/225 986/1/225 987/1/225 988/1/225
f 989/2/226 990/2/226 991/2/226 992/2/226
f 993/1/227 994/1/227 995/1/227 996/1/227 997/1/227 998/1/227 999/1/227 1000/1/227
f 1001/1/228 1002/1/228 1003/1/228 1004/1/228 1005/1/228 1006/1/228 1007/1/228 1008/1/228
g $roller_r4
f 1009/1/229 1010/1/229 1011/1/229 1012/1/229
f 1013/2/230 1014/2/230 1015/2/230 1016/2/230
f 1017/1/231 1018/1/231 1019/1/231 1020/1/231
f 1021/2/232 1022/2/232 1023/2/232 1024/2/232
f 1025/1/233 1026/1/233 1027/1/233 1028/1/233
f 1029/2/234 1030/2/234 1031/2/234 1032/2/234
f 1033/1/235 1034/1/235 1035/1/235 1036/1/235
f 1037/2/236 1038/2/236 1039/2/236 1040/2/236
f 1041/1/237 1042/1/237 1043/1/237 1044/1/237 1045/1/237 1046/1/237 1047/1/237 1048/1/237
f 1049/1/238 1050/1/238 1051/1/238 1052/1/238 1053/1/238 1054/1/238 1055/1/238 1056/1/238
g $idler_r0
f 1057/1/239 1058/1/239 1059/1/239 1060/1/239
f 1061/2/240 1062/2/240 1063/2/240 1064/2/240
f 1065/1/241 1066/1/241 1067/1/241 1068/1/241
f 1069/2/242 1070/2/242 1071/2/242 1072/2/242
f 1073/1/243 1074/1/243 1075/1/243 1076/1/243
f 1077/2/244 1078/2/244 1079/2/244 1080/2/244
f 1081/1/245 1082/1/245 1083/1/245 1084/1/245
f 1085/2/246 1086/2/246 1087/2/246 1088/2/246
f 1089/1/247 1090/1/247 1091/1/247 1092/1/247
f 1093/2/248 1094/2/248 1095/2/248 1096/2/248
f 1097/1/249 1098/1/249 1099/1/249 1100/1/249 1101/1/249 1102/1/249 1103/1/249 1104/1/249 1105/1/249 1106/1/249
f 1107/1/250 1108/1/250 1109/1/250 1110/1/250 1111/1/250 1112/1/250 1113/1/250 1114/1/250 1115/1/250 1116/1/250
g $idler_r1
f 1117/1/251 1118/1/251 1119/1/251 1120/1/251
f 1121/2/252 1122/2/252 1123/2/252 1124/2/252
f 1125/1/253 1126/1/253 1127/1/253 1128/1/253
f 1129/2/254 1130/2/254 1131/2/254 1132/2/254
f 1133/1/255 1134/1/255 1135/1/255 1136/1/255
f 1137/2/256 1138/2/256 1139/2/256 1140/2/256
f 1141/1/257 1142/1/257 1143/1/257 1144/1/257
f 1145/2/258 1146/2/258 1147/2/258 1148/2/258
f 1149/1/259 1150/1/259 1151/1/259 1152/1/259
f 1153/2/260 1154/2/260 1155/2/260 1156/2/260
f 1157/1/261 1158/1/261 1159/1/261 1160/1/261 1161/1/261 1162/1/261 1163/1/261 1164/1/261 1165/1/261 1166/1/261
f 1167/1/262 1168/1/262 1169/1/262 1170/1/262 1171/1/262 1172/1/262 1173/1/262 1174/1/262 1175/1/262 1176/1/262
g $upper
f 1177/3/263 1178/3/263 1179/3/263 1180/3/263
f 1181/3/264 1182/3/264 1183/3/264 1184/3/264
f 1185/3/265 1186/3/265 1187/3/265 1188/3/265
f 1189/3/266 1190/3/266 1191/3/266 1192/3/266
f 1193/3/267 1194/3/267 1195/3/267 1196/3/267
f 1197/3/268 1198/3/268 1199/3/268 1200/3/268
f 1201/3/269 1202/3/269 1203/3/269 1204/3/269
f 1205/3/270 1206/3/270 1207/3/270 1208/3/270
f 1209/3/271 1210/3/271 1211/3/271 1212/3/271
f 1213/3/272 1214/3/272 1215/3/272 1216/3/272
f 1217/3/273 1218/3/273 1219/3/273 1220/3/273
f 1221/3/274 1222/3/274 1223/3/274 1224/3/274
f 1225/2/275 1226/2/275 1227/2/275 1228/2/275
f 1229/2/276 1230/2/276 1231/2/276 1232/2/276
f 1233/2/277 1234/2/277 1235/2/277 1236/2/277
f 1237/2/278 1238/2/278 1239/2/278 1240/2/278
f 1241/2/279 1242/2/279 1243/2/279 1244/2/279
f 1245/2/280 1246/2/280 1247/2/280 1248/2/280
f 1249/3/281 1250/3/281 1251/3/281 1252/3/281
f 1253/3/282 1254/3/282 1255/3/282 1256/3/282
f 1257/3/283 1258/3/283 1259/3/283 1260/3/283
f 1261/3/284 1262/3/284 1263/3/284 1264/3/284
f 1265/3/285 1266/3/285 1267/3/285 1268/3/285
f 1269/3/286 1270/3/286 1271/3/286 1272/3/286
f 1273/4/287 1274/4/287 1275/4/287 1276/4/287
f 1277/4/288 1278/4/288 1279/4/288 1280/4/288
f 1281/4/289 1282/4/289 1283/4/289 1284/4/289
f 1285/4/290 1286/4/290 1287/4/290 1288/4/290
f 1289/4/291 1290/4/291 1291/4/291 1292/4/291
f 1293/4/292 1294/4/292 1295/4/292 1296/4/292
f 1297/4/293 1298/4/293 1299/4/293 1300/4/293
f 1301/4/294 1302/4/294 1303/4/294 1304/4/294
f 1305/4/295 1306/4/295 1307/4/295 1308/4/295
f 1309/4/296 1310/4/296 1311/4/296 1312/4/296
f 1313/4/297 1314/4/297 1315/4/297 1316/4/297
f 1317/4/298 1318/4/298 1319/4/298 1320/4/298
f 1321/1/299 1322/1/299 1323/1/299 1324/1/299
f 1325/1/300 1326/1/300 1327/1/300 1328/1/300
f 1329/1/301 1330/1/301 1331/1/301 1332/1/301
f 1333/1/302 1334/1/302 1335/1/302 1336/1/302
f 1337/1/303 1338/1/303 1339/1/303 1340/1/303
f 1341/1/304 1342/1/304 1343/1/304 1344/1/304
f 1345/1/305 1346/1/305 1347/1/305 1348/1/305
f 1349/1/306 1350/1/306 1351/1/306 1352/1/306
f 1353/1/307 1354/1/307 1355/1/307 1356/1/307
f 1357/1/308 1358/1/308 1359/1/308 1360/1/308
f 1361/1/309 1362/1/309 1363/1/309 1364/1/309
f 1365/1/310 1366/1/310 1367/1/310 1368/1/310
g $leader_lower
f 1369/5/311 1370/5/311 1371/5/311 1372/5/311
f 1373/5/312 1374/5/312 1375/5/312 1376/5/312
f 1377/5/313 1378/5/313 1379/5/313 1380/5/313
f 1381/5/314 1382/5/314 1383/5/314 1384/5/314
f 1385/5/315 1386/5/315 1387/5/315 1388/5/315
f 1389/5/316 1390/5/316 1391/5/316 1392/5/316
f 1393/1/317 1394/1/317 1395/1/317 1396/1/317
f 1397/1/318 1398/1/318 1399/1/318 1400/1/318
f 1401/1/319 1402/1/319 1403/1/319 1404/1/319
f 1405/1/320 1406/1/320 1407/1/320 1408/1/320
f 1409/1/321 1410/1/321 1411/1/321 1412/1/321
f 1413/1/322 1414/1/322 1415/1/322 1416/1/322
f 1417/1/323 1418/1/323 1419/1/323 1420/1/323
f 1421/1/324 1422/1/324 1423/1/324 1424/1/324
f 1425/1/325 1426/1/325 1427/1/325 1428/1/325
f 1429/1/326 1430/1/326 1431/1/326 1432/1/326
f 1433/1/327 1434/1/327 1435/1/327 1436/1/327
f 1437/1/328 1438/1/328 1439/1/328 1440/1/328
f 1441/1/329 1442/1/329 1443/1/329 1444/1/329
f 1445/1/330 1446/1/330 1447/1/330 1448/1/330
f 1449/1/331 1450/1/331 1451/1/331 1452/1/331
f 1453/1/332 1454/1/332 1455/1/332 1456/1/332
f 1457/1/333 1458/1/333 1459/1/333 1460/1/333
f 1461/1/334 1462/1/334 1463/1/334 1464/1/334
g $leader_upper
f 1465/5/335 1466/5/335 1467/5/335 1468/5/335
f 1469/5/336 1470/5/336 1471/5/336 1472/5/336
f 1473/5/337 1474/5/337 1475/5/337 1476/5/337
f 1477/5/338 1478/5/338 1479/5/338 1480/5/338
f 1481/5/339 1482/5/339 1483/5/339 1484/5/339
f 1485/5/340 1486/5/340 1487/5/340 1488/5/340
f 1489/1/341 1490/1/341 1491/1/341 1492/1/341
f 1493/1/342 1494/1/342 1495/1/342 1496/1/342
f 1497/1/343 1498/1/343 1499/1/343 1500/1/343
f 1501/1/344 1502/1/344 1503/1/344 1504/1/344
f 1505/1/345 1506/1/345 1507/1/345 1508/1/345
f 1509/1/346 1510/1/346 1511/1/346 1512/1/346
g $rotary_head
f 1513/1/347 1514/1/347 1515/1/347 1516/1/347
f 1517/1/348 1518/1/348 1519/1/348 1520/1/348
f 1521/1/349 1522/1/349 1523/1/349 1524/1/349
f 1525/1/350 1526/1/350 1527/1/350 1528/1/350
f 1529/1/351 1530/1/351 1531/1/351 1532/1/351
f 1533/1/352 1534/1/352 1535/1/352 1536/1/352
f 1537/2/353 1538/2/353 1539/2/353 1540/2/353
f 1541/2/354 1542/2/354 1543/2/354 1544/2/354
f 1545/2/355 1546/2/355 1547/2/355 1548/2/355
f 1549/2/356 1550/2/356 1551/2/356 1552/2/356
f 1553/2/357 1554/2/357 1555/2/357 1556/2/357
f 1557/2/358 1558/2/358 1559/2/358 1560/2/358
f 1561/2/359 1562/2/359 1563/2/359 1564/2/359
f 1565/2/360 1566/2/360 1567/2/360 1568/2/360
f 1569/2/361 1570/2/361 1571/2/361 1572/2/361
f 1573/2/362 1574/2/362 1575/2/362 1576/2/362
f 1577/2/363 1578/2/363 1579/2/363 1580/2/363
f 1581/2/364 1582/2/364 1583/2/364 1584/2/364
g $auger
f 1585/6/365 1586/6/365 1587/6/365 1588/6/365
f 1589/6/366 1590/6/366 1591/6/366 1592/6/366
f 1593/6/367 1594/6/367 1595/6/367 1596/6/367
f 1597/6/368 1598/6/368 1599/6/368 1600/6/368
f 1601/6/369 1602/6/369 1603/6/369 1604/6/369
f 1605/6/370 1606/6/370 1607/6/370 1608/6/370
f 1609/5/371 1610/5/371 1611/5/371 1612/5/371
f 1613/5/372 1614/5/372 1615/5/372 1616/5/372
f 1617/5/373 1618/5/373 1619/5/373 1620/5/373
f 1621/5/374 1622/5/374 1623/5/374 1624/5/374
f 1625/5/375 1626/5/375 1627/5/375 1628/5/375
f 1629/5/376 1630/5/376 1631/5/376 1632/5/376
f 1633/5/377 1634/5/377 1635/5/377 1636/5/377
f 1637/5/378 1638/5/378 1639/5/378 1640/5/378
f 1641/5/379 1642/5/379 1643/5/379 1644/5/379
f 1645/5/380 1646/5/380 1647/5/380 1648/5/380
f 1649/5/381 1650/5/381 1651/5/381 1652/5/381
f 1653/5/382 1654/5/382 1655/5/382 1656/5/382
f 1657/5/383 1658/5/383 1659/5/383 1660/5/383
f 1661/5/384 1662/5/384 1663/5/384 1664/5/384
f 1665/5/385 1666/5/385 1667/5/385 1668/5/385
f 1669/5/386 1670/5/386 1671/5/386 1672/5/386
f 1673/5/387 1674/5/387 1675/5/387 1676/5/387
f 1677/5/388 1678/5/388 1679/5/388 1680/5/388
f 1681/5/389 1682/5/389 1683/5/389 1684/5/389
f 1685/5/390 1686/5/390 1687/5/390 1688/5/390
f 1689/5/391 1690/5/391 1691/5/391 1692/5/391
f 1693/5/392 1694/5/392 1695/5/392 1696/5/392
f 1697/5/393 1698/5/393 1699/5/393 1700/5/393
f 1701/5/394 1702/5/394 1703/5/394 1704/5/394
f 1705/5/395 1706/5/395 1707/5/395 1708/5/395
f 1709/5/396 1710/5/396 1711/5/396 1712/5/396
f 1713/5/397 1714/5/397 1715/5/397 1716/5/397
f 1717/5/398 1718/5/398 1719/5/398 1720/5/398
f 1721/5/399 1722/5/399 1723/5/399 1724/5/399
f 1725/5/400 1726/5/400 1727/5/400 1728/5/400
f 1729/5/401 1730/5/401 1731/5/401 1732/5/401
f 1733/5/402 1734/5/402 1735/5/402 1736/5/402
f 1737/5/403 1738/5/403 1739/5/403 1740/5/403
f 1741/5/404 1742/5/404 1743/5/404 1744/5/404
f 1745/5/405 1746/5/405 1747/5/405 1748/5/405
f 1749/5/406 1750/5/406 1751/5/406 1752/5/406
f 1753/5/407 1754/5/407 1755/5/407 1756/5/407
f 1757/5/408 1758/5/408 1759/5/408 1760/5/408
f 1761/5/409 1762/5/409 1763/5/409 1764/5/409
f 1765/5/410 1766/5/410 1767/5/410 1768/5/410
f 1769/5/411 1770/5/411 1771/5/411 1772/5/411
f 1773/5/412 1774/5/412 1775/5/412 1776/5/412
f 1777/5/413 1778/5/413 1779/5/413 1780/5/413
f 1781/5/414 1782/5/414 1783/5/414 1784/5/414
f 1785/5/415 1786/5/415 1787/5/415 1788/5/415
f 1789/5/416 1790/5/416 1791/5/416 1792/5/416
f 1793/5/417 1794/5/417 1795/5/417 1796/5/417
f 1797/5/418 1798/5/418 1799/5/418 1800/5/418
f 1801/5/419 1802/5/419 1803/5/419 1804/5/419
f 1805/5/420 1806/5/420 1807/5/420 1808/5/420
f 1809/5/421 1810/5/421 1811/5/421 1812/5/421
f 1813/5/422 1814/5/422 1815/5/422 1816/5/422
f 1817/5/423 1818/5/423 1819/5/423 1820/5/423
f 1821/5/424 1822/5/424 1823/5/424 1824/5/424
f 1825/5/425 1826/5/425 1827/5/425 1828/5/425
f 1829/5/426 1830/5/426 1831/5/426 1832/5/426
f 1833/5/427 1834/5/427 1835/5/427 1836/5/427
f 1837/5/428 1838/5/428 1839/5/428 1840/5/428
f 1841/5/429 1842/5/429 1843/5/429 1844/5/429
f 1845/5/430 1846/5/430 1847/5/430 1848/5/430
