# Rotary press-in pile driver
# Generated by tools/generate_models.py

v 1.45000 0.00000 -1.90000
v 1.45000 0.75000 -1.90000
v 1.45000 0.75000 1.90000
v 1.45000 0.00000 1.90000
v 0.75000 0.00000 1.90000
v 0.75000 0.75000 1.90000
v 0.75000 0.75000 -1.90000
v 0.75000 0.00000 -1.90000
v 0.75000 0.75000 -1.90000
v 0.75000 0.75000 1.90000
v 1.45000 0.75000 1.90000
v 1.45000 0.75000 -1.90000
v 0.75000 0.00000 1.90000
v 0.75000 0.00000 -1.90000
v 1.45000 0.00000 -1.90000
v 1.45000 0.00000 1.90000
v 0.75000 0.00000 1.90000
v 1.45000 0.00000 1.90000
v 1.45000 0.75000 1.90000
v 0.75000 0.75000 1.90000
v 1.45000 0.00000 -1.90000
v 0.75000 0.00000 -1.90000
v 0.75000 0.75000 -1.90000
v 1.45000 0.75000 -1.90000
v 1.40000 0.20000 -2.05000
v 1.40000 0.55000 -2.05000
v 1.40000 0.55000 -1.90000
v 1.40000 0.20000 -1.90000
v 0.80000 0.20000 -1.90000
v 0.80000 0.55000 -1.90000
v 0.80000 0.55000 -2.05000
v 0.80000 0.20000 -2.05000
v 0.80000 0.55000 -2.05000
v 0.80000 0.55000 -1.90000
v 1.40000 0.55000 -1.90000
v 1.40000 0.55000 -2.05000
v 0.80000 0.20000 -1.90000
v 0.80000 0.20000 -2.05000
v 1.40000 0.20000 -2.05000
v 1.40000 0.20000 -1.90000
v 0.80000 0.20000 -1.90000
v 1.40000 0.20000 -1.90000
v 1.40000 0.55000 -1.90000
v 0.80000 0.55000 -1.90000
v 1.40000 0.20000 -2.05000
v 0.80000 0.20000 -2.05000
v 0.80000 0.55000 -2.05000
v 1.40000 0.55000 -2.05000
v 1.40000 0.20000 1.90000
v 1.40000 0.55000 1.90000
v 1.40000 0.55000 2.05000
v 1.40000 0.20000 2.05000
v 0.80000 0.20000 2.05000
v 0.80000 0.55000 2.05000
v 0.80000 0.55000 1.90000
v 0.80000 0.20000 1.90000
v 0.80000 0.55000 1.90000
v 0.80000 0.55000 2.05000
v 1.40000 0.55000 2.05000
v 1.40000 0.55000 1.90000
v 0.80000 0.20000 2.05000
v 0.80000 0.20000 1.90000
v 1.40000 0.20000 1.90000
v 1.40000 0.20000 2.05000
v 0.80000 0.20000 2.05000
v 1.40000 0.20000 2.05000
v 1.40000 0.55000 2.05000
v 0.80000 0.55000 2.05000
v 1.40000 0.20000 1.90000
v 0.80000 0.20000 1.90000
v 0.80000 0.55000 1.90000
v 1.40000 0.55000 1.90000
v -0.75000 0.00000 -1.90000
v -0.75000 0.75000 -1.90000
v -0.75000 0.75000 1.90000
v -0.75000 0.00000 1.90000
v -1.45000 0.00000 1.90000
v -1.45000 0.75000 1.90000
v -1.45000 0.75000 -1.90000
v -1.45000 0.00000 -1.90000
v -1.45000 0.75000 -1.90000
v -1.45000 0.75000 1.90000
v -0.75000 0.75000 1.90000
v -0.75000 0.75000 -1.90000
v -1.45000 0.00000 1.90000
v -1.45000 0.00000 -1.90000
v -0.75000 0.00000 -1.90000
v -0.75000 0.00000 1.90000
v -1.45000 0.00000 1.90000
v -0.75000 0.00000 1.90000
v -0.75000 0.75000 1.90000
v -1.45000 0.75000 1.90000
v -0.75000 0.00000 -1.90000
v -1.45000 0.00000 -1.90000
v -1.45000 0.75000 -1.90000
v -0.75000 0.75000 -1.90000
v -0.80000 0.20000 -2.05000
v -0.80000 0.55000 -2.05000
v -0.80000 0.55000 -1.90000
v -0.80000 0.20000 -1.90000
v -1.40000 0.20000 -1.90000
v -1.40000 0.55000 -1.90000
v -1.40000 0.55000 -2.05000
v -1.40000 0.20000 -2.05000
v -1.40000 0.55000 -2.05000
v -1.40000 0.55000 -1.90000
v -0.80000 0.55000 -1.90000
v -0.80000 0.55000 -2.05000
v -1.40000 0.20000 -1.90000
v -1.40000 0.20000 -2.05000
v -0.80000 0.20000 -2.05000
v -0.80000 0.20000 -1.90000
v -1.40000 0.20000 -1.90000
v -0.80000 0.20000 -1.90000
v -0.80000 0.55000 -1.90000
v -1.40000 0.55000 -1.90000
v -0.80000 0.20000 -2.05000
v -1.40000 0.20000 -2.05000
v -1.40000 0.55000 -2.05000
v -0.80000 0.55000 -2.05000
v -0.80000 0.20000 1.90000
v -0.80000 0.55000 1.90000
v -0.80000 0.55000 2.05000
v -0.80000 0.20000 2.05000
v -1.40000 0.20000 2.05000
v -1.40000 0.55000 2.05000
v -1.40000 0.55000 1.90000
v -1.40000 0.20000 1.90000
v -1.40000 0.55000 1.90000
v -1.40000 0.55000 2.05000
v -0.80000 0.55000 2.05000
v -0.80000 0.55000 1.90000
v -1.40000 0.20000 2.05000
v -1.40000 0.20000 1.90000
v -0.80000 0.20000 1.90000
v -0.80000 0.20000 2.05000
v -1.40000 0.20000 2.05000
v -0.80000 0.20000 2.05000
v -0.80000 0.55000 2.05000
v -1.40000 0.55000 2.05000
v -0.80000 0.20000 1.90000
v -1.40000 0.20000 1.90000
v -1.40000 0.55000 1.90000
v -0.80000 0.55000 1.90000
v 0.90000 0.70000 -1.80000
v 0.90000 1.70000 -1.80000
v 0.90000 1.70000 1.20000
v 0.90000 0.70000 1.20000
v -0.90000 0.70000 1.20000
v -0.90000 1.70000 1.20000
v -0.90000 1.70000 -1.80000
v -0.90000 0.70000 -1.80000
v -0.90000 1.70000 -1.80000
v -0.90000 1.70000 1.20000
v 0.90000 1.70000 1.20000
v 0.90000 1.70000 -1.80000
v -0.90000 0.70000 1.20000
v -0.90000 0.70000 -1.80000
v 0.90000 0.70000 -1.80000
v 0.90000 0.70000 1.20000
v -0.90000 0.70000 1.20000
v 0.90000 0.70000 1.20000
v 0.90000 1.70000 1.20000
v -0.90000 1.70000 1.20000
v 0.90000 0.70000 -1.80000
v -0.90000 0.70000 -1.80000
v -0.90000 1.70000 -1.80000
v 0.90000 1.70000 -1.80000
v 0.90000 0.80000 -2.20000
v 0.90000 1.50000 -2.20000
v 0.90000 1.50000 -1.80000
v 0.90000 0.80000 -1.80000
v -0.90000 0.80000 -1.80000
v -0.90000 1.50000 -1.80000
v -0.90000 1.50000 -2.20000
v -0.90000 0.80000 -2.20000
v -0.90000 1.50000 -2.20000
v -0.90000 1.50000 -1.80000
v 0.90000 1.50000 -1.80000
v 0.90000 1.50000 -2.20000
v -0.90000 0.80000 -1.80000
v -0.90000 0.80000 -2.20000
v 0.90000 0.80000 -2.20000
v 0.90000 0.80000 -1.80000
v -0.90000 0.80000 -1.80000
v 0.90000 0.80000 -1.80000
v 0.90000 1.50000 -1.80000
v -0.90000 1.50000 -1.80000
v 0.90000 0.80000 -2.20000
v -0.90000 0.80000 -2.20000
v -0.90000 1.50000 -2.20000
v 0.90000 1.50000 -2.20000
v 1.00000 1.70000 -0.40000
v 1.00000 2.70000 -0.40000
v 1.00000 2.70000 0.80000
v 1.00000 1.70000 0.80000
v 0.20000 1.70000 0.80000
v 0.20000 2.70000 0.80000
v 0.20000 2.70000 -0.40000
v 0.20000 1.70000 -0.40000
v 0.20000 2.70000 -0.40000
v 0.20000 2.70000 0.80000
v 1.00000 2.70000 0.80000
v 1.00000 2.70000 -0.40000
v 0.20000 1.70000 0.80000
v 0.20000 1.70000 -0.40000
v 1.00000 1.70000 -0.40000
v 1.00000 1.70000 0.80000
v 0.20000 1.70000 0.80000
v 1.00000 1.70000 0.80000
v 1.00000 2.70000 0.80000
v 0.20000 2.70000 0.80000
v 1.00000 1.70000 -0.40000
v 0.20000 1.70000 -0.40000
v 0.20000 2.70000 -0.40000
v 1.00000 2.70000 -0.40000
v 0.95000 2.15000 0.80000
v 0.95000 2.60000 0.80000
v 0.95000 2.60000 0.83000
v 0.95000 2.15000 0.83000
v 0.25000 2.15000 0.83000
v 0.25000 2.60000 0.83000
v 0.25000 2.60000 0.80000
v 0.25000 2.15000 0.80000
v 0.25000 2.60000 0.80000
v 0.25000 2.60000 0.83000
v 0.95000 2.60000 0.83000
v 0.95000 2.60000 0.80000
v 0.25000 2.15000 0.83000
v 0.25000 2.15000 0.80000
v 0.95000 2.15000 0.80000
v 0.95000 2.15000 0.83000
v 0.25000 2.15000 0.83000
v 0.95000 2.15000 0.83000
v 0.95000 2.60000 0.83000
v 0.25000 2.60000 0.83000
v 0.95000 2.15000 0.80000
v 0.25000 2.15000 0.80000
v 0.25000 2.60000 0.80000
v 0.95000 2.60000 0.80000
v 1.03000 2.15000 -0.30000
v 1.03000 2.60000 -0.30000
v 1.03000 2.60000 0.70000
v 1.03000 2.15000 0.70000
v 1.00000 2.15000 0.70000
v 1.00000 2.60000 0.70000
v 1.00000 2.60000 -0.30000
v 1.00000 2.15000 -0.30000
v 1.00000 2.60000 -0.30000
v 1.00000 2.60000 0.70000
v 1.03000 2.60000 0.70000
v 1.03000 2.60000 -0.30000
v 1.00000 2.15000 0.70000
v 1.00000 2.15000 -0.30000
v 1.03000 2.15000 -0.30000
v 1.03000 2.15000 0.70000
v 1.00000 2.15000 0.70000
v 1.03000 2.15000 0.70000
v 1.03000 2.60000 0.70000
v 1.00000 2.60000 0.70000
v 1.03000 2.15000 -0.30000
v 1.00000 2.15000 -0.30000
v 1.00000 2.60000 -0.30000
v 1.03000 2.60000 -0.30000
v 0.35000 0.70000 1.20000
v 0.35000 1.20000 1.20000
v 0.35000 1.20000 1.70000
v 0.35000 0.70000 1.70000
v -0.35000 0.70000 1.70000
v -0.35000 1.20000 1.70000
v -0.35000 1.20000 1.20000
v -0.35000 0.70000 1.20000
v -0.35000 1.20000 1.20000
v -0.35000 1.20000 1.70000
v 0.35000 1.20000 1.70000
v 0.35000 1.20000 1.20000
v -0.35000 0.70000 1.70000
v -0.35000 0.70000 1.20000
v 0.35000 0.70000 1.20000
v 0.35000 0.70000 1.70000
v -0.35000 0.70000 1.70000
v 0.35000 0.70000 1.70000
v 0.35000 1.20000 1.70000
v -0.35000 1.20000 1.70000
v 0.35000 0.70000 1.20000
v -0.35000 0.70000 1.20000
v -0.35000 1.20000 1.20000
v 0.35000 1.20000 1.20000
v 0.20000 1.00000 1.60000
v 0.20000 8.50000 1.60000
v 0.20000 8.50000 1.90000
v 0.20000 1.00000 1.90000
v -0.20000 1.00000 1.90000
v -0.20000 8.50000 1.90000
v -0.20000 8.50000 1.60000
v -0.20000 1.00000 1.60000
v -0.20000 8.50000 1.60000
v -0.20000 8.50000 1.90000
v 0.20000 8.50000 1.90000
v 0.20000 8.50000 1.60000
v -0.20000 1.00000 1.90000
v -0.20000 1.00000 1.60000
v 0.20000 1.00000 1.60000
v 0.20000 1.00000 1.90000
v -0.20000 1.00000 1.90000
v 0.20000 1.00000 1.90000
v 0.20000 8.50000 1.90000
v -0.20000 8.50000 1.90000
v 0.20000 1.00000 1.60000
v -0.20000 1.00000 1.60000
v -0.20000 8.50000 1.60000
v 0.20000 8.50000 1.60000
v 0.35000 8.30000 1.50000
v 0.35000 8.60000 1.50000
v 0.35000 8.60000 2.60000
v 0.35000 8.30000 2.60000
v -0.35000 8.30000 2.60000
v -0.35000 8.60000 2.60000
v -0.35000 8.60000 1.50000
v -0.35000 8.30000 1.50000
v -0.35000 8.60000 1.50000
v -0.35000 8.60000 2.60000
v 0.35000 8.60000 2.60000
v 0.35000 8.60000 1.50000
v -0.35000 8.30000 2.60000
v -0.35000 8.30000 1.50000
v 0.35000 8.30000 1.50000
v 0.35000 8.30000 2.60000
v -0.35000 8.30000 2.60000
v 0.35000 8.30000 2.60000
v 0.35000 8.60000 2.60000
v -0.35000 8.60000 2.60000
v 0.35000 8.30000 1.50000
v -0.35000 8.30000 1.50000
v -0.35000 8.60000 1.50000
v 0.35000 8.60000 1.50000
v 0.25000 1.00000 1.90000
v 0.25000 1.30000 1.90000
v 0.25000 1.30000 2.10000
v 0.25000 1.00000 2.10000
v -0.25000 1.00000 2.10000
v -0.25000 1.30000 2.10000
v -0.25000 1.30000 1.90000
v -0.25000 1.00000 1.90000
v -0.25000 1.30000 1.90000
v -0.25000 1.30000 2.10000
v 0.25000 1.30000 2.10000
v 0.25000 1.30000 1.90000
v -0.25000 1.00000 2.10000
v -0.25000 1.00000 1.90000
v 0.25000 1.00000 1.90000
v 0.25000 1.00000 2.10000
v -0.25000 1.00000 2.10000
v 0.25000 1.00000 2.10000
v 0.25000 1.30000 2.10000
v -0.25000 1.30000 2.10000
v 0.25000 1.00000 1.90000
v -0.25000 1.00000 1.90000
v -0.25000 1.30000 1.90000
v 0.25000 1.30000 1.90000
v 0.40000 1.00000 1.95000
v 0.40000 1.80000 1.95000
v 0.40000 1.80000 2.75000
v 0.40000 1.00000 2.75000
v -0.40000 1.00000 2.75000
v -0.40000 1.80000 2.75000
v -0.40000 1.80000 1.95000
v -0.40000 1.00000 1.95000
v -0.40000 1.80000 1.95000
v -0.40000 1.80000 2.75000
v 0.40000 1.80000 2.75000
v 0.40000 1.80000 1.95000
v -0.40000 1.00000 2.75000
v -0.40000 1.00000 1.95000
v 0.40000 1.00000 1.95000
v 0.40000 1.00000 2.75000
v -0.40000 1.00000 2.75000
v 0.40000 1.00000 2.75000
v 0.40000 1.80000 2.75000
v -0.40000 1.80000 2.75000
v 0.40000 1.00000 1.95000
v -0.40000 1.00000 1.95000
v -0.40000 1.80000 1.95000
v 0.40000 1.80000 1.95000
v 0.30000 1.80000 2.05000
v 0.30000 2.20000 2.05000
v 0.30000 2.20000 2.65000
v 0.30000 1.80000 2.65000
v -0.30000 1.80000 2.65000
v -0.30000 2.20000 2.65000
v -0.30000 2.20000 2.05000
v -0.30000 1.80000 2.05000
v -0.30000 2.20000 2.05000
v -0.30000 2.20000 2.65000
v 0.30000 2.20000 2.65000
v 0.30000 2.20000 2.05000
v -0.30000 1.80000 2.65000
v -0.30000 1.80000 2.05000
v 0.30000 1.80000 2.05000
v 0.30000 1.80000 2.65000
v -0.30000 1.80000 2.65000
v 0.30000 1.80000 2.65000
v 0.30000 2.20000 2.65000
v -0.30000 2.20000 2.65000
v 0.30000 1.80000 2.05000
v -0.30000 1.80000 2.05000
v -0.30000 2.20000 2.05000
v 0.30000 2.20000 2.05000
v 0.08000 -0.60000 2.27000
v 0.08000 1.00000 2.27000
v 0.08000 1.00000 2.43000
v 0.08000 -0.60000 2.43000
v -0.08000 -0.60000 2.43000
v -0.08000 1.00000 2.43000
v -0.08000 1.00000 2.27000
v -0.08000 -0.60000 2.27000
v -0.08000 1.00000 2.27000
v -0.08000 1.00000 2.43000
v 0.08000 1.00000 2.43000
v 0.08000 1.00000 2.27000
v -0.08000 -0.60000 2.43000
v -0.08000 -0.60000 2.27000
v 0.08000 -0.60000 2.27000
v 0.08000 -0.60000 2.43000
v -0.08000 -0.60000 2.43000
v 0.08000 -0.60000 2.43000
v 0.08000 1.00000 2.43000
v -0.08000 1.00000 2.43000
v 0.08000 -0.60000 2.27000
v -0.08000 -0.60000 2.27000
v -0.08000 1.00000 2.27000
v 0.08000 1.00000 2.27000
v 0.32000 -0.55000 2.25000
v 0.32000 -0.49000 2.25000
v 0.32000 -0.49000 2.45000
v 0.32000 -0.55000 2.45000
v 0.12000 -0.55000 2.45000
v 0.12000 -0.49000 2.45000
v 0.12000 -0.49000 2.25000
v 0.12000 -0.55000 2.25000
v 0.12000 -0.49000 2.25000
v 0.12000 -0.49000 2.45000
v 0.32000 -0.49000 2.45000
v 0.32000 -0.49000 2.25000
v 0.12000 -0.55000 2.45000
v 0.12000 -0.55000 2.25000
v 0.32000 -0.55000 2.25000
v 0.32000 -0.55000 2.45000
v 0.12000 -0.55000 2.45000
v 0.32000 -0.55000 2.45000
v 0.32000 -0.49000 2.45000
v 0.12000 -0.49000 2.45000
v 0.32000 -0.55000 2.25000
v 0.12000 -0.55000 2.25000
v 0.12000 -0.49000 2.25000
v 0.32000 -0.49000 2.25000
v 0.23675 -0.40000 2.42233
v 0.23675 -0.34000 2.42233
v 0.23675 -0.34000 2.62233
v 0.23675 -0.40000 2.62233
v 0.03675 -0.40000 2.62233
v 0.03675 -0.34000 2.62233
v 0.03675 -0.34000 2.42233
v 0.03675 -0.40000 2.42233
v 0.03675 -0.34000 2.42233
v 0.03675 -0.34000 2.62233
v 0.23675 -0.34000 2.62233
v 0.23675 -0.34000 2.42233
v 0.03675 -0.40000 2.62233
v 0.03675 -0.40000 2.42233
v 0.23675 -0.40000 2.42233
v 0.23675 -0.40000 2.62233
v 0.03675 -0.40000 2.62233
v 0.23675 -0.40000 2.62233
v 0.23675 -0.34000 2.62233
v 0.03675 -0.34000 2.62233
v 0.23675 -0.40000 2.42233
v 0.03675 -0.40000 2.42233
v 0.03675 -0.34000 2.42233
v 0.23675 -0.34000 2.42233
v 0.05002 -0.25000 2.46425
v 0.05002 -0.19000 2.46425
v 0.05002 -0.19000 2.66425
v 0.05002 -0.25000 2.66425
v -0.14998 -0.25000 2.66425
v -0.14998 -0.19000 2.66425
v -0.14998 -0.19000 2.46425
v -0.14998 -0.25000 2.46425
v -0.14998 -0.19000 2.46425
v -0.14998 -0.19000 2.66425
v 0.05002 -0.19000 2.66425
v 0.05002 -0.19000 2.46425
v -0.14998 -0.25000 2.66425
v -0.14998 -0.25000 2.46425
v 0.05002 -0.25000 2.46425
v 0.05002 -0.25000 2.66425
v -0.14998 -0.25000 2.66425
v 0.05002 -0.25000 2.66425
v 0.05002 -0.19000 2.66425
v -0.14998 -0.19000 2.66425
v 0.05002 -0.25000 2.46425
v -0.14998 -0.25000 2.46425
v -0.14998 -0.19000 2.46425
v 0.05002 -0.19000 2.46425
v -0.09890 -0.10000 2.34402
v -0.09890 -0.04000 2.34402
v -0.09890 -0.04000 2.54402
v -0.09890 -0.10000 2.54402
v -0.29890 -0.10000 2.54402
v -0.29890 -0.04000 2.54402
v -0.29890 -0.04000 2.34402
v -0.29890 -0.10000 2.34402
v -0.29890 -0.04000 2.34402
v -0.29890 -0.04000 2.54402
v -0.09890 -0.04000 2.54402
v -0.09890 -0.04000 2.34402
v -0.29890 -0.10000 2.54402
v -0.29890 -0.10000 2.34402
v -0.09890 -0.10000 2.34402
v -0.09890 -0.10000 2.54402
v -0.29890 -0.10000 2.54402
v -0.09890 -0.10000 2.54402
v -0.09890 -0.04000 2.54402
v -0.29890 -0.04000 2.54402
v -0.09890 -0.10000 2.34402
v -0.29890 -0.10000 2.34402
v -0.29890 -0.04000 2.34402
v -0.09890 -0.04000 2.34402
v -0.09729 0.05000 2.15265
v -0.09729 0.11000 2.15265
v -0.09729 0.11000 2.35265
v -0.09729 0.05000 2.35265
v -0.29729 0.05000 2.35265
v -0.29729 0.11000 2.35265
v -0.29729 0.11000 2.15265
v -0.29729 0.05000 2.15265
v -0.29729 0.11000 2.15265
v -0.29729 0.11000 2.35265
v -0.09729 0.11000 2.35265
v -0.09729 0.11000 2.15265
v -0.29729 0.05000 2.35265
v -0.29729 0.05000 2.15265
v -0.09729 0.05000 2.15265
v -0.09729 0.05000 2.35265
v -0.29729 0.05000 2.35265
v -0.09729 0.05000 2.35265
v -0.09729 0.11000 2.35265
v -0.29729 0.11000 2.35265
v -0.09729 0.05000 2.15265
v -0.29729 0.05000 2.15265
v -0.29729 0.11000 2.15265
v -0.09729 0.11000 2.15265
v 0.05362 0.20000 2.03494
v 0.05362 0.26000 2.03494
v 0.05362 0.26000 2.23494
v 0.05362 0.20000 2.23494
v -0.14638 0.20000 2.23494
v -0.14638 0.26000 2.23494
v -0.14638 0.26000 2.03494
v -0.14638 0.20000 2.03494
v -0.14638 0.26000 2.03494
v -0.14638 0.26000 2.23494
v 0.05362 0.26000 2.23494
v 0.05362 0.26000 2.03494
v -0.14638 0.20000 2.23494
v -0.14638 0.20000 2.03494
v 0.05362 0.20000 2.03494
v 0.05362 0.20000 2.23494
v -0.14638 0.20000 2.23494
v 0.05362 0.20000 2.23494
v 0.05362 0.26000 2.23494
v -0.14638 0.26000 2.23494
v 0.05362 0.20000 2.03494
v -0.14638 0.20000 2.03494
v -0.14638 0.26000 2.03494
v 0.05362 0.26000 2.03494
v 0.23963 0.35000 2.07999
v 0.23963 0.41000 2.07999
v 0.23963 0.41000 2.27999
v 0.23963 0.35000 2.27999
v 0.03963 0.35000 2.27999
v 0.03963 0.41000 2.27999
v 0.03963 0.41000 2.07999
v 0.03963 0.35000 2.07999
v 0.03963 0.41000 2.07999
v 0.03963 0.41000 2.27999
v 0.23963 0.41000 2.27999
v 0.23963 0.41000 2.07999
v 0.03963 0.35000 2.27999
v 0.03963 0.35000 2.07999
v 0.23963 0.35000 2.07999
v 0.23963 0.35000 2.27999
v 0.03963 0.35000 2.27999
v 0.23963 0.35000 2.27999
v 0.23963 0.41000 2.27999
v 0.03963 0.41000 2.27999
v 0.23963 0.35000 2.07999
v 0.03963 0.35000 2.07999
v 0.03963 0.41000 2.07999
v 0.23963 0.41000 2.07999
v 0.31997 0.50000 2.25370
v 0.31997 0.56000 2.25370
v 0.31997 0.56000 2.45370
v 0.31997 0.50000 2.45370
v 0.11997 0.50000 2.45370
v 0.11997 0.56000 2.45370
v 0.11997 0.56000 2.25370
v 0.11997 0.50000 2.25370
v 0.11997 0.56000 2.25370
v 0.11997 0.56000 2.45370
v 0.31997 0.56000 2.45370
v 0.31997 0.56000 2.25370
v 0.11997 0.50000 2.45370
v 0.11997 0.50000 2.25370
v 0.31997 0.50000 2.25370
v 0.31997 0.50000 2.45370
v 0.11997 0.50000 2.45370
v 0.31997 0.50000 2.45370
v 0.31997 0.56000 2.45370
v 0.11997 0.56000 2.45370
v 0.31997 0.50000 2.25370
v 0.11997 0.50000 2.25370
v 0.11997 0.56000 2.25370
v 0.31997 0.56000 2.25370
v 0.23384 0.65000 2.42461
v 0.23384 0.71000 2.42461
v 0.23384 0.71000 2.62461
v 0.23384 0.65000 2.62461
v 0.03384 0.65000 2.62461
v 0.03384 0.71000 2.62461
v 0.03384 0.71000 2.42461
v 0.03384 0.65000 2.42461
v 0.03384 0.71000 2.42461
v 0.03384 0.71000 2.62461
v 0.23384 0.71000 2.62461
v 0.23384 0.71000 2.42461
v 0.03384 0.65000 2.62461
v 0.03384 0.65000 2.42461
v 0.23384 0.65000 2.42461
v 0.23384 0.65000 2.62461
v 0.03384 0.65000 2.62461
v 0.23384 0.65000 2.62461
v 0.23384 0.71000 2.62461
v 0.03384 0.71000 2.62461
v 0.23384 0.65000 2.42461
v 0.03384 0.65000 2.42461
v 0.03384 0.71000 2.42461
v 0.23384 0.71000 2.42461
v 0.04642 0.80000 2.46338
v 0.04642 0.86000 2.46338
v 0.04642 0.86000 2.66338
v 0.04642 0.80000 2.66338
v -0.15358 0.80000 2.66338
v -0.15358 0.86000 2.66338
v -0.15358 0.86000 2.46338
v -0.15358 0.80000 2.46338
v -0.15358 0.86000 2.46338
v -0.15358 0.86000 2.66338
v 0.04642 0.86000 2.66338
v 0.04642 0.86000 2.46338
v -0.15358 0.80000 2.66338
v -0.15358 0.80000 2.46338
v 0.04642 0.80000 2.46338
v 0.04642 0.80000 2.66338
v -0.15358 0.80000 2.66338
v 0.04642 0.80000 2.66338
v 0.04642 0.86000 2.66338
v -0.15358 0.86000 2.66338
v 0.04642 0.80000 2.46338
v -0.15358 0.80000 2.46338
v -0.15358 0.86000 2.46338
v 0.04642 0.86000 2.46338
vt 0.18750 0.93750
vt 0.43750 0.93750
vt 0.06250 0.93750
vt 0.56250 0.93750
vt 0.68750 0.93750
vt 0.31250 0.81250
vn 1.00000 0.00000 0.00000
vn -1.00000 0.00000 0.00000
vn 0.00000 1.00000 0.00000
vn 0.00000 -1.00000 0.00000
vn 0.00000 0.00000 1.00000
vn 0.00000 0.00000 -1.00000
vn 1.00000 0.00000 0.00000
vn -1.00000 0.00000 0.00000
vn 0.00000 1.00000 0.00000
vn 0.00000 -1.00000 0.00000
vn 0.00000 0.00000 1.00000
vn 0.00000 0.00000 -1.00000
vn 1.00000 0.00000 0.00000
vn -1.00000 0.00000 0.00000
vn 0.00000 1.00000 0.00000
vn 0.00000 -1.00000 0.00000
vn 0.00000 0.00000 1.00000
vn 0.00000 0.00000 -1.00000
vn 1.00000 0.00000 0.00000
vn -1.00000 0.00000 0.00000
vn 0.00000 1.00000 0.00000
vn 0.00000 -1.00000 0.00000
vn 0.00000 0.00000 1.00000
vn 0.00000 0.00000 -1.00000
vn 1.00000 0.00000 0.00000
vn -1.00000 0.00000 0.00000
vn 0.00000 1.00000 0.00000
vn 0.00000 -1.00000 0.00000
vn 0.00000 0.00000 1.00000
vn 0.00000 0.00000 -1.00000
vn 1.00000 0.00000 0.00000
vn -1.00000 0.00000 0.00000
vn 0.00000 1.00000 0.00000
vn 0.00000 -1.00000 0.00000
vn 0.00000 0.00000 1.00000
vn 0.00000 0.00000 -1.00000
vn 1.00000 0.00000 0.00000
vn -1.00000 0.00000 0.00000
vn 0.00000 1.00000 0.00000
vn 0.00000 -1.00000 0.00000
vn 0.00000 0.00000 1.00000
vn 0.00000 0.00000 -1.00000
vn 1.00000 0.00000 0.00000
vn -1.00000 0.00000 0.00000
vn 0.00000 1.00000 0.00000
vn 0.00000 -1.00000 0.00000
vn 0.00000 0.00000 1.00000
vn 0.00000 0.00000 -1.00000
vn 1.00000 0.00000 0.00000
vn -1.00000 0.00000 0.00000
vn 0.00000 1.00000 0.00000
vn 0.00000 -1.00000 0.00000
vn 0.00000 0.00000 1.00000
vn 0.00000 0.00000 -1.00000
vn 1.00000 0.00000 0.00000
vn -1.00000 0.00000 0.00000
vn 0.00000 1.00000 0.00000
vn 0.00000 -1.00000 0.00000
vn 0.00000 0.00000 1.00000
vn 0.00000 0.00000 -1.00000
vn 1.00000 0.00000 0.00000
vn -1.00000 0.00000 0.00000
vn 0.00000 1.00000 0.00000
vn 0.00000 -1.00000 0.00000
vn 0.00000 0.00000 1.00000
vn 0.00000 0.00000 -1.00000
vn 1.00000 0.00000 0.00000
vn -1.00000 0.00000 0.00000
vn 0.00000 1.00000 0.00000
vn 0.00000 -1.00000 0.00000
vn 0.00000 0.00000 1.00000
vn 0.00000 0.00000 -1.00000
vn 1.00000 0.00000 0.00000
vn -1.00000 0.00000 0.00000
vn 0.00000 1.00000 0.00000
vn 0.00000 -1.00000 0.00000
vn 0.00000 0.00000 1.00000
vn 0.00000 0.00000 -1.00000
vn 1.00000 0.00000 0.00000
vn -1.00000 0.00000 0.00000
vn 0.00000 1.00000 0.00000
vn 0.00000 -1.00000 0.00000
vn 0.00000 0.00000 1.00000
vn 0.00000 0.00000 -1.00000
vn 1.00000 0.00000 0.00000
vn -1.00000 0.00000 0.00000
vn 0.00000 1.00000 0.00000
vn 0.00000 -1.00000 0.00000
vn 0.00000 0.00000 1.00000
vn 0.00000 0.00000 -1.00000
vn 1.00000 0.00000 0.00000
vn -1.00000 0.00000 0.00000
vn 0.00000 1.00000 0.00000
vn 0.00000 -1.00000 0.00000
vn 0.00000 0.00000 1.00000
vn 0.00000 0.00000 -1.00000
vn 1.00000 0.00000 0.00000
vn -1.00000 0.00000 0.00000
vn 0.00000 1.00000 0.00000
vn 0.00000 -1.00000 0.00000
vn 0.00000 0.00000 1.00000
vn 0.00000 0.00000 -1.00000
vn 1.00000 0.00000 0.00000
vn -1.00000 0.00000 0.00000
vn 0.00000 1.00000 0.00000
vn 0.00000 -1.00000 0.00000
vn 0.00000 0.00000 1.00000
vn 0.00000 0.00000 -1.00000
vn 1.00000 0.00000 0.00000
vn -1.00000 0.00000 0.00000
vn 0.00000 1.00000 0.00000
vn 0.00000 -1.00000 0.00000
vn 0.00000 0.00000 1.00000
vn 0.00000 0.00000 -1.00000
vn 1.00000 0.00000 0.00000
vn -1.00000 0.00000 0.00000
vn 0.00000 1.00000 0.00000
vn 0.00000 -1.00000 0.00000
vn 0.00000 0.00000 1.00000
vn 0.00000 0.00000 -1.00000
vn 1.00000 0.00000 0.00000
vn -1.00000 0.00000 0.00000
vn 0.00000 1.00000 0.00000
vn 0.00000 -1.00000 0.00000
vn 0.00000 0.00000 1.00000
vn 0.00000 0.00000 -1.00000
vn 1.00000 0.00000 0.00000
vn -1.00000 0.00000 0.00000
vn 0.00000 1.00000 0.00000
vn 0.00000 -1.00000 0.00000
vn 0.00000 0.00000 1.00000
vn 0.00000 0.00000 -1.00000
vn 1.00000 0.00000 0.00000
vn -1.00000 0.00000 0.00000
vn 0.00000 1.00000 0.00000
vn 0.00000 -1.00000 0.00000
vn 0.00000 0.00000 1.00000
vn 0.00000 0.00000 -1.00000
vn 1.00000 0.00000 0.00000
vn -1.00000 0.00000 0.00000
vn 0.00000 1.00000 0.00000
vn 0.00000 -1.00000 0.00000
vn 0.00000 0.00000 1.00000
vn 0.00000 0.00000 -1.00000
vn 1.00000 0.00000 0.00000
vn -1.00000 0.00000 0.00000
vn 0.00000 1.00000 0.00000
vn 0.00000 -1.00000 0.00000
vn 0.00000 0.00000 1.00000
vn 0.00000 0.00000 -1.00000
vn 1.00000 0.00000 0.00000
vn -1.00000 0.00000 0.00000
vn 0.00000 1.00000 0.00000
vn 0.00000 -1.00000 0.00000
vn 0.00000 0.00000 1.00000
vn 0.00000 0.00000 -1.00000
vn 1.00000 0.00000 0.00000
vn -1.00000 0.00000 0.00000
vn 0.00000 1.00000 0.00000
vn 0.00000 -1.00000 0.00000
vn 0.00000 0.00000 1.00000
vn 0.00000 0.00000 -1.00000
vn 1.00000 0.00000 0.00000
vn -1.00000 0.00000 0.00000
vn 0.00000 1.00000 0.00000
vn 0.00000 -1.00000 0.00000
vn 0.00000 0.00000 1.00000
vn 0.00000 0.00000 -1.00000
g body
f 1/1/1 2/1/1 3/1/1 4/1/1
f 5/1/2 6/1/2 7/1/2 8/1/2
f 9/1/3 10/1/3 11/1/3 12/1/3
f 13/1/4 14/1/4 15/1/4 16/1/4
f 17/1/5 18/1/5 19/1/5 20/1/5
f 21/1/6 22/1/6 23/1/6 24/1/6
f 25/2/7 26/2/7 27/2/7 28/2/7
f 29/2/8 30/2/8 31/2/8 32/2/8
f 33/2/9 34/2/9 35/2/9 36/2/9
f 37/2/10 38/2/10 39/2/10 40/2/10
f 41/2/11 42/2/11 43/2/11 44/2/11
f 45/2/12 46/2/12 47/2/12 48/2/12
f 49/2/13 50/2/13 51/2/13 52/2/13
f 53/2/14 54/2/14 55/2/14 56/2/14
f 57/2/15 58/2/15 59/2/15 60/2/15
f 61/2/16 62/2/16 63/2/16 64/2/16
f 65/2/17 66/2/17 67/2/17 68/2/17
f 69/2/18 70/2/18 71/2/18 72/2/18
f 73/1/19 74/1/19 75/1/19 76/1/19
f 77/1/20 78/1/20 79/1/20 80/1/20
f 81/1/21 82/1/21 83/1/21 84/1/21
f 85/1/22 86/1/22 87/1/22 88/1/22
f 89/1/23 90/1/23 91/1/23 92/1/23
f 93/1/24 94/1/24 95/1/24 96/1/24
f 97/2/25 98/2/25 99/2/25 100/2/25
f 101/2/26 102/2/26 103/2/26 104/2/26
f 105/2/27 106/2/27 107/2/27 108/2/27
f 109/2/28 110/2/28 111/2/28 112/2/28
f 113/2/29 114/2/29 115/2/29 116/2/29
f 117/2/30 118/2/30 119/2/30 120/2/30
f 121/2/31 122/2/31 123/2/31 124/2/31
f 125/2/32 126/2/32 127/2/32 128/2/32
f 129/2/33 130/2/33 131/2/33 132/2/33
f 133/2/34 134/2/34 135/2/34 136/2/34
f 137/2/35 138/2/35 139/2/35 140/2/35
f 141/2/36 142/2/36 143/2/36 144/2/36
f 145/3/37 146/3/37 147/3/37 148/3/37
f 149/3/38 150/3/38 151/3/38 152/3/38
f 153/3/39 154/3/39 155/3/39 156/3/39
f 157/3/40 158/3/40 159/3/40 160/3/40
f 161/3/41 162/3/41 163/3/41 164/3/41
f 165/3/42 166/3/42 167/3/42 168/3/42
f 169/1/43 170/1/43 171/1/43 172/1/43
f 173/1/44 174/1/44 175/1/44 176/1/44
f 177/1/45 178/1/45 179/1/45 180/1/45
f 181/1/46 182/1/46 183/1/46 184/1/46
f 185/1/47 186/1/47 187/1/47 188/1/47
f 189/1/48 190/1/48 191/1/48 192/1/48
f 193/3/49 194/3/49 195/3/49 196/3/49
f 197/3/50 198/3/50 199/3/50 200/3/50
f 201/3/51 202/3/51 203/3/51 204/3/51
f 205/3/52 206/3/52 207/3/52 208/3/52
f 209/3/53 210/3/53 211/3/53 212/3/53
f 213/3/54 214/3/54 215/3/54 216/3/54
f 217/4/55 218/4/55 219/4/55 220/4/55
f 221/4/56 222/4/56 223/4/56 224/4/56
f 225/4/57 226/4/57 227/4/57 228/4/57
f 229/4/58 230/4/58 231/4/58 232/4/58
f 233/4/59 234/4/59 235/4/59 236/4/59
f 237/4/60 238/4/60 239/4/60 240/4/60
f 241/4/61 242/4/61 243/4/61 244/4/61
f 245/4/62 246/4/62 247/4/62 248/4/62
f 249/4/63 250/4/63 251/4/63 252/4/63
f 253/4/64 254/4/64 255/4/64 256/4/64
f 257/4/65 258/4/65 259/4/65 260/4/65
f 261/4/66 262/4/66 263/4/66 264/4/66
f 265/2/67 266/2/67 267/2/67 268/2/67
f 269/2/68 270/2/68 271/2/68 272/2/68
f 273/2/69 274/2/69 275/2/69 276/2/69
f 277/2/70 278/2/70 279/2/70 280/2/70
f 281/2/71 282/2/71 283/2/71 284/2/71
f 285/2/72 286/2/72 287/2/72 288/2/72
g $mast
f 289/5/73 290/5/73 291/5/73 292/5/73
f 293/5/74 294/5/74 295/5/74 296/5/74
f 297/5/75 298/5/75 299/5/75 300/5/75
f 301/5/76 302/5/76 303/5/76 304/5/76
f 305/5/77 306/5/77 307/5/77 308/5/77
f 309/5/78 310/5/78 311/5/78 312/5/78
f 313/2/79 314/2/79 315/2/79 316/2/79
f 317/2/80 318/2/80 319/2/80 320/2/80
f 321/2/81 322/2/81 323/2/81 324/2/81
f 325/2/82 326/2/82 327/2/82 328/2/82
f 329/2/83 330/2/83 331/2/83 332/2/83
f 333/2/84 334/2/84 335/2/84 336/2/84
f 337/2/85 338/2/85 339/2/85 340/2/85
f 341/2/86 342/2/86 343/2/86 344/2/86
f 345/2/87 346/2/87 347/2/87 348/2/87
f 349/2/88 350/2/88 351/2/88 352/2/88
f 353/2/89 354/2/89 355/2/89 356/2/89
f 357/2/90 358/2/90 359/2/90 360/2/90
g $rotary_head
f 361/2/91 362/2/91 363/2/91 364/2/91
f 365/2/92 366/2/92 367/2/92 368/2/92
f 369/2/93 370/2/93 371/2/93 372/2/93
f 373/2/94 374/2/94 375/2/94 376/2/94
f 377/2/95 378/2/95 379/2/95 380/2/95
f 381/2/96 382/2/96 383/2/96 384/2/96
f 385/1/97 386/1/97 387/1/97 388/1/97
f 389/1/98 390/1/98 391/1/98 392/1/98
f 393/1/99 394/1/99 395/1/99 396/1/99
f 397/1/100 398/1/100 399/1/100 400/1/100
f 401/1/101 402/1/101 403/1/101 404/1/101
f 405/1/102 406/1/102 407/1/102 408/1/102
g $auger
f 409/6/103 410/6/103 411/6/103 412/6/103
f 413/6/104 414/6/104 415/6/104 416/6/104
f 417/6/105 418/6/105 419/6/105 420/6/105
f 421/6/106 422/6/106 423/6/106 424/6/106
f 425/6/107 426/6/107 427/6/107 428/6/107
f 429/6/108 430/6/108 431/6/108 432/6/108
f 433/5/109 434/5/109 435/5/109 436/5/109
f 437/5/110 438/5/110 439/5/110 440/5/110
f 441/5/111 442/5/111 443/5/111 444/5/111
f 445/5/112 446/5/112 447/5/112 448/5/112
f 449/5/113 450/5/113 451/5/113 452/5/113
f 453/5/114 454/5/114 455/5/114 456/5/114
f 457/5/115 458/5/115 459/5/115 460/5/115
f 461/5/116 462/5/116 463/5/116 464/5/116
f 465/5/117 466/5/117 467/5/117 468/5/117
f 469/5/118 470/5/118 471/5/118 472/5/118
f 473/5/119 474/5/119 475/5/119 476/5/119
f 477/5/120 478/5/120 479/5/120 480/5/120
f 481/5/121 482/5/121 483/5/121 484/5/121
f 485/5/122 486/5/122 487/5/122 488/5/122
f 489/5/123 490/5/123 491/5/123 492/5/123
f 493/5/124 494/5/124 495/5/124 496/5/124
f 497/5/125 498/5/125 499/5/125 500/5/125
f 501/5/126 502/5/126 503/5/126 504/5/126
f 505/5/127 506/5/127 507/5/127 508/5/127
f 509/5/128 510/5/128 511/5/128 512/5/128
f 513/5/129 514/5/129 515/5/129 516/5/129
f 517/5/130 518/5/130 519/5/130 520/5/130
f 521/5/131 522/5/131 523/5/131 524/5/131
f 525/5/132 526/5/132 527/5/132 528/5/132
f 529/5/133 530/5/133 531/5/133 532/5/133
f 533/5/134 534/5/134 535/5/134 536/5/134
f 537/5/135 538/5/135 539/5/135 540/5/135
f 541/5/136 542/5/136 543/5/136 544/5/136
f 545/5/137 546/5/137 547/5/137 548/5/137
f 549/5/138 550/5/138 551/5/138 552/5/138
f 553/5/139 554/5/139 555/5/139 556/5/139
f 557/5/140 558/5/140 559/5/140 560/5/140
f 561/5/141 562/5/141 563/5/141 564/5/141
f 565/5/142 566/5/142 567/5/142 568/5/142
f 569/5/143 570/5/143 571/5/143 572/5/143
f 573/5/144 574/5/144 575/5/144 576/5/144
f 577/5/145 578/5/145 579/5/145 580/5/145
f 581/5/146 582/5/146 583/5/146 584/5/146
f 585/5/147 586/5/147 587/5/147 588/5/147
f 589/5/148 590/5/148 591/5/148 592/5/148
f 593/5/149 594/5/149 595/5/149 596/5/149
f 597/5/150 598/5/150 599/5/150 600/5/150
f 601/5/151 602/5/151 603/5/151 604/5/151
f 605/5/152 606/5/152 607/5/152 608/5/152
f 609/5/153 610/5/153 611/5/153 612/5/153
f 613/5/154 614/5/154 615/5/154 616/5/154
f 617/5/155 618/5/155 619/5/155 620/5/155
f 621/5/156 622/5/156 623/5/156 624/5/156
f 625/5/157 626/5/157 627/5/157 628/5/157
f 629/5/158 630/5/158 631/5/158 632/5/158
f 633/5/159 634/5/159 635/5/159 636/5/159
f 637/5/160 638/5/160 639/5/160 640/5/160
f 641/5/161 642/5/161 643/5/161 644/5/161
f 645/5/162 646/5/162 647/5/162 648/5/162
f 649/5/163 650/5/163 651/5/163 652/5/163
f 653/5/164 654/5/164 655/5/164 656/5/164
f 657/5/165 658/5/165 659/5/165 660/5/165
f 661/5/166 662/5/166 663/5/166 664/5/166
f 665/5/167 666/5/167 667/5/167 668/5/167
f 669/5/168 670/5/168 671/5/168 672/5/168
