# Drop hammer pile driver
# Generated by tools/generate_models.py

v 1.45000 0.00000 -1.90000
v 1.45000 0.75000 -1.90000
v 1.45000 0.75000 1.90000
v 1.45000 0.00000 1.90000
v 0.75000 0.00000 1.90000
v 0.75000 0.75000 1.90000
v 0.75000 0.75000 -1.90000
v 0.75000 0.00000 -1.90000
v 0.75000 0.75000 -1.90000
v 0.75000 0.75000 1.90000
v 1.45000 0.75000 1.90000
v 1.45000 0.75000 -1.90000
v 0.75000 0.00000 1.90000
v 0.75000 0.00000 -1.90000
v 1.45000 0.00000 -1.90000
v 1.45000 0.00000 1.90000
v 0.75000 0.00000 1.90000
v 1.45000 0.00000 1.90000
v 1.45000 0.75000 1.90000
v 0.75000 0.75000 1.90000
v 1.45000 0.00000 -1.90000
v 0.75000 0.00000 -1.90000
v 0.75000 0.75000 -1.90000
v 1.45000 0.75000 -1.90000
v 1.40000 0.20000 -2.05000
v 1.40000 0.55000 -2.05000
v 1.40000 0.55000 -1.90000
v 1.40000 0.20000 -1.90000
v 0.80000 0.20000 -1.90000
v 0.80000 0.55000 -1.90000
v 0.80000 0.55000 -2.05000
v 0.80000 0.20000 -2.05000
v 0.80000 0.55000 -2.05000
v 0.80000 0.55000 -1.90000
v 1.40000 0.55000 -1.90000
v 1.40000 0.55000 -2.05000
v 0.80000 0.20000 -1.90000
v 0.80000 0.20000 -2.05000
v 1.40000 0.20000 -2.05000
v 1.40000 0.20000 -1.90000
v 0.80000 0.20000 -1.90000
v 1.40000 0.20000 -1.90000
v 1.40000 0.55000 -1.90000
v 0.80000 0.55000 -1.90000
v 1.40000 0.20000 -2.05000
v 0.80000 0.20000 -2.05000
v 0.80000 0.55000 -2.05000
v 1.40000 0.55000 -2.05000
v 1.40000 0.20000 1.90000
v 1.40000 0.55000 1.90000
v 1.40000 0.55000 2.05000
v 1.40000 0.20000 2.05000
v 0.80000 0.20000 2.05000
v 0.80000 0.55000 2.05000
v 0.80000 0.55000 1.90000
v 0.80000 0.20000 1.90000
v 0.80000 0.55000 1.90000
v 0.80000 0.55000 2.05000
v 1.40000 0.55000 2.05000
v 1.40000 0.55000 1.90000
v 0.80000 0.20000 2.05000
v 0.80000 0.20000 1.90000
v 1.40000 0.20000 1.90000
v 1.40000 0.20000 2.05000
v 0.80000 0.20000 2.05000
v 1.40000 0.20000 2.05000
v 1.40000 0.55000 2.05000
v 0.80000 0.55000 2.05000
v 1.40000 0.20000 1.90000
v 0.80000 0.20000 1.90000
v 0.80000 0.55000 1.90000
v 1.40000 0.55000 1.90000
v -0.75000 0.00000 -1.90000
v -0.75000 0.75000 -1.90000
v -0.75000 0.75000 1.90000
v -0.75000 0.00000 1.90000
v -1.45000 0.00000 1.90000
v -1.45000 0.75000 1.90000
v -1.45000 0.75000 -1.90000
v -1.45000 0.00000 -1.90000
v -1.45000 0.75000 -1.90000
v -1.45000 0.75000 1.90000
v -0.75000 0.75000 1.90000
v -0.75000 0.75000 -1.90000
v -1.45000 0.00000 1.90000
v -1.45000 0.00000 -1.90000
v -0.75000 0.00000 -1.90000
v -0.75000 0.00000 1.90000
v -1.45000 0.00000 1.90000
v -0.75000 0.00000 1.90000
v -0.75000 0.75000 1.90000
v -1.45000 0.75000 1.90000
v -0.75000 0.00000 -1.90000
v -1.45000 0.00000 -1.90000
v -1.45000 0.75000 -1.90000
v -0.75000 0.75000 -1.90000
v -0.80000 0.20000 -2.05000
v -0.80000 0.55000 -2.05000
v -0.80000 0.55000 -1.90000
v -0.80000 0.20000 -1.90000
v -1.40000 0.20000 -1.90000
v -1.40000 0.55000 -1.90000
v -1.40000 0.55000 -2.05000
v -1.40000 0.20000 -2.05000
v -1.40000 0.55000 -2.05000
v -1.40000 0.55000 -1.90000
v -0.80000 0.55000 -1.90000
v -0.80000 0.55000 -2.05000
v -1.40000 0.20000 -1.90000
v -1.40000 0.20000 -2.05000
v -0.80000 0.20000 -2.05000
v -0.80000 0.20000 -1.90000
v -1.40000 0.20000 -1.90000
v -0.80000 0.20000 -1.90000
v -0.80000 0.55000 -1.90000
v -1.40000 0.55000 -1.90000
v -0.80000 0.20000 -2.05000
v -1.40000 0.20000 -2.05000
v -1.40000 0.55000 -2.05000
v -0.80000 0.55000 -2.05000
v -0.80000 0.20000 1.90000
v -0.80000 0.55000 1.90000
v -0.80000 0.55000 2.05000
v -0.80000 0.20000 2.05000
v -1.40000 0.20000 2.05000
v -1.40000 0.55000 2.05000
v -1.40000 0.55000 1.90000
v -1.40000 0.20000 1.90000
v -1.40000 0.55000 1.90000
v -1.40000 0.55000 2.05000
v -0.80000 0.55000 2.05000
v -0.80000 0.55000 1.90000
v -1.40000 0.20000 2.05000
v -1.40000 0.20000 1.90000
v -0.80000 0.20000 1.90000
v -0.80000 0.20000 2.05000
v -1.40000 0.20000 2.05000
v -0.80000 0.20000 2.05000
v -0.80000 0.55000 2.05000
v -1.40000 0.55000 2.05000
v -0.80000 0.20000 1.90000
v -1.40000 0.20000 1.90000
v -1.40000 0.55000 1.90000
v -0.80000 0.55000 1.90000
v 0.70000 0.25000 -1.30000
v 0.70000 0.70000 -1.30000
v 0.70000 0.70000 1.30000
v 0.70000 0.25000 1.30000
v -0.70000 0.25000 1.30000
v -0.70000 0.70000 1.30000
v -0.70000 0.70000 -1.30000
v -0.70000 0.25000 -1.30000
v -0.70000 0.70000 -1.30000
v -0.70000 0.70000 1.30000
v 0.70000 0.70000 1.30000
v 0.70000 0.70000 -1.30000
v -0.70000 0.25000 1.30000
v -0.70000 0.25000 -1.30000
v 0.70000 0.25000 -1.30000
v 0.70000 0.25000 1.30000
v -0.70000 0.25000 1.30000
v 0.70000 0.25000 1.30000
v 0.70000 0.70000 1.30000
v -0.70000 0.70000 1.30000
v 0.70000 0.25000 -1.30000
v -0.70000 0.25000 -1.30000
v -0.70000 0.70000 -1.30000
v 0.70000 0.70000 -1.30000
v 1.22000 0.30000 1.20000
v 1.22000 0.55000 1.20000
v 1.22000 0.55000 2.00000
v 1.22000 0.30000 2.00000
v 0.98000 0.30000 2.00000
v 0.98000 0.55000 2.00000
v 0.98000 0.55000 1.20000
v 0.98000 0.30000 1.20000
v 0.98000 0.55000 1.20000
v 0.98000 0.55000 2.00000
v 1.22000 0.55000 2.00000
v 1.22000 0.55000 1.20000
v 0.98000 0.30000 2.00000
v 0.98000 0.30000 1.20000
v 1.22000 0.30000 1.20000
v 1.22000 0.30000 2.00000
v 0.98000 0.30000 2.00000
v 1.22000 0.30000 2.00000
v 1.22000 0.55000 2.00000
v 0.98000 0.55000 2.00000
v 1.22000 0.30000 1.20000
v 0.98000 0.30000 1.20000
v 0.98000 0.55000 1.20000
v 1.22000 0.55000 1.20000
v 1.35000 0.00000 1.90000
v 1.35000 0.55000 1.90000
v 1.35000 0.55000 2.30000
v 1.35000 0.00000 2.30000
v 0.85000 0.00000 2.30000
v 0.85000 0.55000 2.30000
v 0.85000 0.55000 1.90000
v 0.85000 0.00000 1.90000
v 0.85000 0.55000 1.90000
v 0.85000 0.55000 2.30000
v 1.35000 0.55000 2.30000
v 1.35000 0.55000 1.90000
v 0.85000 0.00000 2.30000
v 0.85000 0.00000 1.90000
v 1.35000 0.00000 1.90000
v 1.35000 0.00000 2.30000
v 0.85000 0.00000 2.30000
v 1.35000 0.00000 2.30000
v 1.35000 0.55000 2.30000
v 0.85000 0.55000 2.30000
v 1.35000 0.00000 1.90000
v 0.85000 0.00000 1.90000
v 0.85000 0.55000 1.90000
v 1.35000 0.55000 1.90000
v -0.98000 0.30000 1.20000
v -0.98000 0.55000 1.20000
v -0.98000 0.55000 2.00000
v -0.98000 0.30000 2.00000
v -1.22000 0.30000 2.00000
v -1.22000 0.55000 2.00000
v -1.22000 0.55000 1.20000
v -1.22000 0.30000 1.20000
v -1.22000 0.55000 1.20000
v -1.22000 0.55000 2.00000
v -0.98000 0.55000 2.00000
v -0.98000 0.55000 1.20000
v -1.22000 0.30000 2.00000
v -1.22000 0.30000 1.20000
v -0.98000 0.30000 1.20000
v -0.98000 0.30000 2.00000
v -1.22000 0.30000 2.00000
v -0.98000 0.30000 2.00000
v -0.98000 0.55000 2.00000
v -1.22000 0.55000 2.00000
v -0.98000 0.30000 1.20000
v -1.22000 0.30000 1.20000
v -1.22000 0.55000 1.20000
v -0.98000 0.55000 1.20000
v -0.85000 0.00000 1.90000
v -0.85000 0.55000 1.90000
v -0.85000 0.55000 2.30000
v -0.85000 0.00000 2.30000
v -1.35000 0.00000 2.30000
v -1.35000 0.55000 2.30000
v -1.35000 0.55000 1.90000
v -1.35000 0.00000 1.90000
v -1.35000 0.55000 1.90000
v -1.35000 0.55000 2.30000
v -0.85000 0.55000 2.30000
v -0.85000 0.55000 1.90000
v -1.35000 0.00000 2.30000
v -1.35000 0.00000 1.90000
v -0.85000 0.00000 1.90000
v -0.85000 0.00000 2.30000
v -1.35000 0.00000 2.30000
v -0.85000 0.00000 2.30000
v -0.85000 0.55000 2.30000
v -1.35000 0.55000 2.30000
v -0.85000 0.00000 1.90000
v -1.35000 0.00000 1.90000
v -1.35000 0.55000 1.90000
v -0.85000 0.55000 1.90000
v 1.22000 0.30000 -2.00000
v 1.22000 0.55000 -2.00000
v 1.22000 0.55000 -1.20000
v 1.22000 0.30000 -1.20000
v 0.98000 0.30000 -1.20000
v 0.98000 0.55000 -1.20000
v 0.98000 0.55000 -2.00000
v 0.98000 0.30000 -2.00000
v 0.98000 0.55000 -2.00000
v 0.98000 0.55000 -1.20000
v 1.22000 0.55000 -1.20000
v 1.22000 0.55000 -2.00000
v 0.98000 0.30000 -1.20000
v 0.98000 0.30000 -2.00000
v 1.22000 0.30000 -2.00000
v 1.22000 0.30000 -1.20000
v 0.98000 0.30000 -1.20000
v 1.22000 0.30000 -1.20000
v 1.22000 0.55000 -1.20000
v 0.98000 0.55000 -1.20000
v 1.22000 0.30000 -2.00000
v 0.98000 0.30000 -2.00000
v 0.98000 0.55000 -2.00000
v 1.22000 0.55000 -2.00000
v 1.35000 0.00000 -2.30000
v 1.35000 0.55000 -2.30000
v 1.35000 0.55000 -1.90000
v 1.35000 0.00000 -1.90000
v 0.85000 0.00000 -1.90000
v 0.85000 0.55000 -1.90000
v 0.85000 0.55000 -2.30000
v 0.85000 0.00000 -2.30000
v 0.85000 0.55000 -2.30000
v 0.85000 0.55000 -1.90000
v 1.35000 0.55000 -1.90000
v 1.35000 0.55000 -2.30000
v 0.85000 0.00000 -1.90000
v 0.85000 0.00000 -2.30000
v 1.35000 0.00000 -2.30000
v 1.35000 0.00000 -1.90000
v 0.85000 0.00000 -1.90000
v 1.35000 0.00000 -1.90000
v 1.35000 0.55000 -1.90000
v 0.85000 0.55000 -1.90000
v 1.35000 0.00000 -2.30000
v 0.85000 0.00000 -2.30000
v 0.85000 0.55000 -2.30000
v 1.35000 0.55000 -2.30000
v -0.98000 0.30000 -2.00000
v -0.98000 0.55000 -2.00000
v -0.98000 0.55000 -1.20000
v -0.98000 0.30000 -1.20000
v -1.22000 0.30000 -1.20000
v -1.22000 0.55000 -1.20000
v -1.22000 0.55000 -2.00000
v -1.22000 0.30000 -2.00000
v -1.22000 0.55000 -2.00000
v -1.22000 0.55000 -1.20000
v -0.98000 0.55000 -1.20000
v -0.98000 0.55000 -2.00000
v -1.22000 0.30000 -1.20000
v -1.22000 0.30000 -2.00000
v -0.98000 0.30000 -2.00000
v -0.98000 0.30000 -1.20000
v -1.22000 0.30000 -1.20000
v -0.98000 0.30000 -1.20000
v -0.98000 0.55000 -1.20000
v -1.22000 0.55000 -1.20000
v -0.98000 0.30000 -2.00000
v -1.22000 0.30000 -2.00000
v -1.22000 0.55000 -2.00000
v -0.98000 0.55000 -2.00000
v -0.85000 0.00000 -2.30000
v -0.85000 0.55000 -2.30000
v -0.85000 0.55000 -1.90000
v -0.85000 0.00000 -1.90000
v -1.35000 0.00000 -1.90000
v -1.35000 0.55000 -1.90000
v -1.35000 0.55000 -2.30000
v -1.35000 0.00000 -2.30000
v -1.35000 0.55000 -2.30000
v -1.35000 0.55000 -1.90000
v -0.85000 0.55000 -1.90000
v -0.85000 0.55000 -2.30000
v -1.35000 0.00000 -1.90000
v -1.35000 0.00000 -2.30000
v -0.85000 0.00000 -2.30000
v -0.85000 0.00000 -1.90000
v -1.35000 0.00000 -1.90000
v -0.85000 0.00000 -1.90000
v -0.85000 0.55000 -1.90000
v -1.35000 0.55000 -1.90000
v -0.85000 0.00000 -2.30000
v -1.35000 0.00000 -2.30000
v -1.35000 0.55000 -2.30000
v -0.85000 0.55000 -2.30000
v 0.95000 0.70000 -2.00000
v 0.95000 1.00000 -2.00000
v 0.95000 1.00000 1.30000
v 0.95000 0.70000 1.30000
v -0.95000 0.70000 1.30000
v -0.95000 1.00000 1.30000
v -0.95000 1.00000 -2.00000
v -0.95000 0.70000 -2.00000
v -0.95000 1.00000 -2.00000
v -0.95000 1.00000 1.30000
v 0.95000 1.00000 1.30000
v 0.95000 1.00000 -2.00000
v -0.95000 0.70000 1.30000
v -0.95000 0.70000 -2.00000
v 0.95000 0.70000 -2.00000
v 0.95000 0.70000 1.30000
v -0.95000 0.70000 1.30000
v 0.95000 0.70000 1.30000
v 0.95000 1.00000 1.30000
v -0.95000 1.00000 1.30000
v 0.95000 0.70000 -2.00000
v -0.95000 0.70000 -2.00000
v -0.95000 1.00000 -2.00000
v 0.95000 1.00000 -2.00000
v 0.15000 1.00000 -1.80000
v 0.15000 1.70000 -1.80000
v 0.15000 1.70000 0.90000
v 0.15000 1.00000 0.90000
v -0.90000 1.00000 0.90000
v -0.90000 1.70000 0.90000
v -0.90000 1.70000 -1.80000
v -0.90000 1.00000 -1.80000
v -0.90000 1.70000 -1.80000
v -0.90000 1.70000 0.90000
v 0.15000 1.70000 0.90000
v 0.15000 1.70000 -1.80000
v -0.90000 1.00000 0.90000
v -0.90000 1.00000 -1.80000
v 0.15000 1.00000 -1.80000
v 0.15000 1.00000 0.90000
v -0.90000 1.00000 0.90000
v 0.15000 1.00000 0.90000
v 0.15000 1.70000 0.90000
v -0.90000 1.70000 0.90000
v 0.15000 1.00000 -1.80000
v -0.90000 1.00000 -1.80000
v -0.90000 1.70000 -1.80000
v 0.15000 1.70000 -1.80000
v 0.95000 0.80000 -2.25000
v 0.95000 1.50000 -2.25000
v 0.95000 1.50000 -1.90000
v 0.95000 0.80000 -1.90000
v -0.95000 0.80000 -1.90000
v -0.95000 1.50000 -1.90000
v -0.95000 1.50000 -2.25000
v -0.95000 0.80000 -2.25000
v -0.95000 1.50000 -2.25000
v -0.95000 1.50000 -1.90000
v 0.95000 1.50000 -1.90000
v 0.95000 1.50000 -2.25000
v -0.95000 0.80000 -1.90000
v -0.95000 0.80000 -2.25000
v 0.95000 0.80000 -2.25000
v 0.95000 0.80000 -1.90000
v -0.95000 0.80000 -1.90000
v 0.95000 0.80000 -1.90000
v 0.95000 1.50000 -1.90000
v -0.95000 1.50000 -1.90000
v 0.95000 0.80000 -2.25000
v -0.95000 0.80000 -2.25000
v -0.95000 1.50000 -2.25000
v 0.95000 1.50000 -2.25000
v 0.95000 1.00000 0.00000
v 0.95000 2.40000 0.00000
v 0.95000 2.40000 1.25000
v 0.95000 1.00000 1.25000
v 0.25000 1.00000 1.25000
v 0.25000 2.40000 1.25000
v 0.25000 2.40000 0.00000
v 0.25000 1.00000 0.00000
v 0.25000 2.40000 0.00000
v 0.25000 2.40000 1.25000
v 0.95000 2.40000 1.25000
v 0.95000 2.40000 0.00000
v 0.25000 1.00000 1.25000
v 0.25000 1.00000 0.00000
v 0.95000 1.00000 0.00000
v 0.95000 1.00000 1.25000
v 0.25000 1.00000 1.25000
v 0.95000 1.00000 1.25000
v 0.95000 2.40000 1.25000
v 0.25000 2.40000 1.25000
v 0.95000 1.00000 0.00000
v 0.25000 1.00000 0.00000
v 0.25000 2.40000 0.00000
v 0.95000 2.40000 0.00000
v 0.90000 1.63000 1.25000
v 0.90000 2.30000 1.25000
v 0.90000 2.30000 1.28000
v 0.90000 1.63000 1.28000
v 0.30000 1.63000 1.28000
v 0.30000 2.30000 1.28000
v 0.30000 2.30000 1.25000
v 0.30000 1.63000 1.25000
v 0.30000 2.30000 1.25000
v 0.30000 2.30000 1.28000
v 0.90000 2.30000 1.28000
v 0.90000 2.30000 1.25000
v 0.30000 1.63000 1.28000
v 0.30000 1.63000 1.25000
v 0.90000 1.63000 1.25000
v 0.90000 1.63000 1.28000
v 0.30000 1.63000 1.28000
v 0.90000 1.63000 1.28000
v 0.90000 2.30000 1.28000
v 0.30000 2.30000 1.28000
v 0.90000 1.63000 1.25000
v 0.30000 1.63000 1.25000
v 0.30000 2.30000 1.25000
v 0.90000 2.30000 1.25000
v 0.98000 1.63000 0.10000
v 0.98000 2.30000 0.10000
v 0.98000 2.30000 1.15000
v 0.98000 1.63000 1.15000
v 0.95000 1.63000 1.15000
v 0.95000 2.30000 1.15000
v 0.95000 2.30000 0.10000
v 0.95000 1.63000 0.10000
v 0.95000 2.30000 0.10000
v 0.95000 2.30000 1.15000
v 0.98000 2.30000 1.15000
v 0.98000 2.30000 0.10000
v 0.95000 1.63000 1.15000
v 0.95000 1.63000 0.10000
v 0.98000 1.63000 0.10000
v 0.98000 1.63000 1.15000
v 0.95000 1.63000 1.15000
v 0.98000 1.63000 1.15000
v 0.98000 2.30000 1.15000
v 0.95000 2.30000 1.15000
v 0.98000 1.63000 0.10000
v 0.95000 1.63000 0.10000
v 0.95000 2.30000 0.10000
v 0.98000 2.30000 0.10000
v 0.35000 0.70000 1.20000
v 0.35000 1.20000 1.20000
v 0.35000 1.20000 1.70000
v 0.35000 0.70000 1.70000
v -0.35000 0.70000 1.70000
v -0.35000 1.20000 1.70000
v -0.35000 1.20000 1.20000
v -0.35000 0.70000 1.20000
v -0.35000 1.20000 1.20000
v -0.35000 1.20000 1.70000
v 0.35000 1.20000 1.70000
v 0.35000 1.20000 1.20000
v -0.35000 0.70000 1.70000
v -0.35000 0.70000 1.20000
v 0.35000 0.70000 1.20000
v 0.35000 0.70000 1.70000
v -0.35000 0.70000 1.70000
v 0.35000 0.70000 1.70000
v 0.35000 1.20000 1.70000
v -0.35000 1.20000 1.70000
v 0.35000 0.70000 1.20000
v -0.35000 0.70000 1.20000
v -0.35000 1.20000 1.20000
v 0.35000 1.20000 1.20000
v 0.20000 1.00000 1.60000
v 0.20000 8.50000 1.60000
v 0.20000 8.50000 1.90000
v 0.20000 1.00000 1.90000
v -0.20000 1.00000 1.90000
v -0.20000 8.50000 1.90000
v -0.20000 8.50000 1.60000
v -0.20000 1.00000 1.60000
v -0.20000 8.50000 1.60000
v -0.20000 8.50000 1.90000
v 0.20000 8.50000 1.90000
v 0.20000 8.50000 1.60000
v -0.20000 1.00000 1.90000
v -0.20000 1.00000 1.60000
v 0.20000 1.00000 1.60000
v 0.20000 1.00000 1.90000
v -0.20000 1.00000 1.90000
v 0.20000 1.00000 1.90000
v 0.20000 8.50000 1.90000
v -0.20000 8.50000 1.90000
v 0.20000 1.00000 1.60000
v -0.20000 1.00000 1.60000
v -0.20000 8.50000 1.60000
v 0.20000 8.50000 1.60000
v 0.35000 8.30000 1.50000
v 0.35000 8.60000 1.50000
v 0.35000 8.60000 2.60000
v 0.35000 8.30000 2.60000
v -0.35000 8.30000 2.60000
v -0.35000 8.60000 2.60000
v -0.35000 8.60000 1.50000
v -0.35000 8.30000 1.50000
v -0.35000 8.60000 1.50000
v -0.35000 8.60000 2.60000
v 0.35000 8.60000 2.60000
v 0.35000 8.60000 1.50000
v -0.35000 8.30000 2.60000
v -0.35000 8.30000 1.50000
v 0.35000 8.30000 1.50000
v 0.35000 8.30000 2.60000
v -0.35000 8.30000 2.60000
v 0.35000 8.30000 2.60000
v 0.35000 8.60000 2.60000
v -0.35000 8.60000 2.60000
v 0.35000 8.30000 1.50000
v -0.35000 8.30000 1.50000
v -0.35000 8.60000 1.50000
v 0.35000 8.60000 1.50000
v 0.25000 1.00000 1.90000
v 0.25000 1.30000 1.90000
v 0.25000 1.30000 2.10000
v 0.25000 1.00000 2.10000
v -0.25000 1.00000 2.10000
v -0.25000 1.30000 2.10000
v -0.25000 1.30000 1.90000
v -0.25000 1.00000 1.90000
v -0.25000 1.30000 1.90000
v -0.25000 1.30000 2.10000
v 0.25000 1.30000 2.10000
v 0.25000 1.30000 1.90000
v -0.25000 1.00000 2.10000
v -0.25000 1.00000 1.90000
v 0.25000 1.00000 1.90000
v 0.25000 1.00000 2.10000
v -0.25000 1.00000 2.10000
v 0.25000 1.00000 2.10000
v 0.25000 1.30000 2.10000
v -0.25000 1.30000 2.10000
v 0.25000 1.00000 1.90000
v -0.25000 1.00000 1.90000
v -0.25000 1.30000 1.90000
v 0.25000 1.30000 1.90000
v 0.30000 0.10000 2.05000
v 0.30000 1.10000 2.05000
v 0.30000 1.10000 2.65000
v 0.30000 0.10000 2.65000
v -0.30000 0.10000 2.65000
v -0.30000 1.10000 2.65000
v -0.30000 1.10000 2.05000
v -0.30000 0.10000 2.05000
v -0.30000 1.10000 2.05000
v -0.30000 1.10000 2.65000
v 0.30000 1.10000 2.65000
v 0.30000 1.10000 2.05000
v -0.30000 0.10000 2.65000
v -0.30000 0.10000 2.05000
v 0.30000 0.10000 2.05000
v 0.30000 0.10000 2.65000
v -0.30000 0.10000 2.65000
v 0.30000 0.10000 2.65000
v 0.30000 1.10000 2.65000
v -0.30000 1.10000 2.65000
v 0.30000 0.10000 2.05000
v -0.30000 0.10000 2.05000
v -0.30000 1.10000 2.05000
v 0.30000 1.10000 2.05000
v 0.05000 1.10000 2.30000
v 0.05000 7.90000 2.30000
v 0.05000 7.90000 2.40000
v 0.05000 1.10000 2.40000
v -0.05000 1.10000 2.40000
v -0.05000 7.90000 2.40000
v -0.05000 7.90000 2.30000
v -0.05000 1.10000 2.30000
v -0.05000 7.90000 2.30000
v -0.05000 7.90000 2.40000
v 0.05000 7.90000 2.40000
v 0.05000 7.90000 2.30000
v -0.05000 1.10000 2.40000
v -0.05000 1.10000 2.30000
v 0.05000 1.10000 2.30000
v 0.05000 1.10000 2.40000
v -0.05000 1.10000 2.40000
v 0.05000 1.10000 2.40000
v 0.05000 7.90000 2.40000
v -0.05000 7.90000 2.40000
v 0.05000 1.10000 2.30000
v -0.05000 1.10000 2.30000
v -0.05000 7.90000 2.30000
v 0.05000 7.90000 2.30000
vt 0.18750 0.93750
vt 0.43750 0.93750
vt 0.06250 0.93750
vt 0.56250 0.93750
vt 0.68750 0.93750
vn 1.00000 0.00000 0.00000
vn -1.00000 0.00000 0.00000
vn 0.00000 1.00000 0.00000
vn 0.00000 -1.00000 0.00000
vn 0.00000 0.00000 1.00000
vn 0.00000 0.00000 -1.00000
vn 1.00000 0.00000 0.00000
vn -1.00000 0.00000 0.00000
vn 0.00000 1.00000 0.00000
vn 0.00000 -1.00000 0.00000
vn 0.00000 0.00000 1.00000
vn 0.00000 0.00000 -1.00000
vn 1.00000 0.00000 0.00000
vn -1.00000 0.00000 0.00000
vn 0.00000 1.00000 0.00000
vn 0.00000 -1.00000 0.00000
vn 0.00000 0.00000 1.00000
vn 0.00000 0.00000 -1.00000
vn 1.00000 0.00000 0.00000
vn -1.00000 0.00000 0.00000
vn 0.00000 1.00000 0.00000
vn 0.00000 -1.00000 0.00000
vn 0.00000 0.00000 1.00000
vn 0.00000 0.00000 -1.00000
vn 1.00000 0.00000 0.00000
vn -1.00000 0.00000 0.00000
vn 0.00000 1.00000 0.00000
vn 0.00000 -1.00000 0.00000
vn 0.00000 0.00000 1.00000
vn 0.00000 0.00000 -1.00000
vn 1.00000 0.00000 0.00000
vn -1.00000 0.00000 0.00000
vn 0.00000 1.00000 0.00000
vn 0.00000 -1.00000 0.00000
vn 0.00000 0.00000 1.00000
vn 0.00000 0.00000 -1.00000
vn 1.00000 0.00000 0.00000
vn -1.00000 0.00000 0.00000
vn 0.00000 1.00000 0.00000
vn 0.00000 -1.00000 0.00000
vn 0.00000 0.00000 1.00000
vn 0.00000 0.00000 -1.00000
vn 1.00000 0.00000 0.00000
vn -1.00000 0.00000 0.00000
vn 0.00000 1.00000 0.00000
vn 0.00000 -1.00000 0.00000
vn 0.00000 0.00000 1.00000
vn 0.00000 0.00000 -1.00000
vn 1.00000 0.00000 0.00000
vn -1.00000 0.00000 0.00000
vn 0.00000 1.00000 0.00000
vn 0.00000 -1.00000 0.00000
vn 0.00000 0.00000 1.00000
vn 0.00000 0.00000 -1.00000
vn 1.00000 0.00000 0.00000
vn -1.00000 0.00000 0.00000
vn 0.00000 1.00000 0.00000
vn 0.00000 -1.00000 0.00000
vn 0.00000 0.00000 1.00000
vn 0.00000 0.00000 -1.00000
vn 1.00000 0.00000 0.00000
vn -1.00000 0.00000 0.00000
vn 0.00000 1.00000 0.00000
vn 0.00000 -1.00000 0.00000
vn 0.00000 0.00000 1.00000
vn 0.00000 0.00000 -1.00000
vn 1.00000 0.00000 0.00000
vn -1.00000 0.00000 0.00000
vn 0.00000 1.00000 0.00000
vn 0.00000 -1.00000 0.00000
vn 0.00000 0.00000 1.00000
vn 0.00000 0.00000 -1.00000
vn 1.00000 0.00000 0.00000
vn -1.00000 0.00000 0.00000
vn 0.00000 1.00000 0.00000
vn 0.00000 -1.00000 0.00000
vn 0.00000 0.00000 1.00000
vn 0.00000 0.00000 -1.00000
vn 1.00000 0.00000 0.00000
vn -1.00000 0.00000 0.00000
vn 0.00000 1.00000 0.00000
vn 0.00000 -1.00000 0.00000
vn 0.00000 0.00000 1.00000
vn 0.00000 0.00000 -1.00000
vn 1.00000 0.00000 0.00000
vn -1.00000 0.00000 0.00000
vn 0.00000 1.00000 0.00000
vn 0.00000 -1.00000 0.00000
vn 0.00000 0.00000 1.00000
vn 0.00000 0.00000 -1.00000
vn 1.00000 0.00000 0.00000
vn -1.00000 0.00000 0.00000
vn 0.00000 1.00000 0.00000
vn 0.00000 -1.00000 0.00000
vn 0.00000 0.00000 1.00000
vn 0.00000 0.00000 -1.00000
vn 1.00000 0.00000 0.00000
vn -1.00000 0.00000 0.00000
vn 0.00000 1.00000 0.00000
vn 0.00000 -1.00000 0.00000
vn 0.00000 0.00000 1.00000
vn 0.00000 0.00000 -1.00000
vn 1.00000 0.00000 0.00000
vn -1.00000 0.00000 0.00000
vn 0.00000 1.00000 0.00000
vn 0.00000 -1.00000 0.00000
vn 0.00000 0.00000 1.00000
vn 0.00000 0.00000 -1.00000
vn 1.00000 0.00000 0.00000
vn -1.00000 0.00000 0.00000
vn 0.00000 1.00000 0.00000
vn 0.00000 -1.00000 0.00000
vn 0.00000 0.00000 1.00000
vn 0.00000 0.00000 -1.00000
vn 1.00000 0.00000 0.00000
vn -1.00000 0.00000 0.00000
vn 0.00000 1.00000 0.00000
vn 0.00000 -1.00000 0.00000
vn 0.00000 0.00000 1.00000
vn 0.00000 0.00000 -1.00000
vn 1.00000 0.00000 0.00000
vn -1.00000 0.00000 0.00000
vn 0.00000 1.00000 0.00000
vn 0.00000 -1.00000 0.00000
vn 0.00000 0.00000 1.00000
vn 0.00000 0.00000 -1.00000
vn 1.00000 0.00000 0.00000
vn -1.00000 0.00000 0.00000
vn 0.00000 1.00000 0.00000
vn 0.00000 -1.00000 0.00000
vn 0.00000 0.00000 1.00000
vn 0.00000 0.00000 -1.00000
vn 1.00000 0.00000 0.00000
vn -1.00000 0.00000 0.00000
vn 0.00000 1.00000 0.00000
vn 0.00000 -1.00000 0.00000
vn 0.00000 0.00000 1.00000
vn 0.00000 0.00000 -1.00000
vn 1.00000 0.00000 0.00000
vn -1.00000 0.00000 0.00000
vn 0.00000 1.00000 0.00000
vn 0.00000 -1.00000 0.00000
vn 0.00000 0.00000 1.00000
vn 0.00000 0.00000 -1.00000
vn 1.00000 0.00000 0.00000
vn -1.00000 0.00000 0.00000
vn 0.00000 1.00000 0.00000
vn 0.00000 -1.00000 0.00000
vn 0.00000 0.00000 1.00000
vn 0.00000 0.00000 -1.00000
vn 1.00000 0.00000 0.00000
vn -1.00000 0.00000 0.00000
vn 0.00000 1.00000 0.00000
vn 0.00000 -1.00000 0.00000
vn 0.00000 0.00000 1.00000
vn 0.00000 0.00000 -1.00000
vn 1.00000 0.00000 0.00000
vn -1.00000 0.00000 0.00000
vn 0.00000 1.00000 0.00000
vn 0.00000 -1.00000 0.00000
vn 0.00000 0.00000 1.00000
vn 0.00000 0.00000 -1.00000
g body
f 1/1/1 2/1/1 3/1/1 4/1/1
f 5/1/2 6/1/2 7/1/2 8/1/2
f 9/1/3 10/1/3 11/1/3 12/1/3
f 13/1/4 14/1/4 15/1/4 16/1/4
f 17/1/5 18/1/5 19/1/5 20/1/5
f 21/1/6 22/1/6 23/1/6 24/1/6
f 25/2/7 26/2/7 27/2/7 28/2/7
f 29/2/8 30/2/8 31/2/8 32/2/8
f 33/2/9 34/2/9 35/2/9 36/2/9
f 37/2/10 38/2/10 39/2/10 40/2/10
f 41/2/11 42/2/11 43/2/11 44/2/11
f 45/2/12 46/2/12 47/2/12 48/2/12
f 49/2/13 50/2/13 51/2/13 52/2/13
f 53/2/14 54/2/14 55/2/14 56/2/14
f 57/2/15 58/2/15 59/2/15 60/2/15
f 61/2/16 62/2/16 63/2/16 64/2/16
f 65/2/17 66/2/17 67/2/17 68/2/17
f 69/2/18 70/2/18 71/2/18 72/2/18
f 73/1/19 74/1/19 75/1/19 76/1/19
f 77/1/20 78/1/20 79/1/20 80/1/20
f 81/1/21 82/1/21 83/1/21 84/1/21
f 85/1/22 86/1/22 87/1/22 88/1/22
f 89/1/23 90/1/23 91/1/23 92/1/23
f 93/1/24 94/1/24 95/1/24 96/1/24
f 97/2/25 98/2/25 99/2/25 100/2/25
f 101/2/26 102/2/26 103/2/26 104/2/26
f 105/2/27 106/2/27 107/2/27 108/2/27
f 109/2/28 110/2/28 111/2/28 112/2/28
f 113/2/29 114/2/29 115/2/29 116/2/29
f 117/2/30 118/2/30 119/2/30 120/2/30
f 121/2/31 122/2/31 123/2/31 124/2/31
f 125/2/32 126/2/32 127/2/32 128/2/32
f 129/2/33 130/2/33 131/2/33 132/2/33
f 133/2/34 134/2/34 135/2/34 136/2/34
f 137/2/35 138/2/35 139/2/35 140/2/35
f 141/2/36 142/2/36 143/2/36 144/2/36
f 145/2/37 146/2/37 147/2/37 148/2/37
f 149/2/38 150/2/38 151/2/38 152/2/38
f 153/2/39 154/2/39 155/2/39 156/2/39
f 157/2/40 158/2/40 159/2/40 160/2/40
f 161/2/41 162/2/41 163/2/41 164/2/41
f 165/2/42 166/2/42 167/2/42 168/2/42
g $jack_f
f 169/2/43 170/2/43 171/2/43 172/2/43
f 173/2/44 174/2/44 175/2/44 176/2/44
f 177/2/45 178/2/45 179/2/45 180/2/45
f 181/2/46 182/2/46 183/2/46 184/2/46
f 185/2/47 186/2/47 187/2/47 188/2/47
f 189/2/48 190/2/48 191/2/48 192/2/48
f 193/1/49 194/1/49 195/1/49 196/1/49
f 197/1/50 198/1/50 199/1/50 200/1/50
f 201/1/51 202/1/51 203/1/51 204/1/51
f 205/1/52 206/1/52 207/1/52 208/1/52
f 209/1/53 210/1/53 211/1/53 212/1/53
f 213/1/54 214/1/54 215/1/54 216/1/54
f 217/2/55 218/2/55 219/2/55 220/2/55
f 221/2/56 222/2/56 223/2/56 224/2/56
f 225/2/57 226/2/57 227/2/57 228/2/57
f 229/2/58 230/2/58 231/2/58 232/2/58
f 233/2/59 234/2/59 235/2/59 236/2/59
f 237/2/60 238/2/60 239/2/60 240/2/60
f 241/1/61 242/1/61 243/1/61 244/1/61
f 245/1/62 246/1/62 247/1/62 248/1/62
f 249/1/63 250/1/63 251/1/63 252/1/63
f 253/1/64 254/1/64 255/1/64 256/1/64
f 257/1/65 258/1/65 259/1/65 260/1/65
f 261/1/66 262/1/66 263/1/66 264/1/66
g $jack_b
f 265/2/67 266/2/67 267/2/67 268/2/67
f 269/2/68 270/2/68 271/2/68 272/2/68
f 273/2/69 274/2/69 275/2/69 276/2/69
f 277/2/70 278/2/70 279/2/70 280/2/70
f 281/2/71 282/2/71 283/2/71 284/2/71
f 285/2/72 286/2/72 287/2/72 288/2/72
f 289/1/73 290/1/73 291/1/73 292/1/73
f 293/1/74 294/1/74 295/1/74 296/1/74
f 297/1/75 298/1/75 299/1/75 300/1/75
f 301/1/76 302/1/76 303/1/76 304/1/76
f 305/1/77 306/1/77 307/1/77 308/1/77
f 309/1/78 310/1/78 311/1/78 312/1/78
f 313/2/79 314/2/79 315/2/79 316/2/79
f 317/2/80 318/2/80 319/2/80 320/2/80
f 321/2/81 322/2/81 323/2/81 324/2/81
f 325/2/82 326/2/82 327/2/82 328/2/82
f 329/2/83 330/2/83 331/2/83 332/2/83
f 333/2/84 334/2/84 335/2/84 336/2/84
f 337/1/85 338/1/85 339/1/85 340/1/85
f 341/1/86 342/1/86 343/1/86 344/1/86
f 345/1/87 346/1/87 347/1/87 348/1/87
f 349/1/88 350/1/88 351/1/88 352/1/88
f 353/1/89 354/1/89 355/1/89 356/1/89
f 357/1/90 358/1/90 359/1/90 360/1/90
g $upper
f 361/3/91 362/3/91 363/3/91 364/3/91
f 365/3/92 366/3/92 367/3/92 368/3/92
f 369/3/93 370/3/93 371/3/93 372/3/93
f 373/3/94 374/3/94 375/3/94 376/3/94
f 377/3/95 378/3/95 379/3/95 380/3/95
f 381/3/96 382/3/96 383/3/96 384/3/96
f 385/3/97 386/3/97 387/3/97 388/3/97
f 389/3/98 390/3/98 391/3/98 392/3/98
f 393/3/99 394/3/99 395/3/99 396/3/99
f 397/3/100 398/3/100 399/3/100 400/3/100
f 401/3/101 402/3/101 403/3/101 404/3/101
f 405/3/102 406/3/102 407/3/102 408/3/102
f 409/1/103 410/1/103 411/1/103 412/1/103
f 413/1/104 414/1/104 415/1/104 416/1/104
f 417/1/105 418/1/105 419/1/105 420/1/105
f 421/1/106 422/1/106 423/1/106 424/1/106
f 425/1/107 426/1/107 427/1/107 428/1/107
f 429/1/108 430/1/108 431/1/108 432/1/108
f 433/3/109 434/3/109 435/3/109 436/3/109
f 437/3/110 438/3/110 439/3/110 440/3/110
f 441/3/111 442/3/111 443/3/111 444/3/111
f 445/3/112 446/3/112 447/3/112 448/3/112
f 449/3/113 450/3/113 451/3/113 452/3/113
f 453/3/114 454/3/114 455/3/114 456/3/114
f 457/4/115 458/4/115 459/4/115 460/4/115
f 461/4/116 462/4/116 463/4/116 464/4/116
f 465/4/117 466/4/117 467/4/117 468/4/117
f 469/4/118 470/4/118 471/4/118 472/4/118
f 473/4/119 474/4/119 475/4/119 476/4/119
f 477/4/120 478/4/120 479/4/120 480/4/120
f 481/4/121 482/4/121 483/4/121 484/4/121
f 485/4/122 486/4/122 487/4/122 488/4/122
f 489/4/123 490/4/123 491/4/123 492/4/123
f 493/4/124 494/4/124 495/4/124 496/4/124
f 497/4/125 498/4/125 499/4/125 500/4/125
f 501/4/126 502/4/126 503/4/126 504/4/126
f 505/2/127 506/2/127 507/2/127 508/2/127
f 509/2/128 510/2/128 511/2/128 512/2/128
f 513/2/129 514/2/129 515/2/129 516/2/129
f 517/2/130 518/2/130 519/2/130 520/2/130
f 521/2/131 522/2/131 523/2/131 524/2/131
f 525/2/132 526/2/132 527/2/132 528/2/132
g $mast
f 529/5/133 530/5/133 531/5/133 532/5/133
f 533/5/134 534/5/134 535/5/134 536/5/134
f 537/5/135 538/5/135 539/5/135 540/5/135
f 541/5/136 542/5/136 543/5/136 544/5/136
f 545/5/137 546/5/137 547/5/137 548/5/137
f 549/5/138 550/5/138 551/5/138 552/5/138
f 553/2/139 554/2/139 555/2/139 556/2/139
f 557/2/140 558/2/140 559/2/140 560/2/140
f 561/2/141 562/2/141 563/2/141 564/2/141
f 565/2/142 566/2/142 567/2/142 568/2/142
f 569/2/143 570/2/143 571/2/143 572/2/143
f 573/2/144 574/2/144 575/2/144 576/2/144
f 577/2/145 578/2/145 579/2/145 580/2/145
f 581/2/146 582/2/146 583/2/146 584/2/146
f 585/2/147 586/2/147 587/2/147 588/2/147
f 589/2/148 590/2/148 591/2/148 592/2/148
f 593/2/149 594/2/149 595/2/149 596/2/149
f 597/2/150 598/2/150 599/2/150 600/2/150
g $hammer
f 601/1/151 602/1/151 603/1/151 604/1/151
f 605/1/152 606/1/152 607/1/152 608/1/152
f 609/1/153 610/1/153 611/1/153 612/1/153
f 613/1/154 614/1/154 615/1/154 616/1/154
f 617/1/155 618/1/155 619/1/155 620/1/155
f 621/1/156 622/1/156 623/1/156 624/1/156
f 625/2/157 626/2/157 627/2/157 628/2/157
f 629/2/158 630/2/158 631/2/158 632/2/158
f 633/2/159 634/2/159 635/2/159 636/2/159
f 637/2/160 638/2/160 639/2/160 640/2/160
f 641/2/161 642/2/161 643/2/161 644/2/161
f 645/2/162 646/2/162 647/2/162 648/2/162
