# Rough terrain crane
# Generated by tools/generate_models.py

v 1.10000 0.60000 -3.00000
v 1.10000 1.40000 -3.00000
v 1.10000 1.40000 3.00000
v 1.10000 0.60000 3.00000
v -1.10000 0.60000 3.00000
v -1.10000 1.40000 3.00000
v -1.10000 1.40000 -3.00000
v -1.10000 0.60000 -3.00000
v -1.10000 1.40000 -3.00000
v -1.10000 1.40000 3.00000
v 1.10000 1.40000 3.00000
v 1.10000 1.40000 -3.00000
v -1.10000 0.60000 3.00000
v -1.10000 0.60000 -3.00000
v 1.10000 0.60000 -3.00000
v 1.10000 0.60000 3.00000
v -1.10000 0.60000 3.00000
v 1.10000 0.60000 3.00000
v 1.10000 1.40000 3.00000
v -1.10000 1.40000 3.00000
v 1.10000 0.60000 -3.00000
v -1.10000 0.60000 -3.00000
v -1.10000 1.40000 -3.00000
v 1.10000 1.40000 -3.00000
v 0.50000 0.35000 -3.10000
v 0.50000 0.70000 -3.10000
v 0.50000 0.70000 3.10000
v 0.50000 0.35000 3.10000
v -0.50000 0.35000 3.10000
v -0.50000 0.70000 3.10000
v -0.50000 0.70000 -3.10000
v -0.50000 0.35000 -3.10000
v -0.50000 0.70000 -3.10000
v -0.50000 0.70000 3.10000
v 0.50000 0.70000 3.10000
v 0.50000 0.70000 -3.10000
v -0.50000 0.35000 3.10000
v -0.50000 0.35000 -3.10000
v 0.50000 0.35000 -3.10000
v 0.50000 0.35000 3.10000
v -0.50000 0.35000 3.10000
v 0.50000 0.35000 3.10000
v 0.50000 0.70000 3.10000
v -0.50000 0.70000 3.10000
v 0.50000 0.35000 -3.10000
v -0.50000 0.35000 -3.10000
v -0.50000 0.70000 -3.10000
v 0.50000 0.70000 -3.10000
v 0.95000 0.60000 1.40000
v 0.95000 0.95267 1.51459
v 1.45000 0.95267 1.51459
v 1.45000 0.60000 1.40000
v 0.95000 0.95267 1.51459
v 0.95000 1.17063 1.81459
v 1.45000 1.17063 1.81459
v 1.45000 0.95267 1.51459
v 0.95000 1.17063 1.81459
v 0.95000 1.17063 2.18541
v 1.45000 1.17063 2.18541
v 1.45000 1.17063 1.81459
v 0.95000 1.17063 2.18541
v 0.95000 0.95267 2.48541
v 1.45000 0.95267 2.48541
v 1.45000 1.17063 2.18541
v 0.95000 0.95267 2.48541
v 0.95000 0.60000 2.60000
v 1.45000 0.60000 2.60000
v 1.45000 0.95267 2.48541
v 0.95000 0.60000 2.60000
v 0.95000 0.24733 2.48541
v 1.45000 0.24733 2.48541
v 1.45000 0.60000 2.60000
v 0.95000 0.24733 2.48541
v 0.95000 0.02937 2.18541
v 1.45000 0.02937 2.18541
v 1.45000 0.24733 2.48541
v 0.95000 0.02937 2.18541
v 0.95000 0.02937 1.81459
v 1.45000 0.02937 1.81459
v 1.45000 0.02937 2.18541
v 0.95000 0.02937 1.81459
v 0.95000 0.24733 1.51459
v 1.45000 0.24733 1.51459
v 1.45000 0.02937 1.81459
v 0.95000 0.24733 1.51459
v 0.95000 0.60000 1.40000
v 1.45000 0.60000 1.40000
v 1.45000 0.24733 1.51459
v 0.95000 0.24733 1.51459
v 0.95000 0.02937 1.81459
v 0.95000 0.02937 2.18541
v 0.95000 0.24733 2.48541
v 0.95000 0.60000 2.60000
v 0.95000 0.95267 2.48541
v 0.95000 1.17063 2.18541
v 0.95000 1.17063 1.81459
v 0.95000 0.95267 1.51459
v 0.95000 0.60000 1.40000
v 1.45000 0.60000 1.40000
v 1.45000 0.95267 1.51459
v 1.45000 1.17063 1.81459
v 1.45000 1.17063 2.18541
v 1.45000 0.95267 2.48541
v 1.45000 0.60000 2.60000
v 1.45000 0.24733 2.48541
v 1.45000 0.02937 2.18541
v 1.45000 0.02937 1.81459
v 1.45000 0.24733 1.51459
v -1.45000 0.60000 1.40000
v -1.45000 0.95267 1.51459
v -0.95000 0.95267 1.51459
v -0.95000 0.60000 1.40000
v -1.45000 0.95267 1.51459
v -1.45000 1.17063 1.81459
v -0.95000 1.17063 1.81459
v -0.95000 0.95267 1.51459
v -1.45000 1.17063 1.81459
v -1.45000 1.17063 2.18541
v -0.95000 1.17063 2.18541
v -0.95000 1.17063 1.81459
v -1.45000 1.17063 2.18541
v -1.45000 0.95267 2.48541
v -0.95000 0.95267 2.48541
v -0.95000 1.17063 2.18541
v -1.45000 0.95267 2.48541
v -1.45000 0.60000 2.60000
v -0.95000 0.60000 2.60000
v -0.95000 0.95267 2.48541
v -1.45000 0.60000 2.60000
v -1.45000 0.24733 2.48541
v -0.95000 0.24733 2.48541
v -0.95000 0.60000 2.60000
v -1.45000 0.24733 2.48541
v -1.45000 0.02937 2.18541
v -0.95000 0.02937 2.18541
v -0.95000 0.24733 2.48541
v -1.45000 0.02937 2.18541
v -1.45000 0.02937 1.81459
v -0.95000 0.02937 1.81459
v -0.95000 0.02937 2.18541
v -1.45000 0.02937 1.81459
v -1.45000 0.24733 1.51459
v -0.95000 0.24733 1.51459
v -0.95000 0.02937 1.81459
v -1.45000 0.24733 1.51459
v -1.45000 0.60000 1.40000
v -0.95000 0.60000 1.40000
v -0.95000 0.24733 1.51459
v -1.45000 0.24733 1.51459
v -1.45000 0.02937 1.81459
v -1.45000 0.02937 2.18541
v -1.45000 0.24733 2.48541
v -1.45000 0.60000 2.60000
v -1.45000 0.95267 2.48541
v -1.45000 1.17063 2.18541
v -1.45000 1.17063 1.81459
v -1.45000 0.95267 1.51459
v -1.45000 0.60000 1.40000
v -0.95000 0.60000 1.40000
v -0.95000 0.95267 1.51459
v -0.95000 1.17063 1.81459
v -0.95000 1.17063 2.18541
v -0.95000 0.95267 2.48541
v -0.95000 0.60000 2.60000
v -0.95000 0.24733 2.48541
v -0.95000 0.02937 2.18541
v -0.95000 0.02937 1.81459
v -0.95000 0.24733 1.51459
v 0.95000 0.60000 -2.60000
v 0.95000 0.95267 -2.48541
v 1.45000 0.95267 -2.48541
v 1.45000 0.60000 -2.60000
v 0.95000 0.95267 -2.48541
v 0.95000 1.17063 -2.18541
v 1.45000 1.17063 -2.18541
v 1.45000 0.95267 -2.48541
v 0.95000 1.17063 -2.18541
v 0.95000 1.17063 -1.81459
v 1.45000 1.17063 -1.81459
v 1.45000 1.17063 -2.18541
v 0.95000 1.17063 -1.81459
v 0.95000 0.95267 -1.51459
v 1.45000 0.95267 -1.51459
v 1.45000 1.17063 -1.81459
v 0.95000 0.95267 -1.51459
v 0.95000 0.60000 -1.40000
v 1.45000 0.60000 -1.40000
v 1.45000 0.95267 -1.51459
v 0.95000 0.60000 -1.40000
v 0.95000 0.24733 -1.51459
v 1.45000 0.24733 -1.51459
v 1.45000 0.60000 -1.40000
v 0.95000 0.24733 -1.51459
v 0.95000 0.02937 -1.81459
v 1.45000 0.02937 -1.81459
v 1.45000 0.24733 -1.51459
v 0.95000 0.02937 -1.81459
v 0.95000 0.02937 -2.18541
v 1.45000 0.02937 -2.18541
v 1.45000 0.02937 -1.81459
v 0.95000 0.02937 -2.18541
v 0.95000 0.24733 -2.48541
v 1.45000 0.24733 -2.48541
v 1.45000 0.02937 -2.18541
v 0.95000 0.24733 -2.48541
v 0.95000 0.60000 -2.60000
v 1.45000 0.60000 -2.60000
v 1.45000 0.24733 -2.48541
v 0.95000 0.24733 -2.48541
v 0.95000 0.02937 -2.18541
v 0.95000 0.02937 -1.81459
v 0.95000 0.24733 -1.51459
v 0.95000 0.60000 -1.40000
v 0.95000 0.95267 -1.51459
v 0.95000 1.17063 -1.81459
v 0.95000 1.17063 -2.18541
v 0.95000 0.95267 -2.48541
v 0.95000 0.60000 -2.60000
v 1.45000 0.60000 -2.60000
v 1.45000 0.95267 -2.48541
v 1.45000 1.17063 -2.18541
v 1.45000 1.17063 -1.81459
v 1.45000 0.95267 -1.51459
v 1.45000 0.60000 -1.40000
v 1.45000 0.24733 -1.51459
v 1.45000 0.02937 -1.81459
v 1.45000 0.02937 -2.18541
v 1.45000 0.24733 -2.48541
v -1.45000 0.60000 -2.60000
v -1.45000 0.95267 -2.48541
v -0.95000 0.95267 -2.48541
v -0.95000 0.60000 -2.60000
v -1.45000 0.95267 -2.48541
v -1.45000 1.17063 -2.18541
v -0.95000 1.17063 -2.18541
v -0.95000 0.95267 -2.48541
v -1.45000 1.17063 -2.18541
v -1.45000 1.17063 -1.81459
v -0.95000 1.17063 -1.81459
v -0.95000 1.17063 -2.18541
v -1.45000 1.17063 -1.81459
v -1.45000 0.95267 -1.51459
v -0.95000 0.95267 -1.51459
v -0.95000 1.17063 -1.81459
v -1.45000 0.95267 -1.51459
v -1.45000 0.60000 -1.40000
v -0.95000 0.60000 -1.40000
v -0.95000 0.95267 -1.51459
v -1.45000 0.60000 -1.40000
v -1.45000 0.24733 -1.51459
v -0.95000 0.24733 -1.51459
v -0.95000 0.60000 -1.40000
v -1.45000 0.24733 -1.51459
v -1.45000 0.02937 -1.81459
v -0.95000 0.02937 -1.81459
v -0.95000 0.24733 -1.51459
v -1.45000 0.02937 -1.81459
v -1.45000 0.02937 -2.18541
v -0.95000 0.02937 -2.18541
v -0.95000 0.02937 -1.81459
v -1.45000 0.02937 -2.18541
v -1.45000 0.24733 -2.48541
v -0.95000 0.24733 -2.48541
v -0.95000 0.02937 -2.18541
v -1.45000 0.24733 -2.48541
v -1.45000 0.60000 -2.60000
v -0.95000 0.60000 -2.60000
v -0.95000 0.24733 -2.48541
v -1.45000 0.24733 -2.48541
v -1.45000 0.02937 -2.18541
v -1.45000 0.02937 -1.81459
v -1.45000 0.24733 -1.51459
v -1.45000 0.60000 -1.40000
v -1.45000 0.95267 -1.51459
v -1.45000 1.17063 -1.81459
v -1.45000 1.17063 -2.18541
v -1.45000 0.95267 -2.48541
v -1.45000 0.60000 -2.60000
v -0.95000 0.60000 -2.60000
v -0.95000 0.95267 -2.48541
v -0.95000 1.17063 -2.18541
v -0.95000 1.17063 -1.81459
v -0.95000 0.95267 -1.51459
v -0.95000 0.60000 -1.40000
v -0.95000 0.24733 -1.51459
v -0.95000 0.02937 -1.81459
v -0.95000 0.02937 -2.18541
v -0.95000 0.24733 -2.48541
v 1.30000 0.75000 -2.90000
v 1.30000 1.00000 -2.90000
v 1.30000 1.00000 -2.50000
v 1.30000 0.75000 -2.50000
v 0.10000 0.75000 -2.50000
v 0.10000 1.00000 -2.50000
v 0.10000 1.00000 -2.90000
v 0.10000 0.75000 -2.90000
v 0.10000 1.00000 -2.90000
v 0.10000 1.00000 -2.50000
v 1.30000 1.00000 -2.50000
v 1.30000 1.00000 -2.90000
v 0.10000 0.75000 -2.50000
v 0.10000 0.75000 -2.90000
v 1.30000 0.75000 -2.90000
v 1.30000 0.75000 -2.50000
v 0.10000 0.75000 -2.50000
v 1.30000 0.75000 -2.50000
v 1.30000 1.00000 -2.50000
v 0.10000 1.00000 -2.50000
v 1.30000 0.75000 -2.90000
v 0.10000 0.75000 -2.90000
v 0.10000 1.00000 -2.90000
v 1.30000 1.00000 -2.90000
v 1.45000 0.00000 -3.00000
v 1.45000 0.80000 -3.00000
v 1.45000 0.80000 -2.40000
v 1.45000 0.00000 -2.40000
v 1.15000 0.00000 -2.40000
v 1.15000 0.80000 -2.40000
v 1.15000 0.80000 -3.00000
v 1.15000 0.00000 -3.00000
v 1.15000 0.80000 -3.00000
v 1.15000 0.80000 -2.40000
v 1.45000 0.80000 -2.40000
v 1.45000 0.80000 -3.00000
v 1.15000 0.00000 -2.40000
v 1.15000 0.00000 -3.00000
v 1.45000 0.00000 -3.00000
v 1.45000 0.00000 -2.40000
v 1.15000 0.00000 -2.40000
v 1.45000 0.00000 -2.40000
v 1.45000 0.80000 -2.40000
v 1.15000 0.80000 -2.40000
v 1.45000 0.00000 -3.00000
v 1.15000 0.00000 -3.00000
v 1.15000 0.80000 -3.00000
v 1.45000 0.80000 -3.00000
v 1.30000 0.75000 2.50000
v 1.30000 1.00000 2.50000
v 1.30000 1.00000 2.90000
v 1.30000 0.75000 2.90000
v 0.10000 0.75000 2.90000
v 0.10000 1.00000 2.90000
v 0.10000 1.00000 2.50000
v 0.10000 0.75000 2.50000
v 0.10000 1.00000 2.50000
v 0.10000 1.00000 2.90000
v 1.30000 1.00000 2.90000
v 1.30000 1.00000 2.50000
v 0.10000 0.75000 2.90000
v 0.10000 0.75000 2.50000
v 1.30000 0.75000 2.50000
v 1.30000 0.75000 2.90000
v 0.10000 0.75000 2.90000
v 1.30000 0.75000 2.90000
v 1.30000 1.00000 2.90000
v 0.10000 1.00000 2.90000
v 1.30000 0.75000 2.50000
v 0.10000 0.75000 2.50000
v 0.10000 1.00000 2.50000
v 1.30000 1.00000 2.50000
v 1.45000 0.00000 2.40000
v 1.45000 0.80000 2.40000
v 1.45000 0.80000 3.00000
v 1.45000 0.00000 3.00000
v 1.15000 0.00000 3.00000
v 1.15000 0.80000 3.00000
v 1.15000 0.80000 2.40000
v 1.15000 0.00000 2.40000
v 1.15000 0.80000 2.40000
v 1.15000 0.80000 3.00000
v 1.45000 0.80000 3.00000
v 1.45000 0.80000 2.40000
v 1.15000 0.00000 3.00000
v 1.15000 0.00000 2.40000
v 1.45000 0.00000 2.40000
v 1.45000 0.00000 3.00000
v 1.15000 0.00000 3.00000
v 1.45000 0.00000 3.00000
v 1.45000 0.80000 3.00000
v 1.15000 0.80000 3.00000
v 1.45000 0.00000 2.40000
v 1.15000 0.00000 2.40000
v 1.15000 0.80000 2.40000
v 1.45000 0.80000 2.40000
v -0.10000 0.75000 -2.90000
v -0.10000 1.00000 -2.90000
v -0.10000 1.00000 -2.50000
v -0.10000 0.75000 -2.50000
v -1.30000 0.75000 -2.50000
v -1.30000 1.00000 -2.50000
v -1.30000 1.00000 -2.90000
v -1.30000 0.75000 -2.90000
v -1.30000 1.00000 -2.90000
v -1.30000 1.00000 -2.50000
v -0.10000 1.00000 -2.50000
v -0.10000 1.00000 -2.90000
v -1.30000 0.75000 -2.50000
v -1.30000 0.75000 -2.90000
v -0.10000 0.75000 -2.90000
v -0.10000 0.75000 -2.50000
v -1.30000 0.75000 -2.50000
v -0.10000 0.75000 -2.50000
v -0.10000 1.00000 -2.50000
v -1.30000 1.00000 -2.50000
v -0.10000 0.75000 -2.90000
v -1.30000 0.75000 -2.90000
v -1.30000 1.00000 -2.90000
v -0.10000 1.00000 -2.90000
v -1.15000 0.00000 -3.00000
v -1.15000 0.80000 -3.00000
v -1.15000 0.80000 -2.40000
v -1.15000 0.00000 -2.40000
v -1.45000 0.00000 -2.40000
v -1.45000 0.80000 -2.40000
v -1.45000 0.80000 -3.00000
v -1.45000 0.00000 -3.00000
v -1.45000 0.80000 -3.00000
v -1.45000 0.80000 -2.40000
v -1.15000 0.80000 -2.40000
v -1.15000 0.80000 -3.00000
v -1.45000 0.00000 -2.40000
v -1.45000 0.00000 -3.00000
v -1.15000 0.00000 -3.00000
v -1.15000 0.00000 -2.40000
v -1.45000 0.00000 -2.40000
v -1.15000 0.00000 -2.40000
v -1.15000 0.80000 -2.40000
v -1.45000 0.80000 -2.40000
v -1.15000 0.00000 -3.00000
v -1.45000 0.00000 -3.00000
v -1.45000 0.80000 -3.00000
v -1.15000 0.80000 -3.00000
v -0.10000 0.75000 2.50000
v -0.10000 1.00000 2.50000
v -0.10000 1.00000 2.90000
v -0.10000 0.75000 2.90000
v -1.30000 0.75000 2.90000
v -1.30000 1.00000 2.90000
v -1.30000 1.00000 2.50000
v -1.30000 0.75000 2.50000
v -1.30000 1.00000 2.50000
v -1.30000 1.00000 2.90000
v -0.10000 1.00000 2.90000
v -0.10000 1.00000 2.50000
v -1.30000 0.75000 2.90000
v -1.30000 0.75000 2.50000
v -0.10000 0.75000 2.50000
v -0.10000 0.75000 2.90000
v -1.30000 0.75000 2.90000
v -0.10000 0.75000 2.90000
v -0.10000 1.00000 2.90000
v -1.30000 1.00000 2.90000
v -0.10000 0.75000 2.50000
v -1.30000 0.75000 2.50000
v -1.30000 1.00000 2.50000
v -0.10000 1.00000 2.50000
v -1.15000 0.00000 2.40000
v -1.15000 0.80000 2.40000
v -1.15000 0.80000 3.00000
v -1.15000 0.00000 3.00000
v -1.45000 0.00000 3.00000
v -1.45000 0.80000 3.00000
v -1.45000 0.80000 2.40000
v -1.45000 0.00000 2.40000
v -1.45000 0.80000 2.40000
v -1.45000 0.80000 3.00000
v -1.15000 0.80000 3.00000
v -1.15000 0.80000 2.40000
v -1.45000 0.00000 3.00000
v -1.45000 0.00000 2.40000
v -1.15000 0.00000 2.40000
v -1.15000 0.00000 3.00000
v -1.45000 0.00000 3.00000
v -1.15000 0.00000 3.00000
v -1.15000 0.80000 3.00000
v -1.45000 0.80000 3.00000
v -1.15000 0.00000 2.40000
v -1.45000 0.00000 2.40000
v -1.45000 0.80000 2.40000
v -1.15000 0.80000 2.40000
v 1.00000 1.40000 -2.20000
v 1.00000 1.70000 -2.20000
v 1.00000 1.70000 1.00000
v 1.00000 1.40000 1.00000
v -1.00000 1.40000 1.00000
v -1.00000 1.70000 1.00000
v -1.00000 1.70000 -2.20000
v -1.00000 1.40000 -2.20000
v -1.00000 1.70000 -2.20000
v -1.00000 1.70000 1.00000
v 1.00000 1.70000 1.00000
v 1.00000 1.70000 -2.20000
v -1.00000 1.40000 1.00000
v -1.00000 1.40000 -2.20000
v 1.00000 1.40000 -2.20000
v 1.00000 1.40000 1.00000
v -1.00000 1.40000 1.00000
v 1.00000 1.40000 1.00000
v 1.00000 1.70000 1.00000
v -1.00000 1.70000 1.00000
v 1.00000 1.40000 -2.20000
v -1.00000 1.40000 -2.20000
v -1.00000 1.70000 -2.20000
v 1.00000 1.70000 -2.20000
v 0.20000 1.70000 -2.20000
v 0.20000 2.20000 -2.20000
v 0.20000 2.20000 -1.20000
v 0.20000 1.70000 -1.20000
v -1.00000 1.70000 -1.20000
v -1.00000 2.20000 -1.20000
v -1.00000 2.20000 -2.20000
v -1.00000 1.70000 -2.20000
v -1.00000 2.20000 -2.20000
v -1.00000 2.20000 -1.20000
v 0.20000 2.20000 -1.20000
v 0.20000 2.20000 -2.20000
v -1.00000 1.70000 -1.20000
v -1.00000 1.70000 -2.20000
v 0.20000 1.70000 -2.20000
v 0.20000 1.70000 -1.20000
v -1.00000 1.70000 -1.20000
v 0.20000 1.70000 -1.20000
v 0.20000 2.20000 -1.20000
v -1.00000 2.20000 -1.20000
v 0.20000 1.70000 -2.20000
v -1.00000 1.70000 -2.20000
v -1.00000 2.20000 -2.20000
v 0.20000 2.20000 -2.20000
v 1.10000 1.70000 -0.30000
v 1.10000 2.70000 -0.30000
v 1.10000 2.70000 1.00000
v 1.10000 1.70000 1.00000
v 0.35000 1.70000 1.00000
v 0.35000 2.70000 1.00000
v 0.35000 2.70000 -0.30000
v 0.35000 1.70000 -0.30000
v 0.35000 2.70000 -0.30000
v 0.35000 2.70000 1.00000
v 1.10000 2.70000 1.00000
v 1.10000 2.70000 -0.30000
v 0.35000 1.70000 1.00000
v 0.35000 1.70000 -0.30000
v 1.10000 1.70000 -0.30000
v 1.10000 1.70000 1.00000
v 0.35000 1.70000 1.00000
v 1.10000 1.70000 1.00000
v 1.10000 2.70000 1.00000
v 0.35000 2.70000 1.00000
v 1.10000 1.70000 -0.30000
v 0.35000 1.70000 -0.30000
v 0.35000 2.70000 -0.30000
v 1.10000 2.70000 -0.30000
v 1.05000 2.15000 1.00000
v 1.05000 2.60000 1.00000
v 1.05000 2.60000 1.03000
v 1.05000 2.15000 1.03000
v 0.40000 2.15000 1.03000
v 0.40000 2.60000 1.03000
v 0.40000 2.60000 1.00000
v 0.40000 2.15000 1.00000
v 0.40000 2.60000 1.00000
v 0.40000 2.60000 1.03000
v 1.05000 2.60000 1.03000
v 1.05000 2.60000 1.00000
v 0.40000 2.15000 1.03000
v 0.40000 2.15000 1.00000
v 1.05000 2.15000 1.00000
v 1.05000 2.15000 1.03000
v 0.40000 2.15000 1.03000
v 1.05000 2.15000 1.03000
v 1.05000 2.60000 1.03000
v 0.40000 2.60000 1.03000
v 1.05000 2.15000 1.00000
v 0.40000 2.15000 1.00000
v 0.40000 2.60000 1.00000
v 1.05000 2.60000 1.00000
v 1.13000 2.15000 -0.20000
v 1.13000 2.60000 -0.20000
v 1.13000 2.60000 0.90000
v 1.13000 2.15000 0.90000
v 1.10000 2.15000 0.90000
v 1.10000 2.60000 0.90000
v 1.10000 2.60000 -0.20000
v 1.10000 2.15000 -0.20000
v 1.10000 2.60000 -0.20000
v 1.10000 2.60000 0.90000
v 1.13000 2.60000 0.90000
v 1.13000 2.60000 -0.20000
v 1.10000 2.15000 0.90000
v 1.10000 2.15000 -0.20000
v 1.13000 2.15000 -0.20000
v 1.13000 2.15000 0.90000
v 1.10000 2.15000 0.90000
v 1.13000 2.15000 0.90000
v 1.13000 2.60000 0.90000
v 1.10000 2.60000 0.90000
v 1.13000 2.15000 -0.20000
v 1.10000 2.15000 -0.20000
v 1.10000 2.60000 -0.20000
v 1.13000 2.60000 -0.20000
v 0.45000 1.70000 -2.10000
v 0.45000 2.30000 -2.10000
v 0.45000 2.30000 -1.50000
v 0.45000 1.70000 -1.50000
v -0.45000 1.70000 -1.50000
v -0.45000 2.30000 -1.50000
v -0.45000 2.30000 -2.10000
v -0.45000 1.70000 -2.10000
v -0.45000 2.30000 -2.10000
v -0.45000 2.30000 -1.50000
v 0.45000 2.30000 -1.50000
v 0.45000 2.30000 -2.10000
v -0.45000 1.70000 -1.50000
v -0.45000 1.70000 -2.10000
v 0.45000 1.70000 -2.10000
v 0.45000 1.70000 -1.50000
v -0.45000 1.70000 -1.50000
v 0.45000 1.70000 -1.50000
v 0.45000 2.30000 -1.50000
v -0.45000 2.30000 -1.50000
v 0.45000 1.70000 -2.10000
v -0.45000 1.70000 -2.10000
v -0.45000 2.30000 -2.10000
v 0.45000 2.30000 -2.10000
v 0.35000 1.85000 -2.30000
v 0.35000 2.45000 -2.30000
v 0.35000 2.45000 3.50000
v 0.35000 1.85000 3.50000
v -0.35000 1.85000 3.50000
v -0.35000 2.45000 3.50000
v -0.35000 2.45000 -2.30000
v -0.35000 1.85000 -2.30000
v -0.35000 2.45000 -2.30000
v -0.35000 2.45000 3.50000
v 0.35000 2.45000 3.50000
v 0.35000 2.45000 -2.30000
v -0.35000 1.85000 3.50000
v -0.35000 1.85000 -2.30000
v 0.35000 1.85000 -2.30000
v 0.35000 1.85000 3.50000
v -0.35000 1.85000 3.50000
v 0.35000 1.85000 3.50000
v 0.35000 2.45000 3.50000
v -0.35000 2.45000 3.50000
v 0.35000 1.85000 -2.30000
v -0.35000 1.85000 -2.30000
v -0.35000 2.45000 -2.30000
v 0.35000 2.45000 -2.30000
v 0.28000 1.90000 -1.50000
v 0.28000 2.40000 -1.50000
v 0.28000 2.40000 4.20000
v 0.28000 1.90000 4.20000
v -0.28000 1.90000 4.20000
v -0.28000 2.40000 4.20000
v -0.28000 2.40000 -1.50000
v -0.28000 1.90000 -1.50000
v -0.28000 2.40000 -1.50000
v -0.28000 2.40000 4.20000
v 0.28000 2.40000 4.20000
v 0.28000 2.40000 -1.50000
v -0.28000 1.90000 4.20000
v -0.28000 1.90000 -1.50000
v 0.28000 1.90000 -1.50000
v 0.28000 1.90000 4.20000
v -0.28000 1.90000 4.20000
v 0.28000 1.90000 4.20000
v 0.28000 2.40000 4.20000
v -0.28000 2.40000 4.20000
v 0.28000 1.90000 -1.50000
v -0.28000 1.90000 -1.50000
v -0.28000 2.40000 -1.50000
v 0.28000 2.40000 -1.50000
v 0.22000 1.95000 -1.00000
v 0.22000 2.35000 -1.00000
v 0.22000 2.35000 4.90000
v 0.22000 1.95000 4.90000
v -0.22000 1.95000 4.90000
v -0.22000 2.35000 4.90000
v -0.22000 2.35000 -1.00000
v -0.22000 1.95000 -1.00000
v -0.22000 2.35000 -1.00000
v -0.22000 2.35000 4.90000
v 0.22000 2.35000 4.90000
v 0.22000 2.35000 -1.00000
v -0.22000 1.95000 4.90000
v -0.22000 1.95000 -1.00000
v 0.22000 1.95000 -1.00000
v 0.22000 1.95000 4.90000
v -0.22000 1.95000 4.90000
v 0.22000 1.95000 4.90000
v 0.22000 2.35000 4.90000
v -0.22000 2.35000 4.90000
v 0.22000 1.95000 -1.00000
v -0.22000 1.95000 -1.00000
v -0.22000 2.35000 -1.00000
v 0.22000 2.35000 -1.00000
v 0.25000 1.75000 4.90000
v 0.25000 2.45000 4.90000
v 0.25000 2.45000 5.20000
v 0.25000 1.75000 5.20000
v -0.25000 1.75000 5.20000
v -0.25000 2.45000 5.20000
v -0.25000 2.45000 4.90000
v -0.25000 1.75000 4.90000
v -0.25000 2.45000 4.90000
v -0.25000 2.45000 5.20000
v 0.25000 2.45000 5.20000
v 0.25000 2.45000 4.90000
v -0.25000 1.75000 5.20000
v -0.25000 1.75000 4.90000
v 0.25000 1.75000 4.90000
v 0.25000 1.75000 5.20000
v -0.25000 1.75000 5.20000
v 0.25000 1.75000 5.20000
v 0.25000 2.45000 5.20000
v -0.25000 2.45000 5.20000
v 0.25000 1.75000 4.90000
v -0.25000 1.75000 4.90000
v -0.25000 2.45000 4.90000
v 0.25000 2.45000 4.90000
v 0.03000 0.75000 5.02000
v 0.03000 1.75000 5.02000
v 0.03000 1.75000 5.08000
v 0.03000 0.75000 5.08000
v -0.03000 0.75000 5.08000
v -0.03000 1.75000 5.08000
v -0.03000 1.75000 5.02000
v -0.03000 0.75000 5.02000
v -0.03000 1.75000 5.02000
v -0.03000 1.75000 5.08000
v 0.03000 1.75000 5.08000
v 0.03000 1.75000 5.02000
v -0.03000 0.75000 5.08000
v -0.03000 0.75000 5.02000
v 0.03000 0.75000 5.02000
v 0.03000 0.75000 5.08000
v -0.03000 0.75000 5.08000
v 0.03000 0.75000 5.08000
v 0.03000 1.75000 5.08000
v -0.03000 1.75000 5.08000
v 0.03000 0.75000 5.02000
v -0.03000 0.75000 5.02000
v -0.03000 1.75000 5.02000
v 0.03000 1.75000 5.02000
v 0.20000 1.20000 4.85000
v 0.20000 1.75000 4.85000
v 0.20000 1.75000 5.25000
v 0.20000 1.20000 5.25000
v -0.20000 1.20000 5.25000
v -0.20000 1.75000 5.25000
v -0.20000 1.75000 4.85000
v -0.20000 1.20000 4.85000
v -0.20000 1.75000 4.85000
v -0.20000 1.75000 5.25000
v 0.20000 1.75000 5.25000
v 0.20000 1.75000 4.85000
v -0.20000 1.20000 5.25000
v -0.20000 1.20000 4.85000
v 0.20000 1.20000 4.85000
v 0.20000 1.20000 5.25000
v -0.20000 1.20000 5.25000
v 0.20000 1.20000 5.25000
v 0.20000 1.75000 5.25000
v -0.20000 1.75000 5.25000
v 0.20000 1.20000 4.85000
v -0.20000 1.20000 4.85000
v -0.20000 1.75000 4.85000
v 0.20000 1.75000 4.85000
v 0.05000 0.85000 5.00000
v 0.05000 1.20000 5.00000
v 0.05000 1.20000 5.10000
v 0.05000 0.85000 5.10000
v -0.05000 0.85000 5.10000
v -0.05000 1.20000 5.10000
v -0.05000 1.20000 5.00000
v -0.05000 0.85000 5.00000
v -0.05000 1.20000 5.00000
v -0.05000 1.20000 5.10000
v 0.05000 1.20000 5.10000
v 0.05000 1.20000 5.00000
v -0.05000 0.85000 5.10000
v -0.05000 0.85000 5.00000
v 0.05000 0.85000 5.00000
v 0.05000 0.85000 5.10000
v -0.05000 0.85000 5.10000
v 0.05000 0.85000 5.10000
v 0.05000 1.20000 5.10000
v -0.05000 1.20000 5.10000
v 0.05000 0.85000 5.00000
v -0.05000 0.85000 5.00000
v -0.05000 1.20000 5.00000
v 0.05000 1.20000 5.00000
vt 0.06250 0.93750
vt 0.18750 0.93750
vt 0.31250 0.93750
vt 0.43750 0.93750
vt 0.56250 0.93750
vt 0.81250 0.93750
vt 0.68750 0.93750
vn 1.00000 0.00000 0.00000
vn -1.00000 0.00000 0.00000
vn 0.00000 1.00000 0.00000
vn 0.00000 -1.00000 0.00000
vn 0.00000 0.00000 1.00000
vn 0.00000 0.00000 -1.00000
vn 1.00000 0.00000 0.00000
vn -1.00000 0.00000 0.00000
vn 0.00000 1.00000 0.00000
vn 0.00000 -1.00000 0.00000
vn 0.00000 0.00000 1.00000
vn 0.00000 0.00000 -1.00000
vn 0.00000 0.30902 -0.95106
vn 0.00000 0.80902 -0.58779
vn 0.00000 1.00000 -0.00000
vn 0.00000 0.80902 0.58779
vn 0.00000 0.30902 0.95106
vn 0.00000 -0.30902 0.95106
vn 0.00000 -0.80902 0.58779
vn 0.00000 -1.00000 0.00000
vn 0.00000 -0.80902 -0.58779
vn 0.00000 -0.30902 -0.95106
vn -1.00000 0.00000 0.00000
vn 1.00000 0.00000 0.00000
vn 0.00000 0.30902 -0.95106
vn 0.00000 0.80902 -0.58779
vn 0.00000 1.00000 -0.00000
vn 0.00000 0.80902 0.58779
vn 0.00000 0.30902 0.95106
vn 0.00000 -0.30902 0.95106
vn 0.00000 -0.80902 0.58779
vn 0.00000 -1.00000 0.00000
vn 0.00000 -0.80902 -0.58779
vn 0.00000 -0.30902 -0.95106
vn -1.00000 0.00000 0.00000
vn 1.00000 0.00000 0.00000
vn 0.00000 0.30902 -0.95106
vn 0.00000 0.80902 -0.58779
vn 0.00000 1.00000 -0.00000
vn 0.00000 0.80902 0.58779
vn 0.00000 0.30902 0.95106
vn 0.00000 -0.30902 0.95106
vn 0.00000 -0.80902 0.58779
vn 0.00000 -1.00000 0.00000
vn 0.00000 -0.80902 -0.58779
vn 0.00000 -0.30902 -0.95106
vn -1.00000 0.00000 0.00000
vn 1.00000 0.00000 0.00000
vn 0.00000 0.30902 -0.95106
vn 0.00000 0.80902 -0.58779
vn 0.00000 1.00000 -0.00000
vn 0.00000 0.80902 0.58779
vn 0.00000 0.30902 0.95106
vn 0.00000 -0.30902 0.95106
vn 0.00000 -0.80902 0.58779
vn 0.00000 -1.00000 0.00000
vn 0.00000 -0.80902 -0.58779
vn 0.00000 -0.30902 -0.95106
vn -1.00000 0.00000 0.00000
vn 1.00000 0.00000 0.00000
vn 1.00000 0.00000 0.00000
vn -1.00000 0.00000 0.00000
vn 0.00000 1.00000 0.00000
vn 0.00000 -1.00000 0.00000
vn 0.00000 0.00000 1.00000
vn 0.00000 0.00000 -1.00000
vn 1.00000 0.00000 0.00000
vn -1.00000 0.00000 0.00000
vn 0.00000 1.00000 0.00000
vn 0.00000 -1.00000 0.00000
vn 0.00000 0.00000 1.00000
vn 0.00000 0.00000 -1.00000
vn 1.00000 0.00000 0.00000
vn -1.00000 0.00000 0.00000
vn 0.00000 1.00000 0.00000
vn 0.00000 -1.00000 0.00000
vn 0.00000 0.00000 1.00000
vn 0.00000 0.00000 -1.00000
vn 1.00000 0.00000 0.00000
vn -1.00000 0.00000 0.00000
vn 0.00000 1.00000 0.00000
vn 0.00000 -1.00000 0.00000
vn 0.00000 0.00000 1.00000
vn 0.00000 0.00000 -1.00000
vn 1.00000 0.00000 0.00000
vn -1.00000 0.00000 0.00000
vn 0.00000 1.00000 0.00000
vn 0.00000 -1.00000 0.00000
vn 0.00000 0.00000 1.00000
vn 0.00000 0.00000 -1.00000
vn 1.00000 0.00000 0.00000
vn -1.00000 0.00000 0.00000
vn 0.00000 1.00000 0.00000
vn 0.00000 -1.00000 0.00000
vn 0.00000 0.00000 1.00000
vn 0.00000 0.00000 -1.00000
vn 1.00000 0.00000 0.00000
vn -1.00000 0.00000 0.00000
vn 0.00000 1.00000 0.00000
vn 0.00000 -1.00000 0.00000
vn 0.00000 0.00000 1.00000
vn 0.00000 0.00000 -1.00000
vn 1.00000 0.00000 0.00000
vn -1.00000 0.00000 0.00000
vn 0.00000 1.00000 0.00000
vn 0.00000 -1.00000 0.00000
vn 0.00000 0.00000 1.00000
vn 0.00000 0.00000 -1.00000
vn 1.00000 0.00000 0.00000
vn -1.00000 0.00000 0.00000
vn 0.00000 1.00000 0.00000
vn 0.00000 -1.00000 0.00000
vn 0.00000 0.00000 1.00000
vn 0.00000 0.00000 -1.00000
vn 1.00000 0.00000 0.00000
vn -1.00000 0.00000 0.00000
vn 0.00000 1.00000 0.00000
vn 0.00000 -1.00000 0.00000
vn 0.00000 0.00000 1.00000
vn 0.00000 0.00000 -1.00000
vn 1.00000 0.00000 0.00000
vn -1.00000 0.00000 0.00000
vn 0.00000 1.00000 0.00000
vn 0.00000 -1.00000 0.00000
vn 0.00000 0.00000 1.00000
vn 0.00000 0.00000 -1.00000
vn 1.00000 0.00000 0.00000
vn -1.00000 0.00000 0.00000
vn 0.00000 1.00000 0.00000
vn 0.00000 -1.00000 0.00000
vn 0.00000 0.00000 1.00000
vn 0.00000 0.00000 -1.00000
vn 1.00000 0.00000 0.00000
vn -1.00000 0.00000 0.00000
vn 0.00000 1.00000 0.00000
vn 0.00000 -1.00000 0.00000
vn 0.00000 0.00000 1.00000
vn 0.00000 0.00000 -1.00000
vn 1.00000 0.00000 0.00000
vn -1.00000 0.00000 0.00000
vn 0.00000 1.00000 0.00000
vn 0.00000 -1.00000 0.00000
vn 0.00000 0.00000 1.00000
vn 0.00000 0.00000 -1.00000
vn 1.00000 0.00000 0.00000
vn -1.00000 0.00000 0.00000
vn 0.00000 1.00000 0.00000
vn 0.00000 -1.00000 0.00000
vn 0.00000 0.00000 1.00000
vn 0.00000 0.00000 -1.00000
vn 1.00000 0.00000 0.00000
vn -1.00000 0.00000 0.00000
vn 0.00000 1.00000 0.00000
vn 0.00000 -1.00000 0.00000
vn 0.00000 0.00000 1.00000
vn 0.00000 0.00000 -1.00000
vn 1.00000 0.00000 0.00000
vn -1.00000 0.00000 0.00000
vn 0.00000 1.00000 0.00000
vn 0.00000 -1.00000 0.00000
vn 0.00000 0.00000 1.00000
vn 0.00000 0.00000 -1.00000
vn 1.00000 0.00000 0.00000
vn -1.00000 0.00000 0.00000
vn 0.00000 1.00000 0.00000
vn 0.00000 -1.00000 0.00000
vn 0.00000 0.00000 1.00000
vn 0.00000 0.00000 -1.00000
vn 1.00000 0.00000 0.00000
vn -1.00000 0.00000 0.00000
vn 0.00000 1.00000 0.00000
vn 0.00000 -1.00000 0.00000
vn 0.00000 0.00000 1.00000
vn 0.00000 0.00000 -1.00000
vn 1.00000 0.00000 0.00000
vn -1.00000 0.00000 0.00000
vn 0.00000 1.00000 0.00000
vn 0.00000 -1.00000 0.00000
vn 0.00000 0.00000 1.00000
vn 0.00000 0.00000 -1.00000
vn 1.00000 0.00000 0.00000
vn -1.00000 0.00000 0.00000
vn 0.00000 1.00000 0.00000
vn 0.00000 -1.00000 0.00000
vn 0.00000 0.00000 1.00000
vn 0.00000 0.00000 -1.00000
g body
f 1/1/1 2/1/1 3/1/1 4/1/1
f 5/1/2 6/1/2 7/1/2 8/1/2
f 9/1/3 10/1/3 11/1/3 12/1/3
f 13/1/4 14/1/4 15/1/4 16/1/4
f 17/1/5 18/1/5 19/1/5 20/1/5
f 21/1/6 22/1/6 23/1/6 24/1/6
f 25/2/7 26/2/7 27/2/7 28/2/7
f 29/2/8 30/2/8 31/2/8 32/2/8
f 33/2/9 34/2/9 35/2/9 36/2/9
f 37/2/10 38/2/10 39/2/10 40/2/10
f 41/2/11 42/2/11 43/2/11 44/2/11
f 45/2/12 46/2/12 47/2/12 48/2/12
g $wheel0
f 49/3/13 50/3/13 51/3/13 52/3/13
f 53/2/14 54/2/14 55/2/14 56/2/14
f 57/3/15 58/3/15 59/3/15 60/3/15
f 61/2/16 62/2/16 63/2/16 64/2/16
f 65/3/17 66/3/17 67/3/17 68/3/17
f 69/2/18 70/2/18 71/2/18 72/2/18
f 73/3/19 74/3/19 75/3/19 76/3/19
f 77/2/20 78/2/20 79/2/20 80/2/20
f 81/3/21 82/3/21 83/3/21 84/3/21
f 85/2/22 86/2/22 87/2/22 88/2/22
f 89/3/23 90/3/23 91/3/23 92/3/23 93/3/23 94/3/23 95/3/23 96/3/23 97/3/23 98/3/23
f 99/3/24 100/3/24 101/3/24 102/3/24 103/3/24 104/3/24 105/3/24 106/3/24 107/3/24 108/3/24
g $wheel1
f 109/3/25 110/3/25 111/3/25 112/3/25
f 113/2/26 114/2/26 115/2/26 116/2/26
f 117/3/27 118/3/27 119/3/27 120/3/27
f 121/2/28 122/2/28 123/2/28 124/2/28
f 125/3/29 126/3/29 127/3/29 128/3/29
f 129/2/30 130/2/30 131/2/30 132/2/30
f 133/3/31 134/3/31 135/3/31 136/3/31
f 137/2/32 138/2/32 139/2/32 140/2/32
f 141/3/33 142/3/33 143/3/33 144/3/33
f 145/2/34 146/2/34 147/2/34 148/2/34
f 149/3/35 150/3/35 151/3/35 152/3/35 153/3/35 154/3/35 155/3/35 156/3/35 157/3/35 158/3/35
f 159/3/36 160/3/36 161/3/36 162/3/36 163/3/36 164/3/36 165/3/36 166/3/36 167/3/36 168/3/36
g $wheel2
f 169/3/37 170/3/37 171/3/37 172/3/37
f 173/2/38 174/2/38 175/2/38 176/2/38
f 177/3/39 178/3/39 179/3/39 180/3/39
f 181/2/40 182/2/40 183/2/40 184/2/40
f 185/3/41 186/3/41 187/3/41 188/3/41
f 189/2/42 190/2/42 191/2/42 192/2/42
f 193/3/43 194/3/43 195/3/43 196/3/43
f 197/2/44 198/2/44 199/2/44 200/2/44
f 201/3/45 202/3/45 203/3/45 204/3/45
f 205/2/46 206/2/46 207/2/46 208/2/46
f 209/3/47 210/3/47 211/3/47 212/3/47 213/3/47 214/3/47 215/3/47 216/3/47 217/3/47 218/3/47
f 219/3/48 220/3/48 221/3/48 222/3/48 223/3/48 224/3/48 225/3/48 226/3/48 227/3/48 228/3/48
g $wheel3
f 229/3/49 230/3/49 231/3/49 232/3/49
f 233/2/50 234/2/50 235/2/50 236/2/50
f 237/3/51 238/3/51 239/3/51 240/3/51
f 241/2/52 242/2/52 243/2/52 244/2/52
f 245/3/53 246/3/53 247/3/53 248/3/53
f 249/2/54 250/2/54 251/2/54 252/2/54
f 253/3/55 254/3/55 255/3/55 256/3/55
f 257/2/56 258/2/56 259/2/56 260/2/56
f 261/3/57 262/3/57 263/3/57 264/3/57
f 265/2/58 266/2/58 267/2/58 268/2/58
f 269/3/59 270/3/59 271/3/59 272/3/59 273/3/59 274/3/59 275/3/59 276/3/59 277/3/59 278/3/59
f 279/3/60 280/3/60 281/3/60 282/3/60 283/3/60 284/3/60 285/3/60 286/3/60 287/3/60 288/3/60
g $outrigger_l
f 289/4/61 290/4/61 291/4/61 292/4/61
f 293/4/62 294/4/62 295/4/62 296/4/62
f 297/4/63 298/4/63 299/4/63 300/4/63
f 301/4/64 302/4/64 303/4/64 304/4/64
f 305/4/65 306/4/65 307/4/65 308/4/65
f 309/4/66 310/4/66 311/4/66 312/4/66
f 313/2/67 314/2/67 315/2/67 316/2/67
f 317/2/68 318/2/68 319/2/68 320/2/68
f 321/2/69 322/2/69 323/2/69 324/2/69
f 325/2/70 326/2/70 327/2/70 328/2/70
f 329/2/71 330/2/71 331/2/71 332/2/71
f 333/2/72 334/2/72 335/2/72 336/2/72
f 337/4/73 338/4/73 339/4/73 340/4/73
f 341/4/74 342/4/74 343/4/74 344/4/74
f 345/4/75 346/4/75 347/4/75 348/4/75
f 349/4/76 350/4/76 351/4/76 352/4/76
f 353/4/77 354/4/77 355/4/77 356/4/77
f 357/4/78 358/4/78 359/4/78 360/4/78
f 361/2/79 362/2/79 363/2/79 364/2/79
f 365/2/80 366/2/80 367/2/80 368/2/80
f 369/2/81 370/2/81 371/2/81 372/2/81
f 373/2/82 374/2/82 375/2/82 376/2/82
f 377/2/83 378/2/83 379/2/83 380/2/83
f 381/2/84 382/2/84 383/2/84 384/2/84
g $outrigger_r
f 385/4/85 386/4/85 387/4/85 388/4/85
f 389/4/86 390/4/86 391/4/86 392/4/86
f 393/4/87 394/4/87 395/4/87 396/4/87
f 397/4/88 398/4/88 399/4/88 400/4/88
f 401/4/89 402/4/89 403/4/89 404/4/89
f 405/4/90 406/4/90 407/4/90 408/4/90
f 409/2/91 410/2/91 411/2/91 412/2/91
f 413/2/92 414/2/92 415/2/92 416/2/92
f 417/2/93 418/2/93 419/2/93 420/2/93
f 421/2/94 422/2/94 423/2/94 424/2/94
f 425/2/95 426/2/95 427/2/95 428/2/95
f 429/2/96 430/2/96 431/2/96 432/2/96
f 433/4/97 434/4/97 435/4/97 436/4/97
f 437/4/98 438/4/98 439/4/98 440/4/98
f 441/4/99 442/4/99 443/4/99 444/4/99
f 445/4/100 446/4/100 447/4/100 448/4/100
f 449/4/101 450/4/101 451/4/101 452/4/101
f 453/4/102 454/4/102 455/4/102 456/4/102
f 457/2/103 458/2/103 459/2/103 460/2/103
f 461/2/104 462/2/104 463/2/104 464/2/104
f 465/2/105 466/2/105 467/2/105 468/2/105
f 469/2/106 470/2/106 471/2/106 472/2/106
f 473/2/107 474/2/107 475/2/107 476/2/107
f 477/2/108 478/2/108 479/2/108 480/2/108
g $upper
f 481/1/109 482/1/109 483/1/109 484/1/109
f 485/1/110 486/1/110 487/1/110 488/1/110
f 489/1/111 490/1/111 491/1/111 492/1/111
f 493/1/112 494/1/112 495/1/112 496/1/112
f 497/1/113 498/1/113 499/1/113 500/1/113
f 501/1/114 502/1/114 503/1/114 504/1/114
f 505/2/115 506/2/115 507/2/115 508/2/115
f 509/2/116 510/2/116 511/2/116 512/2/116
f 513/2/117 514/2/117 515/2/117 516/2/117
f 517/2/118 518/2/118 519/2/118 520/2/118
f 521/2/119 522/2/119 523/2/119 524/2/119
f 525/2/120 526/2/120 527/2/120 528/2/120
f 529/1/121 530/1/121 531/1/121 532/1/121
f 533/1/122 534/1/122 535/1/122 536/1/122
f 537/1/123 538/1/123 539/1/123 540/1/123
f 541/1/124 542/1/124 543/1/124 544/1/124
f 545/1/125 546/1/125 547/1/125 548/1/125
f 549/1/126 550/1/126 551/1/126 552/1/126
f 553/5/127 554/5/127 555/5/127 556/5/127
f 557/5/128 558/5/128 559/5/128 560/5/128
f 561/5/129 562/5/129 563/5/129 564/5/129
f 565/5/130 566/5/130 567/5/130 568/5/130
f 569/5/131 570/5/131 571/5/131 572/5/131
f 573/5/132 574/5/132 575/5/132 576/5/132
f 577/5/133 578/5/133 579/5/133 580/5/133
f 581/5/134 582/5/134 583/5/134 584/5/134
f 585/5/135 586/5/135 587/5/135 588/5/135
f 589/5/136 590/5/136 591/5/136 592/5/136
f 593/5/137 594/5/137 595/5/137 596/5/137
f 597/5/138 598/5/138 599/5/138 600/5/138
f 601/4/139 602/4/139 603/4/139 604/4/139
f 605/4/140 606/4/140 607/4/140 608/4/140
f 609/4/141 610/4/141 611/4/141 612/4/141
f 613/4/142 614/4/142 615/4/142 616/4/142
f 617/4/143 618/4/143 619/4/143 620/4/143
f 621/4/144 622/4/144 623/4/144 624/4/144
g $boom
f 625/1/145 626/1/145 627/1/145 628/1/145
f 629/1/146 630/1/146 631/1/146 632/1/146
f 633/1/147 634/1/147 635/1/147 636/1/147
f 637/1/148 638/1/148 639/1/148 640/1/148
f 641/1/149 642/1/149 643/1/149 644/1/149
f 645/1/150 646/1/150 647/1/150 648/1/150
g $boom2
f 649/6/151 650/6/151 651/6/151 652/6/151
f 653/6/152 654/6/152 655/6/152 656/6/152
f 657/6/153 658/6/153 659/6/153 660/6/153
f 661/6/154 662/6/154 663/6/154 664/6/154
f 665/6/155 666/6/155 667/6/155 668/6/155
f 669/6/156 670/6/156 671/6/156 672/6/156
g $boom3
f 673/1/157 674/1/157 675/1/157 676/1/157
f 677/1/158 678/1/158 679/1/158 680/1/158
f 681/1/159 682/1/159 683/1/159 684/1/159
f 685/1/160 686/1/160 687/1/160 688/1/160
f 689/1/161 690/1/161 691/1/161 692/1/161
f 693/1/162 694/1/162 695/1/162 696/1/162
f 697/4/163 698/4/163 699/4/163 700/4/163
f 701/4/164 702/4/164 703/4/164 704/4/164
f 705/4/165 706/4/165 707/4/165 708/4/165
f 709/4/166 710/4/166 711/4/166 712/4/166
f 713/4/167 714/4/167 715/4/167 716/4/167
f 717/4/168 718/4/168 719/4/168 720/4/168
g $rope
f 721/2/169 722/2/169 723/2/169 724/2/169
f 725/2/170 726/2/170 727/2/170 728/2/170
f 729/2/171 730/2/171 731/2/171 732/2/171
f 733/2/172 734/2/172 735/2/172 736/2/172
f 737/2/173 738/2/173 739/2/173 740/2/173
f 741/2/174 742/2/174 743/2/174 744/2/174
g $hook
f 745/7/175 746/7/175 747/7/175 748/7/175
f 749/7/176 750/7/176 751/7/176 752/7/176
f 753/7/177 754/7/177 755/7/177 756/7/177
f 757/7/178 758/7/178 759/7/178 760/7/178
f 761/7/179 762/7/179 763/7/179 764/7/179
f 765/7/180 766/7/180 767/7/180 768/7/180
f 769/4/181 770/4/181 771/4/181 772/4/181
f 773/4/182 774/4/182 775/4/182 776/4/182
f 777/4/183 778/4/183 779/4/183 780/4/183
f 781/4/184 782/4/184 783/4/184 784/4/184
f 785/4/185 786/4/185 787/4/185 788/4/185
f 789/4/186 790/4/186 791/4/186 792/4/186
