# Tractor head
# Generated by tools/generate_models.py

v 0.60000 0.50000 -2.80000
v 0.60000 1.00000 -2.80000
v 0.60000 1.00000 3.20000
v 0.60000 0.50000 3.20000
v -0.60000 0.50000 3.20000
v -0.60000 1.00000 3.20000
v -0.60000 1.00000 -2.80000
v -0.60000 0.50000 -2.80000
v -0.60000 1.00000 -2.80000
v -0.60000 1.00000 3.20000
v 0.60000 1.00000 3.20000
v 0.60000 1.00000 -2.80000
v -0.60000 0.50000 3.20000
v -0.60000 0.50000 -2.80000
v 0.60000 0.50000 -2.80000
v 0.60000 0.50000 3.20000
v -0.60000 0.50000 3.20000
v 0.60000 0.50000 3.20000
v 0.60000 1.00000 3.20000
v -0.60000 1.00000 3.20000
v 0.60000 0.50000 -2.80000
v -0.60000 0.50000 -2.80000
v -0.60000 1.00000 -2.80000
v 0.60000 1.00000 -2.80000
v 1.20000 1.00000 1.20000
v 1.20000 3.20000 1.20000
v 1.20000 3.20000 3.20000
v 1.20000 1.00000 3.20000
v -1.20000 1.00000 3.20000
v -1.20000 3.20000 3.20000
v -1.20000 3.20000 1.20000
v -1.20000 1.00000 1.20000
v -1.20000 3.20000 1.20000
v -1.20000 3.20000 3.20000
v 1.20000 3.20000 3.20000
v 1.20000 3.20000 1.20000
v -1.20000 1.00000 3.20000
v -1.20000 1.00000 1.20000
v 1.20000 1.00000 1.20000
v 1.20000 1.00000 3.20000
v -1.20000 1.00000 3.20000
v 1.20000 1.00000 3.20000
v 1.20000 3.20000 3.20000
v -1.20000 3.20000 3.20000
v 1.20000 1.00000 1.20000
v -1.20000 1.00000 1.20000
v -1.20000 3.20000 1.20000
v 1.20000 3.20000 1.20000
v 1.15000 1.99000 3.20000
v 1.15000 3.10000 3.20000
v 1.15000 3.10000 3.23000
v 1.15000 1.99000 3.23000
v -1.15000 1.99000 3.23000
v -1.15000 3.10000 3.23000
v -1.15000 3.10000 3.20000
v -1.15000 1.99000 3.20000
v -1.15000 3.10000 3.20000
v -1.15000 3.10000 3.23000
v 1.15000 3.10000 3.23000
v 1.15000 3.10000 3.20000
v -1.15000 1.99000 3.23000
v -1.15000 1.99000 3.20000
v 1.15000 1.99000 3.20000
v 1.15000 1.99000 3.23000
v -1.15000 1.99000 3.23000
v 1.15000 1.99000 3.23000
v 1.15000 3.10000 3.23000
v -1.15000 3.10000 3.23000
v 1.15000 1.99000 3.20000
v -1.15000 1.99000 3.20000
v -1.15000 3.10000 3.20000
v 1.15000 3.10000 3.20000
v 1.23000 1.99000 1.30000
v 1.23000 3.10000 1.30000
v 1.23000 3.10000 3.10000
v 1.23000 1.99000 3.10000
v 1.20000 1.99000 3.10000
v 1.20000 3.10000 3.10000
v 1.20000 3.10000 1.30000
v 1.20000 1.99000 1.30000
v 1.20000 3.10000 1.30000
v 1.20000 3.10000 3.10000
v 1.23000 3.10000 3.10000
v 1.23000 3.10000 1.30000
v 1.20000 1.99000 3.10000
v 1.20000 1.99000 1.30000
v 1.23000 1.99000 1.30000
v 1.23000 1.99000 3.10000
v 1.20000 1.99000 3.10000
v 1.23000 1.99000 3.10000
v 1.23000 3.10000 3.10000
v 1.20000 3.10000 3.10000
v 1.23000 1.99000 1.30000
v 1.20000 1.99000 1.30000
v 1.20000 3.10000 1.30000
v 1.23000 3.10000 1.30000
v 0.75000 1.00000 -1.80000
v 0.75000 1.10000 -1.80000
v 0.75000 1.10000 -0.60000
v 0.75000 1.00000 -0.60000
v -0.75000 1.00000 -0.60000
v -0.75000 1.10000 -0.60000
v -0.75000 1.10000 -1.80000
v -0.75000 1.00000 -1.80000
v -0.75000 1.10000 -1.80000
v -0.75000 1.10000 -0.60000
v 0.75000 1.10000 -0.60000
v 0.75000 1.10000 -1.80000
v -0.75000 1.00000 -0.60000
v -0.75000 1.00000 -1.80000
v 0.75000 1.00000 -1.80000
v 0.75000 1.00000 -0.60000
v -0.75000 1.00000 -0.60000
v 0.75000 1.00000 -0.60000
v 0.75000 1.10000 -0.60000
v -0.75000 1.10000 -0.60000
v 0.75000 1.00000 -1.80000
v -0.75000 1.00000 -1.80000
v -0.75000 1.10000 -1.80000
v 0.75000 1.10000 -1.80000
v 0.87500 0.55000 1.65000
v 0.87500 0.87328 1.75504
v 1.32500 0.87328 1.75504
v 1.32500 0.55000 1.65000
v 0.87500 0.87328 1.75504
v 0.87500 1.07308 2.03004
v 1.32500 1.07308 2.03004
v 1.32500 0.87328 1.75504
v 0.87500 1.07308 2.03004
v 0.87500 1.07308 2.36996
v 1.32500 1.07308 2.36996
v 1.32500 1.07308 2.03004
v 0.87500 1.07308 2.36996
v 0.87500 0.87328 2.64496
v 1.32500 0.87328 2.64496
v 1.32500 1.07308 2.36996
v 0.87500 0.87328 2.64496
v 0.87500 0.55000 2.75000
v 1.32500 0.55000 2.75000
v 1.32500 0.87328 2.64496
v 0.87500 0.55000 2.75000
v 0.87500 0.22672 2.64496
v 1.32500 0.22672 2.64496
v 1.32500 0.55000 2.75000
v 0.87500 0.22672 2.64496
v 0.87500 0.02692 2.36996
v 1.32500 0.02692 2.36996
v 1.32500 0.22672 2.64496
v 0.87500 0.02692 2.36996
v 0.87500 0.02692 2.03004
v 1.32500 0.02692 2.03004
v 1.32500 0.02692 2.36996
v 0.87500 0.02692 2.03004
v 0.87500 0.22672 1.75504
v 1.32500 0.22672 1.75504
v 1.32500 0.02692 2.03004
v 0.87500 0.22672 1.75504
v 0.87500 0.55000 1.65000
v 1.32500 0.55000 1.65000
v 1.32500 0.22672 1.75504
v 0.87500 0.22672 1.75504
v 0.87500 0.02692 2.03004
v 0.87500 0.02692 2.36996
v 0.87500 0.22672 2.64496
v 0.87500 0.55000 2.75000
v 0.87500 0.87328 2.64496
v 0.87500 1.07308 2.36996
v 0.87500 1.07308 2.03004
v 0.87500 0.87328 1.75504
v 0.87500 0.55000 1.65000
v 1.32500 0.55000 1.65000
v 1.32500 0.87328 1.75504
v 1.32500 1.07308 2.03004
v 1.32500 1.07308 2.36996
v 1.32500 0.87328 2.64496
v 1.32500 0.55000 2.75000
v 1.32500 0.22672 2.64496
v 1.32500 0.02692 2.36996
v 1.32500 0.02692 2.03004
v 1.32500 0.22672 1.75504
v -1.32500 0.55000 1.65000
v -1.32500 0.87328 1.75504
v -0.87500 0.87328 1.75504
v -0.87500 0.55000 1.65000
v -1.32500 0.87328 1.75504
v -1.32500 1.07308 2.03004
v -0.87500 1.07308 2.03004
v -0.87500 0.87328 1.75504
v -1.32500 1.07308 2.03004
v -1.32500 1.07308 2.36996
v -0.87500 1.07308 2.36996
v -0.87500 1.07308 2.03004
v -1.32500 1.07308 2.36996
v -1.32500 0.87328 2.64496
v -0.87500 0.87328 2.64496
v -0.87500 1.07308 2.36996
v -1.32500 0.87328 2.64496
v -1.32500 0.55000 2.75000
v -0.87500 0.55000 2.75000
v -0.87500 0.87328 2.64496
v -1.32500 0.55000 2.75000
v -1.32500 0.22672 2.64496
v -0.87500 0.22672 2.64496
v -0.87500 0.55000 2.75000
v -1.32500 0.22672 2.64496
v -1.32500 0.02692 2.36996
v -0.87500 0.02692 2.36996
v -0.87500 0.22672 2.64496
v -1.32500 0.02692 2.36996
v -1.32500 0.02692 2.03004
v -0.87500 0.02692 2.03004
v -0.87500 0.02692 2.36996
v -1.32500 0.02692 2.03004
v -1.32500 0.22672 1.75504
v -0.87500 0.22672 1.75504
v -0.87500 0.02692 2.03004
v -1.32500 0.22672 1.75504
v -1.32500 0.55000 1.65000
v -0.87500 0.55000 1.65000
v -0.87500 0.22672 1.75504
v -1.32500 0.22672 1.75504
v -1.32500 0.02692 2.03004
v -1.32500 0.02692 2.36996
v -1.32500 0.22672 2.64496
v -1.32500 0.55000 2.75000
v -1.32500 0.87328 2.64496
v -1.32500 1.07308 2.36996
v -1.32500 1.07308 2.03004
v -1.32500 0.87328 1.75504
v -1.32500 0.55000 1.65000
v -0.87500 0.55000 1.65000
v -0.87500 0.87328 1.75504
v -0.87500 1.07308 2.03004
v -0.87500 1.07308 2.36996
v -0.87500 0.87328 2.64496
v -0.87500 0.55000 2.75000
v -0.87500 0.22672 2.64496
v -0.87500 0.02692 2.36996
v -0.87500 0.02692 2.03004
v -0.87500 0.22672 1.75504
v 0.87500 0.55000 -1.45000
v 0.87500 0.87328 -1.34496
v 1.32500 0.87328 -1.34496
v 1.32500 0.55000 -1.45000
v 0.87500 0.87328 -1.34496
v 0.87500 1.07308 -1.06996
v 1.32500 1.07308 -1.06996
v 1.32500 0.87328 -1.34496
v 0.87500 1.07308 -1.06996
v 0.87500 1.07308 -0.73004
v 1.32500 1.07308 -0.73004
v 1.32500 1.07308 -1.06996
v 0.87500 1.07308 -0.73004
v 0.87500 0.87328 -0.45504
v 1.32500 0.87328 -0.45504
v 1.32500 1.07308 -0.73004
v 0.87500 0.87328 -0.45504
v 0.87500 0.55000 -0.35000
v 1.32500 0.55000 -0.35000
v 1.32500 0.87328 -0.45504
v 0.87500 0.55000 -0.35000
v 0.87500 0.22672 -0.45504
v 1.32500 0.22672 -0.45504
v 1.32500 0.55000 -0.35000
v 0.87500 0.22672 -0.45504
v 0.87500 0.02692 -0.73004
v 1.32500 0.02692 -0.73004
v 1.32500 0.22672 -0.45504
v 0.87500 0.02692 -0.73004
v 0.87500 0.02692 -1.06996
v 1.32500 0.02692 -1.06996
v 1.32500 0.02692 -0.73004
v 0.87500 0.02692 -1.06996
v 0.87500 0.22672 -1.34496
v 1.32500 0.22672 -1.34496
v 1.32500 0.02692 -1.06996
v 0.87500 0.22672 -1.34496
v 0.87500 0.55000 -1.45000
v 1.32500 0.55000 -1.45000
v 1.32500 0.22672 -1.34496
v 0.87500 0.22672 -1.34496
v 0.87500 0.02692 -1.06996
v 0.87500 0.02692 -0.73004
v 0.87500 0.22672 -0.45504
v 0.87500 0.55000 -0.35000
v 0.87500 0.87328 -0.45504
v 0.87500 1.07308 -0.73004
v 0.87500 1.07308 -1.06996
v 0.87500 0.87328 -1.34496
v 0.87500 0.55000 -1.45000
v 1.32500 0.55000 -1.45000
v 1.32500 0.87328 -1.34496
v 1.32500 1.07308 -1.06996
v 1.32500 1.07308 -0.73004
v 1.32500 0.87328 -0.45504
v 1.32500 0.55000 -0.35000
v 1.32500 0.22672 -0.45504
v 1.32500 0.02692 -0.73004
v 1.32500 0.02692 -1.06996
v 1.32500 0.22672 -1.34496
v -1.32500 0.55000 -1.45000
v -1.32500 0.87328 -1.34496
v -0.87500 0.87328 -1.34496
v -0.87500 0.55000 -1.45000
v -1.32500 0.87328 -1.34496
v -1.32500 1.07308 -1.06996
v -0.87500 1.07308 -1.06996
v -0.87500 0.87328 -1.34496
v -1.32500 1.07308 -1.06996
v -1.32500 1.07308 -0.73004
v -0.87500 1.07308 -0.73004
v -0.87500 1.07308 -1.06996
v -1.32500 1.07308 -0.73004
v -1.32500 0.87328 -0.45504
v -0.87500 0.87328 -0.45504
v -0.87500 1.07308 -0.73004
v -1.32500 0.87328 -0.45504
v -1.32500 0.55000 -0.35000
v -0.87500 0.55000 -0.35000
v -0.87500 0.87328 -0.45504
v -1.32500 0.55000 -0.35000
v -1.32500 0.22672 -0.45504
v -0.87500 0.22672 -0.45504
v -0.87500 0.55000 -0.35000
v -1.32500 0.22672 -0.45504
v -1.32500 0.02692 -0.73004
v -0.87500 0.02692 -0.73004
v -0.87500 0.22672 -0.45504
v -1.32500 0.02692 -0.73004
v -1.32500 0.02692 -1.06996
v -0.87500 0.02692 -1.06996
v -0.87500 0.02692 -0.73004
v -1.32500 0.02692 -1.06996
v -1.32500 0.22672 -1.34496
v -0.87500 0.22672 -1.34496
v -0.87500 0.02692 -1.06996
v -1.32500 0.22672 -1.34496
v -1.32500 0.55000 -1.45000
v -0.87500 0.55000 -1.45000
v -0.87500 0.22672 -1.34496
v -1.32500 0.22672 -1.34496
v -1.32500 0.02692 -1.06996
v -1.32500 0.02692 -0.73004
v -1.32500 0.22672 -0.45504
v -1.32500 0.55000 -0.35000
v -1.32500 0.87328 -0.45504
v -1.32500 1.07308 -0.73004
v -1.32500 1.07308 -1.06996
v -1.32500 0.87328 -1.34496
v -1.32500 0.55000 -1.45000
v -0.87500 0.55000 -1.45000
v -0.87500 0.87328 -1.34496
v -0.87500 1.07308 -1.06996
v -0.87500 1.07308 -0.73004
v -0.87500 0.87328 -0.45504
v -0.87500 0.55000 -0.35000
v -0.87500 0.22672 -0.45504
v -0.87500 0.02692 -0.73004
v -0.87500 0.02692 -1.06996
v -0.87500 0.22672 -1.34496
v 0.87500 0.55000 -2.65000
v 0.87500 0.87328 -2.54496
v 1.32500 0.87328 -2.54496
v 1.32500 0.55000 -2.65000
v 0.87500 0.87328 -2.54496
v 0.87500 1.07308 -2.26996
v 1.32500 1.07308 -2.26996
v 1.32500 0.87328 -2.54496
v 0.87500 1.07308 -2.26996
v 0.87500 1.07308 -1.93004
v 1.32500 1.07308 -1.93004
v 1.32500 1.07308 -2.26996
v 0.87500 1.07308 -1.93004
v 0.87500 0.87328 -1.65504
v 1.32500 0.87328 -1.65504
v 1.32500 1.07308 -1.93004
v 0.87500 0.87328 -1.65504
v 0.87500 0.55000 -1.55000
v 1.32500 0.55000 -1.55000
v 1.32500 0.87328 -1.65504
v 0.87500 0.55000 -1.55000
v 0.87500 0.22672 -1.65504
v 1.32500 0.22672 -1.65504
v 1.32500 0.55000 -1.55000
v 0.87500 0.22672 -1.65504
v 0.87500 0.02692 -1.93004
v 1.32500 0.02692 -1.93004
v 1.32500 0.22672 -1.65504
v 0.87500 0.02692 -1.93004
v 0.87500 0.02692 -2.26996
v 1.32500 0.02692 -2.26996
v 1.32500 0.02692 -1.93004
v 0.87500 0.02692 -2.26996
v 0.87500 0.22672 -2.54496
v 1.32500 0.22672 -2.54496
v 1.32500 0.02692 -2.26996
v 0.87500 0.22672 -2.54496
v 0.87500 0.55000 -2.65000
v 1.32500 0.55000 -2.65000
v 1.32500 0.22672 -2.54496
v 0.87500 0.22672 -2.54496
v 0.87500 0.02692 -2.26996
v 0.87500 0.02692 -1.93004
v 0.87500 0.22672 -1.65504
v 0.87500 0.55000 -1.55000
v 0.87500 0.87328 -1.65504
v 0.87500 1.07308 -1.93004
v 0.87500 1.07308 -2.26996
v 0.87500 0.87328 -2.54496
v 0.87500 0.55000 -2.65000
v 1.32500 0.55000 -2.65000
v 1.32500 0.87328 -2.54496
v 1.32500 1.07308 -2.26996
v 1.32500 1.07308 -1.93004
v 1.32500 0.87328 -1.65504
v 1.32500 0.55000 -1.55000
v 1.32500 0.22672 -1.65504
v 1.32500 0.02692 -1.93004
v 1.32500 0.02692 -2.26996
v 1.32500 0.22672 -2.54496
v -1.32500 0.55000 -2.65000
v -1.32500 0.87328 -2.54496
v -0.87500 0.87328 -2.54496
v -0.87500 0.55000 -2.65000
v -1.32500 0.87328 -2.54496
v -1.32500 1.07308 -2.26996
v -0.87500 1.07308 -2.26996
v -0.87500 0.87328 -2.54496
v -1.32500 1.07308 -2.26996
v -1.32500 1.07308 -1.93004
v -0.87500 1.07308 -1.93004
v -0.87500 1.07308 -2.26996
v -1.32500 1.07308 -1.93004
v -1.32500 0.87328 -1.65504
v -0.87500 0.87328 -1.65504
v -0.87500 1.07308 -1.93004
v -1.32500 0.87328 -1.65504
v -1.32500 0.55000 -1.55000
v -0.87500 0.55000 -1.55000
v -0.87500 0.87328 -1.65504
v -1.32500 0.55000 -1.55000
v -1.32500 0.22672 -1.65504
v -0.87500 0.22672 -1.65504
v -0.87500 0.55000 -1.55000
v -1.32500 0.22672 -1.65504
v -1.32500 0.02692 -1.93004
v -0.87500 0.02692 -1.93004
v -0.87500 0.22672 -1.65504
v -1.32500 0.02692 -1.93004
v -1.32500 0.02692 -2.26996
v -0.87500 0.02692 -2.26996
v -0.87500 0.02692 -1.93004
v -1.32500 0.02692 -2.26996
v -1.32500 0.22672 -2.54496
v -0.87500 0.22672 -2.54496
v -0.87500 0.02692 -2.26996
v -1.32500 0.22672 -2.54496
v -1.32500 0.55000 -2.65000
v -0.87500 0.55000 -2.65000
v -0.87500 0.22672 -2.54496
v -1.32500 0.22672 -2.54496
v -1.32500 0.02692 -2.26996
v -1.32500 0.02692 -1.93004
v -1.32500 0.22672 -1.65504
v -1.32500 0.55000 -1.55000
v -1.32500 0.87328 -1.65504
v -1.32500 1.07308 -1.93004
v -1.32500 1.07308 -2.26996
v -1.32500 0.87328 -2.54496
v -1.32500 0.55000 -2.65000
v -0.87500 0.55000 -2.65000
v -0.87500 0.87328 -2.54496
v -0.87500 1.07308 -2.26996
v -0.87500 1.07308 -1.93004
v -0.87500 0.87328 -1.65504
v -0.87500 0.55000 -1.55000
v -0.87500 0.22672 -1.65504
v -0.87500 0.02692 -1.93004
v -0.87500 0.02692 -2.26996
v -0.87500 0.22672 -2.54496
vt 0.18750 0.93750
vt 0.18750 0.81250
vt 0.56250 0.93750
vt 0.43750 0.93750
vt 0.31250 0.93750
vn 1.00000 0.00000 0.00000
vn -1.00000 0.00000 0.00000
vn 0.00000 1.00000 0.00000
vn 0.00000 -1.00000 0.00000
vn 0.00000 0.00000 1.00000
vn 0.00000 0.00000 -1.00000
vn 1.00000 0.00000 0.00000
vn -1.00000 0.00000 0.00000
vn 0.00000 1.00000 0.00000
vn 0.00000 -1.00000 0.00000
vn 0.00000 0.00000 1.00000
vn 0.00000 0.00000 -1.00000
vn 1.00000 0.00000 0.00000
vn -1.00000 0.00000 0.00000
vn 0.00000 1.00000 0.00000
vn 0.00000 -1.00000 0.00000
vn 0.00000 0.00000 1.00000
vn 0.00000 0.00000 -1.00000
vn 1.00000 0.00000 0.00000
vn -1.00000 0.00000 0.00000
vn 0.00000 1.00000 0.00000
vn 0.00000 -1.00000 0.00000
vn 0.00000 0.00000 1.00000
vn 0.00000 0.00000 -1.00000
vn 1.00000 0.00000 0.00000
vn -1.00000 0.00000 0.00000
vn 0.00000 1.00000 0.00000
vn 0.00000 -1.00000 0.00000
vn 0.00000 0.00000 1.00000
vn 0.00000 0.00000 -1.00000
vn 0.00000 0.30902 -0.95106
vn 0.00000 0.80902 -0.58779
vn 0.00000 1.00000 0.00000
vn 0.00000 0.80902 0.58779
vn 0.00000 0.30902 0.95106
vn 0.00000 -0.30902 0.95106
vn 0.00000 -0.80902 0.58779
vn 0.00000 -1.00000 0.00000
vn 0.00000 -0.80902 -0.58779
vn 0.00000 -0.30902 -0.95106
vn -1.00000 0.00000 0.00000
vn 1.00000 0.00000 0.00000
vn 0.00000 0.30902 -0.95106
vn 0.00000 0.80902 -0.58779
vn 0.00000 1.00000 0.00000
vn 0.00000 0.80902 0.58779
vn 0.00000 0.30902 0.95106
vn 0.00000 -0.30902 0.95106
vn 0.00000 -0.80902 0.58779
vn 0.00000 -1.00000 0.00000
vn 0.00000 -0.80902 -0.58779
vn 0.00000 -0.30902 -0.95106
vn -1.00000 0.00000 0.00000
vn 1.00000 0.00000 0.00000
vn 0.00000 0.30902 -0.95106
vn 0.00000 0.80902 -0.58779
vn 0.00000 1.00000 0.00000
vn 0.00000 0.80902 0.58779
vn 0.00000 0.30902 0.95106
vn 0.00000 -0.30902 0.95106
vn 0.00000 -0.80902 0.58779
vn 0.00000 -1.00000 0.00000
vn 0.00000 -0.80902 -0.58779
vn 0.00000 -0.30902 -0.95106
vn -1.00000 0.00000 0.00000
vn 1.00000 0.00000 0.00000
vn 0.00000 0.30902 -0.95106
vn 0.00000 0.80902 -0.58779
vn 0.00000 1.00000 0.00000
vn 0.00000 0.80902 0.58779
vn 0.00000 0.30902 0.95106
vn 0.00000 -0.30902 0.95106
vn 0.00000 -0.80902 0.58779
vn 0.00000 -1.00000 0.00000
vn 0.00000 -0.80902 -0.58779
vn 0.00000 -0.30902 -0.95106
vn -1.00000 0.00000 0.00000
vn 1.00000 0.00000 0.00000
vn 0.00000 0.30902 -0.95106
vn 0.00000 0.80902 -0.58779
vn 0.00000 1.00000 0.00000
vn 0.00000 0.80902 0.58779
vn 0.00000 0.30902 0.95106
vn 0.00000 -0.30902 0.95106
vn 0.00000 -0.80902 0.58779
vn 0.00000 -1.00000 0.00000
vn 0.00000 -0.80902 -0.58779
vn 0.00000 -0.30902 -0.95106
vn -1.00000 0.00000 0.00000
vn 1.00000 0.00000 0.00000
vn 0.00000 0.30902 -0.95106
vn 0.00000 0.80902 -0.58779
vn 0.00000 1.00000 0.00000
vn 0.00000 0.80902 0.58779
vn 0.00000 0.30902 0.95106
vn 0.00000 -0.30902 0.95106
vn 0.00000 -0.80902 0.58779
vn 0.00000 -1.00000 0.00000
vn 0.00000 -0.80902 -0.58779
vn 0.00000 -0.30902 -0.95106
vn -1.00000 0.00000 0.00000
vn 1.00000 0.00000 0.00000
g body
f 1/1/1 2/1/1 3/1/1 4/1/1
f 5/1/2 6/1/2 7/1/2 8/1/2
f 9/1/3 10/1/3 11/1/3 12/1/3
f 13/1/4 14/1/4 15/1/4 16/1/4
f 17/1/5 18/1/5 19/1/5 20/1/5
f 21/1/6 22/1/6 23/1/6 24/1/6
f 25/2/7 26/2/7 27/2/7 28/2/7
f 29/2/8 30/2/8 31/2/8 32/2/8
f 33/2/9 34/2/9 35/2/9 36/2/9
f 37/2/10 38/2/10 39/2/10 40/2/10
f 41/2/11 42/2/11 43/2/11 44/2/11
f 45/2/12 46/2/12 47/2/12 48/2/12
f 49/3/13 50/3/13 51/3/13 52/3/13
f 53/3/14 54/3/14 55/3/14 56/3/14
f 57/3/15 58/3/15 59/3/15 60/3/15
f 61/3/16 62/3/16 63/3/16 64/3/16
f 65/3/17 66/3/17 67/3/17 68/3/17
f 69/3/18 70/3/18 71/3/18 72/3/18
f 73/3/19 74/3/19 75/3/19 76/3/19
f 77/3/20 78/3/20 79/3/20 80/3/20
f 81/3/21 82/3/21 83/3/21 84/3/21
f 85/3/22 86/3/22 87/3/22 88/3/22
f 89/3/23 90/3/23 91/3/23 92/3/23
f 93/3/24 94/3/24 95/3/24 96/3/24
f 97/4/25 98/4/25 99/4/25 100/4/25
f 101/4/26 102/4/26 103/4/26 104/4/26
f 105/4/27 106/4/27 107/4/27 108/4/27
f 109/4/28 110/4/28 111/4/28 112/4/28
f 113/4/29 114/4/29 115/4/29 116/4/29
f 117/4/30 118/4/30 119/4/30 120/4/30
g $wheel0
f 121/5/31 122/5/31 123/5/31 124/5/31
f 125/1/32 126/1/32 127/1/32 128/1/32
f 129/5/33 130/5/33 131/5/33 132/5/33
f 133/1/34 134/1/34 135/1/34 136/1/34
f 137/5/35 138/5/35 139/5/35 140/5/35
f 141/1/36 142/1/36 143/1/36 144/1/36
f 145/5/37 146/5/37 147/5/37 148/5/37
f 149/1/38 150/1/38 151/1/38 152/1/38
f 153/5/39 154/5/39 155/5/39 156/5/39
f 157/1/40 158/1/40 159/1/40 160/1/40
f 161/5/41 162/5/41 163/5/41 164/5/41 165/5/41 166/5/41 167/5/41 168/5/41 169/5/41 170/5/41
f 171/5/42 172/5/42 173/5/42 174/5/42 175/5/42 176/5/42 177/5/42 178/5/42 179/5/42 180/5/42
g $wheel1
f 181/5/43 182/5/43 183/5/43 184/5/43
f 185/1/44 186/1/44 187/1/44 188/1/44
f 189/5/45 190/5/45 191/5/45 192/5/45
f 193/1/46 194/1/46 195/1/46 196/1/46
f 197/5/47 198/5/47 199/5/47 200/5/47
f 201/1/48 202/1/48 203/1/48 204/1/48
f 205/5/49 206/5/49 207/5/49 208/5/49
f 209/1/50 210/1/50 211/1/50 212/1/50
f 213/5/51 214/5/51 215/5/51 216/5/51
f 217/1/52 218/1/52 219/1/52 220/1/52
f 221/5/53 222/5/53 223/5/53 224/5/53 225/5/53 226/5/53 227/5/53 228/5/53 229/5/53 230/5/53
f 231/5/54 232/5/54 233/5/54 234/5/54 235/5/54 236/5/54 237/5/54 238/5/54 239/5/54 240/5/54
g $wheel2
f 241/5/55 242/5/55 243/5/55 244/5/55
f 245/1/56 246/1/56 247/1/56 248/1/56
f 249/5/57 250/5/57 251/5/57 252/5/57
f 253/1/58 254/1/58 255/1/58 256/1/58
f 257/5/59 258/5/59 259/5/59 260/5/59
f 261/1/60 262/1/60 263/1/60 264/1/60
f 265/5/61 266/5/61 267/5/61 268/5/61
f 269/1/62 270/1/62 271/1/62 272/1/62
f 273/5/63 274/5/63 275/5/63 276/5/63
f 277/1/64 278/1/64 279/1/64 280/1/64
f 281/5/65 282/5/65 283/5/65 284/5/65 285/5/65 286/5/65 287/5/65 288/5/65 289/5/65 290/5/65
f 291/5/66 292/5/66 293/5/66 294/5/66 295/5/66 296/5/66 297/5/66 298/5/66 299/5/66 300/5/66
g $wheel3
f 301/5/67 302/5/67 303/5/67 304/5/67
f 305/1/68 306/1/68 307/1/68 308/1/68
f 309/5/69 310/5/69 311/5/69 312/5/69
f 313/1/70 314/1/70 315/1/70 316/1/70
f 317/5/71 318/5/71 319/5/71 320/5/71
f 321/1/72 322/1/72 323/1/72 324/1/72
f 325/5/73 326/5/73 327/5/73 328/5/73
f 329/1/74 330/1/74 331/1/74 332/1/74
f 333/5/75 334/5/75 335/5/75 336/5/75
f 337/1/76 338/1/76 339/1/76 340/1/76
f 341/5/77 342/5/77 343/5/77 344/5/77 345/5/77 346/5/77 347/5/77 348/5/77 349/5/77 350/5/77
f 351/5/78 352/5/78 353/5/78 354/5/78 355/5/78 356/5/78 357/5/78 358/5/78 359/5/78 360/5/78
g $wheel4
f 361/5/79 362/5/79 363/5/79 364/5/79
f 365/1/80 366/1/80 367/1/80 368/1/80
f 369/5/81 370/5/81 371/5/81 372/5/81
f 373/1/82 374/1/82 375/1/82 376/1/82
f 377/5/83 378/5/83 379/5/83 380/5/83
f 381/1/84 382/1/84 383/1/84 384/1/84
f 385/5/85 386/5/85 387/5/85 388/5/85
f 389/1/86 390/1/86 391/1/86 392/1/86
f 393/5/87 394/5/87 395/5/87 396/5/87
f 397/1/88 398/1/88 399/1/88 400/1/88
f 401/5/89 402/5/89 403/5/89 404/5/89 405/5/89 406/5/89 407/5/89 408/5/89 409/5/89 410/5/89
f 411/5/90 412/5/90 413/5/90 414/5/90 415/5/90 416/5/90 417/5/90 418/5/90 419/5/90 420/5/90
g $wheel5
f 421/5/91 422/5/91 423/5/91 424/5/91
f 425/1/92 426/1/92 427/1/92 428/1/92
f 429/5/93 430/5/93 431/5/93 432/5/93
f 433/1/94 434/1/94 435/1/94 436/1/94
f 437/5/95 438/5/95 439/5/95 440/5/95
f 441/1/96 442/1/96 443/1/96 444/1/96
f 445/5/97 446/5/97 447/5/97 448/5/97
f 449/1/98 450/1/98 451/1/98 452/1/98
f 453/5/99 454/5/99 455/5/99 456/5/99
f 457/1/100 458/1/100 459/1/100 460/1/100
f 461/5/101 462/5/101 463/5/101 464/5/101 465/5/101 466/5/101 467/5/101 468/5/101 469/5/101 470/5/101
f 471/5/102 472/5/102 473/5/102 474/5/102 475/5/102 476/5/102 477/5/102 478/5/102 479/5/102 480/5/102
